<svg width="115" height="75" viewBox="0 0 115 75" fill="none" xmlns="http://www.w3.org/2000/svg">
<path d="M3.20935 50.9432V56.0912L8.32135 50.9432H10.1213L4.50535 56.5412L10.3013 62.9492H8.46535L3.55135 57.4412L3.20935 57.7832V62.9492H1.87735V50.9432H3.20935ZM12.1078 50.9432H13.4398V62.9492H12.1078V50.9432ZM17.8695 62.9492H16.5375V50.4392L25.8975 60.2492V50.9432H27.2295V63.4892L17.8695 53.6792V62.9492ZM36.5108 58.1792V56.9192H41.5148V57.2072C41.5148 58.6952 41.1308 59.9612 40.3628 61.0052C39.2948 62.4452 37.8068 63.1652 35.8988 63.1652C34.1228 63.1652 32.6408 62.5712 31.4528 61.3832C30.2648 60.1832 29.6708 58.7072 29.6708 56.9552C29.6708 55.2032 30.2648 53.7332 31.4528 52.5452C32.6528 51.3452 34.1468 50.7452 35.9348 50.7452C37.3508 50.7452 38.5748 51.1412 39.6068 51.9332C40.1348 52.3412 40.5968 52.8152 40.9928 53.3552L40.0028 54.2552C39.6548 53.7632 39.2768 53.3492 38.8688 53.0132C38.0408 52.3412 37.0688 52.0052 35.9528 52.0052C34.5248 52.0052 33.3488 52.4792 32.4248 53.4272C31.5008 54.3752 31.0388 55.5572 31.0388 56.9732C31.0388 58.0052 31.2908 58.9112 31.7948 59.6912C32.2988 60.4592 32.9108 61.0232 33.6308 61.3832C34.3628 61.7312 35.1248 61.9052 35.9168 61.9052C36.7088 61.9052 37.4288 61.7252 38.0768 61.3652C38.7368 60.9932 39.2408 60.5012 39.5888 59.8892C39.8888 59.3732 40.0508 58.8032 40.0748 58.1792H36.5108ZM43.1314 59.7812V58.4492H47.0914V59.7812H43.1314ZM55.7819 52.6172L54.7199 53.3192C54.5279 52.9472 54.2939 52.6472 54.0179 52.4192C53.6579 52.1432 53.2079 52.0052 52.6679 52.0052C52.0679 52.0052 51.5819 52.1792 51.2099 52.5272C50.8379 52.8632 50.6519 53.3072 50.6519 53.8592C50.6519 54.2672 50.8019 54.6152 51.1019 54.9032C51.3419 55.1432 51.7619 55.3952 52.3619 55.6592L53.5139 56.1632C54.3659 56.5352 54.9839 56.9132 55.3679 57.2972C55.9439 57.8732 56.2319 58.5992 56.2319 59.4752C56.2319 60.5672 55.8719 61.4552 55.1519 62.1392C54.4319 62.8232 53.5259 63.1652 52.4339 63.1652C51.3539 63.1652 50.4839 62.8412 49.8239 62.1932C49.2839 61.6652 48.9119 60.9572 48.7079 60.0692L50.0039 59.7092C50.0879 60.3092 50.3279 60.8192 50.7239 61.2392C51.1679 61.6832 51.7439 61.9052 52.4519 61.9052C53.2199 61.9052 53.8139 61.6772 54.2339 61.2212C54.6539 60.7532 54.8639 60.1892 54.8639 59.5292C54.8639 58.9532 54.6659 58.4852 54.2699 58.1252C54.0419 57.9092 53.5619 57.6332 52.8299 57.2972L51.7499 56.7932C51.0179 56.4572 50.4839 56.1272 50.1479 55.8032C49.5959 55.2752 49.3199 54.6212 49.3199 53.8412C49.3199 52.9172 49.6319 52.1732 50.2559 51.6092C50.8919 51.0332 51.7019 50.7452 52.6859 50.7452C53.4299 50.7452 54.0719 50.9252 54.6119 51.2852C55.1039 51.6092 55.4939 52.0532 55.7819 52.6172ZM58.6723 50.9432H60.0043V62.9492H58.6723V50.9432ZM70.77 50.9432L64.218 61.6892H70.59V62.9492H61.986L68.538 52.2032H62.832V50.9432H70.77ZM78.9803 50.9432V52.2032H74.0843V55.7672H78.8363V57.0272H74.0843V61.6892H78.9803V62.9492H72.7523V50.9432H78.9803ZM85.6371 50.9432H87.7971C88.9971 50.9432 89.9151 51.1952 90.5511 51.6992C91.2711 52.2512 91.6311 53.0792 91.6311 54.1832C91.6311 55.2152 91.2351 56.0012 90.4431 56.5412C91.2111 56.7332 91.7811 57.1232 92.1531 57.7112C92.5371 58.2872 92.7291 58.9052 92.7291 59.5652C92.7291 60.1052 92.6091 60.6032 92.3691 61.0592C92.1411 61.5152 91.8531 61.8812 91.5051 62.1572C90.8331 62.6852 89.8731 62.9492 88.6251 62.9492H85.6371V50.9432ZM86.9691 52.2032V56.2172H87.9771C88.1571 56.2172 88.3311 56.2112 88.4991 56.1992C88.6671 56.1752 88.8651 56.1272 89.0931 56.0552C89.3331 55.9712 89.5371 55.8632 89.7051 55.7312C89.8851 55.5992 90.0351 55.4012 90.1551 55.1372C90.2751 54.8732 90.3351 54.5672 90.3351 54.2192C90.3351 53.8472 90.2631 53.5292 90.1191 53.2652C89.9751 52.9892 89.8131 52.7852 89.6331 52.6532C89.4531 52.5212 89.2371 52.4192 88.9851 52.3472C88.7331 52.2752 88.5411 52.2332 88.4091 52.2212C88.2771 52.2092 88.1451 52.2032 88.0131 52.2032H86.9691ZM86.9691 57.4052V61.6892H88.4991C89.4711 61.6892 90.1731 61.5212 90.6051 61.1852C91.1331 60.8012 91.3971 60.2492 91.3971 59.5292C91.3971 58.7252 91.0551 58.1372 90.3711 57.7652C89.9391 57.5252 89.2611 57.4052 88.3371 57.4052H86.9691ZM101.41 50.9432V52.2032H96.514V55.7672H101.266V57.0272H96.514V61.6892H101.41V62.9492H95.182V50.9432H101.41ZM103.866 62.9492V50.9432H106.314C108.162 50.9432 109.638 51.4112 110.742 52.3472C112.11 53.4872 112.794 55.0232 112.794 56.9552C112.794 58.8272 112.092 60.3632 110.688 61.5632C110.112 62.0552 109.494 62.4092 108.834 62.6252C108.174 62.8412 107.328 62.9492 106.296 62.9492H103.866ZM105.198 52.2032V61.6892H106.368C107.796 61.6892 108.942 61.3292 109.806 60.6092C110.886 59.6972 111.426 58.4792 111.426 56.9552C111.426 55.5152 110.964 54.3632 110.04 53.4992C109.116 52.6352 107.892 52.2032 106.368 52.2032H105.198Z" fill="#313D2D"/>
<g clip-path="url(#clip0_1306_7731)">
<path d="M89.3293 28.2267H86.9263V32.4456H82.6112V28.2013H30.0403V32.4492H25.7234V28.1741H23.3293V15.7155H24.7284C24.636 14.0683 25.2214 12.8842 26.7818 12.3175C26.7818 9.51528 26.7818 6.73662 26.7818 3.95977C26.7836 1.6751 28.0051 0.449219 30.2849 0.449219C47.6304 0.449219 64.9758 0.449219 82.3212 0.449219C84.6373 0.449219 85.8461 1.66783 85.8461 4.00155C85.8461 6.58588 85.8534 9.17203 85.8389 11.7564C85.8371 12.1341 85.8951 12.3521 86.2938 12.5319C87.2978 12.9859 87.7998 13.8358 87.8868 14.9291C87.9049 15.1616 87.8886 15.3959 87.8886 15.6883H89.3275V28.2267H89.3293ZM24.3424 27.108H88.2728V16.7634H24.3424V27.108ZM84.8204 12.2122C84.8204 9.35001 84.8258 6.53321 84.8186 3.71823C84.8149 2.09644 83.7294 1.24468 81.9062 1.53163C64.5916 1.53163 49.6392 1.55705 30.8431 1.55705C28.942 1.19928 27.813 2.06012 27.8093 3.73639C27.8039 6.40609 27.8093 9.0776 27.8093 11.7473C27.8093 11.8926 27.8093 12.0361 27.8093 12.1759H33.5851C32.7949 11.6093 31.9703 11.0172 31.1294 10.4124C30.1943 9.74048 30.1617 8.35115 31.0715 7.64286C35.7979 3.95433 42.4472 3.91437 47.2371 7.63741C48.1487 8.3457 48.1215 9.73685 47.1845 10.4106C46.3346 11.0227 45.5009 11.6202 44.7017 12.1959H68.0802C66.8026 11.5384 65.6391 10.7521 64.5988 9.7986C64.1603 9.39542 64.1548 8.69984 64.5916 8.29667C69.7457 3.54933 77.5042 3.84354 82.3303 8.30393C82.8051 8.74343 82.7652 9.5062 82.2397 9.88214C81.1287 10.6776 80.0359 11.4622 78.9866 12.214H84.8204V12.2122ZM25.7796 15.6592H86.8411C86.9552 13.9412 86.3064 13.2492 84.6174 13.2492C65.7514 13.2492 46.8855 13.2492 28.0196 13.2492C26.3287 13.2492 25.6908 13.9266 25.7814 15.6592H25.7796ZM46.1044 8.04059C41.7622 4.93685 35.9121 5.30189 32.1878 8.05694C31.5281 8.54366 31.5155 9.54071 32.1788 10.022C36.202 12.9368 42.0141 12.9496 46.0917 10.0438C46.7804 9.55342 46.7913 8.53276 46.1026 8.04241L46.1044 8.04059ZM66.4601 9.98202C70.8893 13.1911 76.8427 12.7316 80.4999 9.96931C81.1251 9.49712 81.1287 8.55092 80.4944 8.09144C76.3769 5.10575 70.5015 5.10393 66.4311 8.09689C65.7949 8.56545 65.8203 9.52073 66.4582 9.98384L66.4601 9.98202ZM26.7473 28.1741V31.4358H28.9583V28.1741H26.7473ZM83.6587 28.1668V31.4104H85.8679V28.1668H83.6587Z" fill="#050505"/>
</g>
<defs>
<clipPath id="clip0_1306_7731">
<rect width="66" height="32" fill="white" transform="translate(23.3293 0.449219)"/>
</clipPath>
</defs>
</svg>
