<svg width="30" height="30" viewBox="0 0 30 30" fill="none" xmlns="http://www.w3.org/2000/svg">
<path d="M3 27H7.81136V21.7031H3V27Z" fill="url(#paint0_linear_610_367)"/>
<path d="M3 17.6484H7.81136V12.3516H3V17.6484Z" fill="url(#paint1_linear_610_367)"/>
<path d="M3 8.29688H7.81136V3H3V8.29688Z" fill="url(#paint2_linear_610_367)"/>
<path d="M22.1886 27H27V21.7031H22.1886V27Z" fill="url(#paint3_linear_610_367)"/>
<path d="M22.1886 17.6484H27V12.3516H22.1886V17.6484Z" fill="url(#paint4_linear_610_367)"/>
<path d="M22.1886 8.29688H27V3H22.1886V8.29688Z" fill="url(#paint5_linear_610_367)"/>
<path d="M12.8731 27H17.6844V21.7031H12.8731V27Z" fill="url(#paint6_linear_610_367)"/>
<path d="M12.8731 17.6484H17.6844V12.3516H12.8731V17.6484Z" fill="url(#paint7_linear_610_367)"/>
<path d="M12.8731 8.29688H17.6844V3H12.8731V8.29688Z" fill="url(#paint8_linear_610_367)"/>
<defs>
<linearGradient id="paint0_linear_610_367" x1="0.0867007" y1="15" x2="27.9917" y2="15" gradientUnits="userSpaceOnUse">
<stop stop-color="#C59541"/>
<stop offset="0.369792" stop-color="#FBDD78"/>
<stop offset="1" stop-color="#BE9042"/>
</linearGradient>
<linearGradient id="paint1_linear_610_367" x1="0.0867007" y1="15" x2="27.9917" y2="15" gradientUnits="userSpaceOnUse">
<stop stop-color="#C59541"/>
<stop offset="0.369792" stop-color="#FBDD78"/>
<stop offset="1" stop-color="#BE9042"/>
</linearGradient>
<linearGradient id="paint2_linear_610_367" x1="0.0867007" y1="15" x2="27.9917" y2="15" gradientUnits="userSpaceOnUse">
<stop stop-color="#C59541"/>
<stop offset="0.369792" stop-color="#FBDD78"/>
<stop offset="1" stop-color="#BE9042"/>
</linearGradient>
<linearGradient id="paint3_linear_610_367" x1="0.0867007" y1="15" x2="27.9917" y2="15" gradientUnits="userSpaceOnUse">
<stop stop-color="#C59541"/>
<stop offset="0.369792" stop-color="#FBDD78"/>
<stop offset="1" stop-color="#BE9042"/>
</linearGradient>
<linearGradient id="paint4_linear_610_367" x1="0.0867007" y1="15" x2="27.9917" y2="15" gradientUnits="userSpaceOnUse">
<stop stop-color="#C59541"/>
<stop offset="0.369792" stop-color="#FBDD78"/>
<stop offset="1" stop-color="#BE9042"/>
</linearGradient>
<linearGradient id="paint5_linear_610_367" x1="0.0867007" y1="15" x2="27.9917" y2="15" gradientUnits="userSpaceOnUse">
<stop stop-color="#C59541"/>
<stop offset="0.369792" stop-color="#FBDD78"/>
<stop offset="1" stop-color="#BE9042"/>
</linearGradient>
<linearGradient id="paint6_linear_610_367" x1="0.0867007" y1="15" x2="27.9917" y2="15" gradientUnits="userSpaceOnUse">
<stop stop-color="#C59541"/>
<stop offset="0.369792" stop-color="#FBDD78"/>
<stop offset="1" stop-color="#BE9042"/>
</linearGradient>
<linearGradient id="paint7_linear_610_367" x1="0.0867007" y1="15" x2="27.9917" y2="15" gradientUnits="userSpaceOnUse">
<stop stop-color="#C59541"/>
<stop offset="0.369792" stop-color="#FBDD78"/>
<stop offset="1" stop-color="#BE9042"/>
</linearGradient>
<linearGradient id="paint8_linear_610_367" x1="0.0867007" y1="15" x2="27.9917" y2="15" gradientUnits="userSpaceOnUse">
<stop stop-color="#C59541"/>
<stop offset="0.369792" stop-color="#FBDD78"/>
<stop offset="1" stop-color="#BE9042"/>
</linearGradient>
</defs>
</svg>
