<svg width="276" height="477" viewBox="0 0 276 477" fill="none" xmlns="http://www.w3.org/2000/svg">
    <circle cx="137.945" cy="386.618" r="26.6882" fill="url(#paint0_linear_600_358)"/>
    <path d="M218.473 436.018L238.542 421.738L242.402 423.282L256.103 419.809V423.282L275.401 439.878L283.506 441.422L289.874 485.42L264.208 480.21L218.473 436.018Z" stroke="#EFCC6B"/>
    <path fill-rule="evenodd" clip-rule="evenodd" d="M138.511 261.193H137.386V354.095H138.511V261.193ZM192.44 272.775L150.903 357.413L151.914 357.909L193.45 273.271L192.44 272.775ZM161.326 286.626L144.833 355.063L145.927 355.326L162.42 286.89L161.326 286.626ZM157.856 360.897L199.923 307.859L200.805 308.559L158.738 361.596L157.856 360.897ZM235.459 307.775L162.889 365.479L163.589 366.36L236.16 308.655L235.459 307.775ZM166.561 371.711L229.788 340.955L230.28 341.967L167.053 372.723L166.561 371.711ZM260.132 357.102L169.987 379.027L170.253 380.121L260.398 358.196L260.132 357.102ZM170.115 385.689H240.753V386.815H170.115V385.689ZM113.479 286.885L114.573 286.621L131.066 355.057L129.972 355.321L113.479 286.885ZM83.4743 272.762L82.4639 273.258L123.971 357.91L124.982 357.414L83.4743 272.762ZM75.1035 308.537L75.9853 307.838L118.043 360.882L117.161 361.581L75.1035 308.537ZM40.4466 307.751L39.746 308.632L112.307 366.349L113.007 365.469L40.4466 307.751ZM45.6172 341.95L46.1098 340.938L109.326 371.716L108.834 372.728L45.6172 341.95ZM15.7607 357.114L15.4951 358.208L105.648 380.101L105.913 379.008L15.7607 357.114ZM35.1473 385.689H105.785V386.815H35.1473V385.689Z" fill="url(#paint1_linear_600_358)"/>
    <path fill-rule="evenodd" clip-rule="evenodd" d="M155.183 123.473C155.157 123.059 155.13 122.646 155.103 122.219C154.983 119.964 154.93 117.71 154.93 115.455C154.85 112.187 154.85 108.958 154.93 105.743C155.01 102.541 155.143 99.2997 155.343 96.0312C155.383 95.7244 155.343 95.3376 155.25 94.8973C155.157 94.4571 154.89 94.1902 154.463 94.1102C154.076 94.0302 153.769 94.1636 153.529 94.4838C153.289 94.8173 153.142 95.1374 153.062 95.4443C152.982 95.7111 152.902 96.0846 152.835 96.5515C152.755 96.8584 152.702 97.1652 152.662 97.4587C152.622 97.7522 152.569 98.0323 152.489 98.2992C152.142 99.6599 151.701 101.007 151.181 102.355C150.661 103.702 150.007 104.969 149.233 106.17C149.113 106.397 148.967 106.65 148.766 106.93C148.566 107.197 148.353 107.424 148.126 107.597C147.899 107.771 147.646 107.878 147.366 107.918C147.099 107.958 146.819 107.838 146.552 107.571C146.045 107.104 145.738 106.464 145.618 105.65C145.498 104.836 145.445 104.116 145.445 103.489C145.365 101.821 145.485 100.153 145.792 98.4992C146.098 96.845 146.525 95.2308 147.072 93.63C147.112 93.4832 147.152 93.2697 147.192 93.0163C147.232 92.7628 147.246 92.5227 147.219 92.2826C147.192 92.0424 147.112 91.8557 146.952 91.6956C146.792 91.5355 146.579 91.4688 146.312 91.4688C145.885 91.4688 145.538 91.6689 145.258 92.0558C144.991 92.4427 144.791 92.8295 144.671 93.2164C144.284 94.2703 143.977 95.3509 143.764 96.4582C143.55 97.5654 143.364 98.6593 143.217 99.7532C143.204 99.9 143.19 100.06 143.177 100.22C143.172 100.215 143.166 100.21 143.161 100.204L143.147 100.189C143.116 100.156 143.084 100.12 143.043 100.1C142.737 99.98 142.43 100.047 142.136 100.274C141.843 100.514 141.563 100.821 141.296 101.207C141.016 101.594 140.789 101.995 140.589 102.408C140.522 102.545 140.462 102.672 140.406 102.788C140.294 103.023 140.202 103.217 140.122 103.369C139.695 104.142 139.201 104.956 138.668 105.783C138.121 106.624 137.44 107.237 136.627 107.624C135.733 108.051 134.986 107.998 134.385 107.477C133.785 106.957 133.292 106.317 132.905 105.583C132.478 104.849 132.131 104.089 131.851 103.302C131.571 102.528 131.344 101.728 131.144 100.914C131.344 100.567 131.517 100.194 131.664 99.8066C131.824 99.4198 131.971 99.0729 132.131 98.7527C132.798 97.1251 133.385 95.471 133.905 93.79C134.425 92.1225 134.906 90.4282 135.333 88.7206C136.306 84.8385 136.947 80.8897 137.254 76.8876C137.454 74.8331 137.547 72.752 137.574 70.6708C137.587 68.5897 137.414 66.5353 137.027 64.5209C136.827 63.627 136.573 62.6932 136.266 61.7194C135.96 60.7455 135.413 59.9718 134.639 59.3848C133.865 58.7578 133.051 58.5843 132.224 58.8378C131.384 59.0912 130.703 59.5848 130.156 60.3185C129.609 61.0923 129.196 61.9461 128.902 62.8533C128.609 63.7604 128.369 64.6676 128.169 65.5614C127.929 66.6153 127.742 67.6559 127.582 68.6831C127.422 69.7103 127.315 70.7509 127.235 71.8048C126.848 75.9271 126.701 80.0493 126.795 84.1982C126.888 88.3338 127.275 92.4693 127.929 96.5915C128.131 97.8258 128.375 99.0717 128.648 100.329C128.577 100.121 128.461 99.9696 128.291 99.8724C127.984 99.7256 127.637 99.7656 127.277 100.019L127.25 100.086C126.877 100.339 126.543 100.753 126.236 101.34L124.956 103.728C124.801 103.965 124.639 104.249 124.456 104.569C124.402 104.664 124.346 104.761 124.289 104.862C124.035 105.315 123.742 105.742 123.408 106.142C123.074 106.556 122.714 106.89 122.301 107.156C121.887 107.423 121.474 107.53 121.047 107.45C120.5 107.37 120.1 107.116 119.846 106.663C119.593 106.222 119.433 105.716 119.352 105.142C119.272 104.582 119.246 103.995 119.259 103.394C119.286 102.794 119.286 102.314 119.286 101.967C119.326 101.34 119.366 100.74 119.406 100.153C119.446 99.5656 119.499 98.9652 119.579 98.3515C119.619 97.8446 119.686 97.351 119.779 96.8574C119.873 96.3771 119.926 95.8836 119.926 95.3766C119.966 94.8697 119.899 94.4694 119.753 94.1759C119.593 93.8824 119.379 93.6556 119.086 93.5089C118.792 93.3488 118.459 93.2421 118.098 93.1887C117.725 93.1354 117.351 93.0954 116.965 93.0954C116.658 93.0553 116.324 93.042 115.977 93.0687C115.631 93.0954 115.297 93.0687 114.99 92.9753C114.91 92.6685 114.83 92.4283 114.763 92.2816C114.563 91.8947 114.31 91.6279 114.003 91.4945C113.696 91.3611 113.376 91.3345 113.042 91.4012C112.709 91.4812 112.442 91.6546 112.229 91.9214C112.015 92.1882 111.908 92.5484 111.908 92.9753C111.908 93.6424 112.149 94.1626 112.616 94.5495V94.7763C112.616 96.3505 112.562 97.9113 112.455 99.4588C112.402 99.3921 112.335 99.3254 112.269 99.272C112.002 99.0719 111.748 99.0319 111.508 99.1253C111.268 99.2187 111.068 99.3787 110.895 99.5922C110.721 99.8056 110.561 100.046 110.428 100.326C110.399 100.383 110.372 100.439 110.345 100.492L110.294 100.597C110.221 100.746 110.159 100.872 110.108 100.966C109.681 102.06 109.107 103.061 108.387 103.995C107.666 104.928 106.799 105.729 105.799 106.383C105.332 106.689 104.798 106.97 104.198 107.223C103.597 107.477 102.97 107.637 102.33 107.717C101.69 107.797 101.063 107.77 100.462 107.623C99.862 107.49 99.3417 107.17 98.9148 106.663C98.5679 106.236 98.3678 105.756 98.3011 105.235C98.2478 104.715 98.3011 104.195 98.4745 103.688C98.6479 103.181 98.9014 102.701 99.2349 102.26C99.5684 101.82 99.9286 101.433 100.315 101.126C100.556 100.926 100.862 100.726 101.249 100.513C101.636 100.299 101.983 100.059 102.263 99.779C102.557 99.5122 102.743 99.2187 102.81 98.8985C102.89 98.5917 102.757 98.2448 102.397 97.8446C102.09 97.5378 101.743 97.271 101.383 97.0575C101.009 96.8441 100.796 96.4839 100.716 95.977C100.676 95.5901 100.756 95.2699 100.956 95.0164C101.156 94.7629 101.409 94.5762 101.716 94.4294C102.023 94.296 102.357 94.216 102.704 94.1893C103.05 94.1626 103.384 94.1893 103.691 94.2827C103.998 94.4027 104.344 94.4695 104.745 94.4828C105.131 94.5095 105.425 94.336 105.625 93.9891C105.825 93.6823 105.825 93.3622 105.625 93.0287C105.425 92.6952 105.198 92.455 104.918 92.2949C104.291 91.8681 103.584 91.6813 102.757 91.7347C101.943 91.788 101.223 91.9748 100.596 92.2949C99.8619 92.6818 99.275 93.2421 98.8481 93.9625C98.4212 94.6829 98.2611 95.4699 98.3812 96.3237C98.5013 97.0575 98.7546 97.6712 99.1415 98.1248L99.4618 98.4449C99.6352 98.6184 99.7285 98.7251 99.7285 98.7651C98.7547 99.3921 97.9276 100.139 97.2472 101.033C96.5668 101.927 96.1667 102.954 96.0466 104.128C95.8865 105.569 96.22 106.809 97.0338 107.863C97.8475 108.917 98.9548 109.571 100.356 109.851C101.636 110.118 102.89 110.078 104.118 109.704C105.345 109.331 106.479 108.77 107.533 108.01C108.587 107.25 109.52 106.356 110.334 105.329C111.148 104.315 111.775 103.261 112.242 102.18L112.242 102.186C112.202 102.744 112.162 103.303 112.109 103.875C111.975 105.289 111.695 106.689 111.268 108.05C111.188 108.357 111.148 108.757 111.148 109.251C111.148 109.744 111.388 110.038 111.842 110.158C112.269 110.278 112.642 110.131 112.976 109.718C113.309 109.304 113.536 108.931 113.643 108.584C113.91 107.77 114.11 106.916 114.23 106.049C114.35 105.169 114.443 104.288 114.523 103.394C114.643 102.38 114.723 101.353 114.763 100.299C114.803 99.2454 114.857 98.2048 114.937 97.1509V95.2832C115.057 95.3232 115.27 95.3366 115.577 95.3366H116.391C116.658 95.3366 116.938 95.3633 117.205 95.39H117.206C117.405 95.39 117.512 95.39 117.525 95.4166C117.538 95.4433 117.578 95.5367 117.618 95.7368C117.618 95.9369 117.592 96.1504 117.525 96.4039C117.494 96.5503 117.463 96.6879 117.435 96.814C117.414 96.9061 117.395 96.992 117.378 97.0709L117.031 100.393C116.991 101.166 116.965 102.074 116.938 103.101C116.911 104.128 117.018 105.115 117.231 106.049C117.445 106.983 117.818 107.797 118.365 108.49C118.912 109.197 119.726 109.624 120.82 109.771C121.754 109.891 122.621 109.704 123.408 109.224C124.208 108.744 124.916 108.09 125.543 107.303C126.17 106.503 126.717 105.649 127.21 104.742C127.69 103.835 128.091 103.021 128.411 102.327C128.638 101.78 128.744 101.273 128.731 100.806C128.728 100.75 128.723 100.696 128.717 100.645C128.836 101.186 128.96 101.729 129.089 102.275C129.556 104.196 130.29 105.983 131.304 107.611C131.771 108.345 132.358 108.985 133.051 109.505C133.745 110.025 134.545 110.292 135.439 110.292C136.333 110.332 137.147 110.132 137.894 109.705C138.628 109.278 139.268 108.758 139.815 108.131C140.442 107.464 140.976 106.744 141.443 105.943C141.909 105.143 142.336 104.342 142.723 103.529C142.817 103.342 142.923 103.115 143.017 102.848C143.017 102.977 143.015 103.105 143.014 103.232C143.011 103.486 143.008 103.738 143.017 103.996C143.057 105.476 143.404 106.837 144.071 108.078C144.378 108.625 144.778 109.092 145.271 109.505C145.752 109.919 146.325 110.159 146.992 110.239C147.659 110.319 148.233 110.199 148.74 109.892C149.247 109.585 149.714 109.212 150.141 108.785C150.648 108.238 151.101 107.638 151.515 106.984C151.928 106.317 152.302 105.623 152.649 104.889C152.529 109.625 152.529 114.348 152.649 119.057C152.649 120.151 152.662 121.218 152.702 122.299C152.742 123.366 152.795 124.447 152.875 125.541C152.955 125.927 153.049 126.354 153.169 126.821C153.289 127.288 153.542 127.622 153.929 127.808C154.236 128.009 154.516 128.022 154.77 127.862C155.023 127.702 155.183 127.475 155.263 127.168C155.463 126.781 155.53 126.381 155.463 125.967C155.41 125.554 155.357 125.14 155.317 124.713C155.237 124.287 155.197 123.873 155.17 123.459L155.183 123.473ZM130.143 95.7511C130.103 95.4042 130.063 95.0574 130.023 94.6972C129.476 90.615 129.169 86.5195 129.089 82.3972C129.009 78.275 129.223 74.1794 129.73 70.0972C129.85 69.0833 129.996 68.0695 130.196 67.0422C130.397 66.015 130.65 65.0145 130.957 64.0406C131.104 63.6137 131.264 63.1868 131.424 62.7599C131.584 62.333 131.811 61.9461 132.117 61.5993C132.504 61.1724 132.851 61.0523 133.131 61.2524C133.425 61.4525 133.665 61.7594 133.865 62.1863C134.292 63 134.585 63.8939 134.746 64.8677C134.906 65.8416 135.012 66.7888 135.092 67.7226C135.172 68.7365 135.213 69.7504 135.213 70.7776C135.213 71.7895 135.187 72.8143 135.16 73.8521L135.159 73.8992C134.959 77.7813 134.465 81.6635 133.665 85.5322C132.865 89.401 131.744 93.1631 130.317 96.8184C130.237 96.4715 130.183 96.1246 130.143 95.7644V95.7511Z" fill="url(#paint2_linear_600_358)"/>
    <path fill-rule="evenodd" clip-rule="evenodd" d="M56.3966 95.2581C55.5161 94.0707 54.4889 93.0302 53.3016 92.1097C52.1143 91.2025 50.8203 90.4154 49.4195 89.7484C49.6597 89.5083 49.8598 89.2682 50.0332 89.0147C50.2066 88.7612 50.3667 88.5344 50.5268 88.3477C51.5407 87.067 52.5145 85.773 53.4484 84.4656C54.3822 83.1582 55.236 81.7975 56.0098 80.3567C56.3566 79.7297 56.7035 79.0493 57.0236 78.3155C57.3571 77.5818 57.6106 76.8214 57.8107 76.0743C58.0108 75.3139 58.1176 74.5535 58.1309 73.7664C58.1443 72.9927 58.0242 72.2323 57.7574 71.4985C57.4105 70.6447 56.9169 69.9777 56.2632 69.4841C55.6229 69.0038 54.8891 68.6703 54.0754 68.4969C53.2616 68.3235 52.4078 68.2701 51.5407 68.3502C50.6602 68.4302 49.8331 68.5769 49.0593 68.8171C47.245 69.364 45.5107 70.1378 43.8832 71.1517C42.2556 72.1655 40.7348 73.2862 39.3341 74.5402C39.174 74.6603 39.0139 74.8337 38.8404 75.0605C38.667 75.3006 38.5336 75.5274 38.4269 75.7675C38.3335 75.9943 38.3202 76.2211 38.4002 76.4346C38.4803 76.648 38.667 76.8081 38.9872 76.9281C39.4941 77.0882 39.9611 77.0216 40.388 76.7281C40.8148 76.4346 41.2017 76.141 41.5486 75.8209C42.2156 75.2739 42.856 74.767 43.4963 74.3001C44.1367 73.8332 44.8304 73.3929 45.5641 72.9527C45.484 73.2195 45.4307 73.4996 45.404 73.7664C45.3773 74.0464 45.3773 74.2732 45.3773 74.4732C45.2173 76.2208 45.1239 77.9554 45.0839 79.6629C45.0438 81.3705 45.0038 83.1048 44.9638 84.8524C44.7636 92.75 44.8837 100.621 45.3106 108.465C45.3907 109.399 45.4574 110.32 45.5107 111.24C45.5641 112.147 45.6308 113.054 45.7109 113.948C45.7509 114.495 45.7909 115.109 45.8309 115.816C45.8709 116.523 46.0043 117.137 46.2445 117.684C45.8976 117.884 45.5508 118.03 45.1906 118.15C44.8437 118.271 44.4968 118.404 44.1366 118.564C43.8965 118.684 43.6164 118.791 43.2562 118.884C42.9093 118.978 42.5758 119.098 42.269 119.231C41.9621 119.364 41.6686 119.538 41.3885 119.751C41.1083 119.965 40.9349 120.232 40.8682 120.538C40.7482 120.885 40.7748 121.152 40.9616 121.326C41.1484 121.499 41.3485 121.606 41.6019 121.646C41.8554 121.686 42.1356 121.699 42.4424 121.672C42.7492 121.646 43.0027 121.606 43.2028 121.526C43.9766 121.285 44.737 121.019 45.4707 120.712C46.2044 120.405 46.9248 120.072 47.6319 119.725C49.1794 118.951 50.6602 118.017 52.0609 116.923C53.4617 115.829 54.689 114.615 55.7296 113.281C56.7835 111.934 57.6106 110.466 58.211 108.852C58.8113 107.238 59.1181 105.517 59.1181 103.689C59.1181 102.102 58.878 100.594 58.3844 99.1668C57.9041 97.7527 57.2238 96.4454 56.3433 95.2581H56.3966ZM47.8587 72.6859C47.8186 72.3523 47.7519 72.0988 47.6452 71.8987L48.8459 71.3785C49.4328 71.1384 50.1266 70.9649 50.9137 70.8181C51.7141 70.6847 52.4612 70.6581 53.1549 70.7248C53.8619 70.8049 54.4622 71.045 54.9692 71.4585C55.4761 71.8721 55.7429 72.5391 55.783 73.473C55.823 74.8337 55.5161 76.1811 54.8491 77.5285C54.1821 78.8759 53.5017 80.0898 52.808 81.1704C52.0743 82.3044 51.2872 83.3716 50.4467 84.4122C49.6063 85.4394 48.7791 86.5067 47.9654 87.5872C47.8587 87.7473 47.7252 87.9475 47.5918 88.2009C47.4451 88.4544 47.3384 88.7346 47.2717 89.0414C47.3117 83.8653 47.5252 78.6758 47.912 73.473C47.912 73.2729 47.8987 73.0194 47.8587 72.6859ZM55.7563 108.665C55.0759 110.239 54.1287 111.694 52.9281 113.014C51.7274 114.335 50.3667 115.442 48.8459 116.336L48.5524 116.51C48.4723 116.123 48.4056 115.736 48.3523 115.376C48.2989 115.002 48.2456 114.629 48.2055 114.242C47.912 111.52 47.7119 108.785 47.6052 106.051C47.4985 103.302 47.4051 100.554 47.3251 97.8061C47.285 96.7522 47.2717 95.6983 47.2717 94.6311V91.3893C47.5652 91.5894 47.8453 91.7228 48.1388 91.8295C48.419 91.9229 48.7125 92.0297 49.0326 92.1498C50.4734 92.8168 51.7808 93.6839 52.9414 94.7778C54.102 95.8717 55.0359 97.1258 55.7429 98.5666C56.5567 100.274 56.9436 101.995 56.8769 103.729C56.8235 105.464 56.45 107.118 55.7696 108.692L55.7563 108.665Z" fill="url(#paint3_linear_600_358)"/>
    <path d="M97.8039 97.7647C98.0974 97.5112 98.2175 97.2578 98.1775 97.0043C98.1375 96.7508 97.9107 96.5374 97.5105 96.364C97.0969 96.1905 96.5233 96.1238 95.7895 96.1638C94.7757 96.2439 93.8018 96.1905 92.868 95.9904C91.9341 95.7903 91.1203 95.5502 90.4133 95.2301C90.3733 94.7631 90.2132 94.2428 89.9464 93.6558C89.6796 93.1088 89.266 92.722 88.7191 92.4952C88.1721 92.255 87.6251 92.3618 87.0915 92.7887C86.5445 93.2156 86.3178 93.7359 86.4245 94.3362C86.5179 94.9365 86.7847 95.4568 87.2116 95.8837C87.5584 96.2306 87.9186 96.5107 88.2655 96.6975C88.3455 97.3645 88.3322 98.0049 88.2388 98.6452C88.1454 99.2856 88.0387 99.8993 87.9186 100.486C87.7986 101.18 87.6518 101.874 87.4517 102.554C87.2516 103.234 87.0248 103.901 86.758 104.568C86.718 104.648 86.6513 104.809 86.5579 105.062C86.4645 105.316 86.3578 105.582 86.2377 105.849C86.1176 106.116 85.9976 106.369 85.8642 106.61C85.7308 106.85 85.5974 106.956 85.4906 106.956C85.3839 106.956 85.2505 106.876 85.1171 106.716C84.9837 106.556 84.8503 106.383 84.7035 106.169C84.6847 106.139 84.6659 106.109 84.6472 106.08L84.6073 106.017C84.5073 105.859 84.411 105.707 84.33 105.556C84.2099 105.356 84.1299 105.222 84.0899 105.142C83.7831 104.555 83.5429 103.955 83.3962 103.328C83.2361 102.701 83.1294 102.087 83.0493 101.46C82.9293 100.526 82.8626 99.5923 82.8492 98.6585C82.8359 97.7247 82.8492 96.7909 82.9426 95.857C83.0226 95.5102 82.996 95.0966 82.8892 94.6297C82.7692 94.1628 82.5023 93.9093 82.0754 93.8693C81.6485 93.8293 81.3151 94.0027 81.0883 94.3896C80.8615 94.7765 80.7014 95.1233 80.6213 95.4435C80.5013 96.0705 80.4479 96.6975 80.4479 97.3378C80.4479 97.9782 80.4612 98.6186 80.5013 99.2322V99.2989C80.2345 99.0988 79.981 99.0588 79.7409 99.1522C79.5007 99.2456 79.3006 99.4056 79.1272 99.6191C78.9538 99.8325 78.7937 100.073 78.6603 100.353C78.5269 100.633 78.4202 100.846 78.3401 100.993C77.9132 102.087 77.3396 103.088 76.6192 104.021C75.8988 104.955 75.0316 105.756 74.0311 106.409C73.5642 106.716 73.0306 106.996 72.4302 107.25C71.8299 107.503 71.2029 107.663 70.5625 107.744C69.9222 107.824 69.2952 107.797 68.6949 107.65C68.0945 107.517 67.5743 107.196 67.1474 106.69C66.8005 106.263 66.6004 105.782 66.5337 105.262C66.4803 104.742 66.5337 104.222 66.7071 103.715C66.8806 103.208 67.134 102.727 67.4676 102.287C67.8011 101.847 68.1613 101.46 68.5481 101.153C68.7883 100.953 69.0951 100.753 69.482 100.54C69.8688 100.326 70.2157 100.086 70.4959 99.8059C70.7893 99.539 70.9761 99.2455 71.0428 98.9253C71.1229 98.6185 70.9895 98.2717 70.6293 97.8715C70.3224 97.5646 69.9756 97.2978 69.6154 97.0843C69.2418 96.8709 69.0284 96.5107 68.9483 96.0038C68.9083 95.6169 68.9884 95.2967 69.1885 95.0433C69.3886 94.7898 69.6421 94.603 69.9489 94.4563C70.2557 94.3229 70.5892 94.2428 70.9361 94.2162C71.2829 94.1895 71.6165 94.2162 71.9233 94.3096C72.2301 94.4296 72.577 94.4963 72.9772 94.5096C73.3641 94.5363 73.6576 94.3629 73.8577 94.016C74.0578 93.7092 74.0578 93.3891 73.8577 93.0555C73.6576 92.722 73.4308 92.4818 73.1506 92.3217C72.5236 91.8948 71.8166 91.7081 70.9894 91.7615C70.1757 91.8148 69.4553 92.0016 68.8283 92.3217C68.0946 92.7086 67.5076 93.2689 67.0807 93.9893C66.6538 94.7097 66.4937 95.4968 66.6137 96.3506C66.7338 97.0843 66.9873 97.6981 67.3742 98.1516L67.6943 98.4718C67.8678 98.6452 67.9612 98.7519 67.9612 98.792C66.9873 99.419 66.1602 100.166 65.4798 101.06C64.7994 101.954 64.3992 102.981 64.2791 104.155C64.1191 105.596 64.4526 106.836 65.2663 107.89C66.0801 108.944 67.1874 109.598 68.5882 109.878C69.8689 110.145 71.1229 110.105 72.3502 109.731C73.5775 109.358 74.7115 108.797 75.7654 108.037C76.8193 107.277 77.7531 106.383 78.5669 105.355C79.3806 104.328 80.021 103.261 80.4879 102.18C80.568 102.034 80.6347 101.847 80.7014 101.647C80.7814 102.314 80.9015 102.968 81.0749 103.635C81.3417 104.608 81.7153 105.542 82.1822 106.436C82.6491 107.33 83.2761 108.13 84.0499 108.824C84.25 109.024 84.4901 109.211 84.8103 109.411C85.1171 109.611 85.4373 109.691 85.7441 109.651C86.0509 109.611 86.3444 109.491 86.6246 109.278C86.9047 109.064 87.1315 108.811 87.3183 108.517C87.5184 108.224 87.6918 107.93 87.8786 107.61C88.052 107.303 88.1988 107.01 88.3188 106.73C88.9858 105.369 89.5195 103.915 89.9464 102.354C90.3733 100.806 90.6134 99.2455 90.6401 97.6847C91.5739 97.9915 92.5478 98.1916 93.5617 98.2717C94.5756 98.3517 95.5227 98.3251 96.4165 98.2183C97.0836 98.1383 97.5505 97.9782 97.844 97.7247L97.8039 97.7647Z" fill="url(#paint4_linear_600_358)"/>
    <path d="M184.003 118.393C184.176 118.486 184.323 118.66 184.416 118.886L184.363 118.873C184.456 119.1 184.51 119.367 184.536 119.66C184.563 119.954 184.55 120.194 184.51 120.394C183.843 125.263 183.322 130.106 182.935 134.948C182.549 139.791 182.348 144.66 182.348 149.556C182.348 151.624 182.388 153.665 182.468 155.68C182.549 157.707 182.642 159.722 182.762 161.75C182.842 162.764 182.922 163.751 183.002 164.725C183.082 165.698 183.162 166.686 183.242 167.7C183.322 168.487 183.416 169.247 183.536 170.007C183.656 170.768 183.709 171.542 183.709 172.315C183.709 172.702 183.602 173.129 183.362 173.596C183.135 174.076 182.749 174.143 182.202 173.836C181.655 173.516 181.335 172.969 181.241 172.169C181.148 171.368 181.081 170.688 181.041 170.101C180.841 168.153 180.694 166.219 180.574 164.298C180.454 162.377 180.361 160.429 180.281 158.441C180.094 155.053 180.027 151.677 180.107 148.289C179.76 148.369 179.387 148.422 179 148.436C178.613 148.462 178.24 148.489 177.893 148.529C177.199 148.609 176.505 148.663 175.825 148.703C175.145 148.743 174.477 148.796 173.81 148.876L171.823 149.116V150.69L171.823 150.693C171.796 152.32 171.769 153.946 171.796 155.56C171.809 157.174 171.863 158.801 171.943 160.429C171.983 162.056 172.09 163.697 172.29 165.325C172.306 165.42 172.326 165.525 172.346 165.638C172.375 165.792 172.406 165.961 172.436 166.139C172.501 166.437 172.528 166.749 172.554 167.048L172.556 167.073C172.583 167.393 172.556 167.673 172.503 167.953C172.45 168.22 172.33 168.447 172.13 168.647C171.903 168.913 171.676 169.02 171.436 168.967C171.209 168.9 170.996 168.767 170.795 168.527C170.609 168.287 170.435 168.033 170.302 167.74C170.155 167.446 170.075 167.206 170.035 167.006C169.875 166.299 169.782 165.578 169.768 164.818C169.742 164.058 169.715 163.31 169.675 162.577C169.595 160.949 169.541 159.308 169.528 157.654C169.501 156.004 169.501 154.366 169.501 152.743V149.463C168.754 149.583 168.034 149.623 167.34 149.583C167.033 149.543 166.713 149.45 166.38 149.29C166.046 149.129 165.886 148.876 165.886 148.529C165.846 148.102 166.046 147.795 166.473 147.622C166.9 147.449 167.274 147.329 167.58 147.248C167.887 147.168 168.221 147.115 168.568 147.075C168.914 147.035 169.248 146.995 169.555 146.955L169.562 146.725L169.562 146.724C169.64 144.346 169.717 141.969 169.795 139.604C169.875 137.15 169.982 134.695 170.142 132.254C170.222 131.36 170.262 130.426 170.289 129.479C170.302 128.518 170.369 127.598 170.489 126.704C170.569 126.357 170.715 125.944 170.929 125.477C171.129 125.01 171.476 124.783 171.943 124.783C172.41 124.783 172.703 125.036 172.823 125.543C172.943 126.05 172.983 126.477 172.943 126.824C172.676 130.159 172.45 133.481 172.276 136.789C172.103 140.098 171.983 143.433 171.903 146.822L172.597 146.702L177.199 146.181C177.536 146.133 177.88 146.078 178.237 146.021C178.374 145.999 178.512 145.977 178.653 145.954C179.16 145.874 179.64 145.888 180.107 146.008C180.187 143.833 180.267 141.672 180.347 139.511C180.427 137.35 180.561 135.162 180.761 132.947C180.908 131.08 181.081 129.212 181.281 127.344C181.468 125.477 181.681 123.609 181.922 121.741L181.972 121.399L181.972 121.396C182.04 120.938 182.114 120.435 182.188 119.874C182.282 119.18 182.642 118.686 183.269 118.42C183.589 118.299 183.829 118.299 184.003 118.393Z" fill="url(#paint5_linear_600_358)"/>
    <path fill-rule="evenodd" clip-rule="evenodd" d="M237.469 155.44C237.389 154.626 237.202 153.852 236.922 153.105C236.642 152.358 236.295 151.651 235.935 150.944C235.562 150.237 235.161 149.557 234.734 148.876C234.308 148.196 233.921 147.502 233.574 146.809C233.334 146.342 233.12 145.875 232.933 145.408C232.733 144.941 232.56 144.461 232.413 143.954C232.493 143.527 232.533 143.113 232.56 142.7C232.587 142.286 232.56 141.899 232.467 141.499C232.346 140.952 232.053 140.552 231.559 140.298C231.079 140.045 230.599 140.138 230.132 140.565C229.825 140.872 229.652 141.232 229.638 141.646C229.612 142.059 229.638 142.473 229.732 142.9L229.972 144.007V144.594C229.927 144.88 229.882 145.2 229.832 145.554C229.793 145.827 229.752 146.121 229.705 146.435C229.612 147.155 229.492 147.889 229.358 148.65C229.225 149.41 229.065 150.144 228.891 150.837C228.825 151.104 228.758 151.344 228.691 151.585C228.681 151.574 228.671 151.564 228.661 151.553L228.66 151.552C228.616 151.506 228.569 151.457 228.504 151.424C228.198 151.304 227.891 151.371 227.597 151.598C227.304 151.838 227.024 152.145 226.757 152.532C226.49 152.919 226.25 153.319 226.063 153.732C226.031 153.799 226 153.863 225.971 153.924C225.939 153.99 225.909 154.053 225.88 154.113C225.768 154.348 225.676 154.541 225.596 154.693C224.582 156.561 223.635 157.761 222.768 158.308C221.901 158.855 221.06 158.935 220.287 158.548C219.513 158.161 218.806 157.414 218.192 156.307C217.565 155.2 217.032 153.946 216.565 152.545C218.472 149.01 219.913 145.221 220.874 141.179C221.848 137.137 222.461 133.281 222.741 129.639C222.861 128.479 222.955 127.051 223.035 125.357C223.115 123.663 223.088 121.955 222.981 120.221C222.861 118.487 222.595 116.886 222.168 115.405C221.741 113.924 221.06 112.844 220.127 112.136C219.353 111.509 218.539 111.336 217.712 111.576C216.871 111.83 216.191 112.323 215.644 113.07C215.097 113.804 214.63 114.698 214.243 115.752C213.856 116.806 213.536 117.886 213.283 119.02C213.029 120.154 212.829 121.261 212.669 122.369C212.509 123.476 212.402 124.436 212.322 125.25C212.122 127.118 211.989 129.199 211.882 131.494C211.789 133.788 211.789 136.136 211.909 138.551C212.029 140.965 212.242 143.38 212.549 145.808C212.856 148.236 213.323 150.504 213.95 152.598C213.643 153.225 213.323 153.866 212.989 154.519C212.656 155.186 212.282 155.8 211.882 156.387C211.468 156.974 211.055 157.481 210.628 157.935C210.201 158.388 209.748 158.722 209.281 158.949C208.387 159.375 207.64 159.322 207.039 158.802C206.439 158.281 205.946 157.641 205.559 156.907C205.132 156.174 204.785 155.413 204.505 154.626C204.225 153.852 203.998 153.052 203.798 152.238C203.998 151.891 204.171 151.518 204.318 151.131C204.478 150.744 204.625 150.397 204.785 150.077C205.452 148.449 206.039 146.795 206.559 145.114C207.079 143.447 207.56 141.752 207.987 140.045C208.96 136.163 209.601 132.214 209.908 128.212C210.108 126.157 210.201 124.076 210.228 121.995C210.255 119.914 210.068 117.86 209.681 115.845C209.481 114.951 209.227 114.017 208.92 113.044C208.614 112.07 208.067 111.296 207.293 110.709C206.519 110.082 205.705 109.909 204.878 110.162C204.038 110.416 203.357 110.909 202.81 111.643C202.264 112.417 201.85 113.27 201.556 114.178C201.263 115.085 201.023 115.992 200.823 116.886C200.583 117.94 200.396 118.98 200.236 120.007C200.076 121.035 199.969 122.075 199.889 123.129C199.502 127.251 199.355 131.374 199.449 135.523C199.542 139.658 199.929 143.794 200.583 147.916C200.79 149.134 201.035 150.364 201.306 151.595C201.233 151.307 201.109 151.105 200.943 150.998C200.676 150.837 200.316 150.931 199.889 151.264C199.462 151.598 199.088 152.132 198.782 152.865C198.435 153.759 198.021 154.653 197.554 155.547C197.087 156.44 196.527 157.241 195.86 157.935C195.66 158.135 195.433 158.335 195.166 158.548C194.9 158.762 194.606 158.935 194.326 159.069C194.032 159.202 193.739 159.269 193.419 159.269C193.099 159.269 192.818 159.149 192.538 158.922C192.071 158.495 191.778 157.908 191.658 157.174C191.538 156.44 191.444 155.773 191.364 155.186C191.244 153.626 191.258 152.091 191.391 150.544C191.524 149.01 191.698 147.489 191.885 145.968C191.925 145.661 191.911 145.301 191.858 144.888C191.805 144.474 191.618 144.18 191.311 143.98C191.004 143.86 190.724 143.887 190.497 144.034C190.27 144.194 190.07 144.367 189.91 144.554C189.71 144.861 189.59 145.181 189.537 145.515L189.511 145.675C189.466 145.951 189.423 146.218 189.39 146.475C189.31 146.982 189.256 147.476 189.216 147.969C189.19 148.287 189.164 148.616 189.137 148.946L189.096 149.45C189.016 150.344 188.963 151.504 188.923 152.919C188.883 154.333 189.003 155.707 189.27 157.027C189.537 158.348 190.03 159.469 190.724 160.376C191.418 161.283 192.498 161.67 193.926 161.51C195.166 161.39 196.234 160.883 197.101 159.962C197.981 159.055 198.702 158.108 199.289 157.134C199.956 156 200.516 154.92 200.983 153.866C201.25 153.279 201.383 152.692 201.356 152.091C201.356 151.95 201.344 151.821 201.319 151.704L201.377 151.969C201.49 152.494 201.605 153.024 201.73 153.546C202.197 155.467 202.931 157.254 203.944 158.882C204.612 159.976 205.452 160.736 206.479 161.19C207.506 161.643 208.614 161.67 209.774 161.283C210.975 160.896 212.002 160.122 212.869 158.949C213.723 157.788 214.444 156.641 215.03 155.507C215.724 157.067 216.565 158.362 217.539 159.415C218.512 160.469 219.553 161.096 220.687 161.31C221.821 161.523 222.995 161.19 224.209 160.323C225.436 159.442 226.65 157.868 227.851 155.573C227.931 155.422 228.023 155.228 228.135 154.993C228.191 154.877 228.251 154.75 228.318 154.613C228.344 154.559 228.358 154.493 228.384 154.439C228.531 154.586 228.731 154.68 229.025 154.706C229.452 154.706 229.812 154.519 230.105 154.159C230.399 153.786 230.599 153.452 230.719 153.132C230.959 152.585 231.159 151.891 231.333 151.038C231.506 150.184 231.666 149.303 231.826 148.409C232.253 149.223 232.707 150.024 233.174 150.797C233.641 151.571 234.067 152.372 234.454 153.185C234.654 153.612 234.828 154.093 234.975 154.639C235.135 155.186 235.201 155.733 235.175 156.267C235.148 156.814 235.028 157.308 234.801 157.748C234.561 158.201 234.201 158.548 233.694 158.828C233.347 159.029 232.893 159.242 232.347 159.469C231.8 159.696 231.533 160.069 231.533 160.576C231.533 160.883 231.626 161.123 231.826 161.27C232.026 161.43 232.266 161.51 232.56 161.537C232.853 161.55 233.147 161.537 233.44 161.51C233.734 161.47 233.974 161.416 234.174 161.336C235.455 160.87 236.375 160.096 236.909 159.002C237.456 157.908 237.643 156.707 237.496 155.387L237.469 155.44ZM202.771 147.049C202.73 146.702 202.69 146.355 202.65 145.995C202.103 141.913 201.797 137.817 201.717 133.695C201.637 129.573 201.85 125.477 202.357 121.395C202.477 120.381 202.624 119.367 202.824 118.34C203.024 117.313 203.277 116.312 203.584 115.338C203.731 114.911 203.891 114.484 204.051 114.058C204.211 113.631 204.438 113.244 204.745 112.897C205.132 112.47 205.479 112.35 205.759 112.55C206.052 112.75 206.292 113.057 206.492 113.484C206.919 114.298 207.213 115.191 207.373 116.165C207.533 117.139 207.64 118.086 207.72 119.02C207.8 120.034 207.84 121.048 207.84 122.075C207.84 123.088 207.814 124.113 207.788 125.151L207.786 125.197C207.586 129.079 207.093 132.961 206.292 136.83C205.492 140.699 204.371 144.461 202.944 148.116C202.864 147.769 202.811 147.422 202.771 147.062V147.049ZM214.644 142.793C214.39 140.458 214.243 138.151 214.203 135.883C214.163 133.615 214.203 131.414 214.297 129.292C214.39 127.171 214.563 125.237 214.79 123.489C214.87 122.756 214.977 121.955 215.111 121.101C215.244 120.248 215.431 119.407 215.657 118.567C215.884 117.726 216.164 116.939 216.471 116.205C216.778 115.472 217.152 114.831 217.579 114.284C217.965 113.857 218.312 113.737 218.592 113.937C218.886 114.138 219.126 114.444 219.326 114.871C219.793 115.725 220.127 116.646 220.313 117.646C220.513 118.633 220.634 119.647 220.687 120.674C220.74 121.702 220.754 122.729 220.714 123.769C220.673 124.81 220.634 125.744 220.593 126.598C220.327 130.56 219.793 134.522 219.019 138.471C218.246 142.42 217.138 146.075 215.698 149.463C215.231 147.369 214.87 145.154 214.617 142.82L214.644 142.793Z" fill="url(#paint6_linear_600_358)"/>
    <path d="M193.782 139.044C193.782 140.238 192.814 141.205 191.621 141.205C190.427 141.205 189.459 140.238 189.459 139.044C189.459 137.85 190.427 136.883 191.621 136.883C192.814 136.883 193.782 137.85 193.782 139.044Z" fill="url(#paint7_linear_600_358)"/>
    <path d="M150.657 370.227L165.304 387.862L161.427 401.141L156.96 391.943L143.69 419.535L131.123 417.409L120.839 410.042L131.123 400.065L137.876 390.933L150.657 370.227Z" fill="#1A2714"/>
    <path fill-rule="evenodd" clip-rule="evenodd" d="M150.391 369.246L150.853 369.78C155.318 374.931 162.015 382.835 167.598 389.807C170.389 393.292 172.906 396.55 174.727 399.117C175.637 400.399 176.379 401.517 176.896 402.41C177.154 402.855 177.361 403.254 177.505 403.594C177.643 403.919 177.747 404.246 177.747 404.528C177.747 404.772 177.876 405.063 178.266 405.43C178.655 405.797 179.244 406.181 180.025 406.608C180.916 407.095 181.991 407.604 183.216 408.183C184.159 408.629 185.191 409.117 186.297 409.67C191.324 412.184 197.587 415.905 202.364 422.474C206.097 427.607 214.299 435.813 223.071 444.011C231.831 452.198 241.122 460.342 247.001 465.34L248.457 466.577L222.303 461.474L214.038 452.914L199.898 447.906L160.05 400.087L156.937 393.084L143.317 422.268H147.703L168.134 437.961L168.138 437.964L207.851 467.969L207.431 468.854L176.978 461.463L162.168 444.91L132.887 465.663L157.013 478.72L184.286 471.682L214.398 476.701L214.234 477.687L184.33 472.703L156.883 479.787L130.996 465.778L162.318 443.578L177.516 460.564L205.324 467.314L167.532 438.759L167.528 438.757L147.364 423.268H141.747L156.959 390.671L160.907 399.554L200.491 447.055L214.594 452.05L222.804 460.553L244.905 464.865C239.007 459.815 230.473 452.298 222.388 444.742C213.627 436.554 205.354 428.285 201.555 423.062C196.918 416.686 190.825 413.052 185.85 410.565C184.796 410.038 183.778 409.556 182.834 409.109C181.577 408.514 180.45 407.98 179.545 407.486C178.745 407.048 178.065 406.615 177.58 406.158C177.096 405.702 176.747 405.166 176.747 404.528C176.747 404.457 176.712 404.286 176.584 403.984C176.463 403.697 176.278 403.338 176.03 402.911C175.536 402.057 174.814 400.968 173.911 399.695C172.107 397.152 169.604 393.912 166.818 390.432C161.435 383.71 155.01 376.115 150.559 370.968C147.941 375.539 143.93 382.284 139.974 388.419C137.905 391.627 135.849 394.673 134.012 397.155C132.185 399.623 130.545 401.578 129.312 402.565C124.663 406.284 115.911 415.96 112.059 420.402L112.258 420.557C118.627 425.528 124.404 429.888 126.602 431.161C131.015 433.716 136.001 435.132 137.923 435.516L138.437 435.619L138.31 436.128C137.503 439.356 134.057 447.149 126.658 452.877C117.714 459.801 116.878 462.919 116.85 464.179C116.861 464.196 116.878 464.22 116.903 464.251C116.987 464.356 117.123 464.499 117.318 464.68C117.706 465.04 118.278 465.507 119.001 466.058C120.444 467.159 122.449 468.569 124.684 470.088C129.151 473.123 134.515 476.577 138.092 478.83L137.559 479.676C133.976 477.419 128.602 473.959 124.122 470.915C121.882 469.393 119.86 467.971 118.395 466.853C117.663 466.296 117.061 465.806 116.638 465.413C116.428 465.218 116.25 465.036 116.12 464.874C116.056 464.792 115.994 464.705 115.947 464.615C115.904 464.532 115.849 464.403 115.849 464.249C115.849 462.519 116.921 459.15 126.045 452.086C132.873 446.8 136.229 439.699 137.204 436.384C134.935 435.864 130.278 434.445 126.101 432.026C123.828 430.71 117.984 426.294 111.643 421.345L111.284 421.065L104.733 426.476L93.8486 407.126L94.5993 406.493C98.7818 409.885 105.198 415.032 111.266 419.782L111.291 419.761C115.124 415.341 123.949 405.574 128.687 401.784C129.807 400.888 131.379 399.032 133.208 396.56C135.027 394.102 137.071 391.076 139.133 387.878C143.258 381.481 147.446 374.414 150.041 369.859L150.391 369.246ZM110.477 420.434C105.369 416.433 100.033 412.168 96.0011 408.913L105.018 424.943L110.477 420.434ZM116.833 464.15L116.831 464.147C116.831 464.147 116.831 464.147 116.833 464.15Z" fill="url(#paint8_linear_600_358)"/>
    <path fill-rule="evenodd" clip-rule="evenodd" d="M259.751 407.977L259.993 408.386C260.823 409.785 262.248 412.002 263.821 414.094C265.407 416.205 267.095 418.122 268.446 418.987C269.9 419.918 271.618 420.679 273.312 421.43C273.663 421.585 274.012 421.74 274.358 421.896C276.33 422.784 278.231 423.721 279.32 424.965C280.598 426.426 290.07 436.094 297.384 443.528L307.616 439.356L330.206 459.855L329.534 460.596L307.41 440.52L298.142 444.298C299.666 445.847 301.076 447.277 302.27 448.488L302.32 448.539L302.354 448.601C303.342 450.429 305.393 455.589 305.858 461.866C306.291 467.708 306.083 471.579 305.891 473.064L328.248 494.852L327.55 495.568L304.825 473.422L304.866 473.166C305.049 472.023 305.319 468.122 304.861 461.94C304.413 455.886 302.448 450.909 301.508 449.139C300.25 447.864 298.756 446.348 297.141 444.707L288.749 448.128L258.202 420.78V417.739L243.522 421.094L239.798 418.487L259.751 407.977ZM296.383 443.936C289.112 436.545 279.849 427.088 278.568 425.624C277.647 424.571 275.959 423.714 273.947 422.807C273.615 422.658 273.275 422.507 272.93 422.354C271.235 421.604 269.432 420.805 267.907 419.83C266.387 418.857 264.606 416.803 263.022 414.695C261.569 412.762 260.242 410.728 259.378 409.304L241.714 418.608L243.732 420.02L259.202 416.484V420.333L288.951 446.966L296.383 443.936Z" fill="url(#paint9_linear_600_358)"/>
    <path fill-rule="evenodd" clip-rule="evenodd" d="M93.6025 407.697L93.4911 406.864L78.6755 417.667L78.661 417.68C76.6448 419.401 73.4164 422.261 70.2781 425.252C67.1479 428.235 64.0786 431.375 62.4023 433.65C60.9252 435.654 58.3419 437.769 55.5824 439.658C52.6489 437.444 49.9109 435.37 47.5151 433.549L47.2377 433.338L46.9438 433.525C42.479 436.371 35.6198 440.831 29.5515 444.963C26.5179 447.029 23.6784 449.015 21.4334 450.678L7.83731 442.687L-0.0169635 432.701L-7.67578 436.418L-7.33944 437.359L-0.378506 433.892L7.15535 443.446L20.565 451.327C18.7707 452.684 17.4219 453.804 16.823 454.512C16.2084 455.238 15.0042 456.324 13.423 457.624C11.8511 458.916 9.93445 460.396 7.91733 461.907C3.88352 464.927 -0.538626 468.057 -3.37865 470.015L-3.59479 470.164V480.271L-2.91768 480.014C0.304312 478.794 5.67155 476.975 11.2867 475.492C16.9152 474.006 22.7397 472.87 26.8993 472.986C35.3843 473.222 48.8876 473.084 54.576 472.986L56.0858 472.96L41.3075 462.358L22.3708 451.229C24.5443 449.63 27.2384 447.748 30.1144 445.789C36.0403 441.754 42.725 437.404 47.1875 434.556C49.441 436.268 51.9859 438.196 54.7042 440.248C51.7895 442.171 48.8403 443.777 46.9935 444.677L45.9287 445.195L54.1561 448.157C54.9526 450.966 56.2758 455.169 57.7493 458.965C58.5078 460.919 59.31 462.776 60.1046 464.282C60.887 465.766 61.7004 466.987 62.5048 467.591C62.9056 467.891 63.5954 468.251 64.4735 468.652C65.3637 469.058 66.4853 469.521 67.7769 470.026C70.3609 471.034 73.6447 472.211 77.1605 473.422C84.193 475.844 92.1707 478.405 97.3712 480.024L97.6685 479.069C92.4741 477.452 84.5064 474.894 77.4861 472.477C73.9755 471.268 70.7061 470.095 68.1405 469.094C66.8573 468.593 65.7549 468.137 64.8884 467.742C64.0098 467.341 63.41 467.019 63.1048 466.791C62.497 466.335 61.7709 465.298 60.9892 463.816C60.2197 462.357 59.4332 460.54 58.6815 458.603C57.1787 454.731 55.8303 450.423 55.0488 447.639L54.9792 447.391L48.4779 445.05C50.3821 444.069 52.9559 442.614 55.4843 440.931L55.5505 440.887C62.7554 446.321 71.0642 452.539 78.3585 457.9C83.5997 461.752 88.3206 465.164 91.7329 467.526C93.4375 468.706 94.8232 469.63 95.7863 470.215C96.2638 470.505 96.6561 470.724 96.938 470.848C97.0681 470.905 97.2247 470.965 97.3722 470.98C97.4393 470.987 97.5911 470.995 97.7435 470.908C97.9166 470.809 97.9964 470.647 98.0153 470.498C98.034 470.464 98.0708 470.409 98.1347 470.329C98.2625 470.17 98.4624 469.958 98.7369 469.694C99.2834 469.169 100.084 468.478 101.086 467.658C103.089 466.019 105.868 463.889 108.961 461.583C115.147 456.97 122.571 451.663 127.521 448.183L128.515 447.484L127.317 447.281C122.129 446.4 110.338 444.626 104.875 444.626C104.4 444.626 103.858 444.352 103.251 443.693C102.649 443.039 102.04 442.066 101.437 440.821C100.231 438.335 99.0953 434.869 98.0695 430.987C96.0198 423.231 94.4345 413.912 93.6025 407.697ZM78.9507 457.094C71.7518 451.803 63.563 445.676 56.4238 440.293C59.1118 438.43 61.6822 436.313 63.2073 434.243C64.8261 432.046 67.8368 428.96 70.968 425.976C74.0837 423.006 77.2902 420.165 79.2957 418.453L92.7246 408.661C93.5859 414.88 95.1283 423.771 97.1027 431.243C98.1338 435.145 99.289 438.684 100.537 441.258C101.16 442.543 101.819 443.613 102.515 444.37C103.207 445.121 103.996 445.626 104.875 445.626C109.858 445.626 120.316 447.142 125.949 448.066C121.03 451.535 114.156 456.461 108.364 460.781C105.267 463.09 102.474 465.23 100.453 466.884C99.4441 467.709 98.6194 468.42 98.0439 468.973C97.7574 469.248 97.522 469.495 97.3548 469.703C97.3083 469.761 97.2642 469.82 97.2244 469.878C97.0076 469.773 96.7014 469.601 96.3057 469.36C95.3692 468.791 94.0037 467.882 92.3021 466.704C88.9019 464.351 84.1902 460.945 78.9507 457.094ZM17.5864 455.157C18.1403 454.503 19.5293 453.353 21.4988 451.876L40.7616 463.197L53.0464 472.01C46.741 472.104 34.7091 472.203 26.9271 471.986C22.6138 471.867 16.6705 473.036 11.0313 474.525C5.75505 475.919 0.698516 477.606 -2.59479 478.826V470.689C0.257847 468.718 4.57094 465.662 8.5167 462.707C10.5399 461.192 12.4698 459.702 14.058 458.396C15.637 457.098 16.9065 455.961 17.5864 455.157ZM98.007 470.514L98.0051 470.519C98.0051 470.519 98.0059 470.516 98.007 470.514Z" fill="url(#paint10_linear_600_358)"/>
    <path d="M22.7746 452.642L20.1262 451.069L18.0293 451.235L19.3259 454.297L22.7746 452.642Z" fill="#2F3527"/>
    <path d="M18.4453 0.510742H255.797" stroke="url(#paint11_linear_600_358)"/>
    <path d="M254.978 0.510742V331.166" stroke="url(#paint12_linear_600_358)"/>
    <path d="M18.4453 0.510742V347.535" stroke="url(#paint13_linear_600_358)"/>
    <defs>
        <linearGradient id="paint0_linear_600_358" x1="143.196" y1="408.032" x2="125.418" y2="340.195" gradientUnits="userSpaceOnUse">
            <stop stop-color="#C59541"/>
            <stop offset="0.625261" stop-color="#FBDD78"/>
            <stop offset="1" stop-color="#BE9042"/>
        </linearGradient>
        <linearGradient id="paint1_linear_600_358" x1="-14.233" y1="324.004" x2="270.518" y2="324.004" gradientUnits="userSpaceOnUse">
            <stop stop-color="#C59541"/>
            <stop offset="0.369792" stop-color="#FBDD78"/>
            <stop offset="1" stop-color="#BE9042"/>
        </linearGradient>
        <linearGradient id="paint2_linear_600_358" x1="14.1677" y1="116.374" x2="245.775" y2="116.374" gradientUnits="userSpaceOnUse">
            <stop stop-color="#C59541"/>
            <stop offset="0.369792" stop-color="#FBDD78"/>
            <stop offset="1" stop-color="#BE9042"/>
        </linearGradient>
        <linearGradient id="paint3_linear_600_358" x1="14.1677" y1="116.374" x2="245.775" y2="116.374" gradientUnits="userSpaceOnUse">
            <stop stop-color="#C59541"/>
            <stop offset="0.369792" stop-color="#FBDD78"/>
            <stop offset="1" stop-color="#BE9042"/>
        </linearGradient>
        <linearGradient id="paint4_linear_600_358" x1="14.1677" y1="116.374" x2="245.775" y2="116.374" gradientUnits="userSpaceOnUse">
            <stop stop-color="#C59541"/>
            <stop offset="0.369792" stop-color="#FBDD78"/>
            <stop offset="1" stop-color="#BE9042"/>
        </linearGradient>
        <linearGradient id="paint5_linear_600_358" x1="14.1677" y1="116.374" x2="245.775" y2="116.374" gradientUnits="userSpaceOnUse">
            <stop stop-color="#C59541"/>
            <stop offset="0.369792" stop-color="#FBDD78"/>
            <stop offset="1" stop-color="#BE9042"/>
        </linearGradient>
        <linearGradient id="paint6_linear_600_358" x1="14.1677" y1="116.374" x2="245.775" y2="116.374" gradientUnits="userSpaceOnUse">
            <stop stop-color="#C59541"/>
            <stop offset="0.369792" stop-color="#FBDD78"/>
            <stop offset="1" stop-color="#BE9042"/>
        </linearGradient>
        <linearGradient id="paint7_linear_600_358" x1="14.1677" y1="116.374" x2="245.775" y2="116.374" gradientUnits="userSpaceOnUse">
            <stop stop-color="#C59541"/>
            <stop offset="0.369792" stop-color="#FBDD78"/>
            <stop offset="1" stop-color="#BE9042"/>
        </linearGradient>
        <linearGradient id="paint8_linear_600_358" x1="-48.6904" y1="432.407" x2="344.168" y2="432.407" gradientUnits="userSpaceOnUse">
            <stop stop-color="#C59541"/>
            <stop offset="0.369792" stop-color="#FBDD78"/>
            <stop offset="1" stop-color="#BE9042"/>
        </linearGradient>
        <linearGradient id="paint9_linear_600_358" x1="-48.6904" y1="432.407" x2="344.168" y2="432.407" gradientUnits="userSpaceOnUse">
            <stop stop-color="#C59541"/>
            <stop offset="0.369792" stop-color="#FBDD78"/>
            <stop offset="1" stop-color="#BE9042"/>
        </linearGradient>
        <linearGradient id="paint10_linear_600_358" x1="-48.6904" y1="432.407" x2="344.168" y2="432.407" gradientUnits="userSpaceOnUse">
            <stop stop-color="#C59541"/>
            <stop offset="0.369792" stop-color="#FBDD78"/>
            <stop offset="1" stop-color="#BE9042"/>
        </linearGradient>
        <linearGradient id="paint11_linear_600_358" x1="-10.3663" y1="1.01074" x2="265.605" y2="1.00963" gradientUnits="userSpaceOnUse">
            <stop stop-color="#C59541"/>
            <stop offset="0.369792" stop-color="#FBDD78"/>
            <stop offset="1" stop-color="#BE9042"/>
        </linearGradient>
        <linearGradient id="paint12_linear_600_358" x1="254.856" y1="165.839" x2="256.019" y2="165.839" gradientUnits="userSpaceOnUse">
            <stop stop-color="#C59541"/>
            <stop offset="0.369792" stop-color="#FBDD78"/>
            <stop offset="1" stop-color="#BE9042"/>
        </linearGradient>
        <linearGradient id="paint13_linear_600_358" x1="18.3239" y1="174.023" x2="19.4866" y2="174.023" gradientUnits="userSpaceOnUse">
            <stop stop-color="#C59541"/>
            <stop offset="0.369792" stop-color="#FBDD78"/>
            <stop offset="1" stop-color="#BE9042"/>
        </linearGradient>
    </defs>
</svg>
