<svg width="40" height="67" viewBox="0 0 40 67" fill="none" xmlns="http://www.w3.org/2000/svg">
<g clip-path="url(#clip0_1014_3117)">
<path d="M35.7901 3.45898H3.34009V62.899H35.7901V3.45898ZM34.2901 61.399H4.84009V4.95898H34.2901V61.399Z" fill="#060606"/>
<path d="M0 0.119141V66.2391H39.13V0.119141H0ZM37.63 64.7391H1.5V1.61914H37.63V64.7391Z" fill="#060606"/>
<path d="M31.21 34.8384C32.57 34.8384 33.67 33.7084 33.67 32.3284C33.67 30.9484 32.57 29.8184 31.21 29.8184C29.85 29.8184 28.75 30.9484 28.75 32.3284C28.75 33.7084 29.85 34.8384 31.21 34.8384ZM31.21 31.3084C31.74 31.3084 32.17 31.7684 32.17 32.3184C32.17 32.8684 31.74 33.3284 31.21 33.3284C30.68 33.3284 30.25 32.8684 30.25 32.3184C30.25 31.7684 30.68 31.3084 31.21 31.3084Z" fill="#060606"/>
<path d="M19.5701 17.5284C22.0501 17.5284 24.0001 16.1284 24.0001 14.3384C24.0001 12.5484 22.0601 11.1484 19.5701 11.1484C17.0801 11.1484 15.1401 12.5484 15.1401 14.3384C15.1401 16.1284 17.0901 17.5284 19.5701 17.5284ZM19.5701 12.6584C21.2901 12.6584 22.5001 13.5484 22.5001 14.3484C22.5001 15.1484 21.3001 16.0384 19.5701 16.0384C17.8401 16.0384 16.6401 15.1484 16.6401 14.3484C16.6401 13.5484 17.8401 12.6584 19.5701 12.6584Z" fill="#060606"/>
</g>
<defs>
<clipPath id="clip0_1014_3117">
<rect width="39.13" height="66.12" fill="white" transform="translate(0 0.119141)"/>
</clipPath>
</defs>
</svg>
