<svg width="385" height="94" viewBox="0 0 385 94" fill="none" xmlns="http://www.w3.org/2000/svg">
<path d="M7.6194 16.2194C9.95273 16.5927 12.2627 16.8494 14.5494 16.9894C16.8827 17.1294 19.1694 16.7794 21.4094 15.9394C22.2961 15.6594 23.0427 15.286 23.6494 14.8194C24.2561 14.306 24.8861 13.7227 25.5394 13.0694C25.7727 12.836 26.0761 12.6027 26.4494 12.3694C26.8227 12.0894 27.1961 12.0427 27.5694 12.2294C27.9894 12.416 28.1994 12.7427 28.1994 13.2094C28.1994 13.676 28.1294 14.0727 27.9894 14.3994C27.7094 15.0994 27.3127 15.706 26.7994 16.2194C26.6127 16.5927 26.4494 16.966 26.3094 17.3394C26.2161 17.666 26.1227 18.016 26.0294 18.3894C25.5627 20.1627 25.2594 21.9827 25.1194 23.8494C24.9794 25.6694 24.8627 27.4894 24.7694 29.3094C24.6294 32.996 24.6294 36.6594 24.7694 40.2994C24.8627 44.0794 25.0261 47.836 25.2594 51.5694C25.5394 55.256 25.8661 58.966 26.2394 62.6994C26.4261 64.426 26.5661 66.176 26.6594 67.9494C26.7527 69.7694 26.4727 71.496 25.8194 73.1294C25.1661 74.9027 24.0694 76.0694 22.5294 76.6294C20.9894 77.1894 19.3327 77.166 17.5594 76.5594C16.0661 76.046 14.6427 75.2994 13.2894 74.3194C11.9827 73.386 10.7461 72.3594 9.57939 71.2394C8.36606 70.026 7.24606 68.7427 6.21939 67.3894C5.19273 66.0827 4.28273 64.6827 3.48939 63.1894C2.69606 61.696 2.04273 60.156 1.52939 58.5694C1.06273 56.9827 0.852728 55.3494 0.899395 53.6694C0.899395 53.1094 0.946061 52.456 1.03939 51.7094C1.13273 50.9627 1.48273 50.4027 2.08939 50.0294C2.46273 49.796 2.76606 49.7494 2.99939 49.8894C3.27939 50.0294 3.48939 50.2627 3.62939 50.5894C3.76939 50.916 3.83939 51.266 3.83939 51.6394C3.88606 52.0127 3.90939 52.316 3.90939 52.5494C3.90939 53.3427 3.90939 54.0894 3.90939 54.7894C3.90939 55.4894 4.00273 56.236 4.18939 57.0294C4.37606 57.8227 4.58606 58.5694 4.81939 59.2694C5.09939 59.9694 5.42606 60.6694 5.79939 61.3694C6.54606 62.816 7.38606 64.1694 8.31939 65.4294C9.2994 66.736 10.3494 67.9727 11.4694 69.1394C12.5894 70.2594 13.8961 71.356 15.3894 72.4294C16.8827 73.5027 18.4461 74.1094 20.0794 74.2494C21.0127 74.3427 21.7361 74.1327 22.2494 73.6194C22.7627 73.1527 23.1361 72.546 23.3694 71.7994C23.6027 71.0527 23.7427 70.2594 23.7894 69.4194C23.8361 68.5794 23.8594 67.8327 23.8594 67.1794C23.7661 65.3127 23.6027 63.4694 23.3694 61.6494C23.1827 59.7827 23.0194 57.9394 22.8794 56.1194C22.7394 54.2994 22.5994 52.4794 22.4594 50.6594C22.3194 48.8394 22.2027 47.0194 22.1094 45.1994C21.9227 41.8394 21.8061 38.4794 21.7594 35.1194C21.7127 31.7594 21.8294 28.3994 22.1094 25.0394C22.2027 23.966 22.2961 22.8694 22.3894 21.7494C22.5294 20.6294 22.7161 19.5327 22.9494 18.4594C22.2027 18.7394 21.4561 18.9727 20.7094 19.1594C20.0094 19.2994 19.3327 19.416 18.6794 19.5094C15.0394 20.0694 11.3527 19.9527 7.6194 19.1594C7.15273 19.066 6.63939 18.9027 6.07939 18.6694C5.56606 18.3894 5.26273 17.9927 5.16939 17.4794C5.07606 17.1527 5.09939 16.896 5.23939 16.7094C5.42606 16.476 5.65939 16.336 5.93939 16.2894C6.21939 16.196 6.49939 16.1494 6.77939 16.1494C7.10606 16.1494 7.38606 16.1727 7.6194 16.2194ZM38.018 43.5194C37.4113 43.9394 36.898 44.476 36.478 45.1294C36.1047 45.736 35.778 46.4127 35.498 47.1594C35.218 47.906 34.9847 48.676 34.798 49.4694C34.658 50.216 34.5647 50.916 34.518 51.5694C34.4247 52.2227 34.378 53.016 34.378 53.9494C34.4247 54.8827 34.5413 55.7927 34.728 56.6794C34.9613 57.5194 35.3113 58.2894 35.778 58.9894C36.2447 59.6427 36.898 60.0394 37.738 60.1794C38.6247 60.3194 39.3947 60.1327 40.048 59.6194C40.748 59.0594 41.308 58.3594 41.728 57.5194C42.1947 56.6794 42.568 55.7927 42.848 54.8594C43.128 53.926 43.3147 53.1327 43.408 52.4794C43.548 51.826 43.6413 51.1727 43.688 50.5194C43.7813 49.8194 43.7813 49.1194 43.688 48.4194C43.5947 48.4194 43.5013 48.3727 43.408 48.2794C42.848 47.9527 42.288 47.486 41.728 46.8794C41.168 46.226 40.888 45.5494 40.888 44.8494C40.888 44.2427 41.098 43.7527 41.518 43.3794C41.938 42.9594 42.4513 42.796 43.058 42.8894C43.8513 42.9827 44.5047 43.3794 45.018 44.0794C45.5313 44.7794 45.9047 45.4794 46.138 46.1794V46.2494C47.118 46.5294 48.168 46.6927 49.288 46.7394C50.4547 46.7394 51.5047 46.4827 52.438 45.9694C53.558 45.3627 54.328 45.1527 54.748 45.3394C55.168 45.4794 55.308 45.7827 55.168 46.2494C55.0747 46.716 54.748 47.2294 54.188 47.7894C53.6747 48.3494 52.998 48.7694 52.158 49.0494C51.2713 49.3294 50.338 49.4927 49.358 49.5394C48.4247 49.5394 47.4913 49.4694 46.558 49.3294C46.558 50.7294 46.3947 52.1294 46.068 53.5294C45.7413 54.8827 45.3213 56.166 44.808 57.3794C44.4347 58.2194 43.968 59.036 43.408 59.8294C42.8947 60.576 42.288 61.2294 41.588 61.7894C40.888 62.3027 40.0947 62.6527 39.208 62.8394C38.368 63.0727 37.458 63.026 36.478 62.6994C35.5913 62.4194 34.8447 61.976 34.238 61.3694C33.6313 60.7627 33.1413 60.0627 32.768 59.2694C32.3947 58.476 32.1147 57.636 31.928 56.7494C31.788 55.8627 31.6947 54.9994 31.648 54.1594C31.5547 52.386 31.6713 50.6127 31.998 48.8394C32.3713 47.066 33.0013 45.4327 33.888 43.9394C34.2613 43.286 34.728 42.6327 35.288 41.9794C35.848 41.326 36.5247 40.9294 37.318 40.7894C37.6913 40.696 38.0647 40.7427 38.438 40.9294C38.8113 41.0694 39.0213 41.3494 39.068 41.7694C39.1147 42.1427 38.998 42.4694 38.718 42.7494C38.4847 43.0294 38.2513 43.286 38.018 43.5194ZM50.7591 59.6894C51.2724 58.056 51.6224 56.3994 51.8091 54.7194C51.9491 52.9927 52.0657 51.3127 52.1591 49.6794C52.2991 47.7194 52.3691 45.736 52.3691 43.7294V43.4494C51.8091 42.9827 51.5291 42.3527 51.5291 41.5594C51.5291 41.046 51.6457 40.626 51.8791 40.2994C52.1591 39.9727 52.4857 39.7627 52.8591 39.6694C53.2791 39.576 53.6757 39.6227 54.0491 39.8094C54.4224 39.9494 54.7257 40.2527 54.9591 40.7194C55.0524 40.906 55.1457 41.186 55.2391 41.5594C55.6124 41.6527 56.0091 41.6994 56.4291 41.6994C56.8491 41.6527 57.2457 41.6527 57.6191 41.6994C58.0857 41.6994 58.5291 41.746 58.9491 41.8394C59.4157 41.886 59.8124 42.0027 60.1391 42.1894C60.5124 42.376 60.7924 42.656 60.9791 43.0294C61.1657 43.356 61.2357 43.8227 61.1891 44.4294C61.1891 45.036 61.1191 45.6427 60.9791 46.2494C60.8857 46.8094 60.8157 47.3927 60.7691 47.9994C60.6757 48.746 60.6057 49.4694 60.5591 50.1694C60.5124 50.8694 60.4657 51.5927 60.4191 52.3394C60.4191 52.7594 60.3957 53.3427 60.3491 54.0894C60.3491 54.7894 60.3957 55.4894 60.4891 56.1894C60.5824 56.8427 60.7691 57.4494 61.0491 58.0094C61.3757 58.5227 61.8657 58.826 62.5191 58.9194C63.0324 59.0127 63.5224 58.896 63.9891 58.5694C64.5024 58.2427 64.9457 57.846 65.3191 57.3794C65.7391 56.866 66.0891 56.3527 66.3691 55.8394C66.6957 55.2794 66.9757 54.8127 67.2091 54.4394L68.7491 51.5694C69.1224 50.8694 69.5191 50.3794 69.9391 50.0994C70.4057 49.7727 70.8258 49.7027 71.1991 49.8894C71.5257 50.076 71.6891 50.4494 71.6891 51.0094C71.7358 51.5694 71.6191 52.176 71.3391 52.8294C70.9658 53.6694 70.4758 54.6494 69.8691 55.7694C69.3091 56.8427 68.6557 57.8694 67.9091 58.8494C67.1624 59.7827 66.2991 60.5527 65.3191 61.1594C64.3857 61.7194 63.3591 61.9294 62.2391 61.7894C60.9324 61.6027 59.9524 61.0894 59.2991 60.2494C58.6457 59.4094 58.1791 58.4294 57.8991 57.3094C57.6657 56.1894 57.5491 55.0227 57.5491 53.8094C57.5957 52.5494 57.6424 51.4527 57.6891 50.5194L58.1091 46.5294C58.1557 46.296 58.2024 46.0394 58.2491 45.7594C58.3424 45.4327 58.3891 45.1527 58.3891 44.9194C58.3424 44.686 58.2957 44.5694 58.2491 44.5694C58.2491 44.5227 58.1324 44.4994 57.8991 44.4994C57.5724 44.4527 57.2457 44.4294 56.9191 44.4294C56.5924 44.4294 56.2657 44.4294 55.9391 44.4294C55.5657 44.4294 55.3091 44.406 55.1691 44.3594V46.5994C55.0757 47.8594 55.0057 49.1194 54.9591 50.3794C54.9124 51.6394 54.8191 52.876 54.6791 54.0894C54.5857 55.1627 54.4691 56.236 54.3291 57.3094C54.1891 58.336 53.9557 59.3394 53.6291 60.3194C53.4891 60.7394 53.2091 61.206 52.7891 61.7194C52.4157 62.186 51.9724 62.3494 51.4591 62.2094C50.8991 62.0694 50.6191 61.7194 50.6191 61.1594C50.6191 60.5527 50.6657 60.0627 50.7591 59.6894ZM73.3756 44.5694C74.1223 43.916 74.939 43.356 75.8256 42.8894C76.759 42.4227 77.739 42.1427 78.7656 42.0494C78.3456 38.2227 78.1356 34.3727 78.1356 30.4994C78.1356 27.2794 78.2056 24.0827 78.3456 20.9094C78.5323 17.736 78.9056 14.586 79.4656 11.4594C79.699 10.0127 80.0023 8.56604 80.3756 7.11937C80.749 5.62604 81.3323 4.24937 82.1256 2.98937C82.4523 2.42937 82.8723 1.93937 83.3856 1.51937C83.899 1.09937 84.4356 0.819372 84.9956 0.679374C85.6023 0.539373 86.209 0.539373 86.8156 0.679374C87.4223 0.819372 87.9823 1.16937 88.4956 1.72937C89.429 2.80271 90.0123 4.08604 90.2456 5.57937C90.5256 7.07271 90.7356 8.47271 90.8756 9.77937C91.0156 11.4127 91.0856 13.0227 91.0856 14.6094C91.0856 16.196 91.039 17.806 90.9456 19.4394C90.8056 22.6594 90.5256 25.8327 90.1056 28.9594C89.6856 32.086 89.149 35.1894 88.4956 38.2694C87.9356 40.7427 87.2823 43.1694 86.5356 45.5494C85.8356 47.8827 84.9023 50.1694 83.7356 52.4094C83.7356 52.5027 83.759 52.5727 83.8056 52.6194C83.9456 53.0394 84.109 53.576 84.2956 54.2294C84.529 54.836 84.809 55.4427 85.1356 56.0494C85.4623 56.6094 85.8356 57.0994 86.2556 57.5194C86.6756 57.8927 87.1656 58.0794 87.7256 58.0794C88.4256 58.0794 89.1023 57.846 89.7556 57.3794C90.409 56.9127 90.9923 56.3527 91.5056 55.6994C92.0656 54.9994 92.5556 54.276 92.9756 53.5294C93.4423 52.736 93.8623 52.036 94.2356 51.4294C94.3756 51.1494 94.609 50.916 94.9356 50.7294C95.2623 50.5427 95.5656 50.4727 95.8456 50.5194C96.1256 50.5194 96.3356 50.6594 96.4756 50.9394C96.6623 51.1727 96.6856 51.5927 96.5456 52.1994C96.219 53.5527 95.6356 54.836 94.7956 56.0494C94.049 57.1694 93.1623 58.2194 92.1356 59.1994C91.1556 60.1794 89.9656 60.7627 88.5656 60.9494C87.7256 61.0427 86.9556 60.9727 86.2556 60.7394C85.6023 60.506 84.9956 60.156 84.4356 59.6894C83.8756 59.176 83.3623 58.5927 82.8956 57.9394C82.4756 57.2394 82.1023 56.4927 81.7756 55.6994C81.1223 56.6327 80.3756 57.496 79.5356 58.2894C78.7423 59.0827 77.879 59.7594 76.9456 60.3194C75.779 60.9727 74.519 61.276 73.1656 61.2294C71.859 61.136 70.7623 60.506 69.8756 59.3394C69.0356 58.2194 68.6156 56.936 68.6156 55.4894C68.6156 53.996 68.8023 52.6194 69.1756 51.3594C69.549 50.0994 70.0856 48.886 70.7856 47.7194C71.4856 46.5527 72.349 45.5027 73.3756 44.5694ZM81.1456 35.4694C81.239 37.616 81.379 39.7627 81.5656 41.9094C81.799 44.056 82.149 46.1794 82.6156 48.2794C82.989 47.346 83.3156 46.4127 83.5956 45.4794C83.9223 44.546 84.2256 43.5894 84.5056 42.6094C85.3456 39.576 86.0223 36.5194 86.5356 33.4394C87.0956 30.3594 87.539 27.256 87.8656 24.1294C88.0056 22.496 88.1223 20.886 88.2156 19.2994C88.309 17.666 88.3323 16.0327 88.2856 14.3994C88.2856 12.8594 88.239 11.3194 88.1456 9.77937C88.0523 8.19271 87.749 6.6527 87.2356 5.15937C87.1423 4.97271 87.0256 4.73937 86.8856 4.45937C86.7923 4.17937 86.6523 3.94604 86.4656 3.75937C86.3256 3.52604 86.139 3.38604 85.9056 3.33937C85.6723 3.29271 85.4156 3.38604 85.1356 3.61937C84.6223 4.03937 84.2256 4.62271 83.9456 5.36937C83.7123 6.06937 83.5023 6.7227 83.3156 7.32937C82.8023 8.86937 82.429 10.4327 82.1956 12.0194C81.9623 13.5594 81.7523 15.1227 81.5656 16.7094C81.1923 19.836 80.9823 22.9627 80.9356 26.0894C80.889 29.216 80.959 32.3427 81.1456 35.4694ZM79.1156 44.9194C78.1356 45.0127 77.2023 45.3627 76.3156 45.9694C75.4756 46.576 74.7756 47.2294 74.2156 47.9294C73.3756 48.956 72.6756 50.146 72.1156 51.4994C71.6023 52.8527 71.3923 54.206 71.4856 55.5594C71.5323 56.0727 71.649 56.586 71.8356 57.0994C72.0223 57.6127 72.3723 57.986 72.8856 58.2194C73.4923 58.4994 74.0756 58.5227 74.6356 58.2894C75.2423 58.0094 75.779 57.706 76.2456 57.3794C77.179 56.726 77.9956 55.956 78.6956 55.0694C79.3956 54.1827 80.0256 53.2494 80.5856 52.2694L79.7456 48.3494L79.1156 44.9194ZM105.88 45.1994C104.9 45.0594 103.967 45.1527 103.08 45.4794C102.24 45.806 101.447 46.2727 100.7 46.8794C99.9536 47.486 99.2769 48.186 98.6703 48.9794C98.1103 49.7727 97.6669 50.5894 97.3403 51.4294C97.0136 52.2227 96.7569 53.086 96.5703 54.0194C96.4303 54.9527 96.4769 55.8627 96.7103 56.7494C96.9436 57.5427 97.3636 58.1494 97.9703 58.5694C98.5769 58.9894 99.2769 59.0827 100.07 58.8494C101.144 58.5694 102.03 57.9394 102.73 56.9594C103.43 55.9794 103.967 54.906 104.34 53.7394L104.55 51.8494C104.597 51.5227 104.644 51.1727 104.69 50.7994C104.737 50.426 104.83 50.0527 104.97 49.6794C104.924 49.2594 104.9 48.8394 104.9 48.4194C104.947 47.9994 105.064 47.6027 105.25 47.2294C105.437 46.856 105.694 46.6227 106.02 46.5294C106.394 46.3894 106.767 46.4827 107.14 46.8094C107.607 47.2294 107.864 47.766 107.91 48.4194C108.004 49.0727 108.027 49.6794 107.98 50.2394C107.934 51.0327 107.817 51.8027 107.63 52.5494C107.49 53.296 107.304 54.0194 107.07 54.7194C107.07 55.6527 107.257 56.4694 107.63 57.1694C107.91 57.776 108.26 58.0094 108.68 57.8694C109.1 57.7294 109.497 57.426 109.87 56.9594C110.29 56.4927 110.664 56.0027 110.99 55.4894C111.317 54.9294 111.527 54.5327 111.62 54.2994C111.76 54.0194 111.877 53.6694 111.97 53.2494C112.11 52.8294 112.274 52.4327 112.46 52.0594C112.647 51.6394 112.857 51.2894 113.09 51.0094C113.37 50.6827 113.697 50.4727 114.07 50.3794C114.49 50.3327 114.794 50.426 114.98 50.6594C115.167 50.846 115.284 51.1027 115.33 51.4294C115.424 51.756 115.424 52.106 115.33 52.4794C115.284 52.8527 115.237 53.156 115.19 53.3894C114.957 54.0894 114.63 54.8594 114.21 55.6994C113.79 56.5394 113.3 57.3327 112.74 58.0794C112.18 58.826 111.527 59.456 110.78 59.9694C110.08 60.436 109.31 60.6694 108.47 60.6694C107.584 60.6694 106.86 60.4594 106.3 60.0394C105.787 59.6194 105.367 59.0827 105.04 58.4294C104.527 59.176 103.92 59.8294 103.22 60.3894C102.52 60.9494 101.727 61.346 100.84 61.5794C99.2069 61.9994 97.7136 61.766 96.3603 60.8794C95.0536 59.946 94.2369 58.6627 93.9103 57.0294C93.5836 55.396 93.6769 53.786 94.1903 52.1994C94.6569 50.566 95.3336 49.0727 96.2203 47.7194C97.0603 46.4127 98.1103 45.2694 99.3703 44.2894C100.63 43.3094 102.054 42.6794 103.64 42.3994C104.294 42.306 105.017 42.2827 105.81 42.3294C106.65 42.3294 107.304 42.6094 107.77 43.1694C108.004 43.4027 108.12 43.6827 108.12 44.0094C108.167 44.336 108.05 44.616 107.77 44.8494C107.537 45.0827 107.234 45.2227 106.86 45.2694C106.534 45.2694 106.207 45.246 105.88 45.1994ZM113.906 40.0194C114.512 40.9527 114.909 42.0027 115.096 43.1694C115.329 44.2894 115.516 45.386 115.656 46.4594C115.702 46.8327 115.726 47.2294 115.726 47.6494C115.772 48.0227 115.796 48.396 115.796 48.7694C116.076 48.3494 116.332 47.9527 116.566 47.5794C116.846 47.1594 117.149 46.7394 117.476 46.3194C118.129 45.386 118.852 44.476 119.646 43.5894C120.439 42.656 121.372 41.9327 122.446 41.4194C123.052 41.1394 123.589 41.046 124.056 41.1394C124.569 41.2327 124.989 41.466 125.316 41.8394C125.689 42.166 125.992 42.586 126.226 43.0994C126.506 43.566 126.692 44.0794 126.786 44.6394C126.972 45.7594 127.042 46.9027 126.996 48.0694C126.996 49.1894 126.949 50.3327 126.856 51.4994C126.762 52.6194 126.669 53.7627 126.576 54.9294C126.482 56.0494 126.482 57.1694 126.576 58.2894C126.576 58.476 126.576 58.7094 126.576 58.9894C126.622 59.2227 126.669 59.456 126.716 59.6894C126.809 59.9227 126.926 60.1094 127.066 60.2494C127.252 60.3427 127.486 60.3427 127.766 60.2494C128.092 60.156 128.396 59.9694 128.676 59.6894C128.956 59.4094 129.212 59.1527 129.446 58.9194C130.192 58.1727 130.822 57.3794 131.336 56.5394C131.849 55.6527 132.362 54.7427 132.876 53.8094C133.109 53.3894 133.319 52.9694 133.506 52.5494C133.692 52.0827 133.879 51.686 134.066 51.3594C134.299 50.986 134.532 50.706 134.766 50.5194C134.999 50.3327 135.256 50.3094 135.536 50.4494C135.816 50.5894 136.002 50.846 136.096 51.2194C136.189 51.546 136.212 51.9194 136.166 52.3394C136.166 52.7594 136.096 53.1794 135.956 53.5994C135.862 53.9727 135.769 54.276 135.676 54.5094C135.302 55.256 134.882 56.0494 134.416 56.8894C133.949 57.7294 133.436 58.546 132.876 59.3394C132.316 60.086 131.686 60.786 130.986 61.4394C130.332 62.046 129.609 62.5127 128.816 62.8394C127.836 63.2594 126.902 63.2827 126.016 62.9094C125.176 62.536 124.569 61.8594 124.196 60.8794C123.822 59.946 123.636 58.966 123.636 57.9394C123.682 56.9127 123.729 55.9094 123.776 54.9294C123.869 53.716 123.962 52.526 124.056 51.3594C124.149 50.1927 124.196 49.0027 124.196 47.7894C124.196 47.276 124.172 46.7627 124.126 46.2494C124.126 45.6894 124.056 45.1527 123.916 44.6394C123.822 44.3127 123.729 44.126 123.636 44.0794C123.589 44.0327 123.426 44.0794 123.146 44.2194C122.259 44.7327 121.466 45.5027 120.766 46.5294C120.066 47.5094 119.436 48.4194 118.876 49.2594C118.316 50.146 117.779 51.0794 117.266 52.0594C116.752 52.9927 116.309 53.9494 115.936 54.9294C115.889 55.4894 115.842 56.0494 115.796 56.6094C115.796 57.1694 115.796 57.7294 115.796 58.2894C115.749 58.896 115.679 59.5494 115.586 60.2494C115.492 60.9494 115.166 61.486 114.606 61.8594C114.139 62.186 113.766 62.256 113.486 62.0694C113.252 61.9294 113.089 61.6727 112.996 61.2994C112.762 61.3927 112.506 61.3227 112.226 61.0894C111.899 60.8094 111.712 60.436 111.666 59.9694C111.619 59.456 111.642 59.0127 111.736 58.6394C111.969 57.846 112.202 57.076 112.436 56.3294C112.622 55.5827 112.856 54.836 113.136 54.0894C113.229 52.2227 113.206 50.356 113.066 48.4894C112.926 46.576 112.599 44.7327 112.086 42.9594C111.852 42.3994 111.572 41.816 111.246 41.2094C110.872 40.556 110.709 39.926 110.756 39.3194C110.756 38.806 110.896 38.526 111.176 38.4794C111.456 38.386 111.782 38.4327 112.156 38.6194C112.529 38.806 112.879 39.0394 113.206 39.3194C113.532 39.5994 113.766 39.8327 113.906 40.0194ZM169.043 39.1794C169.043 37.8727 169.043 36.5894 169.043 35.3294C169.09 34.0694 169.137 32.8094 169.183 31.5494C169.183 30.196 169.183 28.8894 169.183 27.6294C169.23 26.3227 169.207 25.016 169.113 23.7094C169.067 22.4494 168.997 21.1427 168.903 19.7894C168.81 18.3894 168.483 17.1294 167.923 16.0094C167.597 15.4027 167.223 15.076 166.803 15.0294C166.383 14.936 165.963 15.0294 165.543 15.3094C165.123 15.5427 164.727 15.8927 164.353 16.3594C164.027 16.7794 163.747 17.176 163.513 17.5494C162.86 18.6227 162.323 19.7427 161.903 20.9094C161.53 22.0294 161.18 23.196 160.853 24.4094C160.2 27.0227 159.687 29.6594 159.313 32.3194C158.94 34.9327 158.637 37.5694 158.403 40.2294C158.217 42.936 158.1 45.6194 158.053 48.2794C158.053 50.9394 158.17 53.5994 158.403 56.2594C158.59 58.6394 158.87 61.0894 159.243 63.6094C159.663 66.1294 160.433 68.4627 161.553 70.6094C162.113 71.636 162.837 72.4294 163.723 72.9894C164.61 73.596 165.613 73.5027 166.733 72.7094C167.667 72.0094 168.483 71.146 169.183 70.1194C169.883 69.1394 170.49 68.1127 171.003 67.0394C172.123 64.7994 173.057 62.3727 173.803 59.7594C174.597 57.0994 174.877 54.486 174.643 51.9194C174.597 51.4527 174.503 50.9627 174.363 50.4494C174.27 49.8894 174.083 49.376 173.803 48.9094C173.57 48.4427 173.267 48.0694 172.893 47.7894C172.52 47.4627 172.03 47.276 171.423 47.2294C170.257 47.136 169.09 47.3694 167.923 47.9294C166.757 48.4427 165.707 49.0027 164.773 49.6094C164.54 49.7494 164.237 49.9594 163.863 50.2394C163.49 50.4727 163.093 50.6827 162.673 50.8694C162.3 51.0094 161.95 51.056 161.623 51.0094C161.297 50.9627 161.063 50.706 160.923 50.2394C160.83 49.866 160.877 49.516 161.063 49.1894C161.25 48.816 161.483 48.4894 161.763 48.2094C162.043 47.9294 162.347 47.6727 162.673 47.4394C163.047 47.206 163.373 46.996 163.653 46.8094C164.587 46.2494 165.613 45.736 166.733 45.2694C167.9 44.8027 169.043 44.5227 170.163 44.4294C171.33 44.2894 172.427 44.406 173.453 44.7794C174.48 45.1527 175.367 45.8994 176.113 47.0194C176.767 48.046 177.187 49.166 177.373 50.3794C177.607 51.546 177.677 52.7594 177.583 54.0194C177.537 55.2794 177.373 56.5394 177.093 57.7994C176.86 59.0127 176.58 60.156 176.253 61.2294C175.927 62.396 175.53 63.586 175.063 64.7994C174.643 66.0594 174.13 67.2494 173.523 68.3694C172.963 69.536 172.31 70.6327 171.563 71.6594C170.817 72.7327 169.953 73.666 168.973 74.4594C168.04 75.2527 166.99 75.7894 165.823 76.0694C164.703 76.3494 163.583 76.186 162.463 75.5794C161.39 75.0194 160.527 74.2494 159.873 73.2694C159.267 72.2894 158.753 71.2627 158.333 70.1894C157.307 67.6694 156.607 65.0794 156.233 62.4194C155.907 59.7594 155.65 57.0994 155.463 54.4394C155.183 49.2127 155.23 43.9394 155.603 38.6194C156.023 33.2527 156.957 28.026 158.403 22.9394C158.683 22.006 159.01 20.9327 159.383 19.7194C159.803 18.4594 160.317 17.2694 160.923 16.1494C161.577 15.0294 162.347 14.0727 163.233 13.2794C164.12 12.486 165.17 12.066 166.383 12.0194C167.597 11.9727 168.553 12.3227 169.253 13.0694C170 13.816 170.56 14.726 170.933 15.7994C171.307 16.8727 171.563 18.016 171.703 19.2294C171.843 20.396 171.937 21.4227 171.983 22.3094C172.123 21.936 172.333 21.586 172.613 21.2594C172.893 20.886 173.267 20.7227 173.733 20.7694C174.34 20.8627 174.643 21.2127 174.643 21.8194C174.69 22.426 174.667 22.9394 174.573 23.3594C174.34 24.4327 174.06 25.4827 173.733 26.5094C173.453 27.536 173.197 28.586 172.963 29.6594C172.777 30.7327 172.613 31.806 172.473 32.8794C172.333 33.9527 172.24 35.026 172.193 36.0994C172.193 36.7994 172.24 37.5227 172.333 38.2694C172.427 39.016 172.357 39.716 172.123 40.3694C172.03 40.7427 171.82 41.0694 171.493 41.3494C171.213 41.5827 170.887 41.6294 170.513 41.4894C169.953 41.7227 169.557 41.5127 169.323 40.8594C169.09 40.206 168.997 39.646 169.043 39.1794ZM179.343 59.6894C179.856 58.056 180.206 56.3994 180.393 54.7194C180.533 52.9927 180.65 51.3127 180.743 49.6794C180.883 47.7194 180.953 45.736 180.953 43.7294V43.4494C180.393 42.9827 180.113 42.3527 180.113 41.5594C180.113 41.046 180.23 40.626 180.463 40.2994C180.743 39.9727 181.07 39.7627 181.443 39.6694C181.863 39.576 182.26 39.6227 182.633 39.8094C183.006 39.9494 183.31 40.2527 183.543 40.7194C183.636 40.906 183.73 41.186 183.823 41.5594C184.196 41.6527 184.593 41.6994 185.013 41.6994C185.433 41.6527 185.83 41.6527 186.203 41.6994C186.67 41.6994 187.113 41.746 187.533 41.8394C188 41.886 188.396 42.0027 188.723 42.1894C189.096 42.376 189.376 42.656 189.563 43.0294C189.75 43.356 189.82 43.8227 189.773 44.4294C189.773 45.036 189.703 45.6427 189.563 46.2494C189.47 46.8094 189.4 47.3927 189.353 47.9994C189.26 48.746 189.19 49.4694 189.143 50.1694C189.096 50.8694 189.05 51.5927 189.003 52.3394C189.003 52.7594 188.98 53.3427 188.933 54.0894C188.933 54.7894 188.98 55.4894 189.073 56.1894C189.166 56.8427 189.353 57.4494 189.633 58.0094C189.96 58.5227 190.45 58.826 191.103 58.9194C191.616 59.0127 192.106 58.896 192.573 58.5694C193.086 58.2427 193.53 57.846 193.903 57.3794C194.323 56.866 194.673 56.3527 194.953 55.8394C195.28 55.2794 195.56 54.8127 195.793 54.4394L197.333 51.5694C197.706 50.8694 198.103 50.3794 198.523 50.0994C198.99 49.7727 199.41 49.7027 199.783 49.8894C200.11 50.076 200.273 50.4494 200.273 51.0094C200.32 51.5694 200.203 52.176 199.923 52.8294C199.55 53.6694 199.06 54.6494 198.453 55.7694C197.893 56.8427 197.24 57.8694 196.493 58.8494C195.746 59.7827 194.883 60.5527 193.903 61.1594C192.97 61.7194 191.943 61.9294 190.823 61.7894C189.516 61.6027 188.536 61.0894 187.883 60.2494C187.23 59.4094 186.763 58.4294 186.483 57.3094C186.25 56.1894 186.133 55.0227 186.133 53.8094C186.18 52.5494 186.226 51.4527 186.273 50.5194L186.693 46.5294C186.74 46.296 186.786 46.0394 186.833 45.7594C186.926 45.4327 186.973 45.1527 186.973 44.9194C186.926 44.686 186.88 44.5694 186.833 44.5694C186.833 44.5227 186.716 44.4994 186.483 44.4994C186.156 44.4527 185.83 44.4294 185.503 44.4294C185.176 44.4294 184.85 44.4294 184.523 44.4294C184.15 44.4294 183.893 44.406 183.753 44.3594V46.5994C183.66 47.8594 183.59 49.1194 183.543 50.3794C183.496 51.6394 183.403 52.876 183.263 54.0894C183.17 55.1627 183.053 56.236 182.913 57.3094C182.773 58.336 182.54 59.3394 182.213 60.3194C182.073 60.7394 181.793 61.206 181.373 61.7194C181 62.186 180.556 62.3494 180.043 62.2094C179.483 62.0694 179.203 61.7194 179.203 61.1594C179.203 60.5527 179.25 60.0627 179.343 59.6894ZM209.24 45.1994C208.26 45.0594 207.326 45.1527 206.44 45.4794C205.6 45.806 204.806 46.2727 204.06 46.8794C203.313 47.486 202.636 48.186 202.03 48.9794C201.47 49.7727 201.026 50.5894 200.7 51.4294C200.373 52.2227 200.116 53.086 199.93 54.0194C199.79 54.9527 199.836 55.8627 200.07 56.7494C200.303 57.5427 200.723 58.1494 201.33 58.5694C201.936 58.9894 202.636 59.0827 203.43 58.8494C204.503 58.5694 205.39 57.9394 206.09 56.9594C206.79 55.9794 207.326 54.906 207.7 53.7394L207.91 51.8494C207.956 51.5227 208.003 51.1727 208.05 50.7994C208.096 50.426 208.19 50.0527 208.33 49.6794C208.283 49.2594 208.26 48.8394 208.26 48.4194C208.306 47.9994 208.423 47.6027 208.61 47.2294C208.796 46.856 209.053 46.6227 209.38 46.5294C209.753 46.3894 210.126 46.4827 210.5 46.8094C210.966 47.2294 211.223 47.766 211.27 48.4194C211.363 49.0727 211.386 49.6794 211.34 50.2394C211.293 51.0327 211.176 51.8027 210.99 52.5494C210.85 53.296 210.663 54.0194 210.43 54.7194C210.43 55.6527 210.616 56.4694 210.99 57.1694C211.27 57.776 211.62 58.0094 212.04 57.8694C212.46 57.7294 212.856 57.426 213.23 56.9594C213.65 56.4927 214.023 56.0027 214.35 55.4894C214.676 54.9294 214.886 54.5327 214.98 54.2994C215.12 54.0194 215.236 53.6694 215.33 53.2494C215.47 52.8294 215.633 52.4327 215.82 52.0594C216.006 51.6394 216.216 51.2894 216.45 51.0094C216.73 50.6827 217.056 50.4727 217.43 50.3794C217.85 50.3327 218.153 50.426 218.34 50.6594C218.526 50.846 218.643 51.1027 218.69 51.4294C218.783 51.756 218.783 52.106 218.69 52.4794C218.643 52.8527 218.596 53.156 218.55 53.3894C218.316 54.0894 217.99 54.8594 217.57 55.6994C217.15 56.5394 216.66 57.3327 216.1 58.0794C215.54 58.826 214.886 59.456 214.14 59.9694C213.44 60.436 212.67 60.6694 211.83 60.6694C210.943 60.6694 210.22 60.4594 209.66 60.0394C209.146 59.6194 208.726 59.0827 208.4 58.4294C207.886 59.176 207.28 59.8294 206.58 60.3894C205.88 60.9494 205.086 61.346 204.2 61.5794C202.566 61.9994 201.073 61.766 199.72 60.8794C198.413 59.946 197.596 58.6627 197.27 57.0294C196.943 55.396 197.036 53.786 197.55 52.1994C198.016 50.566 198.693 49.0727 199.58 47.7194C200.42 46.4127 201.47 45.2694 202.73 44.2894C203.99 43.3094 205.413 42.6794 207 42.3994C207.653 42.306 208.376 42.2827 209.17 42.3294C210.01 42.3294 210.663 42.6094 211.13 43.1694C211.363 43.4027 211.48 43.6827 211.48 44.0094C211.526 44.336 211.41 44.616 211.13 44.8494C210.896 45.0827 210.593 45.2227 210.22 45.2694C209.893 45.2694 209.566 45.246 209.24 45.1994ZM217.265 40.0194C217.872 40.9527 218.268 42.0027 218.455 43.1694C218.688 44.2894 218.875 45.386 219.015 46.4594C219.062 46.8327 219.085 47.2294 219.085 47.6494C219.132 48.0227 219.155 48.396 219.155 48.7694C219.435 48.3494 219.692 47.9527 219.925 47.5794C220.205 47.1594 220.508 46.7394 220.835 46.3194C221.488 45.386 222.212 44.476 223.005 43.5894C223.798 42.656 224.732 41.9327 225.805 41.4194C226.412 41.1394 226.948 41.046 227.415 41.1394C227.928 41.2327 228.348 41.466 228.675 41.8394C229.048 42.166 229.352 42.586 229.585 43.0994C229.865 43.566 230.052 44.0794 230.145 44.6394C230.332 45.7594 230.402 46.9027 230.355 48.0694C230.355 49.1894 230.308 50.3327 230.215 51.4994C230.122 52.6194 230.028 53.7627 229.935 54.9294C229.842 56.0494 229.842 57.1694 229.935 58.2894C229.935 58.476 229.935 58.7094 229.935 58.9894C229.982 59.2227 230.028 59.456 230.075 59.6894C230.168 59.9227 230.285 60.1094 230.425 60.2494C230.612 60.3427 230.845 60.3427 231.125 60.2494C231.452 60.156 231.755 59.9694 232.035 59.6894C232.315 59.4094 232.572 59.1527 232.805 58.9194C233.552 58.1727 234.182 57.3794 234.695 56.5394C235.208 55.6527 235.722 54.7427 236.235 53.8094C236.468 53.3894 236.678 52.9694 236.865 52.5494C237.052 52.0827 237.238 51.686 237.425 51.3594C237.658 50.986 237.892 50.706 238.125 50.5194C238.358 50.3327 238.615 50.3094 238.895 50.4494C239.175 50.5894 239.362 50.846 239.455 51.2194C239.548 51.546 239.572 51.9194 239.525 52.3394C239.525 52.7594 239.455 53.1794 239.315 53.5994C239.222 53.9727 239.128 54.276 239.035 54.5094C238.662 55.256 238.242 56.0494 237.775 56.8894C237.308 57.7294 236.795 58.546 236.235 59.3394C235.675 60.086 235.045 60.786 234.345 61.4394C233.692 62.046 232.968 62.5127 232.175 62.8394C231.195 63.2594 230.262 63.2827 229.375 62.9094C228.535 62.536 227.928 61.8594 227.555 60.8794C227.182 59.946 226.995 58.966 226.995 57.9394C227.042 56.9127 227.088 55.9094 227.135 54.9294C227.228 53.716 227.322 52.526 227.415 51.3594C227.508 50.1927 227.555 49.0027 227.555 47.7894C227.555 47.276 227.532 46.7627 227.485 46.2494C227.485 45.6894 227.415 45.1527 227.275 44.6394C227.182 44.3127 227.088 44.126 226.995 44.0794C226.948 44.0327 226.785 44.0794 226.505 44.2194C225.618 44.7327 224.825 45.5027 224.125 46.5294C223.425 47.5094 222.795 48.4194 222.235 49.2594C221.675 50.146 221.138 51.0794 220.625 52.0594C220.112 52.9927 219.668 53.9494 219.295 54.9294C219.248 55.4894 219.202 56.0494 219.155 56.6094C219.155 57.1694 219.155 57.7294 219.155 58.2894C219.108 58.896 219.038 59.5494 218.945 60.2494C218.852 60.9494 218.525 61.486 217.965 61.8594C217.498 62.186 217.125 62.256 216.845 62.0694C216.612 61.9294 216.448 61.6727 216.355 61.2994C216.122 61.3927 215.865 61.3227 215.585 61.0894C215.258 60.8094 215.072 60.436 215.025 59.9694C214.978 59.456 215.002 59.0127 215.095 58.6394C215.328 57.846 215.562 57.076 215.795 56.3294C215.982 55.5827 216.215 54.836 216.495 54.0894C216.588 52.2227 216.565 50.356 216.425 48.4894C216.285 46.576 215.958 44.7327 215.445 42.9594C215.212 42.3994 214.932 41.816 214.605 41.2094C214.232 40.556 214.068 39.926 214.115 39.3194C214.115 38.806 214.255 38.526 214.535 38.4794C214.815 38.386 215.142 38.4327 215.515 38.6194C215.888 38.806 216.238 39.0394 216.565 39.3194C216.892 39.5994 217.125 39.8327 217.265 40.0194ZM241.471 44.5694C242.218 43.916 243.035 43.356 243.921 42.8894C244.855 42.4227 245.835 42.1427 246.861 42.0494C246.441 38.2227 246.231 34.3727 246.231 30.4994C246.231 27.2794 246.301 24.0827 246.441 20.9094C246.628 17.736 247.001 14.586 247.561 11.4594C247.795 10.0127 248.098 8.56604 248.471 7.11937C248.845 5.62604 249.428 4.24937 250.221 2.98937C250.548 2.42937 250.968 1.93937 251.481 1.51937C251.995 1.09937 252.531 0.819372 253.091 0.679374C253.698 0.539373 254.305 0.539373 254.911 0.679374C255.518 0.819372 256.078 1.16937 256.591 1.72937C257.525 2.80271 258.108 4.08604 258.341 5.57937C258.621 7.07271 258.831 8.47271 258.971 9.77937C259.111 11.4127 259.181 13.0227 259.181 14.6094C259.181 16.196 259.135 17.806 259.041 19.4394C258.901 22.6594 258.621 25.8327 258.201 28.9594C257.781 32.086 257.245 35.1894 256.591 38.2694C256.031 40.7427 255.378 43.1694 254.631 45.5494C253.931 47.8827 252.998 50.1694 251.831 52.4094C251.831 52.5027 251.855 52.5727 251.901 52.6194C252.041 53.0394 252.205 53.576 252.391 54.2294C252.625 54.836 252.905 55.4427 253.231 56.0494C253.558 56.6094 253.931 57.0994 254.351 57.5194C254.771 57.8927 255.261 58.0794 255.821 58.0794C256.521 58.0794 257.198 57.846 257.851 57.3794C258.505 56.9127 259.088 56.3527 259.601 55.6994C260.161 54.9994 260.651 54.276 261.071 53.5294C261.538 52.736 261.958 52.036 262.331 51.4294C262.471 51.1494 262.705 50.916 263.031 50.7294C263.358 50.5427 263.661 50.4727 263.941 50.5194C264.221 50.5194 264.431 50.6594 264.571 50.9394C264.758 51.1727 264.781 51.5927 264.641 52.1994C264.315 53.5527 263.731 54.836 262.891 56.0494C262.145 57.1694 261.258 58.2194 260.231 59.1994C259.251 60.1794 258.061 60.7627 256.661 60.9494C255.821 61.0427 255.051 60.9727 254.351 60.7394C253.698 60.506 253.091 60.156 252.531 59.6894C251.971 59.176 251.458 58.5927 250.991 57.9394C250.571 57.2394 250.198 56.4927 249.871 55.6994C249.218 56.6327 248.471 57.496 247.631 58.2894C246.838 59.0827 245.975 59.7594 245.041 60.3194C243.875 60.9727 242.615 61.276 241.261 61.2294C239.955 61.136 238.858 60.506 237.971 59.3394C237.131 58.2194 236.711 56.936 236.711 55.4894C236.711 53.996 236.898 52.6194 237.271 51.3594C237.645 50.0994 238.181 48.886 238.881 47.7194C239.581 46.5527 240.445 45.5027 241.471 44.5694ZM249.241 35.4694C249.335 37.616 249.475 39.7627 249.661 41.9094C249.895 44.056 250.245 46.1794 250.711 48.2794C251.085 47.346 251.411 46.4127 251.691 45.4794C252.018 44.546 252.321 43.5894 252.601 42.6094C253.441 39.576 254.118 36.5194 254.631 33.4394C255.191 30.3594 255.635 27.256 255.961 24.1294C256.101 22.496 256.218 20.886 256.311 19.2994C256.405 17.666 256.428 16.0327 256.381 14.3994C256.381 12.8594 256.335 11.3194 256.241 9.77937C256.148 8.19271 255.845 6.6527 255.331 5.15937C255.238 4.97271 255.121 4.73937 254.981 4.45937C254.888 4.17937 254.748 3.94604 254.561 3.75937C254.421 3.52604 254.235 3.38604 254.001 3.33937C253.768 3.29271 253.511 3.38604 253.231 3.61937C252.718 4.03937 252.321 4.62271 252.041 5.36937C251.808 6.06937 251.598 6.7227 251.411 7.32937C250.898 8.86937 250.525 10.4327 250.291 12.0194C250.058 13.5594 249.848 15.1227 249.661 16.7094C249.288 19.836 249.078 22.9627 249.031 26.0894C248.985 29.216 249.055 32.3427 249.241 35.4694ZM247.211 44.9194C246.231 45.0127 245.298 45.3627 244.411 45.9694C243.571 46.576 242.871 47.2294 242.311 47.9294C241.471 48.956 240.771 50.146 240.211 51.4994C239.698 52.8527 239.488 54.206 239.581 55.5594C239.628 56.0727 239.745 56.586 239.931 57.0994C240.118 57.6127 240.468 57.986 240.981 58.2194C241.588 58.4994 242.171 58.5227 242.731 58.2894C243.338 58.0094 243.875 57.706 244.341 57.3794C245.275 56.726 246.091 55.956 246.791 55.0694C247.491 54.1827 248.121 53.2494 248.681 52.2694L247.841 48.3494L247.211 44.9194ZM265.436 44.9894C265.343 46.1094 265.296 47.2294 265.296 48.3494C265.343 49.4694 265.436 50.5894 265.576 51.7094C265.669 52.456 265.809 53.2027 265.996 53.9494C266.183 54.696 266.463 55.4194 266.836 56.1194C266.883 56.2127 266.976 56.376 267.116 56.6094C267.256 56.8427 267.396 57.0994 267.536 57.3794C267.723 57.6127 267.886 57.8227 268.026 58.0094C268.213 58.196 268.376 58.2894 268.516 58.2894C268.656 58.2894 268.796 58.1494 268.936 57.8694C269.123 57.5894 269.286 57.286 269.426 56.9594C269.566 56.6327 269.683 56.3294 269.776 56.0494C269.916 55.7227 270.009 55.5127 270.056 55.4194C270.383 54.626 270.663 53.8327 270.896 53.0394C271.129 52.1994 271.316 51.3594 271.456 50.5194C271.596 49.8194 271.713 49.096 271.806 48.3494C271.946 47.556 271.969 46.7627 271.876 45.9694C271.456 45.736 271.036 45.4094 270.616 44.9894C270.103 44.476 269.776 43.8694 269.636 43.1694C269.543 42.4227 269.823 41.7927 270.476 41.2794C271.129 40.766 271.783 40.6494 272.436 40.9294C273.089 41.2094 273.579 41.676 273.906 42.3294C274.233 43.0294 274.419 43.6594 274.466 44.2194C275.306 44.5927 276.286 44.896 277.406 45.1294C278.526 45.3627 279.693 45.4327 280.906 45.3394C281.793 45.2927 282.469 45.386 282.936 45.6194C283.449 45.806 283.729 46.0627 283.776 46.3894C283.823 46.6694 283.659 46.9727 283.286 47.2994C282.959 47.5794 282.399 47.766 281.606 47.8594C280.533 47.9994 279.389 48.0227 278.176 47.9294C276.963 47.836 275.796 47.6027 274.676 47.2294C274.629 49.096 274.349 50.9627 273.836 52.8294C273.323 54.696 272.669 56.446 271.876 58.0794C271.736 58.406 271.549 58.756 271.316 59.1294C271.129 59.5027 270.919 59.876 270.686 60.2494C270.453 60.576 270.173 60.8794 269.846 61.1594C269.519 61.3927 269.169 61.5327 268.796 61.5794C268.423 61.626 268.049 61.5327 267.676 61.2994C267.303 61.066 266.999 60.8327 266.766 60.5994C265.833 59.7594 265.086 58.8027 264.526 57.7294C263.966 56.656 263.523 55.536 263.196 54.3694C262.963 53.4827 262.799 52.596 262.706 51.7094C262.613 50.8227 262.543 49.936 262.496 49.0494C262.449 48.3027 262.426 47.556 262.426 46.8094C262.426 46.016 262.496 45.246 262.636 44.4994C262.729 44.126 262.916 43.706 263.196 43.2394C263.476 42.7727 263.873 42.5627 264.386 42.6094C264.899 42.656 265.226 42.9594 265.366 43.5194C265.506 44.0794 265.529 44.5694 265.436 44.9894ZM283.773 43.5894C283.539 45.4094 283.329 47.2527 283.143 49.1194C283.003 50.9394 283.003 52.7827 283.143 54.6494C283.236 55.3494 283.353 56.1427 283.493 57.0294C283.633 57.916 283.983 58.616 284.543 59.1294C284.869 59.4094 285.219 59.5494 285.593 59.5494C285.966 59.5494 286.316 59.4794 286.643 59.3394C287.016 59.1527 287.366 58.9427 287.693 58.7094C288.019 58.4294 288.299 58.1727 288.533 57.9394C289.326 57.0994 290.003 56.1427 290.563 55.0694C291.123 53.996 291.613 52.9227 292.033 51.8494C292.406 50.9627 292.849 50.3327 293.363 49.9594C293.876 49.5394 294.296 49.4227 294.623 49.6094C294.949 49.796 295.113 50.2627 295.113 51.0094C295.159 51.7094 295.019 52.4094 294.693 53.1094C294.133 54.3694 293.456 55.676 292.663 57.0294C291.963 58.196 291.076 59.3394 290.003 60.4594C288.976 61.5327 287.716 62.1394 286.223 62.2794C284.496 62.466 283.213 62.0227 282.373 60.9494C281.533 59.8294 280.949 58.476 280.623 56.8894C280.296 55.3027 280.156 53.6694 280.203 51.9894C280.249 50.2627 280.319 48.8627 280.413 47.7894C280.459 47.1827 280.506 46.5994 280.553 46.0394C280.599 45.4327 280.669 44.826 280.763 44.2194C280.809 43.846 280.856 43.4727 280.903 43.0994C280.996 42.6794 281.159 42.2827 281.393 41.9094C281.579 41.676 281.813 41.466 282.093 41.2794C282.373 41.0927 282.699 41.0694 283.073 41.2094C283.446 41.4427 283.656 41.816 283.703 42.3294C283.796 42.796 283.819 43.216 283.773 43.5894ZM285.803 25.5294C285.103 25.2494 284.356 25.1794 283.563 25.3194C282.769 25.4127 281.976 25.6694 281.183 26.0894C280.436 26.4627 279.736 26.906 279.083 27.4194C278.383 27.9327 277.799 28.4227 277.333 28.8894C276.819 29.4494 276.329 30.1027 275.863 30.8494C275.349 31.5494 275.116 32.296 275.163 33.0894C275.209 33.976 275.583 34.606 276.283 34.9794C276.983 35.306 277.706 35.4227 278.453 35.3294C279.806 35.236 281.159 34.7927 282.513 33.9994C283.913 33.1594 285.009 32.1794 285.803 31.0594C286.036 30.6394 286.223 30.196 286.363 29.7294C286.503 29.216 286.713 28.7727 286.993 28.3994C287.506 27.746 287.973 27.606 288.393 27.9794C288.859 28.3527 289.139 28.8427 289.233 29.4494C289.279 30.0094 289.209 30.5694 289.023 31.1294C288.836 31.6894 288.556 32.226 288.183 32.7394C287.856 33.206 287.483 33.6494 287.063 34.0694C286.643 34.4894 286.223 34.8627 285.803 35.1894C284.636 36.076 283.306 36.8227 281.813 37.4294C280.366 37.9894 278.896 38.2227 277.403 38.1294C275.956 38.036 274.719 37.4527 273.693 36.3794C272.666 35.306 272.223 34.0227 272.363 32.5294C272.503 31.036 273.086 29.6594 274.113 28.3994C275.093 27.0927 276.189 26.0194 277.403 25.1794C278.569 24.2927 279.876 23.5694 281.323 23.0094C282.769 22.4027 284.239 22.2394 285.733 22.5194C286.246 22.6127 286.736 22.7994 287.203 23.0794C287.669 23.3127 287.996 23.686 288.183 24.1994C288.276 24.6194 288.253 24.946 288.113 25.1794C287.973 25.4127 287.763 25.576 287.483 25.6694C287.249 25.7627 286.969 25.8094 286.643 25.8094C286.363 25.7627 286.083 25.6694 285.803 25.5294ZM300.554 43.1694C300.181 43.076 299.784 43.0527 299.364 43.0994C298.944 43.0994 298.547 43.1927 298.174 43.3794C297.801 43.5194 297.497 43.7527 297.264 44.0794C297.031 44.3594 296.937 44.7327 296.984 45.1994C297.077 45.806 297.334 46.2494 297.754 46.5294C298.221 46.7627 298.641 47.066 299.014 47.4394C299.434 47.906 299.597 48.326 299.504 48.6994C299.411 49.0727 299.177 49.4227 298.804 49.7494C298.477 50.076 298.081 50.3794 297.614 50.6594C297.147 50.8927 296.774 51.126 296.494 51.3594C296.027 51.7327 295.584 52.1994 295.164 52.7594C294.791 53.2727 294.487 53.8327 294.254 54.4394C294.067 55.046 293.997 55.676 294.044 56.3294C294.137 56.936 294.394 57.496 294.814 58.0094C295.327 58.616 295.934 59.0127 296.634 59.1994C297.381 59.3394 298.127 59.3627 298.874 59.2694C299.667 59.176 300.414 58.9894 301.114 58.7094C301.861 58.3827 302.514 58.0327 303.074 57.6594C304.287 56.866 305.314 55.9094 306.154 54.7894C307.041 53.6694 307.741 52.456 308.254 51.1494C308.347 50.9627 308.464 50.706 308.604 50.3794C308.791 50.0527 308.977 49.7727 309.164 49.5394C309.397 49.2594 309.654 49.0727 309.934 48.9794C310.214 48.8394 310.517 48.886 310.844 49.1194C311.357 49.4927 311.544 50.0527 311.404 50.7994C311.264 51.546 311.077 52.1527 310.844 52.6194C310.284 53.926 309.514 55.2094 308.534 56.4694C307.554 57.6827 306.434 58.756 305.174 59.6894C303.914 60.576 302.537 61.2527 301.044 61.7194C299.597 62.1394 298.104 62.186 296.564 61.8594C294.884 61.5327 293.554 60.7394 292.574 59.4794C291.594 58.2194 291.197 56.726 291.384 54.9994C291.524 53.5994 291.991 52.3627 292.784 51.2894C293.624 50.216 294.627 49.306 295.794 48.5594C295.794 48.5127 295.677 48.396 295.444 48.2094C295.257 47.976 295.141 47.836 295.094 47.7894C294.627 47.2294 294.324 46.506 294.184 45.6194C294.044 44.5927 294.231 43.6594 294.744 42.8194C295.257 41.9327 295.957 41.256 296.844 40.7894C297.591 40.416 298.454 40.206 299.434 40.1594C300.414 40.066 301.277 40.276 302.024 40.7894C302.351 40.976 302.631 41.2794 302.864 41.6994C303.097 42.0727 303.097 42.446 302.864 42.8194C302.631 43.2394 302.281 43.4494 301.814 43.4494C301.347 43.4027 300.927 43.3094 300.554 43.1694ZM307.38 59.6894C307.894 58.056 308.244 56.3994 308.43 54.7194C308.57 52.9927 308.687 51.3127 308.78 49.6794C308.92 47.7194 308.99 45.736 308.99 43.7294V43.4494C308.43 42.9827 308.15 42.3527 308.15 41.5594C308.15 41.046 308.267 40.626 308.5 40.2994C308.78 39.9727 309.107 39.7627 309.48 39.6694C309.9 39.576 310.297 39.6227 310.67 39.8094C311.044 39.9494 311.347 40.2527 311.58 40.7194C311.674 40.906 311.767 41.186 311.86 41.5594C312.234 41.6527 312.63 41.6994 313.05 41.6994C313.47 41.6527 313.867 41.6527 314.24 41.6994C314.707 41.6994 315.15 41.746 315.57 41.8394C316.037 41.886 316.434 42.0027 316.76 42.1894C317.134 42.376 317.414 42.656 317.6 43.0294C317.787 43.356 317.857 43.8227 317.81 44.4294C317.81 45.036 317.74 45.6427 317.6 46.2494C317.507 46.8094 317.437 47.3927 317.39 47.9994C317.297 48.746 317.227 49.4694 317.18 50.1694C317.134 50.8694 317.087 51.5927 317.04 52.3394C317.04 52.7594 317.017 53.3427 316.97 54.0894C316.97 54.7894 317.017 55.4894 317.11 56.1894C317.204 56.8427 317.39 57.4494 317.67 58.0094C317.997 58.5227 318.487 58.826 319.14 58.9194C319.654 59.0127 320.144 58.896 320.61 58.5694C321.124 58.2427 321.567 57.846 321.94 57.3794C322.36 56.866 322.71 56.3527 322.99 55.8394C323.317 55.2794 323.597 54.8127 323.83 54.4394L325.37 51.5694C325.744 50.8694 326.14 50.3794 326.56 50.0994C327.027 49.7727 327.447 49.7027 327.82 49.8894C328.147 50.076 328.31 50.4494 328.31 51.0094C328.357 51.5694 328.24 52.176 327.96 52.8294C327.587 53.6694 327.097 54.6494 326.49 55.7694C325.93 56.8427 325.277 57.8694 324.53 58.8494C323.784 59.7827 322.92 60.5527 321.94 61.1594C321.007 61.7194 319.98 61.9294 318.86 61.7894C317.554 61.6027 316.574 61.0894 315.92 60.2494C315.267 59.4094 314.8 58.4294 314.52 57.3094C314.287 56.1894 314.17 55.0227 314.17 53.8094C314.217 52.5494 314.264 51.4527 314.31 50.5194L314.73 46.5294C314.777 46.296 314.824 46.0394 314.87 45.7594C314.964 45.4327 315.01 45.1527 315.01 44.9194C314.964 44.686 314.917 44.5694 314.87 44.5694C314.87 44.5227 314.754 44.4994 314.52 44.4994C314.194 44.4527 313.867 44.4294 313.54 44.4294C313.214 44.4294 312.887 44.4294 312.56 44.4294C312.187 44.4294 311.93 44.406 311.79 44.3594V46.5994C311.697 47.8594 311.627 49.1194 311.58 50.3794C311.534 51.6394 311.44 52.876 311.3 54.0894C311.207 55.1627 311.09 56.236 310.95 57.3094C310.81 58.336 310.577 59.3394 310.25 60.3194C310.11 60.7394 309.83 61.206 309.41 61.7194C309.037 62.186 308.594 62.3494 308.08 62.2094C307.52 62.0694 307.24 61.7194 307.24 61.1594C307.24 60.5527 307.287 60.0627 307.38 59.6894ZM337.557 44.4994C336.623 44.406 335.737 44.4994 334.897 44.7794C334.103 45.0127 333.357 45.4094 332.657 45.9694C331.957 46.4827 331.327 47.0894 330.767 47.7894C330.207 48.4894 329.74 49.2127 329.367 49.9594C329.087 50.5194 328.807 51.2427 328.527 52.1294C328.247 52.9694 328.107 53.8327 328.107 54.7194C328.107 55.5594 328.27 56.3294 328.597 57.0294C328.97 57.6827 329.623 58.1027 330.557 58.2894C331.117 58.3827 331.653 58.336 332.167 58.1494C332.68 57.916 333.147 57.6127 333.567 57.2394C333.987 56.8194 334.36 56.3527 334.687 55.8394C335.013 55.326 335.293 54.7894 335.527 54.2294C335.62 53.6694 335.713 53.1094 335.807 52.5494C335.947 51.9894 336.087 51.4294 336.227 50.8694L336.577 49.8894C336.623 49.7494 336.67 49.6094 336.717 49.4694C336.763 49.2827 336.833 49.1194 336.927 48.9794C337.3 48.4194 337.79 48.256 338.397 48.4894C338.77 48.536 339.003 48.7227 339.097 49.0494C339.237 49.376 339.307 49.726 339.307 50.0994C339.493 50.8927 339.47 51.7327 339.237 52.6194C339.003 53.506 338.7 54.346 338.327 55.1394C337.72 58.4527 337.323 61.766 337.137 65.0794C336.95 68.3927 336.833 71.706 336.787 75.0194C336.787 76.6527 336.81 78.286 336.857 79.9194C336.903 81.5527 336.997 83.186 337.137 84.8194C337.23 86.0327 337.37 87.2694 337.557 88.5294C337.65 89.0427 337.767 89.5794 337.907 90.1394C338.047 90.746 338.047 91.306 337.907 91.8194C337.813 92.2394 337.603 92.5427 337.277 92.7294C336.95 92.9627 336.577 92.9627 336.157 92.7294C335.643 92.4027 335.293 91.936 335.107 91.3294C334.967 90.7227 334.85 90.1394 334.757 89.5794C334.523 88.086 334.36 86.5694 334.267 85.0294C334.173 83.536 334.103 82.0427 334.057 80.5494C333.963 77.0494 333.963 73.5727 334.057 70.1194C334.197 66.666 334.453 63.1894 334.827 59.6894C334.033 60.2494 333.193 60.6694 332.307 60.9494C331.467 61.1827 330.557 61.1594 329.577 60.8794C328.083 60.506 326.987 59.666 326.287 58.3594C325.587 57.006 325.283 55.5827 325.377 54.0894C325.47 52.5494 325.82 51.056 326.427 49.6094C327.08 48.1627 327.897 46.8327 328.877 45.6194C329.857 44.4994 331 43.566 332.307 42.8194C333.66 42.026 335.107 41.606 336.647 41.5594C337.16 41.5594 337.697 41.6294 338.257 41.7694C338.863 41.8627 339.307 42.166 339.587 42.6794C339.82 43.0527 339.89 43.3794 339.797 43.6594C339.703 43.8927 339.54 44.0794 339.307 44.2194C339.073 44.3594 338.793 44.4527 338.467 44.4994C338.14 44.4994 337.837 44.4994 337.557 44.4994ZM345.576 40.0194C346.182 40.9527 346.579 42.0027 346.766 43.1694C346.999 44.2894 347.186 45.386 347.326 46.4594C347.372 46.8327 347.396 47.2294 347.396 47.6494C347.442 48.0227 347.466 48.396 347.466 48.7694C347.746 48.3494 348.002 47.9527 348.236 47.5794C348.516 47.1594 348.819 46.7394 349.146 46.3194C349.799 45.386 350.522 44.476 351.316 43.5894C352.109 42.656 353.042 41.9327 354.116 41.4194C354.722 41.1394 355.259 41.046 355.726 41.1394C356.239 41.2327 356.659 41.466 356.986 41.8394C357.359 42.166 357.662 42.586 357.896 43.0994C358.176 43.566 358.362 44.0794 358.456 44.6394C358.642 45.7594 358.712 46.9027 358.666 48.0694C358.666 49.1894 358.619 50.3327 358.526 51.4994C358.432 52.6194 358.339 53.7627 358.246 54.9294C358.152 56.0494 358.152 57.1694 358.246 58.2894C358.246 58.476 358.246 58.7094 358.246 58.9894C358.292 59.2227 358.339 59.456 358.386 59.6894C358.479 59.9227 358.596 60.1094 358.736 60.2494C358.922 60.3427 359.156 60.3427 359.436 60.2494C359.762 60.156 360.066 59.9694 360.346 59.6894C360.626 59.4094 360.882 59.1527 361.116 58.9194C361.862 58.1727 362.492 57.3794 363.006 56.5394C363.519 55.6527 364.032 54.7427 364.546 53.8094C364.779 53.3894 364.989 52.9694 365.176 52.5494C365.362 52.0827 365.549 51.686 365.736 51.3594C365.969 50.986 366.202 50.706 366.436 50.5194C366.669 50.3327 366.926 50.3094 367.206 50.4494C367.486 50.5894 367.672 50.846 367.766 51.2194C367.859 51.546 367.882 51.9194 367.836 52.3394C367.836 52.7594 367.766 53.1794 367.626 53.5994C367.532 53.9727 367.439 54.276 367.346 54.5094C366.972 55.256 366.552 56.0494 366.086 56.8894C365.619 57.7294 365.106 58.546 364.546 59.3394C363.986 60.086 363.356 60.786 362.656 61.4394C362.002 62.046 361.279 62.5127 360.486 62.8394C359.506 63.2594 358.572 63.2827 357.686 62.9094C356.846 62.536 356.239 61.8594 355.866 60.8794C355.492 59.946 355.306 58.966 355.306 57.9394C355.352 56.9127 355.399 55.9094 355.446 54.9294C355.539 53.716 355.632 52.526 355.726 51.3594C355.819 50.1927 355.866 49.0027 355.866 47.7894C355.866 47.276 355.842 46.7627 355.796 46.2494C355.796 45.6894 355.726 45.1527 355.586 44.6394C355.492 44.3127 355.399 44.126 355.306 44.0794C355.259 44.0327 355.096 44.0794 354.816 44.2194C353.929 44.7327 353.136 45.5027 352.436 46.5294C351.736 47.5094 351.106 48.4194 350.546 49.2594C349.986 50.146 349.449 51.0794 348.936 52.0594C348.422 52.9927 347.979 53.9494 347.606 54.9294C347.559 55.4894 347.512 56.0494 347.466 56.6094C347.466 57.1694 347.466 57.7294 347.466 58.2894C347.419 58.896 347.349 59.5494 347.256 60.2494C347.162 60.9494 346.836 61.486 346.276 61.8594C345.809 62.186 345.436 62.256 345.156 62.0694C344.922 61.9294 344.759 61.6727 344.666 61.2994C344.432 61.3927 344.176 61.3227 343.896 61.0894C343.569 60.8094 343.382 60.436 343.336 59.9694C343.289 59.456 343.312 59.0127 343.406 58.6394C343.639 57.846 343.872 57.076 344.106 56.3294C344.292 55.5827 344.526 54.836 344.806 54.0894C344.899 52.2227 344.876 50.356 344.736 48.4894C344.596 46.576 344.269 44.7327 343.756 42.9594C343.522 42.3994 343.242 41.816 342.916 41.2094C342.542 40.556 342.379 39.926 342.426 39.3194C342.426 38.806 342.566 38.526 342.846 38.4794C343.126 38.386 343.452 38.4327 343.826 38.6194C344.199 38.806 344.549 39.0394 344.876 39.3194C345.202 39.5994 345.436 39.8327 345.576 40.0194ZM373.562 43.1694C373.189 43.076 372.792 43.0527 372.372 43.0994C371.952 43.0994 371.555 43.1927 371.182 43.3794C370.809 43.5194 370.505 43.7527 370.272 44.0794C370.039 44.3594 369.945 44.7327 369.992 45.1994C370.085 45.806 370.342 46.2494 370.762 46.5294C371.229 46.7627 371.649 47.066 372.022 47.4394C372.442 47.906 372.605 48.326 372.512 48.6994C372.419 49.0727 372.185 49.4227 371.812 49.7494C371.485 50.076 371.089 50.3794 370.622 50.6594C370.155 50.8927 369.782 51.126 369.502 51.3594C369.035 51.7327 368.592 52.1994 368.172 52.7594C367.799 53.2727 367.495 53.8327 367.262 54.4394C367.075 55.046 367.005 55.676 367.052 56.3294C367.145 56.936 367.402 57.496 367.822 58.0094C368.335 58.616 368.942 59.0127 369.642 59.1994C370.389 59.3394 371.135 59.3627 371.882 59.2694C372.675 59.176 373.422 58.9894 374.122 58.7094C374.869 58.3827 375.522 58.0327 376.082 57.6594C377.295 56.866 378.322 55.9094 379.162 54.7894C380.049 53.6694 380.749 52.456 381.262 51.1494C381.355 50.9627 381.472 50.706 381.612 50.3794C381.799 50.0527 381.985 49.7727 382.172 49.5394C382.405 49.2594 382.662 49.0727 382.942 48.9794C383.222 48.8394 383.525 48.886 383.852 49.1194C384.365 49.4927 384.552 50.0527 384.412 50.7994C384.272 51.546 384.085 52.1527 383.852 52.6194C383.292 53.926 382.522 55.2094 381.542 56.4694C380.562 57.6827 379.442 58.756 378.182 59.6894C376.922 60.576 375.545 61.2527 374.052 61.7194C372.605 62.1394 371.112 62.186 369.572 61.8594C367.892 61.5327 366.562 60.7394 365.582 59.4794C364.602 58.2194 364.205 56.726 364.392 54.9994C364.532 53.5994 364.999 52.3627 365.792 51.2894C366.632 50.216 367.635 49.306 368.802 48.5594C368.802 48.5127 368.685 48.396 368.452 48.2094C368.265 47.976 368.149 47.836 368.102 47.7894C367.635 47.2294 367.332 46.506 367.192 45.6194C367.052 44.5927 367.239 43.6594 367.752 42.8194C368.265 41.9327 368.965 41.256 369.852 40.7894C370.599 40.416 371.462 40.206 372.442 40.1594C373.422 40.066 374.285 40.276 375.032 40.7894C375.359 40.976 375.639 41.2794 375.872 41.6994C376.105 42.0727 376.105 42.446 375.872 42.8194C375.639 43.2394 375.289 43.4494 374.822 43.4494C374.355 43.4027 373.935 43.3094 373.562 43.1694Z" fill="url(#paint0_linear_687_534)"/>
<defs>
<linearGradient id="paint0_linear_687_534" x1="-46.2406" y1="44.8594" x2="397.915" y2="44.8594" gradientUnits="userSpaceOnUse">
<stop stop-color="#C59541"/>
<stop offset="0.369792" stop-color="#FBDD78"/>
<stop offset="1" stop-color="#BE9042"/>
</linearGradient>
</defs>
</svg>
