<svg width="187" height="58" viewBox="0 0 187 58" fill="none" xmlns="http://www.w3.org/2000/svg">
<path d="M8.85922 49.3315C8.82589 47.7315 8.82589 46.1482 8.85922 44.5815C8.89255 43.0148 8.94255 41.4315 9.00922 39.8315C9.14255 36.2982 9.29255 32.8148 9.45922 29.3815C9.65922 25.9148 9.84255 22.4148 10.0092 18.8815L10.5592 9.53149C10.6259 9.13149 10.6926 8.68149 10.7592 8.18149C10.8592 7.64816 11.1426 7.29816 11.6092 7.13149C11.8426 7.03149 12.0426 7.03149 12.2092 7.13149C12.3759 7.23149 12.4926 7.38149 12.5592 7.58149C12.6259 7.74816 12.6592 7.94816 12.6592 8.18149C12.6926 8.41482 12.7092 8.61482 12.7092 8.78149C12.4426 12.7815 12.1759 16.7648 11.9092 20.7315C11.6759 24.6648 11.4759 28.6315 11.3092 32.6315C11.2092 34.3315 11.1259 35.9982 11.0592 37.6315C11.0259 39.2648 10.9926 40.9315 10.9592 42.6315C10.9259 43.7982 10.8926 44.9648 10.8592 46.1315C10.8259 47.3315 10.8426 48.5148 10.9092 49.6815C12.6092 49.9482 14.2759 50.2315 15.9092 50.5315C17.5759 50.8648 19.2426 51.2148 20.9092 51.5815C22.1426 51.8482 23.3592 52.1315 24.5592 52.4315C25.7592 52.7648 26.9592 53.1148 28.1592 53.4815C28.7592 53.6815 29.3592 53.8982 29.9592 54.1315C30.5592 54.3648 31.1426 54.6148 31.7092 54.8815C31.9092 54.9815 32.1426 55.0815 32.4092 55.1815C32.6759 55.3148 32.9259 55.4648 33.1592 55.6315C33.4259 55.7982 33.6426 55.9815 33.8092 56.1815C34.0092 56.4148 34.1259 56.6648 34.1592 56.9315C34.1926 57.2315 34.1259 57.4315 33.9592 57.5315C33.7925 57.6648 33.5759 57.7315 33.3092 57.7315C33.0759 57.7315 32.8259 57.6815 32.5592 57.5815C32.2926 57.5148 32.0926 57.4482 31.9592 57.3815C31.5926 57.2148 31.2259 57.0315 30.8592 56.8315C30.5259 56.6315 30.1759 56.4482 29.8092 56.2815C28.7092 55.8148 27.5759 55.3982 26.4092 55.0315C25.2426 54.6982 24.0759 54.3815 22.9092 54.0815C20.9426 53.6148 18.9759 53.1982 17.0092 52.8315C15.0759 52.4648 13.1092 52.1148 11.1092 51.7815C11.1759 52.2815 11.1092 52.7148 10.9092 53.0815C10.7092 53.4148 10.4592 53.5482 10.1592 53.4815C9.85922 53.4482 9.62589 53.2982 9.45922 53.0315C9.29255 52.7982 9.17589 52.5315 9.10922 52.2315C9.04255 51.9648 8.97589 51.6982 8.90922 51.4315C8.64255 51.3648 8.37589 51.3148 8.10922 51.2815C7.84255 51.2482 7.57589 51.2148 7.30922 51.1815C6.54255 51.0482 5.75922 50.9315 4.95922 50.8315C4.19255 50.7315 3.42589 50.5982 2.65922 50.4315C2.35922 50.3648 2.00922 50.2315 1.60922 50.0315C1.24255 49.8648 1.02589 49.5982 0.959219 49.2315C0.925885 48.9982 0.975885 48.8148 1.10922 48.6815C1.24255 48.5482 1.39255 48.4482 1.55922 48.3815C1.75922 48.3482 1.95922 48.3315 2.15922 48.3315C2.39255 48.3315 2.59255 48.3482 2.75922 48.3815L8.85922 49.3315Z" fill="url(#paint0_linear_553_342)"/>
<path d="M23.5432 29.2315C23.2765 29.1648 22.9932 29.1482 22.6932 29.1815C22.3932 29.1815 22.1099 29.2482 21.8432 29.3815C21.5765 29.4815 21.3599 29.6482 21.1932 29.8815C21.0265 30.0815 20.9599 30.3482 20.9932 30.6815C21.0599 31.1148 21.2432 31.4315 21.5432 31.6315C21.8765 31.7982 22.1765 32.0148 22.4432 32.2815C22.7432 32.6148 22.8599 32.9148 22.7932 33.1815C22.7265 33.4482 22.5599 33.6982 22.2932 33.9315C22.0599 34.1648 21.7765 34.3815 21.4432 34.5815C21.1099 34.7482 20.8432 34.9148 20.6432 35.0815C20.3099 35.3482 19.9932 35.6815 19.6932 36.0815C19.4265 36.4482 19.2099 36.8482 19.0432 37.2815C18.9099 37.7148 18.8599 38.1648 18.8932 38.6315C18.9599 39.0648 19.1432 39.4648 19.4432 39.8315C19.8099 40.2648 20.2432 40.5482 20.7432 40.6815C21.2765 40.7815 21.8099 40.7982 22.3432 40.7315C22.9099 40.6648 23.4432 40.5315 23.9432 40.3315C24.4765 40.0982 24.9432 39.8482 25.3432 39.5815C26.2099 39.0148 26.9432 38.3315 27.5432 37.5315C28.1765 36.7315 28.6765 35.8648 29.0432 34.9315C29.1099 34.7982 29.1932 34.6148 29.2932 34.3815C29.4265 34.1482 29.5599 33.9482 29.6932 33.7815C29.8599 33.5815 30.0432 33.4482 30.2432 33.3815C30.4432 33.2815 30.6599 33.3148 30.8932 33.4815C31.2599 33.7482 31.3932 34.1482 31.2932 34.6815C31.1932 35.2148 31.0599 35.6482 30.8932 35.9815C30.4932 36.9148 29.9432 37.8315 29.2432 38.7315C28.5432 39.5982 27.7432 40.3648 26.8432 41.0315C25.9432 41.6648 24.9599 42.1482 23.8932 42.4815C22.8599 42.7815 21.7932 42.8148 20.6932 42.5815C19.4932 42.3482 18.5432 41.7815 17.8432 40.8815C17.1432 39.9815 16.8599 38.9148 16.9932 37.6815C17.0932 36.6815 17.4265 35.7982 17.9932 35.0315C18.5932 34.2648 19.3099 33.6148 20.1432 33.0815C20.1432 33.0482 20.0599 32.9648 19.8932 32.8315C19.7599 32.6648 19.6765 32.5648 19.6432 32.5315C19.3099 32.1315 19.0932 31.6148 18.9932 30.9815C18.8932 30.2482 19.0265 29.5815 19.3932 28.9815C19.7599 28.3482 20.2599 27.8648 20.8932 27.5315C21.4265 27.2648 22.0432 27.1148 22.7432 27.0815C23.4432 27.0148 24.0599 27.1648 24.5932 27.5315C24.8265 27.6648 25.0265 27.8815 25.1932 28.1815C25.3599 28.4482 25.3599 28.7148 25.1932 28.9815C25.0265 29.2815 24.7765 29.4315 24.4432 29.4315C24.1099 29.3982 23.8099 29.3315 23.5432 29.2315Z" fill="url(#paint1_linear_553_342)"/>
<path d="M29.969 26.9815C30.4023 27.6482 30.6857 28.3982 30.819 29.2315C30.9857 30.0315 31.119 30.8148 31.219 31.5815C31.2523 31.8482 31.269 32.1315 31.269 32.4315C31.3023 32.6982 31.319 32.9648 31.319 33.2315C31.519 32.9315 31.7023 32.6482 31.869 32.3815C32.069 32.0815 32.2857 31.7815 32.519 31.4815C32.9856 30.8148 33.5023 30.1648 34.069 29.5315C34.6357 28.8648 35.3023 28.3482 36.069 27.9815C36.5023 27.7815 36.8857 27.7148 37.219 27.7815C37.5857 27.8482 37.8857 28.0148 38.119 28.2815C38.3857 28.5148 38.6023 28.8148 38.769 29.1815C38.969 29.5148 39.1023 29.8815 39.169 30.2815C39.3023 31.0815 39.3523 31.8982 39.319 32.7315C39.319 33.5315 39.2856 34.3482 39.219 35.1815C39.1523 35.9815 39.0857 36.7982 39.019 37.6315C38.9523 38.4315 38.9523 39.2315 39.019 40.0315C39.019 40.1648 39.019 40.3315 39.019 40.5315C39.0523 40.6982 39.0857 40.8648 39.119 41.0315C39.1856 41.1982 39.269 41.3315 39.369 41.4315C39.5023 41.4982 39.669 41.4982 39.869 41.4315C40.1023 41.3648 40.319 41.2315 40.519 41.0315C40.719 40.8315 40.9023 40.6482 41.069 40.4815C41.6023 39.9482 42.0523 39.3815 42.419 38.7815C42.7857 38.1482 43.1523 37.4982 43.519 36.8315C43.6857 36.5315 43.8357 36.2315 43.969 35.9315C44.1023 35.5982 44.2356 35.3148 44.369 35.0815C44.5357 34.8148 44.7023 34.6148 44.869 34.4815C45.0357 34.3482 45.219 34.3315 45.419 34.4315C45.619 34.5315 45.7523 34.7148 45.819 34.9815C45.8857 35.2148 45.9023 35.4815 45.869 35.7815C45.869 36.0815 45.819 36.3815 45.719 36.6815C45.6523 36.9482 45.5857 37.1648 45.519 37.3315C45.2523 37.8648 44.9523 38.4315 44.619 39.0315C44.2857 39.6315 43.919 40.2148 43.519 40.7815C43.119 41.3148 42.669 41.8148 42.169 42.2815C41.7023 42.7148 41.1856 43.0482 40.619 43.2815C39.919 43.5815 39.2523 43.5982 38.619 43.3315C38.019 43.0648 37.5857 42.5815 37.319 41.8815C37.0523 41.2148 36.919 40.5148 36.919 39.7815C36.9523 39.0482 36.9857 38.3315 37.019 37.6315C37.0857 36.7648 37.1523 35.9148 37.219 35.0815C37.2857 34.2482 37.319 33.3982 37.319 32.5315C37.319 32.1648 37.3023 31.7982 37.269 31.4315C37.269 31.0315 37.219 30.6482 37.119 30.2815C37.0523 30.0482 36.9856 29.9148 36.919 29.8815C36.8857 29.8482 36.769 29.8815 36.569 29.9815C35.9357 30.3482 35.369 30.8982 34.869 31.6315C34.369 32.3315 33.919 32.9815 33.519 33.5815C33.119 34.2148 32.7357 34.8815 32.369 35.5815C32.0023 36.2482 31.6857 36.9315 31.419 37.6315C31.3857 38.0315 31.3523 38.4315 31.319 38.8315C31.319 39.2315 31.319 39.6315 31.319 40.0315C31.2857 40.4648 31.2357 40.9315 31.169 41.4315C31.1023 41.9315 30.869 42.3148 30.469 42.5815C30.1357 42.8148 29.869 42.8648 29.669 42.7315C29.5023 42.6315 29.3857 42.4482 29.319 42.1815C29.1523 42.2482 28.969 42.1982 28.769 42.0315C28.5357 41.8315 28.4023 41.5648 28.369 41.2315C28.3357 40.8648 28.3523 40.5482 28.419 40.2815C28.5856 39.7148 28.7523 39.1648 28.919 38.6315C29.0523 38.0982 29.219 37.5648 29.419 37.0315C29.4857 35.6982 29.469 34.3648 29.369 33.0315C29.269 31.6648 29.0357 30.3482 28.669 29.0815C28.5023 28.6815 28.3023 28.2648 28.069 27.8315C27.8023 27.3648 27.6857 26.9148 27.719 26.4815C27.719 26.1148 27.819 25.9148 28.019 25.8815C28.219 25.8148 28.4523 25.8482 28.719 25.9815C28.9857 26.1148 29.2357 26.2815 29.469 26.4815C29.7023 26.6815 29.869 26.8482 29.969 26.9815Z" fill="url(#paint2_linear_553_342)"/>
<path d="M52.4592 30.6815C51.7592 30.5815 51.0926 30.6482 50.4592 30.8815C49.8592 31.1148 49.2926 31.4482 48.7592 31.8815C48.2259 32.3148 47.7426 32.8148 47.3092 33.3815C46.9092 33.9482 46.5926 34.5315 46.3592 35.1315C46.1259 35.6982 45.9426 36.3148 45.8092 36.9815C45.7092 37.6482 45.7425 38.2982 45.9092 38.9315C46.0759 39.4982 46.3759 39.9315 46.8092 40.2315C47.2426 40.5315 47.7426 40.5982 48.3092 40.4315C49.0759 40.2315 49.7092 39.7815 50.2092 39.0815C50.7092 38.3815 51.0926 37.6148 51.3592 36.7815L51.5092 35.4315C51.5426 35.1982 51.5759 34.9482 51.6092 34.6815C51.6426 34.4148 51.7092 34.1482 51.8092 33.8815C51.7759 33.5815 51.7592 33.2815 51.7592 32.9815C51.7926 32.6815 51.8759 32.3982 52.0092 32.1315C52.1426 31.8648 52.3259 31.6982 52.5592 31.6315C52.8259 31.5315 53.0926 31.5982 53.3592 31.8315C53.6926 32.1315 53.8759 32.5148 53.9092 32.9815C53.9759 33.4482 53.9926 33.8815 53.9592 34.2815C53.9259 34.8482 53.8426 35.3982 53.7092 35.9315C53.6092 36.4648 53.4759 36.9815 53.3092 37.4815C53.3092 38.1482 53.4426 38.7315 53.7092 39.2315C53.9092 39.6648 54.1592 39.8315 54.4592 39.7315C54.7592 39.6315 55.0426 39.4148 55.3092 39.0815C55.6092 38.7482 55.8759 38.3982 56.1092 38.0315C56.3426 37.6315 56.4926 37.3482 56.5592 37.1815C56.6592 36.9815 56.7426 36.7315 56.8092 36.4315C56.9092 36.1315 57.0259 35.8482 57.1592 35.5815C57.2925 35.2815 57.4426 35.0315 57.6092 34.8315C57.8092 34.5982 58.0426 34.4482 58.3092 34.3815C58.6092 34.3482 58.8259 34.4148 58.9592 34.5815C59.0926 34.7148 59.1759 34.8982 59.2092 35.1315C59.2759 35.3648 59.2759 35.6148 59.2092 35.8815C59.1759 36.1482 59.1426 36.3648 59.1092 36.5315C58.9426 37.0315 58.7092 37.5815 58.4092 38.1815C58.1092 38.7815 57.7592 39.3482 57.3592 39.8815C56.9592 40.4148 56.4926 40.8648 55.9592 41.2315C55.4592 41.5648 54.9092 41.7315 54.3092 41.7315C53.6759 41.7315 53.1592 41.5815 52.7592 41.2815C52.3926 40.9815 52.0926 40.5982 51.8592 40.1315C51.4925 40.6648 51.0592 41.1315 50.5592 41.5315C50.0592 41.9315 49.4926 42.2148 48.8592 42.3815C47.6926 42.6815 46.6259 42.5148 45.6592 41.8815C44.7259 41.2148 44.1426 40.2982 43.9092 39.1315C43.6759 37.9648 43.7426 36.8148 44.1092 35.6815C44.4426 34.5148 44.9259 33.4482 45.5592 32.4815C46.1592 31.5482 46.9092 30.7315 47.8092 30.0315C48.7092 29.3315 49.7259 28.8815 50.8592 28.6815C51.3259 28.6148 51.8426 28.5982 52.4092 28.6315C53.0092 28.6315 53.4759 28.8315 53.8092 29.2315C53.9759 29.3982 54.0592 29.5982 54.0592 29.8315C54.0926 30.0648 54.0092 30.2648 53.8092 30.4315C53.6426 30.5982 53.4259 30.6982 53.1592 30.7315C52.9259 30.7315 52.6926 30.7148 52.4592 30.6815Z" fill="url(#paint3_linear_553_342)"/>
<path d="M94.1354 12.1315C92.4021 14.4315 90.6354 16.6982 88.8354 18.9315C87.0354 21.1315 85.1854 23.2982 83.2854 25.4315C82.4854 26.3315 81.6687 27.2315 80.8354 28.1315C80.0021 28.9982 79.1521 29.8482 78.2854 30.6815C78.0187 30.9482 77.7354 31.2315 77.4354 31.5315C77.1354 31.7982 76.8354 32.0648 76.5354 32.3315V34.3315C78.7021 36.4315 80.8854 38.4815 83.0854 40.4815C85.3187 42.4482 87.6687 44.3148 90.1354 46.0815C91.2354 46.8815 92.3521 47.6482 93.4854 48.3815C94.6187 49.1482 95.8021 49.8148 97.0354 50.3815C97.6354 50.6482 98.2354 50.8982 98.8354 51.1315C99.4687 51.3648 100.102 51.5482 100.735 51.6815C101.035 51.7482 101.319 51.7982 101.585 51.8315C101.885 51.8648 102.185 51.8648 102.485 51.8315C102.719 51.7982 102.952 51.7648 103.185 51.7315C103.419 51.7315 103.652 51.7648 103.885 51.8315C104.252 51.9315 104.469 52.0648 104.535 52.2315C104.635 52.4315 104.635 52.6315 104.535 52.8315C104.435 53.0648 104.269 53.2648 104.035 53.4315C103.802 53.6315 103.569 53.7648 103.335 53.8315C102.869 53.9982 102.352 54.0482 101.785 53.9815C101.252 53.9148 100.752 53.8315 100.285 53.7315C98.9854 53.4648 97.7187 53.0148 96.4854 52.3815C95.2854 51.7815 94.1187 51.1315 92.9854 50.4315C90.5854 48.9315 88.2854 47.2982 86.0854 45.5315C83.9187 43.7982 81.7854 41.9815 79.6854 40.0815L76.5354 37.2315C76.5687 38.2982 76.6021 39.3815 76.6354 40.4815C76.6687 41.5815 76.7187 42.6648 76.7854 43.7315C76.8521 44.5315 76.9021 45.3148 76.9354 46.0815C77.0021 46.8815 77.0687 47.6815 77.1354 48.4815C77.2021 48.9148 77.2521 49.3315 77.2854 49.7315C77.3187 50.1648 77.3687 50.5982 77.4354 51.0315C77.4687 51.2648 77.5021 51.4815 77.5354 51.6815C77.5687 51.9148 77.5687 52.1482 77.5354 52.3815C77.5021 52.7482 77.3521 53.0648 77.0854 53.3315C76.8521 53.5982 76.5521 53.5982 76.1854 53.3315C75.7187 52.9982 75.4354 52.4815 75.3354 51.7815C75.2687 51.1148 75.2187 50.5315 75.1854 50.0315C75.0187 48.3982 74.8854 46.7648 74.7854 45.1315C74.7187 43.4982 74.6687 41.8648 74.6354 40.2315C74.6021 39.4315 74.5687 38.6148 74.5354 37.7815C74.5354 36.9482 74.5354 36.1315 74.5354 35.3315C74.3687 35.1648 74.1854 34.9815 73.9854 34.7815C73.7854 34.5815 73.6354 34.3482 73.5354 34.0815C73.3687 34.0815 73.2187 34.0482 73.0854 33.9815C72.9521 33.9148 72.8521 33.7815 72.7854 33.5815C72.7187 33.3815 72.7354 33.1815 72.8354 32.9815C72.9687 32.7482 73.1021 32.5482 73.2354 32.3815C73.4021 32.1482 73.6021 31.9482 73.8354 31.7815C74.0687 31.5815 74.3021 31.3982 74.5354 31.2315C74.5687 29.0982 74.6021 26.9815 74.6354 24.8815C74.6687 22.7482 74.7187 20.6148 74.7854 18.4815C74.8187 17.0148 74.8354 15.5648 74.8354 14.1315C74.8687 12.6648 74.8854 11.1982 74.8854 9.73149C74.8854 9.33149 74.9187 8.89816 74.9854 8.43149C75.0521 7.96482 75.2854 7.61482 75.6854 7.38149C75.9187 7.24816 76.1187 7.21483 76.2854 7.28149C76.4521 7.34816 76.5854 7.48149 76.6854 7.68149C76.7854 7.84816 76.8521 8.06482 76.8854 8.33149C76.9521 8.56482 76.9854 8.76482 76.9854 8.93149C76.9187 12.3648 76.8354 15.7982 76.7354 19.2315C76.6687 22.6648 76.6021 26.0982 76.5354 29.5315C77.2021 28.9648 77.8354 28.3815 78.4354 27.7815C79.0354 27.1482 79.6354 26.5148 80.2354 25.8815C81.9354 24.0148 83.5854 22.1315 85.1854 20.2315C86.7854 18.2982 88.3521 16.3315 89.8854 14.3315C90.3187 13.7648 90.7354 13.2148 91.1354 12.6815C91.5354 12.1148 91.9687 11.5648 92.4354 11.0315C92.6354 10.7648 92.9021 10.5148 93.2354 10.2815C93.5687 10.0482 93.9187 10.0148 94.2854 10.1815C94.6854 10.3815 94.8021 10.6982 94.6354 11.1315C94.4687 11.5315 94.3021 11.8648 94.1354 12.1315Z" fill="url(#paint4_linear_553_342)"/>
<path d="M96.9416 30.6815C96.2416 30.5815 95.575 30.6482 94.9416 30.8815C94.3416 31.1148 93.775 31.4482 93.2416 31.8815C92.7083 32.3148 92.225 32.8148 91.7916 33.3815C91.3916 33.9482 91.075 34.5315 90.8416 35.1315C90.6083 35.6982 90.425 36.3148 90.2916 36.9815C90.1916 37.6482 90.225 38.2982 90.3916 38.9315C90.5583 39.4982 90.8583 39.9315 91.2916 40.2315C91.725 40.5315 92.225 40.5982 92.7916 40.4315C93.5583 40.2315 94.1916 39.7815 94.6916 39.0815C95.1916 38.3815 95.575 37.6148 95.8416 36.7815L95.9916 35.4315C96.025 35.1982 96.0583 34.9482 96.0916 34.6815C96.125 34.4148 96.1916 34.1482 96.2916 33.8815C96.2583 33.5815 96.2416 33.2815 96.2416 32.9815C96.275 32.6815 96.3583 32.3982 96.4916 32.1315C96.625 31.8648 96.8083 31.6982 97.0416 31.6315C97.3083 31.5315 97.575 31.5982 97.8416 31.8315C98.175 32.1315 98.3583 32.5148 98.3916 32.9815C98.4583 33.4482 98.475 33.8815 98.4416 34.2815C98.4083 34.8482 98.325 35.3982 98.1916 35.9315C98.0916 36.4648 97.9583 36.9815 97.7916 37.4815C97.7916 38.1482 97.925 38.7315 98.1916 39.2315C98.3916 39.6648 98.6416 39.8315 98.9416 39.7315C99.2416 39.6315 99.525 39.4148 99.7916 39.0815C100.092 38.7482 100.358 38.3982 100.592 38.0315C100.825 37.6315 100.975 37.3482 101.042 37.1815C101.142 36.9815 101.225 36.7315 101.292 36.4315C101.392 36.1315 101.508 35.8482 101.642 35.5815C101.775 35.2815 101.925 35.0315 102.092 34.8315C102.292 34.5982 102.525 34.4482 102.792 34.3815C103.092 34.3482 103.308 34.4148 103.442 34.5815C103.575 34.7148 103.658 34.8982 103.692 35.1315C103.758 35.3648 103.758 35.6148 103.692 35.8815C103.658 36.1482 103.625 36.3648 103.592 36.5315C103.425 37.0315 103.192 37.5815 102.892 38.1815C102.592 38.7815 102.242 39.3482 101.842 39.8815C101.442 40.4148 100.975 40.8648 100.442 41.2315C99.9416 41.5648 99.3916 41.7315 98.7916 41.7315C98.1583 41.7315 97.6416 41.5815 97.2416 41.2815C96.875 40.9815 96.575 40.5982 96.3416 40.1315C95.975 40.6648 95.5416 41.1315 95.0416 41.5315C94.5416 41.9315 93.975 42.2148 93.3416 42.3815C92.175 42.6815 91.1083 42.5148 90.1416 41.8815C89.2083 41.2148 88.625 40.2982 88.3916 39.1315C88.1583 37.9648 88.225 36.8148 88.5916 35.6815C88.925 34.5148 89.4083 33.4482 90.0416 32.4815C90.6416 31.5482 91.3916 30.7315 92.2916 30.0315C93.1916 29.3315 94.2083 28.8815 95.3416 28.6815C95.8083 28.6148 96.325 28.5982 96.8916 28.6315C97.4916 28.6315 97.9583 28.8315 98.2916 29.2315C98.4583 29.3982 98.5416 29.5982 98.5416 29.8315C98.575 30.0648 98.4916 30.2648 98.2916 30.4315C98.125 30.5982 97.9083 30.6982 97.6416 30.7315C97.4083 30.7315 97.175 30.7148 96.9416 30.6815Z" fill="url(#paint5_linear_553_342)"/>
<path d="M108.374 39.8815C108.441 39.5148 108.491 39.1315 108.524 38.7315C108.557 38.3315 108.591 37.9315 108.624 37.5315C108.891 36.5982 109.207 35.6982 109.574 34.8315C109.974 33.9315 110.407 33.0482 110.874 32.1815C110.907 32.6482 110.907 33.1148 110.874 33.5815C110.874 34.0148 110.874 34.4315 110.874 34.8315C110.841 35.4315 110.807 36.0315 110.774 36.6315C110.741 37.2315 110.691 37.8315 110.624 38.4315C110.591 38.7648 110.557 39.0982 110.524 39.4315C110.491 39.7648 110.424 40.0815 110.324 40.3815C110.224 40.6148 110.091 40.8648 109.924 41.1315C109.757 41.3982 109.541 41.5648 109.274 41.6315C108.974 41.7315 108.724 41.6815 108.524 41.4815C108.324 41.2815 108.207 41.0315 108.174 40.7315C108.141 40.4315 108.141 40.1482 108.174 39.8815C108.274 39.1482 108.424 38.3648 108.624 37.5315C108.757 36.4315 108.841 35.3315 108.874 34.2315C108.907 33.1315 108.841 32.0482 108.674 30.9815C108.641 30.7815 108.591 30.5148 108.524 30.1815C108.457 29.8148 108.357 29.4982 108.224 29.2315C108.124 28.9648 107.974 28.7982 107.774 28.7315C107.574 28.6315 107.324 28.7315 107.024 29.0315C106.557 29.5315 106.174 30.1148 105.874 30.7815C105.574 31.4482 105.291 32.0982 105.024 32.7315C104.757 33.3982 104.524 34.0815 104.324 34.7815C104.124 35.4482 103.941 36.1315 103.774 36.8315C103.741 36.9648 103.724 37.1648 103.724 37.4315C103.657 37.9648 103.591 38.4982 103.524 39.0315C103.457 39.5315 103.391 40.0482 103.324 40.5815C103.291 40.9482 103.191 41.3648 103.024 41.8315C102.891 42.2648 102.624 42.5648 102.224 42.7315C101.657 42.8982 101.324 42.5648 101.224 41.7315C101.024 41.3982 100.941 41.0315 100.974 40.6315C101.007 40.2315 101.057 39.8482 101.124 39.4815C101.191 38.9482 101.291 38.4315 101.424 37.9315C101.524 37.4315 101.641 36.9315 101.774 36.4315C101.841 36.2982 101.874 36.1815 101.874 36.0815C101.941 35.2148 101.941 34.3315 101.874 33.4315C101.841 32.5315 101.691 31.6815 101.424 30.8815C101.357 30.7482 101.274 30.5648 101.174 30.3315C101.074 30.0982 100.974 29.8815 100.874 29.6815C100.774 29.4482 100.707 29.2315 100.674 29.0315C100.641 28.7982 100.674 28.6148 100.774 28.4815C100.941 28.2815 101.141 28.1982 101.374 28.2315C101.574 28.2315 101.774 28.2982 101.974 28.4315C102.207 28.5648 102.407 28.7315 102.574 28.9315C102.774 29.0982 102.907 29.2482 102.974 29.3815C103.274 29.8148 103.474 30.3315 103.574 30.9315C103.741 30.6648 103.891 30.3815 104.024 30.0815C104.157 29.7815 104.307 29.4982 104.474 29.2315C104.741 28.7648 105.041 28.3315 105.374 27.9315C105.741 27.4982 106.157 27.1482 106.624 26.8815C107.191 26.5815 107.741 26.5148 108.274 26.6815C108.807 26.8148 109.257 27.1315 109.624 27.6315C110.091 28.2648 110.391 28.9815 110.524 29.7815C110.691 30.5482 110.807 31.3482 110.874 32.1815L111.324 31.4315C111.691 30.7982 112.124 30.1482 112.624 29.4815C113.157 28.8148 113.757 28.3148 114.424 27.9815C114.857 27.7815 115.241 27.7315 115.574 27.8315C115.941 27.8982 116.257 28.0648 116.524 28.3315C116.791 28.5648 117.007 28.8648 117.174 29.2315C117.374 29.5648 117.507 29.9148 117.574 30.2815C117.707 31.0482 117.774 31.8315 117.774 32.6315C117.807 33.3982 117.807 34.1815 117.774 34.9815C117.741 35.7815 117.707 36.5815 117.674 37.3815C117.674 38.1482 117.724 38.9315 117.824 39.7315C117.857 39.9982 117.907 40.2982 117.974 40.6315C118.074 40.9315 118.307 41.0315 118.674 40.9315C118.974 40.8648 119.257 40.6982 119.524 40.4315C119.791 40.1315 120.024 39.8482 120.224 39.5815C121.057 38.5148 121.707 37.2982 122.174 35.9315C122.241 35.7648 122.324 35.5648 122.424 35.3315C122.557 35.0982 122.707 34.8982 122.874 34.7315C123.041 34.5315 123.224 34.4148 123.424 34.3815C123.624 34.3148 123.824 34.3982 124.024 34.6315C124.224 34.8315 124.341 35.0648 124.374 35.3315C124.407 35.5982 124.391 35.8815 124.324 36.1815C124.257 36.4815 124.157 36.7815 124.024 37.0815C123.924 37.3482 123.824 37.5815 123.724 37.7815C123.491 38.2815 123.207 38.8315 122.874 39.4315C122.541 40.0315 122.141 40.5982 121.674 41.1315C121.241 41.6648 120.757 42.1148 120.224 42.4815C119.691 42.8482 119.107 43.0315 118.474 43.0315C117.674 43.0648 117.074 42.8482 116.674 42.3815C116.307 41.8815 116.041 41.2982 115.874 40.6315C115.741 39.9315 115.674 39.2148 115.674 38.4815C115.707 37.7148 115.724 37.0815 115.724 36.5815C115.757 35.7815 115.791 34.9815 115.824 34.1815C115.857 33.3482 115.841 32.5315 115.774 31.7315C115.741 31.4982 115.707 31.1815 115.674 30.7815C115.641 30.3815 115.541 30.0982 115.374 29.9315C115.241 29.7982 115.124 29.7982 115.024 29.9315C114.924 30.0315 114.807 30.1315 114.674 30.2315C114.107 30.7982 113.607 31.4648 113.174 32.2315C112.774 32.9648 112.391 33.6982 112.024 34.4315C111.391 35.7982 110.907 37.1315 110.574 38.4315C110.441 38.8982 110.341 39.3982 110.274 39.9315C110.207 40.4648 110.024 40.9148 109.724 41.2815C109.624 41.3815 109.474 41.4982 109.274 41.6315C109.207 41.6315 109.157 41.6482 109.124 41.6815C109.091 41.6815 109.041 41.6648 108.974 41.6315C108.607 41.5648 108.391 41.3315 108.324 40.9315C108.291 40.4982 108.307 40.1482 108.374 39.8815Z" fill="url(#paint6_linear_553_342)"/>
<path d="M125.277 29.5315C125.111 30.8315 124.961 32.1482 124.827 33.4815C124.727 34.7815 124.727 36.0982 124.827 37.4315C124.894 37.9315 124.977 38.4982 125.077 39.1315C125.177 39.7648 125.427 40.2648 125.827 40.6315C126.061 40.8315 126.311 40.9315 126.577 40.9315C126.844 40.9315 127.094 40.8815 127.327 40.7815C127.594 40.6482 127.844 40.4982 128.077 40.3315C128.311 40.1315 128.511 39.9482 128.677 39.7815C129.244 39.1815 129.727 38.4982 130.127 37.7315C130.527 36.9648 130.877 36.1982 131.177 35.4315C131.444 34.7982 131.761 34.3482 132.127 34.0815C132.494 33.7815 132.794 33.6982 133.027 33.8315C133.261 33.9648 133.377 34.2982 133.377 34.8315C133.411 35.3315 133.311 35.8315 133.077 36.3315C132.677 37.2315 132.194 38.1648 131.627 39.1315C131.127 39.9648 130.494 40.7815 129.727 41.5815C128.994 42.3482 128.094 42.7815 127.027 42.8815C125.794 43.0148 124.877 42.6982 124.277 41.9315C123.677 41.1315 123.261 40.1648 123.027 39.0315C122.794 37.8982 122.694 36.7315 122.727 35.5315C122.761 34.2982 122.811 33.2982 122.877 32.5315C122.911 32.0982 122.944 31.6815 122.977 31.2815C123.011 30.8482 123.061 30.4148 123.127 29.9815C123.161 29.7148 123.194 29.4482 123.227 29.1815C123.294 28.8815 123.411 28.5982 123.577 28.3315C123.711 28.1648 123.877 28.0148 124.077 27.8815C124.277 27.7482 124.511 27.7315 124.777 27.8315C125.044 27.9982 125.194 28.2648 125.227 28.6315C125.294 28.9648 125.311 29.2648 125.277 29.5315ZM126.727 16.6315C126.227 16.4315 125.694 16.3815 125.127 16.4815C124.561 16.5482 123.994 16.7315 123.427 17.0315C122.894 17.2982 122.394 17.6148 121.927 17.9815C121.427 18.3482 121.011 18.6982 120.677 19.0315C120.311 19.4315 119.961 19.8982 119.627 20.4315C119.261 20.9315 119.094 21.4648 119.127 22.0315C119.161 22.6648 119.427 23.1148 119.927 23.3815C120.427 23.6148 120.944 23.6982 121.477 23.6315C122.444 23.5648 123.411 23.2482 124.377 22.6815C125.377 22.0815 126.161 21.3815 126.727 20.5815C126.894 20.2815 127.027 19.9648 127.127 19.6315C127.227 19.2648 127.377 18.9482 127.577 18.6815C127.944 18.2148 128.277 18.1148 128.577 18.3815C128.911 18.6482 129.111 18.9982 129.177 19.4315C129.211 19.8315 129.161 20.2315 129.027 20.6315C128.894 21.0315 128.694 21.4148 128.427 21.7815C128.194 22.1148 127.927 22.4315 127.627 22.7315C127.327 23.0315 127.027 23.2982 126.727 23.5315C125.894 24.1648 124.944 24.6982 123.877 25.1315C122.844 25.5315 121.794 25.6982 120.727 25.6315C119.694 25.5648 118.811 25.1482 118.077 24.3815C117.344 23.6148 117.027 22.6982 117.127 21.6315C117.227 20.5648 117.644 19.5815 118.377 18.6815C119.077 17.7482 119.861 16.9815 120.727 16.3815C121.561 15.7482 122.494 15.2315 123.527 14.8315C124.561 14.3982 125.611 14.2815 126.677 14.4815C127.044 14.5482 127.394 14.6815 127.727 14.8815C128.061 15.0482 128.294 15.3148 128.427 15.6815C128.494 15.9815 128.477 16.2148 128.377 16.3815C128.277 16.5482 128.127 16.6648 127.927 16.7315C127.761 16.7982 127.561 16.8315 127.327 16.8315C127.127 16.7982 126.927 16.7315 126.727 16.6315Z" fill="url(#paint7_linear_553_342)"/>
<path d="M132.264 26.9815C132.697 27.6482 132.981 28.3982 133.114 29.2315C133.281 30.0315 133.414 30.8148 133.514 31.5815C133.547 31.8482 133.564 32.1315 133.564 32.4315C133.597 32.6982 133.614 32.9648 133.614 33.2315C133.814 32.9315 133.997 32.6482 134.164 32.3815C134.364 32.0815 134.581 31.7815 134.814 31.4815C135.281 30.8148 135.797 30.1648 136.364 29.5315C136.931 28.8648 137.597 28.3482 138.364 27.9815C138.797 27.7815 139.181 27.7148 139.514 27.7815C139.881 27.8482 140.181 28.0148 140.414 28.2815C140.681 28.5148 140.897 28.8148 141.064 29.1815C141.264 29.5148 141.397 29.8815 141.464 30.2815C141.597 31.0815 141.647 31.8982 141.614 32.7315C141.614 33.5315 141.581 34.3482 141.514 35.1815C141.447 35.9815 141.381 36.7982 141.314 37.6315C141.247 38.4315 141.247 39.2315 141.314 40.0315C141.314 40.1648 141.314 40.3315 141.314 40.5315C141.347 40.6982 141.381 40.8648 141.414 41.0315C141.481 41.1982 141.564 41.3315 141.664 41.4315C141.797 41.4982 141.964 41.4982 142.164 41.4315C142.397 41.3648 142.614 41.2315 142.814 41.0315C143.014 40.8315 143.197 40.6482 143.364 40.4815C143.897 39.9482 144.347 39.3815 144.714 38.7815C145.081 38.1482 145.447 37.4982 145.814 36.8315C145.981 36.5315 146.131 36.2315 146.264 35.9315C146.397 35.5982 146.531 35.3148 146.664 35.0815C146.831 34.8148 146.997 34.6148 147.164 34.4815C147.331 34.3482 147.514 34.3315 147.714 34.4315C147.914 34.5315 148.047 34.7148 148.114 34.9815C148.181 35.2148 148.197 35.4815 148.164 35.7815C148.164 36.0815 148.114 36.3815 148.014 36.6815C147.947 36.9482 147.881 37.1648 147.814 37.3315C147.547 37.8648 147.247 38.4315 146.914 39.0315C146.581 39.6315 146.214 40.2148 145.814 40.7815C145.414 41.3148 144.964 41.8148 144.464 42.2815C143.997 42.7148 143.481 43.0482 142.914 43.2815C142.214 43.5815 141.547 43.5982 140.914 43.3315C140.314 43.0648 139.881 42.5815 139.614 41.8815C139.347 41.2148 139.214 40.5148 139.214 39.7815C139.247 39.0482 139.281 38.3315 139.314 37.6315C139.381 36.7648 139.447 35.9148 139.514 35.0815C139.581 34.2482 139.614 33.3982 139.614 32.5315C139.614 32.1648 139.597 31.7982 139.564 31.4315C139.564 31.0315 139.514 30.6482 139.414 30.2815C139.347 30.0482 139.281 29.9148 139.214 29.8815C139.181 29.8482 139.064 29.8815 138.864 29.9815C138.231 30.3482 137.664 30.8982 137.164 31.6315C136.664 32.3315 136.214 32.9815 135.814 33.5815C135.414 34.2148 135.031 34.8815 134.664 35.5815C134.297 36.2482 133.981 36.9315 133.714 37.6315C133.681 38.0315 133.647 38.4315 133.614 38.8315C133.614 39.2315 133.614 39.6315 133.614 40.0315C133.581 40.4648 133.531 40.9315 133.464 41.4315C133.397 41.9315 133.164 42.3148 132.764 42.5815C132.431 42.8148 132.164 42.8648 131.964 42.7315C131.797 42.6315 131.681 42.4482 131.614 42.1815C131.447 42.2482 131.264 42.1982 131.064 42.0315C130.831 41.8315 130.697 41.5648 130.664 41.2315C130.631 40.8648 130.647 40.5482 130.714 40.2815C130.881 39.7148 131.047 39.1648 131.214 38.6315C131.347 38.0982 131.514 37.5648 131.714 37.0315C131.781 35.6982 131.764 34.3648 131.664 33.0315C131.564 31.6648 131.331 30.3482 130.964 29.0815C130.797 28.6815 130.597 28.2648 130.364 27.8315C130.097 27.3648 129.981 26.9148 130.014 26.4815C130.014 26.1148 130.114 25.9148 130.314 25.8815C130.514 25.8148 130.747 25.8482 131.014 25.9815C131.281 26.1148 131.531 26.2815 131.764 26.4815C131.997 26.6815 132.164 26.8482 132.264 26.9815Z" fill="url(#paint8_linear_553_342)"/>
<path d="M146.354 35.1815C146.487 34.7815 146.621 34.2815 146.754 33.6815C146.921 33.0815 147.054 32.4648 147.154 31.8315C147.287 31.1648 147.387 30.5315 147.454 29.9315C147.554 29.2982 147.637 28.7648 147.704 28.3315V27.8315L147.504 26.8815C147.437 26.5148 147.404 26.1648 147.404 25.8315C147.437 25.4648 147.587 25.1482 147.854 24.8815C148.254 24.5148 148.654 24.4482 149.054 24.6815C149.487 24.8815 149.754 25.2148 149.854 25.6815C149.921 26.0148 149.937 26.3648 149.904 26.7315C149.904 27.0648 149.871 27.4148 149.804 27.7815C149.937 28.2148 150.087 28.6315 150.254 29.0315C150.421 29.4315 150.604 29.8315 150.804 30.2315C151.104 30.8315 151.437 31.4315 151.804 32.0315C152.171 32.5982 152.504 33.1815 152.804 33.7815C153.137 34.3815 153.421 34.9982 153.654 35.6315C153.921 36.2648 154.087 36.9315 154.154 37.6315C154.287 38.7648 154.121 39.7982 153.654 40.7315C153.187 41.6648 152.404 42.3315 151.304 42.7315C151.137 42.7982 150.921 42.8482 150.654 42.8815C150.421 42.9148 150.171 42.9148 149.904 42.8815C149.671 42.8815 149.471 42.8148 149.304 42.6815C149.137 42.5482 149.054 42.3482 149.054 42.0815C149.054 41.6482 149.287 41.3315 149.754 41.1315C150.221 40.9315 150.604 40.7482 150.904 40.5815C151.337 40.3482 151.654 40.0482 151.854 39.6815C152.054 39.2815 152.154 38.8482 152.154 38.3815C152.187 37.9148 152.137 37.4482 152.004 36.9815C151.871 36.5148 151.721 36.0982 151.554 35.7315C151.221 35.0315 150.854 34.3482 150.454 33.6815C150.054 33.0148 149.671 32.3315 149.304 31.6315C149.171 32.3982 149.021 33.1482 148.854 33.8815C148.721 34.6148 148.554 35.2148 148.354 35.6815C148.254 35.9482 148.071 36.2482 147.804 36.5815C147.571 36.8815 147.271 37.0315 146.904 37.0315C146.437 36.9982 146.204 36.7648 146.204 36.3315C146.171 35.8648 146.221 35.4815 146.354 35.1815Z" fill="url(#paint9_linear_553_342)"/>
<path d="M163.581 27.9815C163.048 29.1482 162.498 30.2982 161.931 31.4315C161.398 32.5648 160.814 33.6815 160.181 34.7815C160.181 35.4148 160.181 36.0315 160.181 36.6315C160.181 37.2315 160.198 37.8315 160.231 38.4315C160.231 38.6315 160.248 38.9982 160.281 39.5315C160.348 40.0315 160.364 40.5482 160.331 41.0815C160.298 41.5815 160.198 42.0148 160.031 42.3815C159.898 42.7482 159.614 42.8815 159.181 42.7815C158.781 42.6815 158.514 42.3982 158.381 41.9315C158.281 41.4648 158.214 41.0648 158.181 40.7315C158.114 40.0982 158.081 39.4648 158.081 38.8315C158.114 38.1982 158.131 37.5648 158.131 36.9315C158.098 33.9982 158.114 31.1148 158.181 28.2815C158.248 25.4148 158.381 22.5315 158.581 19.6315C158.681 18.0648 158.798 16.5315 158.931 15.0315C159.098 13.4982 159.314 11.9815 159.581 10.4815C159.814 9.04816 160.114 7.58149 160.481 6.08149C160.881 4.54816 161.531 3.19816 162.431 2.03149C162.864 1.46482 163.381 1.01482 163.981 0.681489C164.581 0.348156 165.231 0.23149 165.931 0.331491C166.598 0.43149 167.148 0.698156 167.581 1.13149C168.014 1.53149 168.348 2.01482 168.581 2.58149C169.114 3.88149 169.331 5.29816 169.231 6.83149C169.131 8.33149 168.981 9.74816 168.781 11.0815C168.314 14.0148 167.614 16.8982 166.681 19.7315C165.781 22.5315 164.748 25.2815 163.581 27.9815ZM160.481 20.7815C160.281 23.9815 160.181 27.1815 160.181 30.3815C161.248 28.1815 162.214 25.9482 163.081 23.6815C163.981 21.4148 164.764 19.0982 165.431 16.7315C165.864 15.2315 166.231 13.7148 166.531 12.1815C166.864 10.6482 167.081 9.09816 167.181 7.53149C167.214 6.86482 167.214 6.16482 167.181 5.43149C167.181 4.69816 167.048 4.01482 166.781 3.38149C166.481 2.71482 166.064 2.38149 165.531 2.38149C164.998 2.34816 164.498 2.59816 164.031 3.13149C163.564 3.69816 163.198 4.33149 162.931 5.03149C162.698 5.73149 162.498 6.41482 162.331 7.08149C162.131 7.81482 161.948 8.56483 161.781 9.33149C161.648 10.0648 161.514 10.8148 161.381 11.5815C161.148 13.1148 160.964 14.6482 160.831 16.1815C160.698 17.7148 160.581 19.2482 160.481 20.7815ZM163.731 36.0815C165.498 38.3815 167.314 40.3982 169.181 42.1315C171.048 43.8315 173.048 45.2482 175.181 46.3815C176.148 46.8815 177.148 47.3148 178.181 47.6815C179.214 48.0482 180.264 48.2648 181.331 48.3315C181.798 48.3648 182.248 48.3648 182.681 48.3315C183.148 48.2982 183.614 48.2148 184.081 48.0815C184.414 47.9815 184.764 47.8648 185.131 47.7315C185.531 47.5982 185.898 47.6148 186.231 47.7815C186.464 47.9148 186.598 48.0648 186.631 48.2315C186.664 48.4315 186.631 48.6148 186.531 48.7815C186.431 48.9815 186.298 49.1482 186.131 49.2815C185.964 49.4482 185.814 49.5815 185.681 49.6815C185.314 49.9148 184.898 50.0648 184.431 50.1315C183.998 50.2315 183.564 50.3148 183.131 50.3815C182.064 50.4815 180.998 50.4148 179.931 50.1815C178.864 49.9815 177.848 49.6982 176.881 49.3315C174.781 48.5315 172.831 47.4815 171.031 46.1815C169.264 44.8815 167.598 43.4482 166.031 41.8815C165.464 41.3148 164.814 40.6482 164.081 39.8815C163.381 39.0815 162.814 38.3315 162.381 37.6315C162.114 37.1982 161.914 36.8482 161.781 36.5815C161.681 36.3148 161.631 36.0815 161.631 35.8815C161.664 35.6815 161.731 35.4815 161.831 35.2815C161.964 35.0815 162.148 34.8482 162.381 34.5815C162.748 34.1482 163.098 33.6815 163.431 33.1815C163.764 32.6482 164.098 32.1315 164.431 31.6315C164.731 31.1315 165.014 30.6315 165.281 30.1315C165.581 29.6315 165.848 29.1148 166.081 28.5815C166.248 28.2148 166.398 27.8648 166.531 27.5315C166.664 27.1648 166.881 26.8482 167.181 26.5815C167.381 26.4148 167.614 26.3148 167.881 26.2815C168.148 26.2148 168.364 26.3148 168.531 26.5815C168.731 26.9148 168.764 27.2982 168.631 27.7315C168.531 28.1315 168.398 28.4815 168.231 28.7815C168.064 29.1815 167.881 29.5648 167.681 29.9315C167.481 30.2982 167.281 30.6648 167.081 31.0315C166.614 31.7982 166.131 32.5815 165.631 33.3815C165.131 34.1815 164.498 35.0815 163.731 36.0815Z" fill="url(#paint10_linear_553_342)"/>
<path d="M174.008 29.5315C173.841 30.8315 173.691 32.1482 173.558 33.4815C173.458 34.7815 173.458 36.0982 173.558 37.4315C173.624 37.9315 173.708 38.4982 173.808 39.1315C173.908 39.7648 174.158 40.2648 174.558 40.6315C174.791 40.8315 175.041 40.9315 175.308 40.9315C175.574 40.9315 175.824 40.8815 176.058 40.7815C176.324 40.6482 176.574 40.4982 176.808 40.3315C177.041 40.1315 177.241 39.9482 177.408 39.7815C177.974 39.1815 178.458 38.4982 178.858 37.7315C179.258 36.9648 179.608 36.1982 179.908 35.4315C180.174 34.7982 180.491 34.3482 180.858 34.0815C181.224 33.7815 181.524 33.6982 181.758 33.8315C181.991 33.9648 182.108 34.2982 182.108 34.8315C182.141 35.3315 182.041 35.8315 181.808 36.3315C181.408 37.2315 180.924 38.1648 180.358 39.1315C179.858 39.9648 179.224 40.7815 178.458 41.5815C177.724 42.3482 176.824 42.7815 175.758 42.8815C174.524 43.0148 173.608 42.6982 173.008 41.9315C172.408 41.1315 171.991 40.1648 171.758 39.0315C171.524 37.8982 171.424 36.7315 171.458 35.5315C171.491 34.2982 171.541 33.2982 171.608 32.5315C171.641 32.0982 171.674 31.6815 171.708 31.2815C171.741 30.8482 171.791 30.4148 171.858 29.9815C171.891 29.7148 171.924 29.4482 171.958 29.1815C172.024 28.8815 172.141 28.5982 172.308 28.3315C172.441 28.1648 172.608 28.0148 172.808 27.8815C173.008 27.7482 173.241 27.7315 173.508 27.8315C173.774 27.9982 173.924 28.2648 173.958 28.6315C174.024 28.9648 174.041 29.2648 174.008 29.5315ZM175.458 16.6315C174.958 16.4315 174.424 16.3815 173.858 16.4815C173.291 16.5482 172.724 16.7315 172.158 17.0315C171.624 17.2982 171.124 17.6148 170.658 17.9815C170.158 18.3482 169.741 18.6982 169.408 19.0315C169.041 19.4315 168.691 19.8982 168.358 20.4315C167.991 20.9315 167.824 21.4648 167.858 22.0315C167.891 22.6648 168.158 23.1148 168.658 23.3815C169.158 23.6148 169.674 23.6982 170.208 23.6315C171.174 23.5648 172.141 23.2482 173.108 22.6815C174.108 22.0815 174.891 21.3815 175.458 20.5815C175.624 20.2815 175.758 19.9648 175.858 19.6315C175.958 19.2648 176.108 18.9482 176.308 18.6815C176.674 18.2148 177.008 18.1148 177.308 18.3815C177.641 18.6482 177.841 18.9982 177.908 19.4315C177.941 19.8315 177.891 20.2315 177.758 20.6315C177.624 21.0315 177.424 21.4148 177.158 21.7815C176.924 22.1148 176.658 22.4315 176.358 22.7315C176.058 23.0315 175.758 23.2982 175.458 23.5315C174.624 24.1648 173.674 24.6982 172.608 25.1315C171.574 25.5315 170.524 25.6982 169.458 25.6315C168.424 25.5648 167.541 25.1482 166.808 24.3815C166.074 23.6148 165.758 22.6982 165.858 21.6315C165.958 20.5648 166.374 19.5815 167.108 18.6815C167.808 17.7482 168.591 16.9815 169.458 16.3815C170.291 15.7482 171.224 15.2315 172.258 14.8315C173.291 14.3982 174.341 14.2815 175.408 14.4815C175.774 14.5482 176.124 14.6815 176.458 14.8815C176.791 15.0482 177.024 15.3148 177.158 15.6815C177.224 15.9815 177.208 16.2148 177.108 16.3815C177.008 16.5482 176.858 16.6648 176.658 16.7315C176.491 16.7982 176.291 16.8315 176.058 16.8315C175.858 16.7982 175.658 16.7315 175.458 16.6315Z" fill="url(#paint11_linear_553_342)"/>
<defs>
<linearGradient id="paint0_linear_553_342" x1="-21.5918" y1="29.0142" x2="194.317" y2="29.0142" gradientUnits="userSpaceOnUse">
<stop stop-color="#C59541"/>
<stop offset="0.369792" stop-color="#FBDD78"/>
<stop offset="1" stop-color="#BE9042"/>
</linearGradient>
<linearGradient id="paint1_linear_553_342" x1="-21.5918" y1="29.0142" x2="194.317" y2="29.0142" gradientUnits="userSpaceOnUse">
<stop stop-color="#C59541"/>
<stop offset="0.369792" stop-color="#FBDD78"/>
<stop offset="1" stop-color="#BE9042"/>
</linearGradient>
<linearGradient id="paint2_linear_553_342" x1="-21.5918" y1="29.0142" x2="194.317" y2="29.0142" gradientUnits="userSpaceOnUse">
<stop stop-color="#C59541"/>
<stop offset="0.369792" stop-color="#FBDD78"/>
<stop offset="1" stop-color="#BE9042"/>
</linearGradient>
<linearGradient id="paint3_linear_553_342" x1="-21.5918" y1="29.0142" x2="194.317" y2="29.0142" gradientUnits="userSpaceOnUse">
<stop stop-color="#C59541"/>
<stop offset="0.369792" stop-color="#FBDD78"/>
<stop offset="1" stop-color="#BE9042"/>
</linearGradient>
<linearGradient id="paint4_linear_553_342" x1="-21.5918" y1="29.0142" x2="194.317" y2="29.0142" gradientUnits="userSpaceOnUse">
<stop stop-color="#C59541"/>
<stop offset="0.369792" stop-color="#FBDD78"/>
<stop offset="1" stop-color="#BE9042"/>
</linearGradient>
<linearGradient id="paint5_linear_553_342" x1="-21.5918" y1="29.0142" x2="194.317" y2="29.0142" gradientUnits="userSpaceOnUse">
<stop stop-color="#C59541"/>
<stop offset="0.369792" stop-color="#FBDD78"/>
<stop offset="1" stop-color="#BE9042"/>
</linearGradient>
<linearGradient id="paint6_linear_553_342" x1="-21.5918" y1="29.0142" x2="194.317" y2="29.0142" gradientUnits="userSpaceOnUse">
<stop stop-color="#C59541"/>
<stop offset="0.369792" stop-color="#FBDD78"/>
<stop offset="1" stop-color="#BE9042"/>
</linearGradient>
<linearGradient id="paint7_linear_553_342" x1="-21.5918" y1="29.0142" x2="194.317" y2="29.0142" gradientUnits="userSpaceOnUse">
<stop stop-color="#C59541"/>
<stop offset="0.369792" stop-color="#FBDD78"/>
<stop offset="1" stop-color="#BE9042"/>
</linearGradient>
<linearGradient id="paint8_linear_553_342" x1="-21.5918" y1="29.0142" x2="194.317" y2="29.0142" gradientUnits="userSpaceOnUse">
<stop stop-color="#C59541"/>
<stop offset="0.369792" stop-color="#FBDD78"/>
<stop offset="1" stop-color="#BE9042"/>
</linearGradient>
<linearGradient id="paint9_linear_553_342" x1="-21.5918" y1="29.0142" x2="194.317" y2="29.0142" gradientUnits="userSpaceOnUse">
<stop stop-color="#C59541"/>
<stop offset="0.369792" stop-color="#FBDD78"/>
<stop offset="1" stop-color="#BE9042"/>
</linearGradient>
<linearGradient id="paint10_linear_553_342" x1="-21.5918" y1="29.0142" x2="194.317" y2="29.0142" gradientUnits="userSpaceOnUse">
<stop stop-color="#C59541"/>
<stop offset="0.369792" stop-color="#FBDD78"/>
<stop offset="1" stop-color="#BE9042"/>
</linearGradient>
<linearGradient id="paint11_linear_553_342" x1="-21.5918" y1="29.0142" x2="194.317" y2="29.0142" gradientUnits="userSpaceOnUse">
<stop stop-color="#C59541"/>
<stop offset="0.369792" stop-color="#FBDD78"/>
<stop offset="1" stop-color="#BE9042"/>
</linearGradient>
</defs>
</svg>
