<svg width="119" height="82" viewBox="0 0 119 82" fill="none" xmlns="http://www.w3.org/2000/svg">
<path fill-rule="evenodd" clip-rule="evenodd" d="M60.6274 8.53516L61.0171 9.01556L65.3193 14.3181L66.6484 13.2899L67.1103 12.9325L67.3922 13.4441L72.8493 23.348H76.5981H76.8667L77.015 23.572L81.7954 30.7914L86.11 28.4881L86.5809 29.3702L72.7892 36.7328L72.542 36.8648L72.3004 36.7227L70.7685 35.8222L61.0253 40.5519L70.1662 49.3542L69.4725 50.0746L54.0071 35.1819L52.3319 35.8716L52.0054 36.0061L51.7695 35.7433L42.8611 25.82L40.7743 27.1112L40.443 27.3162L40.1633 27.045L32.6038 19.7189L33.2997 19.0008L40.5795 26.0558L42.6906 24.7496L43.0463 24.5295L43.3258 24.8407L44.5637 26.2197L49.1332 20.127L49.4251 19.7378L49.8221 20.019L50.815 20.7221L60.2394 9.01701L60.6274 8.53516ZM76.3295 24.348L80.9093 31.2644L72.5655 35.7186L71.0444 34.8244L70.8136 34.6887L70.5727 34.8057L60.2578 39.8129L54.4655 34.235L54.2302 34.0085L53.9283 34.1329L52.2777 34.8125L45.2447 26.9783L49.6413 21.1162L54.2218 24.3598L54.7997 23.5437L51.6327 21.3011L60.6303 10.126L64.5281 14.9302L61.1525 17.5416L61.7644 18.3326L66.7983 14.4383L72.116 24.0893L72.2586 24.348H72.5539H76.3295ZM50.1317 43.8575L40.4784 37.8097L41.0093 36.9623L50.4349 42.8674L52.7488 41.8159L52.9744 41.7133L53.1927 41.8309L59.2404 45.0873L58.7663 45.9678L52.9368 42.8288L50.604 43.889L50.3594 44.0002L50.1317 43.8575ZM62.473 27.8992L62.1566 27.6754L61.861 27.926L57.091 31.9693L57.7376 32.7322L62.212 28.9394L66.1471 31.7224L66.4836 31.9604L66.7814 31.6755L69.1665 29.3942L68.4753 28.6716L66.3881 30.668L62.473 27.8992Z" fill="black"/>
<path d="M10.8202 69.8247V71.4807C10.3402 71.0007 9.81819 70.6287 9.25419 70.3647C8.57019 70.0527 7.88019 69.8967 7.18419 69.8967C5.80419 69.8967 4.65219 70.3827 3.72819 71.3547C2.81619 72.3147 2.36019 73.4967 2.36019 74.9007C2.36019 76.4127 2.85819 77.6067 3.85419 78.4827C4.86219 79.3587 5.97819 79.7967 7.20219 79.7967C7.97019 79.7967 8.71419 79.6107 9.43419 79.2387C9.93819 78.9867 10.4002 78.6507 10.8202 78.2307V79.8867C9.72819 80.6667 8.52219 81.0567 7.20219 81.0567C5.42619 81.0567 3.94419 80.4627 2.75619 79.2747C1.58019 78.0867 0.992188 76.6227 0.992188 74.8827C0.992188 73.0947 1.58619 71.6067 2.77419 70.4187C3.97419 69.2307 5.47419 68.6367 7.27419 68.6367C8.59419 68.6367 9.77619 69.0327 10.8202 69.8247Z" fill="#313D2D"/>
<path d="M21.3049 80.8407L19.9009 77.4567H14.7889L13.3489 80.8407H11.8729L17.3989 68.2587L22.7809 80.8407H21.3049ZM15.3109 76.1967H19.3789L17.3629 71.3907L15.3109 76.1967Z" fill="#313D2D"/>
<path d="M25.8062 80.8407H24.4742V68.3307L33.8342 78.1407V68.8347H35.1662V81.3807L25.8062 71.5707V80.8407Z" fill="#313D2D"/>
<path d="M40.7934 80.8407V75.6747L36.8514 68.8347H38.3994L41.4594 74.1987L44.5554 68.8347H46.1034L42.1254 75.6747V80.8407H40.7934Z" fill="#313D2D"/>
<path d="M57.3869 79.2747C56.1869 80.4627 54.7109 81.0567 52.9589 81.0567C51.2069 81.0567 49.7249 80.4627 48.5129 79.2747C47.3129 78.0867 46.7129 76.6107 46.7129 74.8467C46.7129 73.0707 47.3189 71.5947 48.5309 70.4187C49.7429 69.2307 51.2189 68.6367 52.9589 68.6367C54.6989 68.6367 56.1749 69.2307 57.3869 70.4187C58.5989 71.5947 59.2049 73.0707 59.2049 74.8467C59.2049 76.6107 58.5989 78.0867 57.3869 79.2747ZM56.4149 71.3367C55.4669 70.3767 54.3149 69.8967 52.9589 69.8967C51.6029 69.8967 50.4509 70.3767 49.5029 71.3367C48.5549 72.2967 48.0809 73.4667 48.0809 74.8467C48.0809 76.2267 48.5549 77.3967 49.5029 78.3567C50.4509 79.3167 51.6029 79.7967 52.9589 79.7967C54.3149 79.7967 55.4669 79.3167 56.4149 78.3567C57.3629 77.3967 57.8369 76.2267 57.8369 74.8467C57.8369 73.4667 57.3629 72.2967 56.4149 71.3367Z" fill="#313D2D"/>
<path d="M62.9839 80.8407H61.6519V68.3307L71.0119 78.1407V68.8347H72.3439V81.3807L62.9839 71.5707V80.8407Z" fill="#313D2D"/>
<path d="M78.2303 68.8347H79.7063L83.0903 77.9967L86.4743 68.8347H87.9503L83.0903 81.5607L78.2303 68.8347Z" fill="#313D2D"/>
<path d="M89.6363 68.8347H90.9683V80.8407H89.6363V68.8347Z" fill="#313D2D"/>
<path d="M100.294 68.8347V70.0947H95.398V73.6587H100.15V74.9187H95.398V79.5807H100.294V80.8407H94.066V68.8347H100.294Z" fill="#313D2D"/>
<path d="M101.346 68.8347H102.822L105.99 77.8347L109.752 68.2227L113.316 77.8347L116.826 68.8347H118.302L113.262 81.4707L109.734 71.8587L105.954 81.4707L101.346 68.8347Z" fill="#313D2D"/>
<path d="M55.2344 15.2013C54.7885 14.2093 53.6744 13.6622 52.5927 13.959C51.3964 14.2871 50.6927 15.5228 51.0208 16.7191C51.2388 17.5138 51.8574 18.0912 52.5989 18.293L51.9678 19.0334C51.1055 18.6713 50.4122 17.931 50.1457 16.9591C49.685 15.2795 50.6731 13.5445 52.3526 13.0838C53.7318 12.7055 55.1484 13.3042 55.8661 14.4604L55.2344 15.2013Z" fill="black"/>
<path d="M52.0588 11.9473L49.8093 3.74609" stroke="black"/>
<path d="M55.4042 12.6617L60.4819 5.83984" stroke="black"/>
<path d="M49.684 14.2297L41.8364 10.9531" stroke="black"/>
<path d="M49.5087 17.7718L41.5803 20.8477" stroke="black"/>
<path d="M53.7268 11.9347L55.7719 1.33425" stroke="black"/>
<path d="M50.6177 12.7882L43.4505 4.71458" stroke="black"/>
<path d="M48.9548 15.8982L39.5986 16.3223" stroke="black"/>
</svg>
