<svg width="276" height="419" viewBox="0 0 276 419" fill="none" xmlns="http://www.w3.org/2000/svg">
<circle cx="138.409" cy="328.618" r="26.6882" fill="url(#paint0_linear_845_346)"/>
<path d="M160.069 324.068L168.462 333.738L156.237 372.419L136.349 364.391L148.939 329.359L160.069 324.068Z" fill="#1A2714"/>
<path d="M218.937 378.018L239.006 363.738L242.866 365.282L256.567 361.809V365.282L275.865 381.878L283.97 383.422L290.338 427.42L264.672 422.21L218.937 378.018Z" stroke="#EFCC6B"/>
<path fill-rule="evenodd" clip-rule="evenodd" d="M138.975 203.193H137.85V296.095H138.975V203.193ZM192.904 214.775L151.367 299.413L152.377 299.909L193.914 215.271L192.904 214.775ZM161.79 228.626L145.297 297.063L146.391 297.326L162.884 228.89L161.79 228.626ZM158.32 302.897L200.387 249.859L201.269 250.559L159.202 303.596L158.32 302.897ZM235.923 249.775L163.353 307.479L164.053 308.36L236.624 250.655L235.923 249.775ZM167.024 313.711L230.252 282.955L230.744 283.967L167.517 314.723L167.024 313.711ZM260.596 299.102L170.451 321.027L170.717 322.121L260.862 300.196L260.596 299.102ZM170.579 327.689H241.216V328.815H170.579V327.689ZM113.942 228.885L115.036 228.621L131.53 297.057L130.436 297.321L113.942 228.885ZM83.9381 214.762L82.9277 215.258L124.435 299.91L125.445 299.414L83.9381 214.762ZM75.5674 250.537L76.4492 249.838L118.507 302.882L117.625 303.581L75.5674 250.537ZM40.9104 249.751L40.2099 250.632L112.771 308.349L113.471 307.469L40.9104 249.751ZM46.0811 283.95L46.5737 282.938L109.79 313.716L109.298 314.728L46.0811 283.95ZM16.2246 299.114L15.959 300.208L106.111 322.101L106.377 321.008L16.2246 299.114ZM35.6112 327.689H106.249V328.815H35.6112V327.689Z" fill="url(#paint1_linear_845_346)"/>
<path fill-rule="evenodd" clip-rule="evenodd" d="M155.647 65.4728C155.62 65.0592 155.594 64.6457 155.567 64.2188C155.447 61.9642 155.394 59.7097 155.394 57.4551C155.314 54.1867 155.314 50.9583 155.394 47.7432C155.474 44.5415 155.607 41.2997 155.807 38.0312C155.847 37.7244 155.807 37.3376 155.714 36.8973C155.621 36.4571 155.354 36.1902 154.927 36.1102C154.54 36.0302 154.233 36.1636 153.993 36.4838C153.753 36.8173 153.606 37.1374 153.526 37.4443C153.446 37.7111 153.366 38.0846 153.299 38.5515C153.219 38.8584 153.166 39.1652 153.126 39.4587C153.086 39.7522 153.032 40.0323 152.952 40.2992C152.606 41.6599 152.165 43.0073 151.645 44.3547C151.125 45.7021 150.471 46.9694 149.697 48.17C149.577 48.3968 149.43 48.6503 149.23 48.9305C149.03 49.1973 148.817 49.4241 148.59 49.5975C148.363 49.7709 148.11 49.8776 147.83 49.9177C147.563 49.9577 147.283 49.8377 147.016 49.5709C146.509 49.1039 146.202 48.4636 146.082 47.6498C145.962 46.836 145.909 46.1157 145.909 45.4887C145.829 43.8211 145.949 42.1534 146.255 40.4992C146.562 38.845 146.989 37.2308 147.536 35.63C147.576 35.4832 147.616 35.2697 147.656 35.0163C147.696 34.7628 147.71 34.5227 147.683 34.2826C147.656 34.0424 147.576 33.8557 147.416 33.6956C147.256 33.5355 147.043 33.4688 146.776 33.4688C146.349 33.4688 146.002 33.6689 145.722 34.0558C145.455 34.4427 145.255 34.8295 145.135 35.2164C144.748 36.2703 144.441 37.3509 144.228 38.4582C144.014 39.5654 143.827 40.6593 143.681 41.7532C143.667 41.9 143.654 42.0601 143.641 42.2202C143.635 42.215 143.63 42.2096 143.625 42.2041L143.611 42.1889C143.58 42.1556 143.548 42.1202 143.507 42.1001C143.2 41.98 142.894 42.0467 142.6 42.2735C142.307 42.5137 142.026 42.8205 141.76 43.2074C141.48 43.5943 141.253 43.9945 141.053 44.4081C140.986 44.5451 140.926 44.6719 140.87 44.7884C140.758 45.0232 140.666 45.2171 140.586 45.3686C140.159 46.1423 139.665 46.9561 139.132 47.7832C138.585 48.6236 137.904 49.2373 137.09 49.6242C136.197 50.0511 135.45 49.9978 134.849 49.4775C134.249 48.9572 133.755 48.3168 133.368 47.5831C132.942 46.8493 132.595 46.089 132.315 45.3019C132.034 44.5281 131.808 43.7276 131.608 42.9139C131.808 42.567 131.981 42.1935 132.128 41.8066C132.288 41.4198 132.435 41.0729 132.595 40.7527C133.262 39.1251 133.849 37.471 134.369 35.79C134.889 34.1225 135.37 32.4282 135.796 30.7206C136.77 26.8385 137.411 22.8897 137.717 18.8876C137.918 16.8331 138.011 14.752 138.038 12.6708C138.051 10.5897 137.878 8.53528 137.491 6.52085C137.291 5.62704 137.037 4.69323 136.73 3.71937C136.423 2.74551 135.877 1.97175 135.103 1.38477C134.329 0.757764 133.515 0.584291 132.688 0.837761C131.848 1.09123 131.167 1.58481 130.62 2.31854C130.073 3.0923 129.66 3.94613 129.366 4.85328C129.073 5.76044 128.833 6.66756 128.633 7.56137C128.392 8.61528 128.206 9.65588 128.046 10.6831C127.885 11.7103 127.779 12.7509 127.699 13.8048C127.312 17.9271 127.165 22.0493 127.258 26.1982C127.352 30.3338 127.739 34.4693 128.392 38.5915C128.595 39.8258 128.839 41.0717 129.112 42.3292C129.041 42.1209 128.925 41.9696 128.755 41.8724C128.448 41.7256 128.101 41.7656 127.741 42.0191L127.714 42.0858C127.34 42.3393 127.007 42.7528 126.7 43.3398L125.419 45.7278C125.265 45.9647 125.103 46.2492 124.92 46.5691C124.866 46.6635 124.81 46.7614 124.752 46.8617C124.499 47.3153 124.205 47.7422 123.872 48.1425C123.538 48.556 123.178 48.8895 122.765 49.1564C122.351 49.4232 121.938 49.5298 121.511 49.4498C120.964 49.3698 120.563 49.1163 120.31 48.6627C120.056 48.2224 119.896 47.7156 119.816 47.1419C119.736 46.5816 119.71 45.9946 119.723 45.3943C119.75 44.794 119.75 44.3137 119.75 43.9669C119.79 43.3399 119.83 42.7395 119.87 42.1526C119.91 41.5656 119.963 40.9652 120.043 40.3515C120.083 39.8446 120.15 39.351 120.243 38.8574C120.337 38.3771 120.39 37.8836 120.39 37.3766C120.43 36.8697 120.363 36.4694 120.217 36.1759C120.056 35.8824 119.843 35.6556 119.55 35.5089C119.256 35.3488 118.923 35.2421 118.562 35.1887C118.189 35.1354 117.815 35.0954 117.428 35.0954C117.122 35.0553 116.788 35.042 116.441 35.0687C116.094 35.0954 115.761 35.0687 115.454 34.9753C115.374 34.6685 115.294 34.4283 115.227 34.2816C115.027 33.8947 114.774 33.6279 114.467 33.4945C114.16 33.3611 113.84 33.3345 113.506 33.4012C113.173 33.4812 112.906 33.6546 112.693 33.9214C112.479 34.1882 112.372 34.5484 112.372 34.9753C112.372 35.6424 112.612 36.1626 113.079 36.5495V36.7763C113.079 38.3505 113.026 39.9113 112.919 41.4588C112.866 41.3921 112.799 41.3254 112.733 41.272C112.466 41.0719 112.212 41.0319 111.972 41.1253C111.732 41.2187 111.532 41.3787 111.358 41.5922C111.185 41.8056 111.025 42.0458 110.892 42.3259C110.863 42.3832 110.835 42.4387 110.809 42.4919L110.758 42.5968C110.685 42.7458 110.623 42.8724 110.571 42.9663C110.144 44.0602 109.571 45.0607 108.85 45.9946C108.13 46.9284 107.263 47.7289 106.262 48.3826C105.795 48.6894 105.262 48.9696 104.662 49.223C104.061 49.4765 103.434 49.6366 102.794 49.7166C102.153 49.7967 101.527 49.77 100.926 49.6232C100.326 49.4898 99.8055 49.1696 99.3786 48.6627C99.0318 48.2358 98.8317 47.7556 98.765 47.2353C98.7116 46.715 98.7649 46.1947 98.9384 45.6878C99.1118 45.1808 99.3653 44.7005 99.6988 44.2603C100.032 43.8201 100.392 43.4332 100.779 43.1264C101.019 42.9263 101.326 42.7261 101.713 42.5127C102.1 42.2992 102.447 42.0591 102.727 41.779C103.021 41.5122 103.207 41.2187 103.274 40.8985C103.354 40.5917 103.221 40.2448 102.86 39.8446C102.554 39.5378 102.207 39.271 101.847 39.0575C101.473 38.8441 101.26 38.4839 101.18 37.977C101.14 37.5901 101.22 37.2699 101.42 37.0164C101.62 36.7629 101.873 36.5762 102.18 36.4294C102.487 36.296 102.821 36.216 103.167 36.1893C103.514 36.1626 103.848 36.1893 104.155 36.2827C104.461 36.4027 104.808 36.4695 105.208 36.4828C105.595 36.5095 105.889 36.336 106.089 35.9891C106.289 35.6823 106.289 35.3622 106.089 35.0287C105.889 34.6951 105.662 34.455 105.382 34.2949C104.755 33.8681 104.048 33.6813 103.221 33.7347C102.407 33.788 101.687 33.9748 101.06 34.2949C100.326 34.6818 99.7388 35.2421 99.3119 35.9625C98.885 36.6829 98.725 37.4699 98.8451 38.3237C98.9651 39.0575 99.2185 39.6712 99.6054 40.1248L99.9256 40.4449C100.099 40.6184 100.192 40.7251 100.192 40.7651C99.2185 41.3921 98.3914 42.1392 97.7111 43.033C97.0307 43.9268 96.6305 44.954 96.5105 46.128C96.3504 47.5688 96.6839 48.8095 97.4976 49.8634C98.3114 50.9173 99.4187 51.5709 100.819 51.8511C102.1 52.1179 103.354 52.0779 104.581 51.7044C105.809 51.3308 106.943 50.7705 107.997 50.0101C109.051 49.2497 109.984 48.3558 110.798 47.3286C111.612 46.3147 112.239 45.2609 112.706 44.1803L112.705 44.1856C112.666 44.7439 112.626 45.3029 112.572 45.8745C112.439 47.2886 112.159 48.6894 111.732 50.0501C111.652 50.357 111.612 50.7571 111.612 51.2507C111.612 51.7443 111.852 52.0379 112.306 52.158C112.733 52.278 113.106 52.1313 113.44 51.7177C113.773 51.3042 114 50.9306 114.107 50.5837C114.373 49.7699 114.574 48.9162 114.694 48.0491C114.814 47.1686 114.907 46.2881 114.987 45.3943C115.107 44.3804 115.187 43.3532 115.227 42.2993C115.267 41.2454 115.321 40.2048 115.401 39.1509V37.2832C115.521 37.3232 115.734 37.3366 116.041 37.3366H116.855C117.122 37.3366 117.402 37.3633 117.669 37.39H117.67C117.869 37.39 117.975 37.39 117.989 37.4166C118.002 37.4433 118.042 37.5367 118.082 37.7368C118.082 37.9369 118.055 38.1504 117.989 38.4039C117.958 38.5503 117.927 38.6879 117.899 38.814C117.878 38.9061 117.859 38.992 117.842 39.0709L117.495 42.3927C117.455 43.1664 117.428 44.0735 117.402 45.1008C117.375 46.128 117.482 47.1152 117.695 48.0491C117.909 48.9829 118.282 49.7967 118.829 50.4904C119.376 51.1975 120.19 51.6243 121.284 51.771C122.218 51.8911 123.085 51.7044 123.872 51.2241C124.672 50.7439 125.379 50.0902 126.006 49.3031C126.633 48.5026 127.18 47.6489 127.674 46.7417C128.154 45.8346 128.554 45.0207 128.875 44.327C129.101 43.78 129.208 43.2732 129.195 42.8062C129.192 42.7501 129.187 42.6962 129.18 42.6446C129.3 43.1858 129.424 43.7291 129.553 44.2746C130.02 46.1957 130.754 47.9833 131.768 49.6108C132.235 50.3446 132.822 50.9849 133.515 51.5052C134.209 52.0255 135.009 52.2923 135.903 52.2923C136.797 52.3323 137.611 52.1322 138.358 51.7053C139.092 51.2784 139.732 50.7582 140.279 50.1311C140.906 49.4641 141.439 48.7437 141.906 47.9433C142.373 47.1428 142.8 46.3424 143.187 45.5286C143.281 45.3419 143.387 45.1151 143.481 44.8483C143.481 44.9774 143.479 45.105 143.478 45.2322C143.475 45.4857 143.472 45.7381 143.481 45.9955C143.521 47.4763 143.868 48.8371 144.535 50.0778C144.841 50.6248 145.242 51.0916 145.735 51.5052C146.215 51.9187 146.789 52.1589 147.456 52.239C148.123 52.319 148.697 52.1989 149.204 51.8921C149.711 51.5853 150.178 51.2117 150.604 50.7848C151.111 50.2379 151.565 49.6376 151.979 48.9839C152.392 48.3168 152.766 47.6231 153.113 46.8894C152.992 51.6253 152.992 56.3479 153.113 61.0571C153.113 62.151 153.126 63.2182 153.166 64.2988C153.206 65.3661 153.259 66.4466 153.339 67.5406C153.419 67.9274 153.513 68.3544 153.633 68.8213C153.753 69.2882 154.006 69.6217 154.393 69.8085C154.7 70.0086 154.98 70.0219 155.234 69.8618C155.487 69.7017 155.647 69.475 155.727 69.1682C155.927 68.7813 155.994 68.381 155.927 67.9675C155.874 67.5539 155.821 67.1404 155.781 66.7135C155.701 66.2866 155.66 65.873 155.634 65.4594L155.647 65.4728ZM130.607 37.7511C130.567 37.4042 130.527 37.0574 130.487 36.6972C129.94 32.615 129.633 28.5195 129.553 24.3972C129.473 20.275 129.686 16.1794 130.193 12.0972C130.314 11.0833 130.46 10.0695 130.66 9.04224C130.86 8.01502 131.114 7.01447 131.421 6.04061C131.567 5.61371 131.728 5.18679 131.888 4.75989C132.048 4.33299 132.275 3.94612 132.581 3.59927C132.968 3.17237 133.315 3.05229 133.595 3.2524C133.889 3.45251 134.129 3.75936 134.329 4.18625C134.756 5.00003 135.049 5.89386 135.209 6.86772C135.37 7.84158 135.476 8.78878 135.556 9.72262C135.636 10.7365 135.676 11.7504 135.676 12.7776C135.676 13.7895 135.65 14.8143 135.624 15.852L135.623 15.8992C135.423 19.7813 134.929 23.6635 134.129 27.5322C133.328 31.401 132.208 35.1631 130.78 38.8184C130.7 38.4715 130.647 38.1246 130.607 37.7644V37.7511Z" fill="url(#paint2_linear_845_346)"/>
<path fill-rule="evenodd" clip-rule="evenodd" d="M56.8605 37.2581C55.98 36.0707 54.9528 35.0302 53.7655 34.1097C52.5782 33.2025 51.2842 32.4154 49.8834 31.7484C50.1235 31.5083 50.3236 31.2682 50.4971 31.0147C50.6705 30.7612 50.8306 30.5344 50.9906 30.3477C52.0045 29.067 52.9784 27.773 53.9122 26.4656C54.8461 25.1582 55.6999 23.7975 56.4736 22.3567C56.8205 21.7297 57.1673 21.0493 57.4875 20.3155C57.821 19.5818 58.0745 18.8214 58.2746 18.0743C58.4747 17.3139 58.5814 16.5535 58.5948 15.7664C58.6081 14.9927 58.4881 14.2323 58.2212 13.4985C57.8744 12.6447 57.3808 11.9777 56.7271 11.4841C56.0867 11.0038 55.353 10.6703 54.5392 10.4969C53.7255 10.3235 52.8717 10.2701 52.0045 10.3502C51.1241 10.4302 50.2969 10.5769 49.5232 10.8171C47.7089 11.364 45.9746 12.1378 44.347 13.1517C42.7195 14.1655 41.1987 15.2862 39.7979 16.5402C39.6379 16.6603 39.4777 16.8337 39.3043 17.0605C39.1309 17.3006 38.9975 17.5274 38.8908 17.7675C38.7974 17.9943 38.784 18.2211 38.8641 18.4346C38.9441 18.648 39.1309 18.8081 39.4511 18.9281C39.958 19.0882 40.4249 19.0216 40.8518 18.7281C41.2787 18.4346 41.6656 18.141 42.0124 17.8209C42.6795 17.2739 43.3198 16.767 43.9602 16.3001C44.6005 15.8332 45.2942 15.3929 46.028 14.9527C45.9479 15.2195 45.8946 15.4996 45.8679 15.7664C45.8412 16.0464 45.8412 16.2732 45.8412 16.4732C45.6811 18.2208 45.5877 19.9554 45.5477 21.6629C45.5077 23.3705 45.4676 25.1048 45.4276 26.8524C45.2275 34.75 45.3476 42.621 45.7745 50.4652C45.8545 51.3991 45.9212 52.3196 45.9746 53.2401C46.0279 54.1473 46.0947 55.0544 46.1747 55.9482C46.2147 56.4952 46.2548 57.1089 46.2948 57.8159C46.3348 58.523 46.4682 59.1366 46.7083 59.6835C46.3615 59.8836 46.0146 60.0304 45.6544 60.1505C45.3076 60.2706 44.9607 60.404 44.6005 60.564C44.3604 60.6841 44.0802 60.7908 43.72 60.8842C43.3732 60.9776 43.0397 61.0977 42.7328 61.2311C42.426 61.3645 42.1325 61.5379 41.8524 61.7514C41.5722 61.9648 41.3988 62.2316 41.3321 62.5384C41.212 62.8853 41.2387 63.1521 41.4255 63.3256C41.6122 63.499 41.8123 63.6057 42.0658 63.6457C42.3193 63.6857 42.5994 63.699 42.9063 63.6723C43.2131 63.6457 43.4666 63.6057 43.6667 63.5256C44.4404 63.2855 45.2008 63.0187 45.9346 62.7119C46.6683 62.405 47.3887 62.0715 48.0957 61.7247C49.6432 60.9509 51.124 60.017 52.5248 58.9231C53.9256 57.8292 55.1529 56.6152 56.1935 55.2812C57.2474 53.9338 58.0745 52.4663 58.6748 50.8521C59.2751 49.2379 59.582 47.517 59.582 45.6893C59.582 44.1018 59.3419 42.5943 58.8483 41.1668C58.368 39.7527 57.6876 38.4454 56.8072 37.2581H56.8605ZM48.3225 14.6859C48.2825 14.3523 48.2158 14.0988 48.1091 13.8987L49.3097 13.3785C49.8967 13.1384 50.5904 12.9649 51.3775 12.8181C52.178 12.6847 52.925 12.6581 53.6187 12.7248C54.3258 12.8049 54.9261 13.045 55.433 13.4585C55.94 13.8721 56.2068 14.5391 56.2468 15.473C56.2869 16.8337 55.98 18.1811 55.313 19.5285C54.6459 20.8759 53.9656 22.0898 53.2719 23.1704C52.5381 24.3044 51.7511 25.3716 50.9106 26.4122C50.0702 27.4394 49.243 28.5067 48.4292 29.5872C48.3225 29.7473 48.1891 29.9475 48.0557 30.2009C47.909 30.4544 47.8023 30.7346 47.7355 31.0414C47.7756 25.8653 47.989 20.6758 48.3759 15.473C48.3759 15.2729 48.3626 15.0194 48.3225 14.6859ZM56.2202 50.6653C55.5398 52.2395 54.5926 53.6936 53.3919 55.0143C52.1913 56.335 50.8305 57.4423 49.3097 58.3361L49.0162 58.5096C48.9362 58.1227 48.8695 57.7358 48.8161 57.3756C48.7628 57.0021 48.7094 56.6286 48.6694 56.2417C48.3759 53.5203 48.1758 50.7854 48.0691 48.0506C47.9623 45.3025 47.869 42.5543 47.7889 39.8061C47.7489 38.7522 47.7355 37.6983 47.7355 36.6311V33.3893C48.029 33.5894 48.3092 33.7228 48.6027 33.8295C48.8828 33.9229 49.1763 34.0297 49.4965 34.1498C50.9373 34.8168 52.2447 35.6839 53.4053 36.7778C54.5659 37.8717 55.4998 39.1258 56.2068 40.5666C57.0206 42.2742 57.4075 43.9951 57.3408 45.7294C57.2874 47.4636 56.9138 49.1178 56.2335 50.692L56.2202 50.6653Z" fill="url(#paint3_linear_845_346)"/>
<path d="M98.2678 39.7647C98.5613 39.5112 98.6814 39.2578 98.6414 39.0043C98.6014 38.7508 98.3746 38.5374 97.9743 38.364C97.5608 38.1905 96.9871 38.1238 96.2534 38.1638C95.2395 38.2439 94.2657 38.1905 93.3318 37.9904C92.398 37.7903 91.5842 37.5502 90.8772 37.2301C90.8371 36.7631 90.677 36.2428 90.4102 35.6558C90.1434 35.1088 89.7299 34.722 89.1829 34.4952C88.636 34.255 88.089 34.3618 87.5554 34.7887C87.0084 35.2156 86.7816 35.7359 86.8883 36.3362C86.9817 36.9365 87.2485 37.4568 87.6754 37.8837C88.0223 38.2306 88.3825 38.5107 88.7294 38.6975C88.8094 39.3645 88.796 40.0049 88.7026 40.6452C88.6093 41.2856 88.5025 41.8993 88.3825 42.4862C88.2624 43.1799 88.1157 43.8736 87.9156 44.554C87.7154 45.2344 87.4887 45.9014 87.2219 46.5684C87.1818 46.6485 87.1151 46.8086 87.0218 47.062C86.9284 47.3155 86.8216 47.5823 86.7016 47.8491C86.5815 48.1159 86.4614 48.3694 86.328 48.6095C86.1946 48.8496 86.0612 48.9564 85.9545 48.9564C85.8478 48.9564 85.7144 48.8763 85.581 48.7163C85.4476 48.5562 85.3142 48.3827 85.1674 48.1692C85.1486 48.1391 85.1298 48.1093 85.111 48.0797L85.0712 48.0168C84.9712 47.8592 84.8748 47.7074 84.7939 47.5556C84.6738 47.3555 84.5938 47.2221 84.5538 47.1421C84.2469 46.5551 84.0068 45.9547 83.8601 45.3277C83.7 44.7007 83.5932 44.0871 83.5132 43.4601C83.3931 42.5262 83.3264 41.5923 83.3131 40.6585C83.2997 39.7247 83.3131 38.7909 83.4064 37.857C83.4865 37.5102 83.4598 37.0966 83.3531 36.6297C83.233 36.1628 82.9662 35.9093 82.5393 35.8693C82.1124 35.8293 81.7789 36.0027 81.5521 36.3896C81.3253 36.7765 81.1652 37.1233 81.0852 37.4435C80.9651 38.0705 80.9118 38.6975 80.9118 39.3378C80.9118 39.9782 80.9251 40.6186 80.9651 41.2322V41.2989C80.6983 41.0988 80.4448 41.0588 80.2047 41.1522C79.9646 41.2456 79.7645 41.4056 79.5911 41.6191C79.4176 41.8325 79.2575 42.0726 79.1241 42.3528C78.9907 42.6329 78.884 42.8464 78.804 42.9931C78.3771 44.087 77.8034 45.0876 77.083 46.0214C76.3626 46.9553 75.4955 47.7558 74.495 48.4095C74.028 48.7163 73.4944 48.9964 72.8941 49.2498C72.2938 49.5033 71.6668 49.6635 71.0264 49.7435C70.3861 49.8235 69.7591 49.7969 69.1587 49.6501C68.5584 49.5167 68.0381 49.1965 67.6112 48.6896C67.2644 48.2627 67.0643 47.7824 66.9976 47.2621C66.9442 46.7418 66.9976 46.2216 67.171 45.7146C67.3444 45.2077 67.5979 44.7274 67.9314 44.2872C68.2649 43.8469 68.6251 43.4601 69.012 43.1533C69.2521 42.9532 69.5589 42.753 69.9458 42.5396C70.3327 42.3261 70.6796 42.086 70.9597 41.8059C71.2532 41.539 71.44 41.2455 71.5067 40.9253C71.5867 40.6185 71.4533 40.2717 71.0931 39.8715C70.7863 39.5646 70.4394 39.2978 70.0792 39.0843C69.7057 38.8709 69.4923 38.5107 69.4122 38.0038C69.3722 37.6169 69.4522 37.2967 69.6523 37.0433C69.8524 36.7898 70.1059 36.603 70.4128 36.4563C70.7196 36.3229 71.0531 36.2428 71.3999 36.2162C71.7468 36.1895 72.0803 36.2162 72.3872 36.3096C72.694 36.4296 73.0408 36.4963 73.441 36.5096C73.8279 36.5363 74.1214 36.3629 74.3215 36.016C74.5216 35.7092 74.5216 35.3891 74.3215 35.0555C74.1214 34.722 73.8946 34.4818 73.6145 34.3217C72.9875 33.8948 72.2804 33.7081 71.4533 33.7615C70.6395 33.8148 69.9192 34.0016 69.2922 34.3217C68.5584 34.7086 67.9714 35.2689 67.5445 35.9893C67.1176 36.7097 66.9575 37.4968 67.0776 38.3506C67.1977 39.0843 67.4512 39.6981 67.838 40.1516L68.1582 40.4718C68.3316 40.6452 68.425 40.7519 68.425 40.792C67.4512 41.419 66.624 42.1661 65.9437 43.0599C65.2633 43.9537 64.8631 44.9809 64.743 46.1549C64.5829 47.5957 64.9164 48.8363 65.7302 49.8902C66.544 50.9441 67.6513 51.5978 69.052 51.878C70.3327 52.1448 71.5867 52.1048 72.8141 51.7312C74.0414 51.3577 75.1754 50.7974 76.2293 50.037C77.2832 49.2765 78.217 48.3827 79.0307 47.3555C79.8445 46.3283 80.4849 45.261 80.9518 44.1804C81.0318 44.0337 81.0985 43.847 81.1652 43.6469C81.2453 44.3139 81.3653 44.9676 81.5388 45.6346C81.8056 46.6085 82.1791 47.5423 82.6461 48.4361C83.113 49.3299 83.74 50.1304 84.5137 50.8241C84.7138 51.0242 84.954 51.211 85.2742 51.4111C85.581 51.6112 85.9011 51.6912 86.208 51.6512C86.5148 51.6112 86.8083 51.4911 87.0884 51.2776C87.3686 51.0642 87.5954 50.8107 87.7821 50.5172C87.9823 50.2237 88.1557 49.9302 88.3425 49.6101C88.5159 49.3032 88.6626 49.0098 88.7827 48.7296C89.4497 47.3689 89.9833 45.9147 90.4102 44.3539C90.8371 42.8064 91.0773 41.2455 91.104 39.6847C92.0378 39.9915 93.0117 40.1916 94.0256 40.2717C95.0394 40.3517 95.9866 40.3251 96.8804 40.2183C97.5474 40.1383 98.0144 39.9782 98.3079 39.7247L98.2678 39.7647Z" fill="url(#paint4_linear_845_346)"/>
<path d="M184.467 60.3928C184.64 60.4862 184.787 60.6596 184.88 60.8864L184.827 60.8731C184.92 61.0999 184.973 61.3667 185 61.6602C185.027 61.9537 185.013 62.1938 184.973 62.3939C184.306 67.2632 183.786 72.1058 183.399 76.9484C183.012 81.791 182.812 86.6604 182.812 91.5564C182.812 93.6241 182.852 95.6653 182.932 97.6797C183.012 99.7075 183.106 101.722 183.226 103.75C183.306 104.764 183.386 105.751 183.466 106.725C183.546 107.698 183.626 108.686 183.706 109.7C183.786 110.487 183.879 111.247 184 112.007C184.12 112.768 184.173 113.542 184.173 114.315C184.173 114.702 184.066 115.129 183.826 115.596C183.599 116.076 183.212 116.143 182.665 115.836C182.119 115.516 181.798 114.969 181.705 114.169C181.612 113.368 181.545 112.688 181.505 112.101C181.305 110.153 181.158 108.219 181.038 106.298C180.918 104.377 180.825 102.429 180.744 100.441C180.558 97.0527 180.491 93.6775 180.571 90.289C180.224 90.369 179.851 90.4224 179.464 90.4358C179.077 90.4625 178.703 90.4892 178.357 90.5292C177.663 90.6092 176.969 90.6626 176.289 90.7026C175.608 90.7426 174.941 90.7959 174.274 90.876L172.287 91.1162V92.6903L172.287 92.6932C172.26 94.3198 172.233 95.9463 172.26 97.5596C172.273 99.1738 172.327 100.801 172.407 102.429C172.447 104.056 172.553 105.697 172.753 107.325C172.77 107.42 172.79 107.525 172.81 107.638C172.838 107.792 172.869 107.961 172.9 108.139C172.965 108.437 172.992 108.749 173.018 109.048L173.02 109.073C173.047 109.393 173.02 109.673 172.967 109.953C172.914 110.22 172.793 110.447 172.593 110.647C172.367 110.913 172.14 111.02 171.9 110.967C171.673 110.9 171.459 110.767 171.259 110.527C171.073 110.287 170.899 110.033 170.766 109.74C170.619 109.446 170.539 109.206 170.499 109.006C170.339 108.299 170.245 107.578 170.232 106.818C170.205 106.058 170.179 105.31 170.139 104.577C170.059 102.949 170.005 101.308 169.992 99.6541C169.965 98.0036 169.965 96.3664 169.965 94.7425V91.463C169.218 91.583 168.498 91.6231 167.804 91.5831C167.497 91.543 167.177 91.4496 166.844 91.2895C166.51 91.1294 166.35 90.876 166.35 90.5292C166.31 90.1023 166.51 89.7954 166.937 89.622C167.364 89.4485 167.737 89.3285 168.044 89.2485C168.351 89.1684 168.685 89.1151 169.031 89.075C169.378 89.035 169.712 88.995 170.019 88.9549L170.026 88.7255L170.026 88.7241C170.104 86.3464 170.181 83.9691 170.259 81.6043C170.339 79.1497 170.446 76.695 170.606 74.2537C170.686 73.3599 170.726 72.426 170.752 71.4788C170.766 70.5183 170.832 69.5978 170.953 68.704C171.033 68.3571 171.179 67.9436 171.393 67.4767C171.593 67.0097 171.94 66.7829 172.407 66.7829C172.874 66.7829 173.167 67.0364 173.287 67.5434C173.407 68.0503 173.447 68.4772 173.407 68.8241C173.14 72.1592 172.914 75.481 172.74 78.7894C172.567 82.0979 172.447 85.433 172.367 88.8215L173.06 88.7015L177.663 88.1812C178 88.133 178.344 88.0779 178.701 88.0208C178.837 87.9988 178.976 87.9766 179.117 87.9544C179.624 87.8743 180.104 87.8877 180.571 88.0078C180.651 85.8333 180.731 83.6721 180.811 81.511C180.891 79.3498 181.025 77.1619 181.225 74.9473C181.372 73.0797 181.545 71.212 181.745 69.3444C181.932 67.4767 182.145 65.609 182.385 63.7413L182.436 63.3986L182.436 63.3955C182.504 62.9383 182.578 62.4354 182.652 61.8736C182.746 61.1799 183.106 60.6863 183.733 60.4195C184.053 60.2995 184.293 60.2994 184.467 60.3928Z" fill="url(#paint5_linear_845_346)"/>
<path fill-rule="evenodd" clip-rule="evenodd" d="M237.933 97.4399C237.853 96.6262 237.666 95.8524 237.386 95.1054C237.106 94.3583 236.759 93.6512 236.399 92.9442C236.025 92.2371 235.625 91.5567 235.198 90.8763C234.771 90.196 234.385 89.5023 234.038 88.8086C233.798 88.3416 233.584 87.8747 233.397 87.4078C233.197 86.9409 233.024 86.4606 232.877 85.9537C232.957 85.5268 232.997 85.1133 233.024 84.6997C233.05 84.2862 233.024 83.8993 232.93 83.4991C232.81 82.9521 232.517 82.5518 232.023 82.2984C231.543 82.0449 231.063 82.1383 230.596 82.5652C230.289 82.872 230.116 83.2322 230.102 83.6458C230.076 84.0593 230.102 84.4729 230.196 84.8998L230.436 86.0071V86.5941C230.391 86.8801 230.345 87.2 230.296 87.554C230.257 87.8274 230.215 88.1211 230.169 88.4351C230.076 89.1555 229.956 89.8892 229.822 90.6496C229.689 91.41 229.529 92.1437 229.355 92.8374C229.288 93.1043 229.222 93.3444 229.155 93.5845C229.145 93.5744 229.135 93.5638 229.125 93.553L229.124 93.5519C229.08 93.506 229.033 93.4566 228.968 93.4244C228.661 93.3044 228.355 93.3711 228.061 93.5979C227.768 93.838 227.487 94.1448 227.221 94.5317C226.954 94.9186 226.714 95.3188 226.527 95.7323C226.495 95.7987 226.464 95.8627 226.435 95.9243C226.403 95.99 226.373 96.0531 226.344 96.1133C226.232 96.3482 226.14 96.5414 226.06 96.6929C225.046 98.5606 224.099 99.7612 223.232 100.308C222.365 100.855 221.524 100.935 220.751 100.548C219.977 100.161 219.27 99.4143 218.656 98.307C218.029 97.1998 217.495 95.9458 217.028 94.545C218.936 91.0097 220.377 87.2211 221.338 83.1789C222.311 79.1367 222.925 75.2813 223.205 71.6393C223.325 70.4787 223.419 69.0513 223.499 67.357C223.579 65.6628 223.552 63.9551 223.445 62.2208C223.325 60.4866 223.058 58.8857 222.632 57.4049C222.205 55.9241 221.524 54.8435 220.59 54.1365C219.817 53.5095 219.003 53.3361 218.176 53.5762C217.335 53.8297 216.655 54.3233 216.108 55.0703C215.561 55.8041 215.094 56.6979 214.707 57.7518C214.32 58.8057 214 59.8863 213.747 61.0202C213.493 62.1542 213.293 63.2614 213.133 64.3687C212.973 65.4759 212.866 66.4365 212.786 67.2503C212.586 69.1179 212.453 71.1991 212.346 73.4936C212.253 75.7882 212.253 78.1361 212.373 80.5508C212.493 82.9654 212.706 85.38 213.013 87.808C213.32 90.236 213.787 92.5039 214.414 94.5984C214.107 95.2254 213.787 95.8658 213.453 96.5194C213.12 97.1865 212.746 97.8001 212.346 98.3871C211.932 98.9741 211.519 99.4811 211.092 99.9346C210.665 100.388 210.211 100.722 209.745 100.949C208.851 101.375 208.104 101.322 207.503 100.802C206.903 100.281 206.409 99.6411 206.023 98.9074C205.596 98.1736 205.249 97.4132 204.969 96.6261C204.688 95.8524 204.462 95.052 204.262 94.2382C204.462 93.8913 204.635 93.5178 204.782 93.1309C204.942 92.744 205.089 92.3972 205.249 92.077C205.916 90.4495 206.503 88.7953 207.023 87.1144C207.543 85.4468 208.024 83.7525 208.451 82.0449C209.424 78.1628 210.065 74.214 210.372 70.2118C210.572 68.1574 210.665 66.0763 210.692 63.9952C210.718 61.914 210.532 59.8596 210.145 57.8452C209.945 56.9514 209.691 56.0175 209.384 55.0436C209.078 54.0698 208.531 53.296 207.757 52.709C206.983 52.082 206.169 51.9086 205.342 52.1621C204.502 52.4156 203.821 52.9091 203.274 53.6429C202.727 54.4166 202.314 55.2705 202.02 56.1776C201.727 57.0848 201.487 57.9919 201.287 58.8857C201.047 59.9396 200.86 60.9802 200.7 62.0074C200.54 63.0347 200.433 64.0752 200.353 65.1291C199.966 69.2513 199.819 73.3736 199.913 77.5225C200.006 81.6581 200.393 85.7936 201.047 89.9159C201.254 91.1338 201.499 92.3644 201.769 93.5954C201.697 93.307 201.573 93.1045 201.407 92.9975C201.14 92.8374 200.78 92.9308 200.353 93.2644C199.926 93.5979 199.552 94.1315 199.245 94.8652C198.899 95.759 198.485 96.6528 198.018 97.5466C197.551 98.4404 196.991 99.2409 196.324 99.9346C196.124 100.135 195.897 100.335 195.63 100.548C195.363 100.762 195.07 100.935 194.79 101.069C194.496 101.202 194.203 101.269 193.883 101.269C193.562 101.269 193.282 101.149 193.002 100.922C192.535 100.495 192.242 99.9079 192.122 99.1742C192.002 98.4405 191.908 97.7735 191.828 97.1865C191.708 95.6256 191.721 94.0914 191.855 92.5439C191.988 91.0097 192.162 89.4889 192.348 87.9681C192.388 87.6613 192.375 87.3011 192.322 86.8875C192.268 86.474 192.082 86.1805 191.775 85.9804C191.468 85.8603 191.188 85.887 190.961 86.0338C190.734 86.1939 190.534 86.3672 190.374 86.554C190.174 86.8608 190.054 87.1811 190 87.5146L189.975 87.675C189.93 87.951 189.887 88.2177 189.854 88.4751C189.774 88.982 189.72 89.4756 189.68 89.9692C189.654 90.2869 189.627 90.6163 189.601 90.9459L189.56 91.4501C189.48 92.3439 189.427 93.5045 189.387 94.9186C189.347 96.3327 189.467 97.7068 189.734 99.0275C190.001 100.348 190.494 101.469 191.188 102.376C191.882 103.283 192.962 103.67 194.39 103.51C195.63 103.39 196.698 102.883 197.565 101.962C198.445 101.055 199.165 100.108 199.752 99.1341C200.419 98.0002 200.98 96.9197 201.447 95.8658C201.714 95.2788 201.847 94.6918 201.82 94.0915C201.82 93.95 201.808 93.821 201.783 93.7043L201.841 93.9695C201.954 94.4935 202.069 95.0243 202.194 95.5455C202.661 97.4666 203.394 99.2542 204.408 100.882C205.075 101.976 205.916 102.736 206.943 103.19C207.97 103.643 209.078 103.67 210.238 103.283C211.439 102.896 212.466 102.122 213.333 100.949C214.187 99.7879 214.907 98.6406 215.494 97.5066C216.188 99.0675 217.029 100.362 218.002 101.415C218.976 102.469 220.017 103.096 221.151 103.31C222.285 103.523 223.459 103.19 224.673 102.323C225.9 101.442 227.114 99.8679 228.315 97.5733C228.395 97.4217 228.487 97.2284 228.599 96.9933C228.655 96.8768 228.715 96.7499 228.782 96.6128C228.808 96.5595 228.822 96.4928 228.848 96.4394C228.995 96.5862 229.195 96.6796 229.489 96.7062C229.915 96.7062 230.276 96.5194 230.569 96.1592C230.863 95.7857 231.063 95.4521 231.183 95.132C231.423 94.585 231.623 93.8914 231.796 93.0376C231.97 92.1838 232.13 91.3033 232.29 90.4095C232.717 91.2232 233.171 92.0236 233.637 92.7974C234.104 93.5711 234.531 94.3716 234.918 95.1854C235.118 95.6123 235.292 96.0925 235.438 96.6395C235.599 97.1864 235.665 97.7334 235.639 98.2671C235.612 98.814 235.492 99.3076 235.265 99.7478C235.025 100.201 234.665 100.548 234.158 100.828C233.811 101.029 233.357 101.242 232.81 101.469C232.263 101.696 231.997 102.069 231.997 102.576C231.997 102.883 232.09 103.123 232.29 103.27C232.49 103.43 232.73 103.51 233.024 103.537C233.317 103.55 233.611 103.537 233.904 103.51C234.198 103.47 234.438 103.417 234.638 103.336C235.919 102.87 236.839 102.096 237.373 101.002C237.92 99.9079 238.107 98.7072 237.96 97.3865L237.933 97.4399ZM203.234 89.0487C203.194 88.7018 203.154 88.355 203.114 87.9948C202.567 83.9126 202.26 79.8171 202.18 75.6949C202.1 71.5726 202.314 67.477 202.821 63.3948C202.941 62.3809 203.088 61.3671 203.288 60.3399C203.488 59.3126 203.741 58.3121 204.048 57.3382C204.195 56.9113 204.355 56.4844 204.515 56.0575C204.675 55.6306 204.902 55.2437 205.209 54.8969C205.596 54.47 205.942 54.3499 206.223 54.55C206.516 54.7501 206.756 55.057 206.956 55.4839C207.383 56.2976 207.677 57.1915 207.837 58.1653C207.997 59.1392 208.104 60.0864 208.184 61.0202C208.264 62.0341 208.304 63.048 208.304 64.0752C208.304 65.0877 208.278 66.1131 208.252 67.1514L208.25 67.1968C208.05 71.0789 207.557 74.9611 206.756 78.8298C205.956 82.6986 204.835 86.4607 203.408 90.116C203.328 89.7691 203.274 89.4222 203.234 89.062V89.0487ZM215.107 84.793C214.854 82.4584 214.707 80.1505 214.667 77.8827C214.627 75.6148 214.667 73.4136 214.761 71.2924C214.854 69.1713 215.027 67.2369 215.254 65.4893C215.334 64.7556 215.441 63.9552 215.574 63.1014C215.708 62.2476 215.895 61.4071 216.121 60.5666C216.348 59.7262 216.628 58.9391 216.935 58.2053C217.242 57.4716 217.615 56.8312 218.042 56.2843C218.429 55.8574 218.776 55.7373 219.056 55.9374C219.35 56.1375 219.59 56.4444 219.79 56.8713C220.257 57.7251 220.59 58.6456 220.777 59.6461C220.977 60.6333 221.097 61.6472 221.151 62.6745C221.204 63.7017 221.217 64.7289 221.177 65.7695C221.137 66.81 221.097 67.7439 221.057 68.5977C220.791 72.5598 220.257 76.5219 219.483 80.4707C218.709 84.4195 217.602 88.0748 216.161 91.4633C215.694 89.3689 215.334 87.1543 215.081 84.8198L215.107 84.793Z" fill="url(#paint6_linear_845_346)"/>
<path d="M194.246 81.0441C194.246 82.2377 193.278 83.2052 192.084 83.2052C190.891 83.2052 189.923 82.2377 189.923 81.0441C189.923 79.8505 190.891 78.8829 192.084 78.8829C193.278 78.8829 194.246 79.8505 194.246 81.0441Z" fill="url(#paint7_linear_845_346)"/>
<path d="M151.121 312.227L165.768 329.862L161.891 343.141L157.424 333.943L144.154 361.535L131.587 359.409L121.303 352.042L131.587 342.065L138.34 332.933L151.121 312.227Z" fill="#1A2714"/>
<path fill-rule="evenodd" clip-rule="evenodd" d="M150.855 311.246L151.317 311.78C155.782 316.931 162.479 324.835 168.062 331.807C170.853 335.292 173.37 338.55 175.191 341.117C176.101 342.399 176.843 343.517 177.36 344.41C177.618 344.855 177.825 345.254 177.969 345.594C178.107 345.919 178.211 346.246 178.211 346.528C178.211 346.772 178.34 347.063 178.73 347.43C179.119 347.797 179.707 348.181 180.488 348.608C181.38 349.095 182.455 349.604 183.68 350.183C184.623 350.629 185.654 351.117 186.761 351.67C191.788 354.184 198.051 357.905 202.828 364.474C206.561 369.607 214.763 377.813 223.535 386.011C232.295 394.198 241.586 402.342 247.465 407.34L248.921 408.577L222.767 403.474L214.502 394.914L200.362 389.906L160.513 342.087L157.401 335.084L143.781 364.268H148.167L168.598 379.961L168.602 379.964L208.315 409.969L207.895 410.854L177.442 403.463L162.632 386.91L133.35 407.663L157.477 420.72L184.75 413.682L214.862 418.701L214.697 419.687L184.794 414.703L157.346 421.787L131.46 407.778L162.782 385.578L177.98 402.564L205.788 409.314L167.996 380.759L167.992 380.757L147.828 365.268H142.211L157.423 332.671L161.371 341.554L200.955 389.055L215.058 394.05L223.268 402.553L245.368 406.865C239.471 401.815 230.937 394.298 222.852 386.742C214.091 378.554 205.818 370.285 202.019 365.062C197.382 358.686 191.289 355.052 186.313 352.565C185.26 352.038 184.242 351.556 183.298 351.109C182.041 350.514 180.914 349.98 180.009 349.486C179.208 349.048 178.528 348.615 178.044 348.158C177.56 347.702 177.211 347.166 177.211 346.528C177.211 346.457 177.176 346.286 177.048 345.984C176.926 345.697 176.742 345.338 176.494 344.911C176 344.057 175.278 342.968 174.375 341.695C172.571 339.152 170.068 335.912 167.281 332.432C161.899 325.71 155.474 318.115 151.023 312.968C148.405 317.539 144.394 324.284 140.438 330.419C138.369 333.627 136.313 336.673 134.476 339.155C132.649 341.623 131.009 343.578 129.776 344.565C125.127 348.284 116.375 357.96 112.523 362.402L112.722 362.557C119.091 367.528 124.868 371.888 127.066 373.161C131.479 375.716 136.465 377.132 138.387 377.516L138.901 377.619L138.774 378.128C137.967 381.356 134.521 389.149 127.122 394.877C118.178 401.801 117.342 404.919 117.314 406.179C117.325 406.196 117.342 406.22 117.367 406.251C117.45 406.356 117.587 406.499 117.782 406.68C118.17 407.04 118.742 407.507 119.465 408.058C120.908 409.159 122.912 410.569 125.147 412.088C129.615 415.123 134.979 418.577 138.556 420.83L138.022 421.676C134.44 419.419 129.066 415.959 124.585 412.915C122.346 411.393 120.324 409.971 118.859 408.853C118.127 408.296 117.525 407.806 117.102 407.413C116.892 407.218 116.713 407.036 116.584 406.874C116.52 406.792 116.458 406.705 116.411 406.615C116.368 406.532 116.313 406.403 116.313 406.249C116.313 404.519 117.385 401.15 126.509 394.086C133.337 388.8 136.693 381.699 137.668 378.384C135.399 377.864 130.742 376.445 126.565 374.026C124.291 372.71 118.448 368.294 112.107 363.345L111.747 363.065L105.197 368.476L94.3125 349.126L95.0632 348.493C99.2457 351.885 105.662 357.032 111.73 361.782L111.755 361.761C115.588 357.341 124.413 347.574 129.151 343.784C130.271 342.888 131.842 341.032 133.672 338.56C135.491 336.102 137.535 333.076 139.597 329.878C143.722 323.481 147.91 316.414 150.505 311.859L150.855 311.246ZM110.941 362.434C105.833 358.433 100.497 354.168 96.465 350.913L105.482 366.943L110.941 362.434ZM117.296 406.15L117.295 406.147C117.295 406.147 117.295 406.147 117.296 406.15Z" fill="url(#paint8_linear_845_346)"/>
<path fill-rule="evenodd" clip-rule="evenodd" d="M260.214 349.977L260.457 350.386C261.287 351.785 262.712 354.002 264.285 356.094C265.871 358.205 267.559 360.122 268.91 360.987C270.364 361.918 272.082 362.679 273.776 363.43C274.126 363.585 274.476 363.74 274.822 363.896C276.794 364.784 278.695 365.721 279.784 366.965C281.062 368.426 290.534 378.094 297.848 385.528L308.08 381.356L330.669 401.855L329.997 402.596L307.874 382.52L298.606 386.298C300.13 387.847 301.539 389.277 302.734 390.488L302.784 390.539L302.818 390.601C303.806 392.429 305.857 397.589 306.322 403.866C306.755 409.708 306.547 413.579 306.355 415.064L328.712 436.852L328.014 437.568L305.289 415.422L305.33 415.166C305.513 414.023 305.783 410.122 305.325 403.94C304.877 397.886 302.912 392.909 301.972 391.139C300.714 389.864 299.22 388.348 297.605 386.707L289.213 390.128L258.665 362.78V359.739L243.986 363.094L240.262 360.487L260.214 349.977ZM296.847 385.936C289.576 378.545 280.313 369.088 279.032 367.624C278.111 366.571 276.423 365.714 274.411 364.807C274.079 364.658 273.738 364.507 273.394 364.354C271.699 363.604 269.896 362.805 268.371 361.83C266.851 360.857 265.069 358.803 263.485 356.695C262.033 354.762 260.706 352.728 259.842 351.304L242.178 360.608L244.196 362.02L259.665 358.484V362.333L289.415 388.966L296.847 385.936Z" fill="url(#paint9_linear_845_346)"/>
<path fill-rule="evenodd" clip-rule="evenodd" d="M94.0664 349.697L93.955 348.864L79.1394 359.667L79.1248 359.68C77.1086 361.401 73.8803 364.261 70.742 367.252C67.6118 370.235 64.5424 373.375 62.8661 375.65C61.3891 377.654 58.8057 379.769 56.0463 381.658C53.1127 379.444 50.3747 377.37 47.979 375.549L47.7015 375.338L47.4076 375.525C42.9429 378.371 36.0837 382.831 30.0154 386.963C26.9818 389.029 24.1423 391.015 21.8972 392.678L8.30118 384.687L0.446904 374.701L-7.21191 378.418L-6.87557 379.359L0.085361 375.892L7.61922 385.446L21.0289 393.327C19.2345 394.684 17.8858 395.804 17.2868 396.512C16.6723 397.238 15.4681 398.324 13.8869 399.624C12.315 400.916 10.3983 402.396 8.38119 403.907C4.34738 406.927 -0.074759 410.057 -2.91479 412.015L-3.13092 412.164V422.271L-2.45381 422.014C0.768179 420.794 6.13542 418.975 11.7506 417.492C17.3791 416.006 23.2036 414.87 27.3632 414.986C35.8481 415.222 49.3515 415.084 55.0399 414.986L56.5496 414.96L41.7714 404.358L22.8347 393.229C25.0081 391.63 27.7022 389.748 30.5783 387.789C36.5042 383.754 43.1889 379.404 47.6513 376.556C49.9048 378.268 52.4498 380.196 55.1681 382.248C52.2533 384.171 49.3041 385.777 47.4574 386.677L46.3926 387.195L54.6199 390.157C55.4165 392.966 56.7397 397.169 58.2132 400.965C58.9717 402.919 59.7738 404.776 60.5685 406.282C61.3508 407.766 62.1643 408.987 62.9686 409.591C63.3695 409.891 64.0592 410.251 64.9374 410.652C65.8276 411.058 66.9491 411.521 68.2408 412.026C70.8247 413.034 74.1086 414.211 77.6244 415.422C84.6568 417.844 92.6346 420.405 97.8351 422.024L98.1324 421.069C92.938 419.452 84.9702 416.894 77.95 414.477C74.4393 413.268 71.17 412.095 68.6043 411.094C67.3212 410.593 66.2187 410.137 65.3522 409.742C64.4736 409.341 63.8738 409.019 63.5686 408.791C62.9609 408.335 62.2348 407.298 61.453 405.816C60.6835 404.357 59.8971 402.54 59.1454 400.603C57.6425 396.731 56.2941 392.423 55.5127 389.639L55.4431 389.391L48.9417 387.05C50.846 386.069 53.4198 384.614 55.9482 382.931L56.0144 382.887C63.2193 388.321 71.528 394.539 78.8224 399.9C84.0635 403.752 88.7845 407.164 92.1968 409.526C93.9014 410.706 95.287 411.63 96.2502 412.215C96.7277 412.505 97.1199 412.724 97.4019 412.848C97.532 412.905 97.6886 412.965 97.8361 412.98C97.9032 412.987 98.055 412.995 98.2074 412.908C98.3804 412.809 98.4602 412.647 98.4792 412.498C98.4978 412.464 98.5347 412.409 98.5986 412.329C98.7264 412.17 98.9262 411.958 99.2007 411.694C99.7472 411.169 100.548 410.478 101.55 409.658C103.553 408.019 106.332 405.889 109.425 403.583C115.611 398.97 123.035 393.663 127.985 390.183L128.979 389.484L127.781 389.281C122.593 388.4 110.802 386.626 105.339 386.626C104.864 386.626 104.322 386.352 103.715 385.693C103.113 385.039 102.504 384.066 101.901 382.821C100.695 380.335 99.5592 376.869 98.5334 372.987C96.4837 365.231 94.8984 355.912 94.0664 349.697ZM79.4146 399.094C72.2156 393.803 64.0268 387.676 56.8877 382.293C59.5757 380.43 62.1461 378.313 63.6712 376.243C65.2899 374.046 68.3007 370.96 71.4319 367.976C74.5475 365.006 77.7541 362.165 79.7596 360.453L93.1885 350.661C94.0497 356.88 95.5922 365.771 97.5665 373.243C98.5976 377.145 99.7529 380.684 101.001 383.258C101.624 384.543 102.283 385.613 102.979 386.37C103.671 387.121 104.46 387.626 105.339 387.626C110.322 387.626 120.779 389.142 126.413 390.066C121.494 393.535 114.62 398.461 108.827 402.781C105.731 405.09 102.938 407.23 100.917 408.884C99.908 409.709 99.0833 410.42 98.5078 410.973C98.2213 411.248 97.9859 411.495 97.8186 411.703C97.7721 411.761 97.728 411.82 97.6882 411.878C97.4714 411.773 97.1653 411.601 96.7696 411.36C95.8331 410.791 94.4676 409.882 92.7659 408.704C89.3658 406.351 84.6541 402.945 79.4146 399.094ZM18.0502 397.157C18.6042 396.503 19.9931 395.353 21.9626 393.876L41.2255 405.197L53.5103 414.01C47.2048 414.104 35.173 414.203 27.3909 413.986C23.0777 413.867 17.1344 415.036 11.4952 416.525C6.21891 417.919 1.16238 419.606 -2.13092 420.826V412.689C0.721714 410.718 5.03481 407.662 8.98057 404.707C11.0037 403.192 12.9337 401.702 14.5219 400.396C16.1008 399.098 17.3704 397.961 18.0502 397.157ZM98.4709 412.514L98.469 412.519C98.469 412.519 98.4698 412.516 98.4709 412.514Z" fill="url(#paint10_linear_845_346)"/>
<defs>
<linearGradient id="paint0_linear_845_346" x1="143.66" y1="350.032" x2="125.882" y2="282.195" gradientUnits="userSpaceOnUse">
<stop stop-color="#C59541"/>
<stop offset="0.625261" stop-color="#FBDD78"/>
<stop offset="1" stop-color="#BE9042"/>
</linearGradient>
<linearGradient id="paint1_linear_845_346" x1="-13.7692" y1="266.004" x2="270.982" y2="266.004" gradientUnits="userSpaceOnUse">
<stop stop-color="#C59541"/>
<stop offset="0.369792" stop-color="#FBDD78"/>
<stop offset="1" stop-color="#BE9042"/>
</linearGradient>
<linearGradient id="paint2_linear_845_346" x1="14.6316" y1="58.3741" x2="246.239" y2="58.3741" gradientUnits="userSpaceOnUse">
<stop stop-color="#C59541"/>
<stop offset="0.369792" stop-color="#FBDD78"/>
<stop offset="1" stop-color="#BE9042"/>
</linearGradient>
<linearGradient id="paint3_linear_845_346" x1="14.6316" y1="58.3741" x2="246.239" y2="58.3741" gradientUnits="userSpaceOnUse">
<stop stop-color="#C59541"/>
<stop offset="0.369792" stop-color="#FBDD78"/>
<stop offset="1" stop-color="#BE9042"/>
</linearGradient>
<linearGradient id="paint4_linear_845_346" x1="14.6316" y1="58.3741" x2="246.239" y2="58.3741" gradientUnits="userSpaceOnUse">
<stop stop-color="#C59541"/>
<stop offset="0.369792" stop-color="#FBDD78"/>
<stop offset="1" stop-color="#BE9042"/>
</linearGradient>
<linearGradient id="paint5_linear_845_346" x1="14.6316" y1="58.3741" x2="246.239" y2="58.3741" gradientUnits="userSpaceOnUse">
<stop stop-color="#C59541"/>
<stop offset="0.369792" stop-color="#FBDD78"/>
<stop offset="1" stop-color="#BE9042"/>
</linearGradient>
<linearGradient id="paint6_linear_845_346" x1="14.6316" y1="58.3741" x2="246.239" y2="58.3741" gradientUnits="userSpaceOnUse">
<stop stop-color="#C59541"/>
<stop offset="0.369792" stop-color="#FBDD78"/>
<stop offset="1" stop-color="#BE9042"/>
</linearGradient>
<linearGradient id="paint7_linear_845_346" x1="14.6316" y1="58.3741" x2="246.239" y2="58.3741" gradientUnits="userSpaceOnUse">
<stop stop-color="#C59541"/>
<stop offset="0.369792" stop-color="#FBDD78"/>
<stop offset="1" stop-color="#BE9042"/>
</linearGradient>
<linearGradient id="paint8_linear_845_346" x1="-48.2265" y1="374.407" x2="344.632" y2="374.407" gradientUnits="userSpaceOnUse">
<stop stop-color="#C59541"/>
<stop offset="0.369792" stop-color="#FBDD78"/>
<stop offset="1" stop-color="#BE9042"/>
</linearGradient>
<linearGradient id="paint9_linear_845_346" x1="-48.2265" y1="374.407" x2="344.632" y2="374.407" gradientUnits="userSpaceOnUse">
<stop stop-color="#C59541"/>
<stop offset="0.369792" stop-color="#FBDD78"/>
<stop offset="1" stop-color="#BE9042"/>
</linearGradient>
<linearGradient id="paint10_linear_845_346" x1="-48.2265" y1="374.407" x2="344.632" y2="374.407" gradientUnits="userSpaceOnUse">
<stop stop-color="#C59541"/>
<stop offset="0.369792" stop-color="#FBDD78"/>
<stop offset="1" stop-color="#BE9042"/>
</linearGradient>
</defs>
</svg>
