<svg width="465" height="234" viewBox="0 0 465 234" fill="none" xmlns="http://www.w3.org/2000/svg">
<circle cx="345.001" cy="56.7793" r="12.0625" fill="url(#paint0_linear_756_342)"/>
<path fill-rule="evenodd" clip-rule="evenodd" d="M345.256 0.542039H344.747V42.5321H345.256V0.542039ZM369.63 5.77679L350.857 44.0314L351.313 44.2555L370.087 6.00087L369.63 5.77679ZM355.568 12.0379L348.113 42.9697L348.608 43.0889L356.062 12.1571L355.568 12.0379ZM354 45.6054L373.014 21.6336L373.412 21.9496L354.399 45.9215L354 45.6054ZM389.075 21.5952L356.275 47.6767L356.591 48.0748L389.392 21.9933L389.075 21.5952ZM357.934 50.4931L386.512 36.5919L386.734 37.0493L358.156 50.9505L357.934 50.4931ZM400.227 43.891L359.483 53.8007L359.603 54.2949L400.347 44.3853L400.227 43.891ZM359.541 56.8114H391.468V57.3201H359.541V56.8114ZM333.942 12.1543L334.436 12.0351L341.891 42.9669L341.396 43.0861L333.942 12.1543ZM320.38 5.77108L319.923 5.99501L338.684 44.2562L339.141 44.0323L320.38 5.77108ZM316.597 21.9404L316.995 21.6244L336.005 45.5995L335.606 45.9155L316.597 21.9404ZM300.932 21.5853L300.616 21.9834L333.412 48.0706L333.729 47.6725L300.932 21.5853ZM303.269 37.042L303.492 36.5847L332.065 50.4959L331.842 50.9532L303.269 37.042ZM289.775 43.8964L289.655 44.3907L330.402 54.2861L330.522 53.7919L289.775 43.8964ZM298.537 56.8115H330.464V57.3202H298.537V56.8115Z" fill="url(#paint1_linear_756_342)"/>
<path fill-rule="evenodd" clip-rule="evenodd" d="M344.745 113.56L345.253 113.56L345.253 71.5695L344.745 71.5695L344.745 113.56ZM320.37 108.325L339.144 70.0701L338.687 69.846L319.913 108.101L320.37 108.325ZM334.432 102.064L341.887 71.1318L341.393 71.0127L333.938 101.944L334.432 102.064ZM336.001 68.4951L316.988 92.4669L316.589 92.1508L335.602 68.179L336.001 68.4951ZM300.926 92.5063L333.727 66.4248L333.41 66.0267L300.609 92.1081L300.926 92.5063ZM332.067 63.6084L303.489 77.5096L303.267 77.0522L331.845 63.151L332.067 63.6084ZM289.774 70.2104L330.518 60.3008L330.398 59.8066L289.654 69.7162L289.774 70.2104ZM330.46 57.29L298.534 57.29L298.534 56.7814L330.46 56.7814L330.46 57.29ZM356.059 101.947L355.564 102.066L348.11 71.1346L348.604 71.0155L356.059 101.947ZM369.62 108.33L370.077 108.107L351.316 69.8453L350.86 70.0693L369.62 108.33ZM373.403 92.1611L373.005 92.4771L353.996 68.502L354.394 68.186L373.403 92.1611ZM389.068 92.5162L389.384 92.1182L356.588 66.031L356.272 66.4291L389.068 92.5162ZM386.731 77.0596L386.508 77.5169L357.935 63.6057L358.158 63.1484L386.731 77.0596ZM400.226 70.2051L400.346 69.7108L359.598 59.8154L359.478 60.3097L400.226 70.2051ZM391.463 57.29L359.536 57.29L359.536 56.7814L391.463 56.7814L391.463 57.29Z" fill="url(#paint2_linear_756_342)"/>
<path fill-rule="evenodd" clip-rule="evenodd" d="M264.94 91.2451L265.46 91.8444C270.473 97.6289 277.993 106.505 284.262 114.334C287.396 118.247 290.223 121.905 292.267 124.787C293.289 126.227 294.122 127.483 294.703 128.485C294.992 128.986 295.225 129.433 295.387 129.815C295.542 130.18 295.659 130.547 295.659 130.864C295.659 131.138 295.804 131.465 296.241 131.877C296.678 132.288 297.339 132.72 298.216 133.2C299.217 133.747 300.424 134.317 301.8 134.968C302.858 135.469 304.017 136.017 305.259 136.638C310.904 139.461 317.937 143.639 323.301 151.015C325.517 154.063 329.136 158.074 333.51 162.539L365.745 145.659L366.291 145.373L366.792 145.732L366.823 145.755L387.741 134.737L388.013 135.196C388.945 136.767 390.546 139.256 392.312 141.606C394.093 143.976 395.988 146.129 397.506 147.1C399.138 148.145 401.067 149 402.969 149.843C403.363 150.017 403.756 150.191 404.144 150.366C406.358 151.364 408.493 152.416 409.716 153.813C411.151 155.453 421.787 166.309 430 174.657L441.49 169.973L466.856 192.991L466.101 193.823L441.259 171.279L430.852 175.522C432.563 177.261 434.145 178.867 435.487 180.227L435.543 180.284L435.581 180.354C436.69 182.406 438.994 188.2 439.516 195.25C440.002 201.809 439.769 206.156 439.552 207.824L464.658 232.289L463.874 233.094L438.356 208.225L438.402 207.938C438.607 206.654 438.91 202.274 438.396 195.332C437.893 188.534 435.686 182.945 434.631 180.958C433.219 179.526 431.541 177.823 429.727 175.981L420.304 179.823L386.002 149.114V145.698L371.401 149.035L371.586 149.167L370.014 149.884L336.239 165.287C339.45 168.48 342.959 171.841 346.554 175.2C356.391 184.393 366.823 193.538 373.425 199.15L375.06 200.539L345.691 194.809L336.41 185.196L320.532 179.573L275.786 125.877L272.291 118.013L256.997 150.784H261.923L284.865 168.406L284.868 168.409L329.462 202.103L328.992 203.096L294.796 194.796L278.165 176.209L245.284 199.513L272.376 214.175L303.001 206.272L336.814 211.907L336.63 213.015L303.051 207.419L272.23 215.372L243.162 199.641L278.334 174.714L295.4 193.787L326.625 201.366L284.188 169.302L284.184 169.3L261.541 151.907H255.234L272.315 115.304L276.749 125.278L321.198 178.617L337.034 184.226L346.253 193.774L371.07 198.617C364.448 192.946 354.865 184.505 345.787 176.02C342.083 172.559 338.457 169.085 335.148 165.785L334.67 166.003L334.18 165.539L332.918 164.344L331.902 163.381L332.471 163.083C328.175 158.686 324.607 154.72 322.393 151.676C317.186 144.516 310.344 140.436 304.757 137.642C303.574 137.051 302.432 136.51 301.373 136.009L301.371 136.008C299.959 135.34 298.694 134.74 297.678 134.185C296.779 133.694 296.015 133.207 295.471 132.694C294.928 132.182 294.536 131.58 294.536 130.864C294.536 130.784 294.497 130.592 294.353 130.253C294.216 129.93 294.009 129.528 293.731 129.048C293.176 128.09 292.365 126.866 291.352 125.437C289.326 122.582 286.515 118.943 283.386 115.035C277.341 107.487 270.127 98.9584 265.13 93.1789C262.189 98.3114 257.685 105.886 253.243 112.775C250.92 116.377 248.611 119.797 246.548 122.585C244.497 125.356 242.655 127.551 241.27 128.659C236.05 132.835 226.223 143.701 221.897 148.688L222.121 148.863C229.272 154.444 235.759 159.341 238.228 160.77C243.183 163.639 248.782 165.229 250.94 165.661L251.518 165.776L251.375 166.348C250.469 169.972 246.599 178.723 238.29 185.155C228.247 192.93 227.308 196.432 227.277 197.846C227.283 197.857 227.292 197.869 227.303 197.884C227.312 197.897 227.323 197.911 227.336 197.927C227.43 198.046 227.584 198.206 227.803 198.409C228.238 198.813 228.881 199.337 229.692 199.957C231.313 201.193 233.564 202.776 236.073 204.481C241.09 207.89 247.113 211.768 251.129 214.299L250.531 215.249C246.508 212.714 240.474 208.829 235.442 205.41C232.928 203.701 230.657 202.105 229.011 200.85C228.19 200.223 227.514 199.673 227.039 199.233C226.803 199.013 226.603 198.809 226.457 198.626C226.385 198.535 226.316 198.437 226.263 198.336C226.214 198.242 226.153 198.098 226.153 197.925C226.153 195.982 227.357 192.2 237.603 184.267C245.269 178.332 249.038 170.357 250.132 166.635C247.585 166.051 242.355 164.457 237.665 161.742C235.112 160.264 228.55 155.305 221.43 149.748L221.026 149.433L213.67 155.51L201.448 133.782L202.291 133.07C206.988 136.88 214.193 142.658 221.007 147.992L221.035 147.969C225.338 143.006 235.248 132.039 240.569 127.782C241.826 126.776 243.591 124.693 245.645 121.917C247.688 119.156 249.983 115.759 252.299 112.167C256.931 104.984 261.633 97.0483 264.548 91.9342L264.94 91.2451ZM370.183 148.162L387.125 144.29V148.612L420.53 178.518L428.876 175.115C420.711 166.815 410.31 156.197 408.871 154.552C407.837 153.371 405.942 152.407 403.683 151.39C403.309 151.222 402.927 151.052 402.54 150.881C400.638 150.038 398.612 149.142 396.9 148.046C395.194 146.954 393.193 144.647 391.414 142.28C389.783 140.11 388.293 137.826 387.322 136.227L367.844 146.486L370.182 148.161L370.183 148.162ZM220.121 148.724C214.385 144.232 208.393 139.443 203.866 135.788L213.991 153.788L220.121 148.724ZM201.172 134.422L201.047 133.487L184.41 145.618L184.394 145.632C182.13 147.565 178.505 150.776 174.981 154.134C171.466 157.484 168.019 161.011 166.137 163.565C164.478 165.816 161.578 168.19 158.479 170.311C155.185 167.826 152.11 165.496 149.42 163.451L149.109 163.214L148.779 163.425C143.765 166.62 136.063 171.628 129.249 176.268C125.842 178.588 122.654 180.818 120.133 182.686L104.866 173.713L96.0459 162.499L87.4458 166.673L87.4544 166.697L0.183594 232.576L0.786082 233.374L87.8068 167.684L87.8234 167.731L95.6399 163.837L104.1 174.565L119.158 183.415C117.143 184.939 115.628 186.196 114.956 186.991C114.266 187.806 112.913 189.026 111.138 190.485C109.373 191.936 107.22 193.599 104.955 195.295C100.426 198.687 95.4601 202.201 92.271 204.4L92.0284 204.567V215.916L92.7887 215.628C96.4067 214.258 102.434 212.216 108.739 210.55C115.059 208.881 121.6 207.606 126.27 207.736C135.798 208.001 150.961 207.846 157.349 207.736L159.044 207.707L142.45 195.802L121.185 183.304C123.626 181.509 126.651 179.396 129.881 177.197C136.535 172.665 144.041 167.78 149.052 164.582C151.583 166.505 154.44 168.67 157.493 170.974C154.22 173.133 150.908 174.937 148.834 175.947L147.639 176.529L156.877 179.855C157.772 183.01 159.258 187.729 160.912 191.991C161.764 194.186 162.665 196.271 163.557 197.962C164.436 199.628 165.349 201 166.252 201.677C166.702 202.015 167.477 202.419 168.463 202.869C169.462 203.325 170.722 203.846 172.172 204.412C175.074 205.544 178.761 206.866 182.709 208.226C190.606 210.945 199.564 213.821 205.404 215.639L205.738 214.567C199.905 212.751 190.958 209.879 183.075 207.164C179.133 205.806 175.462 204.49 172.58 203.365C171.14 202.803 169.902 202.291 168.929 201.847C167.942 201.397 167.269 201.036 166.926 200.779C166.243 200.267 165.428 199.103 164.55 197.439C163.686 195.8 162.803 193.76 161.959 191.585C160.271 187.237 158.757 182.399 157.88 179.273L157.802 178.995L150.501 176.366C152.639 175.264 155.53 173.631 158.369 171.741L158.443 171.691C166.534 177.793 175.864 184.775 184.054 190.795C189.94 195.121 195.241 198.953 199.073 201.605C200.987 202.93 202.543 203.967 203.624 204.624C204.16 204.95 204.601 205.196 204.918 205.335C205.064 205.399 205.239 205.466 205.405 205.483C205.48 205.491 205.651 205.5 205.822 205.402C206.016 205.291 206.106 205.109 206.127 204.942C206.148 204.904 206.19 204.842 206.261 204.752C206.405 204.574 206.629 204.336 206.937 204.039C207.551 203.45 208.45 202.674 209.576 201.753C211.825 199.912 214.945 197.521 218.419 194.931C225.364 189.751 233.701 183.792 239.26 179.884L240.376 179.1L239.031 178.871C233.205 177.882 219.964 175.89 213.83 175.89C213.297 175.89 212.689 175.583 212.007 174.842C211.33 174.108 210.647 173.016 209.969 171.618C208.615 168.826 207.34 164.934 206.188 160.575C203.886 151.865 202.106 141.401 201.172 134.422ZM184.719 189.891C176.636 183.949 167.44 177.069 159.424 171.024C162.442 168.932 165.328 166.555 167.041 164.231C168.859 161.764 172.24 158.298 175.756 154.947C179.254 151.613 182.855 148.423 185.107 146.5L200.186 135.505C201.153 142.488 202.885 152.472 205.102 160.862C206.26 165.244 207.557 169.218 208.959 172.108C209.658 173.551 210.398 174.753 211.18 175.603C211.957 176.446 212.843 177.013 213.83 177.013C219.425 177.013 231.168 178.716 237.495 179.754C231.971 183.649 224.252 189.18 217.747 194.031C214.27 196.624 211.134 199.027 208.865 200.883C207.732 201.811 206.806 202.609 206.159 203.23C205.838 203.539 205.573 203.816 205.385 204.05C205.333 204.115 205.284 204.18 205.239 204.246C204.996 204.128 204.652 203.935 204.208 203.665C203.156 203.025 201.623 202.005 199.712 200.682C195.894 198.039 190.603 194.215 184.719 189.891ZM115.813 187.716C116.435 186.981 117.995 185.69 120.206 184.031L141.837 196.744L155.631 206.64C148.551 206.745 135.04 206.856 126.302 206.613C121.458 206.479 114.784 207.792 108.452 209.465C102.527 211.029 96.8493 212.924 93.1513 214.293V205.157C96.3545 202.943 101.198 199.511 105.628 196.194C107.9 194.493 110.067 192.819 111.851 191.353C113.624 189.896 115.049 188.618 115.813 187.716ZM367.613 148.781L340.363 161.208L366.127 147.717L367.613 148.781Z" fill="url(#paint3_linear_756_342)"/>
<defs>
<linearGradient id="paint0_linear_756_342" x1="347.374" y1="66.458" x2="339.339" y2="35.7967" gradientUnits="userSpaceOnUse">
<stop stop-color="#C59541"/>
<stop offset="0.625261" stop-color="#FBDD78"/>
<stop offset="1" stop-color="#BE9042"/>
</linearGradient>
<linearGradient id="paint1_linear_756_342" x1="276.218" y1="28.9311" x2="404.921" y2="28.9311" gradientUnits="userSpaceOnUse">
<stop stop-color="#C59541"/>
<stop offset="0.369792" stop-color="#FBDD78"/>
<stop offset="1" stop-color="#BE9042"/>
</linearGradient>
<linearGradient id="paint2_linear_756_342" x1="413.782" y1="85.1705" x2="285.08" y2="85.1705" gradientUnits="userSpaceOnUse">
<stop stop-color="#C59541"/>
<stop offset="0.369792" stop-color="#FBDD78"/>
<stop offset="1" stop-color="#BE9042"/>
</linearGradient>
<linearGradient id="paint3_linear_756_342" x1="-56.4646" y1="162.31" x2="486.14" y2="162.31" gradientUnits="userSpaceOnUse">
<stop stop-color="#C59541"/>
<stop offset="0.369792" stop-color="#FBDD78"/>
<stop offset="1" stop-color="#BE9042"/>
</linearGradient>
</defs>
</svg>
