<svg width="246" height="251" viewBox="0 0 246 251" fill="none" xmlns="http://www.w3.org/2000/svg">
<path d="M123.972 0.193848H122.847V93.096H123.972V0.193848Z" fill="url(#paint0_linear_1064_392)"/>
<path d="M177.901 11.7758L136.364 96.4136L137.374 96.9094L178.911 12.2716L177.901 11.7758Z" fill="url(#paint1_linear_1064_392)"/>
<path d="M146.787 25.6271L130.294 94.0632L131.388 94.3268L147.881 25.8908L146.787 25.6271Z" fill="url(#paint2_linear_1064_392)"/>
<path d="M143.317 99.8972L185.384 46.86L186.266 47.5593L144.199 100.596L143.317 99.8972Z" fill="url(#paint3_linear_1064_392)"/>
<path d="M220.92 46.7753L148.35 104.48L149.05 105.361L221.621 47.6561L220.92 46.7753Z" fill="url(#paint4_linear_1064_392)"/>
<path d="M152.021 110.711L215.249 79.9553L215.741 80.9672L152.514 111.723L152.021 110.711Z" fill="url(#paint5_linear_1064_392)"/>
<path d="M245.593 96.1029L155.448 118.028L155.714 119.121L245.859 97.1964L245.593 96.1029Z" fill="url(#paint6_linear_1064_392)"/>
<path d="M155.576 124.69H226.214V125.815H155.576V124.69Z" fill="url(#paint7_linear_1064_392)"/>
<path d="M98.9395 25.8853L100.033 25.6216L116.527 94.0577L115.433 94.3213L98.9395 25.8853Z" fill="url(#paint8_linear_1064_392)"/>
<path d="M68.9352 11.7629L67.9248 12.2583L109.432 96.9105L110.443 96.4151L68.9352 11.7629Z" fill="url(#paint9_linear_1064_392)"/>
<path d="M60.5645 47.5376L61.4463 46.8384L103.504 99.883L102.622 100.582L60.5645 47.5376Z" fill="url(#paint10_linear_1064_392)"/>
<path d="M25.9075 46.7517L25.2069 47.6324L97.7676 105.35L98.4682 104.469L25.9075 46.7517Z" fill="url(#paint11_linear_1064_392)"/>
<path d="M31.0781 80.9507L31.5707 79.9389L94.7874 110.717L94.2948 111.729L31.0781 80.9507Z" fill="url(#paint12_linear_1064_392)"/>
<path d="M1.22162 96.1149L0.956055 97.2085L91.1085 119.102L91.3741 118.008L1.22162 96.1149Z" fill="url(#paint13_linear_1064_392)"/>
<path d="M20.6082 124.69H91.2456V125.815H20.6082V124.69Z" fill="url(#paint14_linear_1064_392)"/>
<path d="M100.072 225.494L116.565 157.058L115.471 156.794L98.9782 225.231L100.072 225.494Z" fill="url(#paint15_linear_1064_392)"/>
<path d="M110.495 154.708L68.9582 239.345L67.948 238.849L109.485 154.212L110.495 154.708Z" fill="url(#paint16_linear_1064_392)"/>
<path d="M61.4751 204.261L103.542 151.224L102.66 150.525L60.5934 203.562L61.4751 204.261Z" fill="url(#paint17_linear_1064_392)"/>
<path d="M98.5098 146.641L25.939 204.346L25.2386 203.465L97.8094 145.76L98.5098 146.641Z" fill="url(#paint18_linear_1064_392)"/>
<path d="M31.6105 171.166L94.8379 140.41L94.3456 139.398L31.1182 170.154L31.6105 171.166Z" fill="url(#paint19_linear_1064_392)"/>
<path d="M91.4111 133.093L1.2663 155.018L1.00035 153.925L91.1452 132L91.4111 133.093Z" fill="url(#paint20_linear_1064_392)"/>
<path d="M122.887 250.927H124.013L124.013 158.025L122.887 158.025L122.887 250.927Z" fill="url(#paint21_linear_1064_392)"/>
<path d="M147.92 225.236L146.826 225.499L130.333 157.063L131.427 156.8L147.92 225.236Z" fill="url(#paint22_linear_1064_392)"/>
<path d="M177.924 239.358L178.935 238.863L137.427 154.211L136.417 154.706L177.924 239.358Z" fill="url(#paint23_linear_1064_392)"/>
<path d="M186.295 203.583L185.413 204.283L143.355 151.238L144.237 150.539L186.295 203.583Z" fill="url(#paint24_linear_1064_392)"/>
<path d="M220.952 204.369L221.652 203.489L149.092 145.771L148.391 146.652L220.952 204.369Z" fill="url(#paint25_linear_1064_392)"/>
<path d="M215.781 170.17L215.289 171.182L152.072 140.404L152.565 139.392L215.781 170.17Z" fill="url(#paint26_linear_1064_392)"/>
<path d="M245.638 155.006L245.903 153.913L155.751 132.019L155.485 133.113L245.638 155.006Z" fill="url(#paint27_linear_1064_392)"/>
<path d="M123.409 152.307C138.148 152.307 150.097 140.358 150.097 125.618C150.097 110.879 138.148 98.9302 123.409 98.9302C108.669 98.9302 96.7207 110.879 96.7207 125.618C96.7207 140.358 108.669 152.307 123.409 152.307Z" fill="url(#paint28_linear_1064_392)"/>
<defs>
<linearGradient id="paint0_linear_1064_392" x1="-28.7775" y1="125.561" x2="256.025" y2="125.561" gradientUnits="userSpaceOnUse">
<stop stop-color="#C59541"/>
<stop offset="0.369792" stop-color="#FBDD78"/>
<stop offset="1" stop-color="#BE9042"/>
</linearGradient>
<linearGradient id="paint1_linear_1064_392" x1="-28.7775" y1="125.561" x2="256.025" y2="125.561" gradientUnits="userSpaceOnUse">
<stop stop-color="#C59541"/>
<stop offset="0.369792" stop-color="#FBDD78"/>
<stop offset="1" stop-color="#BE9042"/>
</linearGradient>
<linearGradient id="paint2_linear_1064_392" x1="-28.7775" y1="125.561" x2="256.025" y2="125.561" gradientUnits="userSpaceOnUse">
<stop stop-color="#C59541"/>
<stop offset="0.369792" stop-color="#FBDD78"/>
<stop offset="1" stop-color="#BE9042"/>
</linearGradient>
<linearGradient id="paint3_linear_1064_392" x1="-28.7775" y1="125.561" x2="256.025" y2="125.561" gradientUnits="userSpaceOnUse">
<stop stop-color="#C59541"/>
<stop offset="0.369792" stop-color="#FBDD78"/>
<stop offset="1" stop-color="#BE9042"/>
</linearGradient>
<linearGradient id="paint4_linear_1064_392" x1="-28.7775" y1="125.561" x2="256.025" y2="125.561" gradientUnits="userSpaceOnUse">
<stop stop-color="#C59541"/>
<stop offset="0.369792" stop-color="#FBDD78"/>
<stop offset="1" stop-color="#BE9042"/>
</linearGradient>
<linearGradient id="paint5_linear_1064_392" x1="-28.7775" y1="125.561" x2="256.025" y2="125.561" gradientUnits="userSpaceOnUse">
<stop stop-color="#C59541"/>
<stop offset="0.369792" stop-color="#FBDD78"/>
<stop offset="1" stop-color="#BE9042"/>
</linearGradient>
<linearGradient id="paint6_linear_1064_392" x1="-28.7775" y1="125.561" x2="256.025" y2="125.561" gradientUnits="userSpaceOnUse">
<stop stop-color="#C59541"/>
<stop offset="0.369792" stop-color="#FBDD78"/>
<stop offset="1" stop-color="#BE9042"/>
</linearGradient>
<linearGradient id="paint7_linear_1064_392" x1="-28.7775" y1="125.561" x2="256.025" y2="125.561" gradientUnits="userSpaceOnUse">
<stop stop-color="#C59541"/>
<stop offset="0.369792" stop-color="#FBDD78"/>
<stop offset="1" stop-color="#BE9042"/>
</linearGradient>
<linearGradient id="paint8_linear_1064_392" x1="-28.7775" y1="125.561" x2="256.025" y2="125.561" gradientUnits="userSpaceOnUse">
<stop stop-color="#C59541"/>
<stop offset="0.369792" stop-color="#FBDD78"/>
<stop offset="1" stop-color="#BE9042"/>
</linearGradient>
<linearGradient id="paint9_linear_1064_392" x1="-28.7775" y1="125.561" x2="256.025" y2="125.561" gradientUnits="userSpaceOnUse">
<stop stop-color="#C59541"/>
<stop offset="0.369792" stop-color="#FBDD78"/>
<stop offset="1" stop-color="#BE9042"/>
</linearGradient>
<linearGradient id="paint10_linear_1064_392" x1="-28.7775" y1="125.561" x2="256.025" y2="125.561" gradientUnits="userSpaceOnUse">
<stop stop-color="#C59541"/>
<stop offset="0.369792" stop-color="#FBDD78"/>
<stop offset="1" stop-color="#BE9042"/>
</linearGradient>
<linearGradient id="paint11_linear_1064_392" x1="-28.7775" y1="125.561" x2="256.025" y2="125.561" gradientUnits="userSpaceOnUse">
<stop stop-color="#C59541"/>
<stop offset="0.369792" stop-color="#FBDD78"/>
<stop offset="1" stop-color="#BE9042"/>
</linearGradient>
<linearGradient id="paint12_linear_1064_392" x1="-28.7775" y1="125.561" x2="256.025" y2="125.561" gradientUnits="userSpaceOnUse">
<stop stop-color="#C59541"/>
<stop offset="0.369792" stop-color="#FBDD78"/>
<stop offset="1" stop-color="#BE9042"/>
</linearGradient>
<linearGradient id="paint13_linear_1064_392" x1="-28.7775" y1="125.561" x2="256.025" y2="125.561" gradientUnits="userSpaceOnUse">
<stop stop-color="#C59541"/>
<stop offset="0.369792" stop-color="#FBDD78"/>
<stop offset="1" stop-color="#BE9042"/>
</linearGradient>
<linearGradient id="paint14_linear_1064_392" x1="-28.7775" y1="125.561" x2="256.025" y2="125.561" gradientUnits="userSpaceOnUse">
<stop stop-color="#C59541"/>
<stop offset="0.369792" stop-color="#FBDD78"/>
<stop offset="1" stop-color="#BE9042"/>
</linearGradient>
<linearGradient id="paint15_linear_1064_392" x1="-28.7775" y1="125.561" x2="256.025" y2="125.561" gradientUnits="userSpaceOnUse">
<stop stop-color="#C59541"/>
<stop offset="0.369792" stop-color="#FBDD78"/>
<stop offset="1" stop-color="#BE9042"/>
</linearGradient>
<linearGradient id="paint16_linear_1064_392" x1="-28.7775" y1="125.561" x2="256.025" y2="125.561" gradientUnits="userSpaceOnUse">
<stop stop-color="#C59541"/>
<stop offset="0.369792" stop-color="#FBDD78"/>
<stop offset="1" stop-color="#BE9042"/>
</linearGradient>
<linearGradient id="paint17_linear_1064_392" x1="-28.7775" y1="125.561" x2="256.025" y2="125.561" gradientUnits="userSpaceOnUse">
<stop stop-color="#C59541"/>
<stop offset="0.369792" stop-color="#FBDD78"/>
<stop offset="1" stop-color="#BE9042"/>
</linearGradient>
<linearGradient id="paint18_linear_1064_392" x1="-28.7775" y1="125.561" x2="256.025" y2="125.561" gradientUnits="userSpaceOnUse">
<stop stop-color="#C59541"/>
<stop offset="0.369792" stop-color="#FBDD78"/>
<stop offset="1" stop-color="#BE9042"/>
</linearGradient>
<linearGradient id="paint19_linear_1064_392" x1="-28.7775" y1="125.561" x2="256.025" y2="125.561" gradientUnits="userSpaceOnUse">
<stop stop-color="#C59541"/>
<stop offset="0.369792" stop-color="#FBDD78"/>
<stop offset="1" stop-color="#BE9042"/>
</linearGradient>
<linearGradient id="paint20_linear_1064_392" x1="-28.7775" y1="125.561" x2="256.025" y2="125.561" gradientUnits="userSpaceOnUse">
<stop stop-color="#C59541"/>
<stop offset="0.369792" stop-color="#FBDD78"/>
<stop offset="1" stop-color="#BE9042"/>
</linearGradient>
<linearGradient id="paint21_linear_1064_392" x1="-28.7775" y1="125.561" x2="256.025" y2="125.561" gradientUnits="userSpaceOnUse">
<stop stop-color="#C59541"/>
<stop offset="0.369792" stop-color="#FBDD78"/>
<stop offset="1" stop-color="#BE9042"/>
</linearGradient>
<linearGradient id="paint22_linear_1064_392" x1="-28.7775" y1="125.561" x2="256.025" y2="125.561" gradientUnits="userSpaceOnUse">
<stop stop-color="#C59541"/>
<stop offset="0.369792" stop-color="#FBDD78"/>
<stop offset="1" stop-color="#BE9042"/>
</linearGradient>
<linearGradient id="paint23_linear_1064_392" x1="-28.7775" y1="125.561" x2="256.025" y2="125.561" gradientUnits="userSpaceOnUse">
<stop stop-color="#C59541"/>
<stop offset="0.369792" stop-color="#FBDD78"/>
<stop offset="1" stop-color="#BE9042"/>
</linearGradient>
<linearGradient id="paint24_linear_1064_392" x1="-28.7775" y1="125.561" x2="256.025" y2="125.561" gradientUnits="userSpaceOnUse">
<stop stop-color="#C59541"/>
<stop offset="0.369792" stop-color="#FBDD78"/>
<stop offset="1" stop-color="#BE9042"/>
</linearGradient>
<linearGradient id="paint25_linear_1064_392" x1="-28.7775" y1="125.561" x2="256.025" y2="125.561" gradientUnits="userSpaceOnUse">
<stop stop-color="#C59541"/>
<stop offset="0.369792" stop-color="#FBDD78"/>
<stop offset="1" stop-color="#BE9042"/>
</linearGradient>
<linearGradient id="paint26_linear_1064_392" x1="-28.7775" y1="125.561" x2="256.025" y2="125.561" gradientUnits="userSpaceOnUse">
<stop stop-color="#C59541"/>
<stop offset="0.369792" stop-color="#FBDD78"/>
<stop offset="1" stop-color="#BE9042"/>
</linearGradient>
<linearGradient id="paint27_linear_1064_392" x1="-28.7775" y1="125.561" x2="256.025" y2="125.561" gradientUnits="userSpaceOnUse">
<stop stop-color="#C59541"/>
<stop offset="0.369792" stop-color="#FBDD78"/>
<stop offset="1" stop-color="#BE9042"/>
</linearGradient>
<linearGradient id="paint28_linear_1064_392" x1="-28.7775" y1="125.561" x2="256.025" y2="125.561" gradientUnits="userSpaceOnUse">
<stop stop-color="#C59541"/>
<stop offset="0.369792" stop-color="#FBDD78"/>
<stop offset="1" stop-color="#BE9042"/>
</linearGradient>
</defs>
</svg>
