<svg width="488" height="154" viewBox="0 0 488 154" fill="none" xmlns="http://www.w3.org/2000/svg">
<path fill-rule="evenodd" clip-rule="evenodd" d="M293.258 0.946243L292.619 0.208984L292.136 1.05661C288.551 7.3478 282.767 17.1102 277.069 25.9461C274.22 30.3645 271.396 34.5442 268.884 37.9399C266.357 41.3549 264.186 43.9179 262.639 45.1556C256.094 50.3916 243.903 63.8829 238.609 69.9889L238.574 70.0172C230.192 63.4558 221.329 56.347 215.551 51.6608L214.514 52.5358L229.549 79.2647L238.598 71.7894L239.095 72.1772C247.853 79.0133 255.926 85.1135 259.066 86.9316C264.836 90.272 271.269 92.2324 274.403 92.9511C273.057 97.53 268.421 107.34 258.99 114.641C246.385 124.4 244.905 129.053 244.905 131.443C244.905 131.655 244.98 131.833 245.04 131.948C245.105 132.073 245.19 132.193 245.279 132.305C245.458 132.53 245.704 132.782 245.995 133.051C246.579 133.594 247.411 134.27 248.421 135.04C250.445 136.584 253.239 138.549 256.332 140.65C262.521 144.856 269.945 149.636 274.893 152.754L275.63 151.585C270.689 148.472 263.28 143.701 257.108 139.508C254.021 137.41 251.252 135.463 249.259 133.942C248.26 133.18 247.47 132.536 246.934 132.039C246.665 131.788 246.476 131.591 246.36 131.445C246.344 131.425 246.331 131.408 246.319 131.392C246.31 131.379 246.302 131.367 246.295 131.357L246.287 131.346C246.326 129.605 247.481 125.298 259.835 115.734C270.056 107.821 274.817 97.0561 275.932 92.5973L276.107 91.8945L275.397 91.7525C272.742 91.2214 265.854 89.2654 259.759 85.7362C256.722 83.9781 248.742 77.9543 239.945 71.0883L239.67 70.8737C244.991 64.7379 257.08 51.3717 263.501 46.2343C265.205 44.8711 267.471 42.1714 269.994 38.7616C272.532 35.3325 275.372 31.1254 278.23 26.6947C283.695 18.22 289.235 8.90171 292.852 2.58782C299 9.69764 307.875 20.1893 315.311 29.475C319.16 34.2821 322.617 38.7579 325.11 42.2708C326.357 44.0286 327.354 45.5337 328.037 46.7125C328.378 47.3026 328.634 47.7983 328.802 48.195C328.979 48.6124 329.027 48.8485 329.027 48.9462C329.027 49.8276 329.509 50.5685 330.178 51.1982C330.847 51.8287 331.786 52.4277 332.892 53.0319C334.142 53.7153 335.698 54.4522 337.435 55.2745L337.437 55.2754C338.741 55.8925 340.146 56.5579 341.601 57.2853C348.474 60.7218 356.891 65.7411 363.296 74.5487C366.049 78.3336 370.503 83.2767 375.863 88.7542L375.385 89.0044L378.346 91.8087L380.23 91.1942C380.205 91.1696 380.18 91.1449 380.155 91.1203L423.354 71.4199L423.283 71.3691L441.545 67.195V71.3969L467.828 94.9262H469.899L442.926 70.7795V65.4623L421.784 70.2948L418.979 68.2851L443.17 55.5437C444.363 57.5109 446.196 60.3203 448.203 62.9906C450.391 65.9019 452.853 68.7398 454.952 70.0834C457.058 71.4311 459.549 72.5344 461.89 73.5709C462.366 73.7818 462.836 73.99 463.295 74.1969C466.075 75.4487 468.406 76.6335 469.678 78.0874C470.979 79.5743 478.238 87.0266 485.982 94.9262H487.916C479.834 86.6857 472.05 78.7008 470.718 77.1777C469.213 75.4586 466.587 74.1645 463.863 72.9374C463.385 72.7221 462.902 72.5082 462.418 72.2936C460.078 71.2567 457.705 70.2051 455.697 68.92C453.83 67.7252 451.499 65.0764 449.307 62.1606C447.135 59.2704 445.166 56.2081 444.02 54.2758L443.685 53.7111L417.723 67.3853L417.279 67.0667L377.141 88.0849C371.684 82.5231 367.168 77.5239 364.413 73.7362C357.814 64.6625 349.163 59.522 342.218 56.0498C340.69 55.2858 339.265 54.6115 337.963 53.9956C336.27 53.195 334.786 52.4929 333.554 51.8198C332.475 51.2303 331.662 50.699 331.125 50.1928C330.587 49.6859 330.409 49.2839 330.409 48.9462C330.409 48.5561 330.264 48.1051 330.074 47.6561C329.875 47.1862 329.589 46.6359 329.232 46.0202C328.518 44.7877 327.493 43.243 326.236 41.4715C323.721 37.9259 320.244 33.4256 316.389 28.6115C308.677 18.9809 299.425 8.06211 293.258 0.946243ZM217.488 55.0043C223.058 59.5004 230.428 65.392 237.484 70.9179L229.943 77.1475L217.488 55.0043ZM378.793 89.4774L378.84 89.5219L419.381 71.0335L417.115 69.4099L378.793 89.4774Z" fill="url(#paint0_linear_1171_502)"/>
<path fill-rule="evenodd" clip-rule="evenodd" d="M214.02 52.1738L214.174 53.3238C215.323 61.9094 217.513 74.7815 220.345 85.4962C221.762 90.8586 223.331 95.6463 224.996 99.0806C225.83 100.8 226.671 102.144 227.502 103.047C228.341 103.958 229.089 104.336 229.745 104.336C237.292 104.336 253.58 106.787 260.746 108.003L262.401 108.284L261.028 109.249C254.19 114.056 243.934 121.388 235.39 127.759C231.117 130.946 227.279 133.888 224.512 136.151C223.127 137.284 222.021 138.239 221.267 138.964C220.887 139.329 220.611 139.622 220.435 139.841C220.346 139.952 220.296 140.028 220.27 140.075C220.244 140.28 220.133 140.504 219.894 140.641C219.684 140.761 219.474 140.75 219.381 140.741C219.178 140.72 218.961 140.637 218.782 140.558C218.392 140.387 217.85 140.085 217.191 139.684C215.86 138.875 213.946 137.6 211.592 135.97C206.878 132.707 200.357 127.993 193.117 122.672C183.041 115.267 171.563 106.677 161.611 99.1707L161.519 99.2317C158.027 101.557 154.471 103.566 151.841 104.922L160.821 108.155L160.918 108.498C161.997 112.343 163.86 118.295 165.936 123.644C166.974 126.319 168.06 128.829 169.123 130.844C170.203 132.892 171.206 134.324 172.046 134.954C172.467 135.27 173.296 135.714 174.51 136.268C175.706 136.814 177.229 137.444 179.002 138.135C182.546 139.518 187.062 141.138 191.912 142.808C201.609 146.148 212.615 149.681 219.791 151.915L219.38 153.234C212.196 150.997 201.176 147.46 191.462 144.114C186.605 142.442 182.069 140.815 178.5 139.422C176.715 138.726 175.166 138.085 173.936 137.525C172.723 136.972 171.771 136.474 171.217 136.059C170.106 135.225 168.982 133.538 167.901 131.489C166.804 129.407 165.696 126.843 164.648 124.143C162.613 118.9 160.785 113.094 159.684 109.214L148.319 105.123L149.79 104.406C152.341 103.163 156.415 100.945 160.442 98.2886C156.687 95.4544 153.171 92.7912 150.058 90.4254C143.894 94.3595 134.66 100.369 126.474 105.943C122.501 108.649 118.78 111.248 115.777 113.457L141.936 128.831L162.35 143.476L160.264 143.512C152.407 143.647 133.754 143.837 122.033 143.512C116.287 143.352 108.241 144.92 100.466 146.974C92.7097 149.023 85.2956 151.534 80.8449 153.22L79.9096 153.575V139.614L80.2081 139.408C84.1312 136.702 90.2398 132.38 95.812 128.207C98.5983 126.121 101.246 124.076 103.417 122.291C105.602 120.495 107.265 118.995 108.114 117.992C108.941 117.014 110.804 115.467 113.283 113.593L94.7594 102.707L84.3524 89.5084L74.7369 94.2985L74.7164 94.2413L1.04487 146.883L0.303711 145.901L74.2829 93.0273L74.2723 92.9976L84.8518 87.8632L95.7014 101.658L114.483 112.696C117.584 110.399 121.506 107.655 125.697 104.802C134.079 99.0934 143.554 92.9326 149.722 89.0017L150.128 88.7429L150.511 89.0343C153.82 91.5502 157.602 94.4156 161.655 97.4735C165.466 94.8637 169.035 91.9433 171.075 89.1744C173.391 86.0319 177.631 81.694 181.955 77.5732C186.29 73.4418 190.749 69.4913 193.534 67.1138L193.555 67.0967L214.02 52.1738ZM162.817 98.3503C172.679 105.787 183.99 114.25 193.935 121.559C201.172 126.879 207.681 131.583 212.378 134.834C214.728 136.461 216.615 137.717 217.908 138.503C218.455 138.836 218.878 139.073 219.177 139.219C219.232 139.138 219.293 139.057 219.357 138.977C219.588 138.689 219.914 138.349 220.309 137.968C221.104 137.204 222.243 136.223 223.637 135.082C226.429 132.798 230.287 129.842 234.565 126.652C242.566 120.685 252.062 113.881 258.857 109.089C251.075 107.812 236.629 105.718 229.745 105.718C228.532 105.718 227.442 105.021 226.486 103.983C225.524 102.937 224.614 101.458 223.753 99.6833C222.029 96.1285 220.433 91.2391 219.009 85.8491C216.282 75.5282 214.151 63.2462 212.961 54.6554L194.411 68.1816C191.641 70.5471 187.212 74.4716 182.908 78.5732C178.582 82.6953 174.423 86.9593 172.187 89.9939C170.081 92.8529 166.53 95.7771 162.817 98.3503ZM114.573 114.351C111.852 116.391 109.934 117.98 109.168 118.884C108.229 119.994 106.476 121.565 104.294 123.358C102.101 125.161 99.4346 127.22 96.6399 129.313C91.1894 133.394 85.2315 137.616 81.2909 140.339V151.578C85.8402 149.893 92.8251 147.563 100.114 145.638C107.903 143.581 116.113 141.965 122.071 142.131C132.821 142.429 149.441 142.293 158.152 142.164L141.182 129.99L114.573 114.351Z" fill="url(#paint1_linear_1171_502)"/>
<defs>
<linearGradient id="paint0_linear_1171_502" x1="-58.8863" y1="76.8918" x2="508.066" y2="76.8918" gradientUnits="userSpaceOnUse">
<stop stop-color="#C59541"/>
<stop offset="0.369792" stop-color="#FBDD78"/>
<stop offset="1" stop-color="#BE9042"/>
</linearGradient>
<linearGradient id="paint1_linear_1171_502" x1="-58.8863" y1="76.8918" x2="508.066" y2="76.8918" gradientUnits="userSpaceOnUse">
<stop stop-color="#C59541"/>
<stop offset="0.369792" stop-color="#FBDD78"/>
<stop offset="1" stop-color="#BE9042"/>
</linearGradient>
</defs>
</svg>
