<svg width="92" height="102" viewBox="0 0 92 102" fill="none" xmlns="http://www.w3.org/2000/svg">
<path d="M10.1761 78.9453L8.7721 75.5613H3.6601L2.2201 78.9453H0.744098L6.2701 66.3633L11.6521 78.9453H10.1761ZM4.1821 74.3013H8.2501L6.2341 69.4953L4.1821 74.3013ZM13.3454 78.9453V66.9393H15.7934C17.6414 66.9393 19.1174 67.4073 20.2214 68.3433C21.5894 69.4833 22.2734 71.0193 22.2734 72.9513C22.2734 74.8233 21.5714 76.3593 20.1674 77.5593C19.5914 78.0513 18.9734 78.4053 18.3134 78.6213C17.6534 78.8373 16.8074 78.9453 15.7754 78.9453H13.3454ZM14.6774 68.1993V77.6853H15.8474C17.2754 77.6853 18.4214 77.3253 19.2854 76.6053C20.3654 75.6933 20.9054 74.4753 20.9054 72.9513C20.9054 71.5113 20.4434 70.3593 19.5194 69.4953C18.5954 68.6313 17.3714 68.1993 15.8474 68.1993H14.6774ZM25.7984 66.9393H27.1304V76.6413C27.1304 77.3973 27.0524 78.0273 26.8964 78.5313C26.7524 79.0233 26.4404 79.4313 25.9604 79.7553C25.5164 80.0433 25.0244 80.1873 24.4844 80.1873C23.7284 80.1873 23.0144 79.8933 22.3424 79.3053L23.0804 78.2613C23.5724 78.7053 24.0344 78.9273 24.4664 78.9273C24.8984 78.9273 25.2224 78.7773 25.4384 78.4773C25.6784 78.1773 25.7984 77.5653 25.7984 76.6413V66.9393ZM31.5524 66.9393V74.3013C31.5524 74.7573 31.5584 75.1113 31.5704 75.3633C31.5944 75.6153 31.6784 75.9273 31.8224 76.2993C31.9784 76.6593 32.2064 76.9653 32.5064 77.2173C33.0464 77.6733 33.7064 77.9013 34.4864 77.9013C35.2664 77.9013 35.9264 77.6733 36.4664 77.2173C36.7664 76.9653 36.9884 76.6593 37.1324 76.2993C37.2884 75.9273 37.3724 75.6153 37.3844 75.3633C37.4084 75.1113 37.4204 74.7573 37.4204 74.3013V66.9393H38.7524V74.6613C38.7524 75.8853 38.5004 76.8453 37.9964 77.5413C37.6244 78.0453 37.1324 78.4413 36.5204 78.7293C35.9204 79.0173 35.2424 79.1613 34.4864 79.1613C33.7304 79.1613 33.0464 79.0173 32.4344 78.7293C31.8344 78.4413 31.3484 78.0453 30.9764 77.5413C30.4724 76.8453 30.2204 75.8853 30.2204 74.6613V66.9393H31.5524ZM48.2831 68.6133L47.2211 69.3153C47.0291 68.9433 46.7951 68.6433 46.5191 68.4153C46.1591 68.1393 45.7091 68.0013 45.1691 68.0013C44.5691 68.0013 44.0831 68.1753 43.7111 68.5233C43.3391 68.8593 43.1531 69.3033 43.1531 69.8553C43.1531 70.2633 43.3031 70.6113 43.6031 70.8993C43.8431 71.1393 44.2631 71.3913 44.8631 71.6553L46.0151 72.1593C46.8671 72.5313 47.4851 72.9093 47.8691 73.2933C48.4451 73.8693 48.7331 74.5953 48.7331 75.4713C48.7331 76.5633 48.3731 77.4513 47.6531 78.1353C46.9331 78.8193 46.0271 79.1613 44.9351 79.1613C43.8551 79.1613 42.9851 78.8373 42.3251 78.1893C41.7851 77.6613 41.4131 76.9533 41.2091 76.0653L42.5051 75.7053C42.5891 76.3053 42.8291 76.8153 43.2251 77.2353C43.6691 77.6793 44.2451 77.9013 44.9531 77.9013C45.7211 77.9013 46.3151 77.6733 46.7351 77.2173C47.1551 76.7493 47.3651 76.1853 47.3651 75.5253C47.3651 74.9493 47.1671 74.4813 46.7711 74.1213C46.5431 73.9053 46.0631 73.6293 45.3311 73.2933L44.2511 72.7893C43.5191 72.4533 42.9851 72.1233 42.6491 71.7993C42.0971 71.2713 41.8211 70.6173 41.8211 69.8373C41.8211 68.9133 42.1331 68.1693 42.7571 67.6053C43.3931 67.0293 44.2031 66.7413 45.1871 66.7413C45.9311 66.7413 46.5731 66.9213 47.1131 67.2813C47.6051 67.6053 47.9951 68.0493 48.2831 68.6133ZM56.2856 68.1993H53.3696V78.9453H52.0376V68.1993H49.1216V66.9393H56.2856V68.1993ZM65.1781 78.9453L63.7741 75.5613H58.6621L57.2221 78.9453H55.7461L61.2721 66.3633L66.6541 78.9453H65.1781ZM59.1841 74.3013H63.2521L61.2361 69.4953L59.1841 74.3013ZM68.3473 66.9393H70.5073C71.7073 66.9393 72.6253 67.1913 73.2613 67.6953C73.9813 68.2473 74.3413 69.0753 74.3413 70.1793C74.3413 71.2113 73.9453 71.9973 73.1533 72.5373C73.9213 72.7293 74.4913 73.1193 74.8633 73.7073C75.2473 74.2833 75.4393 74.9013 75.4393 75.5613C75.4393 76.1013 75.3193 76.5993 75.0793 77.0553C74.8513 77.5113 74.5633 77.8773 74.2153 78.1533C73.5433 78.6813 72.5833 78.9453 71.3353 78.9453H68.3473V66.9393ZM69.6793 68.1993V72.2133H70.6873C70.8673 72.2133 71.0413 72.2073 71.2093 72.1953C71.3773 72.1713 71.5753 72.1233 71.8033 72.0513C72.0433 71.9673 72.2473 71.8593 72.4153 71.7273C72.5953 71.5953 72.7453 71.3973 72.8653 71.1333C72.9853 70.8693 73.0453 70.5633 73.0453 70.2153C73.0453 69.8433 72.9733 69.5253 72.8293 69.2613C72.6853 68.9853 72.5233 68.7813 72.3433 68.6493C72.1633 68.5173 71.9473 68.4153 71.6953 68.3433C71.4433 68.2713 71.2513 68.2293 71.1193 68.2173C70.9873 68.2053 70.8553 68.1993 70.7233 68.1993H69.6793ZM69.6793 73.4013V77.6853H71.2093C72.1813 77.6853 72.8833 77.5173 73.3153 77.1813C73.8433 76.7973 74.1073 76.2453 74.1073 75.5253C74.1073 74.7213 73.7653 74.1333 73.0813 73.7613C72.6493 73.5213 71.9713 73.4013 71.0473 73.4013H69.6793ZM77.8922 66.9393H79.2242V77.6853H82.5362V78.9453H77.8922V66.9393ZM90.5714 66.9393V68.1993H85.6754V71.7633H90.4274V73.0233H85.6754V77.6853H90.5714V78.9453H84.3434V66.9393H90.5714ZM28.1286 84.9393H30.2886C31.4886 84.9393 32.4066 85.1913 33.0426 85.6953C33.7626 86.2473 34.1226 87.0753 34.1226 88.1793C34.1226 89.2113 33.7266 89.9973 32.9346 90.5373C33.7026 90.7293 34.2726 91.1193 34.6446 91.7073C35.0286 92.2833 35.2206 92.9013 35.2206 93.5613C35.2206 94.1013 35.1006 94.5993 34.8606 95.0553C34.6326 95.5113 34.3446 95.8773 33.9966 96.1533C33.3246 96.6813 32.3646 96.9453 31.1166 96.9453H28.1286V84.9393ZM29.4606 86.1993V90.2133H30.4686C30.6486 90.2133 30.8226 90.2073 30.9906 90.1953C31.1586 90.1713 31.3566 90.1233 31.5846 90.0513C31.8246 89.9673 32.0286 89.8593 32.1966 89.7273C32.3766 89.5953 32.5266 89.3973 32.6466 89.1333C32.7666 88.8693 32.8266 88.5633 32.8266 88.2153C32.8266 87.8433 32.7546 87.5253 32.6106 87.2613C32.4666 86.9853 32.3046 86.7813 32.1246 86.6493C31.9446 86.5173 31.7286 86.4153 31.4766 86.3433C31.2246 86.2713 31.0326 86.2293 30.9006 86.2173C30.7686 86.2053 30.6366 86.1993 30.5046 86.1993H29.4606ZM29.4606 91.4013V95.6853H30.9906C31.9626 95.6853 32.6646 95.5173 33.0966 95.1813C33.6246 94.7973 33.8886 94.2453 33.8886 93.5253C33.8886 92.7213 33.5466 92.1333 32.8626 91.7613C32.4306 91.5213 31.7526 91.4013 30.8286 91.4013H29.4606ZM43.9015 84.9393V86.1993H39.0055V89.7633H43.7575V91.0233H39.0055V95.6853H43.9015V96.9453H37.6735V84.9393H43.9015ZM46.3571 96.9453V84.9393H48.8051C50.6531 84.9393 52.1291 85.4073 53.2331 86.3433C54.6011 87.4833 55.2851 89.0193 55.2851 90.9513C55.2851 92.8233 54.5831 94.3593 53.1791 95.5593C52.6031 96.0513 51.9851 96.4053 51.3251 96.6213C50.6651 96.8373 49.8191 96.9453 48.7871 96.9453H46.3571ZM47.6891 86.1993V95.6853H48.8591C50.2871 95.6853 51.4331 95.3253 52.2971 94.6053C53.3771 93.6933 53.9171 92.4753 53.9171 90.9513C53.9171 89.5113 53.4551 88.3593 52.5311 87.4953C51.6071 86.6313 50.3831 86.1993 48.8591 86.1993H47.6891ZM64.1561 86.6133L63.0941 87.3153C62.9021 86.9433 62.6681 86.6433 62.3921 86.4153C62.0321 86.1393 61.5821 86.0013 61.0421 86.0013C60.4421 86.0013 59.9561 86.1753 59.5841 86.5233C59.2121 86.8593 59.0261 87.3033 59.0261 87.8553C59.0261 88.2633 59.1761 88.6113 59.4761 88.8993C59.7161 89.1393 60.1361 89.3913 60.7361 89.6553L61.8881 90.1593C62.7401 90.5313 63.3581 90.9093 63.7421 91.2933C64.3181 91.8693 64.6061 92.5953 64.6061 93.4713C64.6061 94.5633 64.2461 95.4513 63.5261 96.1353C62.8061 96.8193 61.9001 97.1613 60.8081 97.1613C59.7281 97.1613 58.8581 96.8373 58.1981 96.1893C57.6581 95.6613 57.2861 94.9533 57.0821 94.0653L58.3781 93.7053C58.4621 94.3053 58.7021 94.8153 59.0981 95.2353C59.5421 95.6793 60.1181 95.9013 60.8261 95.9013C61.5941 95.9013 62.1881 95.6733 62.6081 95.2173C63.0281 94.7493 63.2381 94.1853 63.2381 93.5253C63.2381 92.9493 63.0401 92.4813 62.6441 92.1213C62.4161 91.9053 61.9361 91.6293 61.2041 91.2933L60.1241 90.7893C59.3921 90.4533 58.8581 90.1233 58.5221 89.7993C57.9701 89.2713 57.6941 88.6173 57.6941 87.8373C57.6941 86.9133 58.0061 86.1693 58.6301 85.6053C59.2661 85.0293 60.0761 84.7413 61.0601 84.7413C61.8041 84.7413 62.4461 84.9213 62.9861 85.2813C63.4781 85.6053 63.8681 86.0493 64.1561 86.6133Z" fill="#1A2714"/>
<path fill-rule="evenodd" clip-rule="evenodd" d="M77.0646 21.704V19.3996C77.0646 18.668 77.6577 18.075 78.3893 18.075H78.9648C79.6964 18.075 80.2894 18.668 80.2894 19.3996V33.2426L67.6441 33.2425V38.0382H70.1297V38.9213H67.0208C67.431 39.3318 67.716 39.9188 67.716 40.7247C67.716 41.7089 67.2871 42.3871 66.7276 42.8067C66.1874 43.2118 65.5412 43.3661 65.0746 43.3661C64.5839 43.3661 63.9436 43.1598 63.4219 42.7417C62.8854 42.3117 62.4565 41.6415 62.4565 40.7247C62.4565 39.9574 62.7289 39.3549 63.1361 38.9213H28.6206C29.0307 39.3318 29.3157 39.9188 29.3157 40.7247C29.3157 41.7089 28.8869 42.3871 28.3274 42.8067C27.7871 43.2118 27.1409 43.3661 26.6743 43.3661C26.1836 43.3661 25.5433 43.1598 25.0217 42.7417C24.4852 42.3117 24.0562 41.6415 24.0562 40.7247C24.0562 39.9574 24.3287 39.3549 24.7358 38.9213H22.4756V38.0382H24.1416V33.2424L11.7897 33.2424V14.658C11.7897 13.9264 12.3827 13.3334 13.1143 13.3334H13.8648C14.5964 13.3334 15.1894 13.9264 15.1894 14.658V29.9592H35.0178L15.8614 14.868L15.8448 14.8518C15.4139 14.432 14.8992 13.6837 14.7471 12.773C14.59 11.8329 14.828 10.7607 15.8448 9.77003C16.8606 8.78024 17.9529 8.55372 18.9048 8.70471C19.8167 8.84935 20.572 9.33415 21.0068 9.75015L23.2333 11.4346C23.2023 11.3924 23.1726 11.3507 23.1444 11.3094C22.9696 11.053 22.8236 10.7732 22.7817 10.4918C22.7353 10.1799 22.8201 9.86222 23.098 9.63341C23.5907 9.22692 24.2454 9.31471 24.7838 9.48077C25.3477 9.65466 25.9703 9.97353 26.5429 10.2728C26.8673 10.4423 27.4635 10.854 28.1852 11.3798C28.9183 11.914 29.8108 12.5885 30.743 13.3039C32.6078 14.7352 34.6397 16.3372 35.8895 17.3241L35.9061 17.3371L35.9213 17.3517C36.3213 17.7348 36.82 18.2714 37.1616 18.7943C37.3306 19.0531 37.4802 19.337 37.5468 19.6158C37.6139 19.8967 37.6111 20.2495 37.357 20.5319C37.2286 20.6746 37.0629 20.7305 36.9277 20.7501C36.7935 20.7696 36.6551 20.759 36.5275 20.7376C36.2719 20.6948 35.9709 20.5927 35.6524 20.4601C35.2418 20.2892 34.7647 20.0514 34.2557 19.7735L38.6646 23.109H46.2494C46.1938 22.4029 46.734 21.704 47.5462 21.704H77.0646ZM18.7665 9.57689C18.0821 9.46834 17.2718 9.61259 16.4611 10.4025C15.6513 11.1916 15.5088 11.9732 15.6181 12.6275C15.7305 13.3002 16.1182 13.8788 16.4452 14.2037L36.4448 29.9592H51.9934L46.6898 23.9921H38.3682L20.4309 10.4218L20.4111 10.4025C20.0815 10.0813 19.4763 9.68949 18.7665 9.57689ZM47.2236 23.2634L52.535 29.2393V22.5871H47.5462C47.1962 22.5871 47.0041 22.993 47.2236 23.2634ZM53.4181 22.5871V29.9592H77.0646V22.5871H53.4181ZM25.0247 33.2424V38.0382H28.3567V33.2424L25.0247 33.2424ZM29.2398 33.2424V38.0382H62.4874V33.2425L29.2398 33.2424ZM63.3705 33.2425V38.0382H66.761V33.2425L63.3705 33.2425ZM13.1143 14.2165C12.8704 14.2165 12.6728 14.4141 12.6728 14.658V32.3593L79.4063 32.3595V19.3996C79.4063 19.1557 79.2087 18.958 78.9648 18.958H78.3893C78.1454 18.958 77.9477 19.1557 77.9477 19.3996V30.8423H14.3063V14.658C14.3063 14.4141 14.1086 14.2165 13.8648 14.2165H13.1143ZM24.5236 10.3246C24.0248 10.1708 23.779 10.2163 23.6598 10.3147C23.6566 10.3144 23.6481 10.3141 23.6552 10.3618C23.668 10.4481 23.7271 10.5964 23.874 10.8118C24.1632 11.2359 24.6834 11.7651 25.3327 12.341C26.3222 13.2184 27.5375 14.1411 28.5177 14.8853C28.8181 15.1134 29.0964 15.3247 29.3394 15.5128C30.3429 16.2897 32.1692 17.5375 33.8158 18.5075C34.6406 18.9934 35.4053 19.4007 35.9919 19.6449C36.2881 19.7682 36.5164 19.8404 36.6734 19.8667L36.688 19.869L36.6975 19.8704C36.6955 19.8562 36.6924 19.8398 36.6879 19.821C36.6556 19.6858 36.5683 19.5009 36.4222 19.2772C36.1373 18.841 35.7007 18.3647 35.3256 18.0039C34.0743 17.016 32.0565 15.4253 30.2053 14.0045C29.2754 13.2907 28.3896 12.6214 27.6651 12.0936C26.9293 11.5573 26.3887 11.1886 26.1339 11.0554C25.5482 10.7493 24.997 10.4706 24.5236 10.3246ZM24.9393 40.7247C24.9393 40.0956 25.1908 39.6687 25.5218 39.3915C25.8579 39.1099 26.2886 38.9738 26.6511 38.9682C26.9995 39.0089 27.4512 39.1252 27.8083 39.3854C28.1516 39.6356 28.4326 40.0339 28.4326 40.7247C28.4326 41.4173 28.1458 41.839 27.7976 42.1002C27.43 42.3758 26.9763 42.483 26.6743 42.483C26.3963 42.483 25.9484 42.3528 25.5739 42.0526C25.2143 41.7644 24.9393 41.3347 24.9393 40.7247ZM63.9221 39.3915C63.5911 39.6687 63.3396 40.0956 63.3396 40.7247C63.3396 41.3347 63.6146 41.7644 63.9742 42.0526C64.3487 42.3528 64.7966 42.483 65.0746 42.483C65.3765 42.483 65.8303 42.3758 66.1978 42.1002C66.5461 41.839 66.8329 41.4173 66.8329 40.7247C66.8329 40.0339 66.5519 39.6356 66.2086 39.3854C65.8514 39.1252 65.3998 39.0089 65.0514 38.9682C64.6888 38.9738 64.2582 39.1099 63.9221 39.3915Z" fill="black"/>
<path d="M33.1354 8.12431C33.2098 8.39023 33.4857 8.54547 33.7516 8.47105L38.0851 7.25822C38.351 7.18379 38.5063 6.90789 38.4319 6.64196C38.3574 6.37604 38.0815 6.2208 37.8156 6.29522L33.9636 7.37329L32.8856 3.52131C32.8111 3.25539 32.5352 3.10015 32.2693 3.17457C32.0034 3.249 31.8481 3.52491 31.9226 3.79083L33.1354 8.12431ZM48.925 1.54311L48.6993 1.98927L48.6993 1.98927L48.925 1.54311ZM51.9594 17.3846C52.0918 17.6269 52.3956 17.716 52.6379 17.5835L56.5867 15.4255C56.829 15.293 56.9181 14.9892 56.7857 14.7469C56.6532 14.5046 56.3494 14.4155 56.1071 14.548L52.5971 16.4662L50.6788 12.9562C50.5464 12.7139 50.2426 12.6248 50.0003 12.7573C49.758 12.8897 49.6689 13.1935 49.8013 13.4358L51.9594 17.3846ZM34.0526 8.23473C34.1791 8.00999 34.3327 7.7614 34.5123 7.49525L33.6833 6.93598C33.4905 7.22172 33.3224 7.49333 33.1811 7.74437L34.0526 8.23473ZM35.5886 6.08503C35.9528 5.6569 36.3609 5.21805 36.8081 4.78634L36.1135 4.06694C35.6417 4.52242 35.2113 4.98524 34.8269 5.43709L35.5886 6.08503ZM38.1478 3.61851C38.6073 3.25881 39.0931 2.91882 39.6016 2.6107L39.0833 1.75547C38.5377 2.08612 38.0192 2.44921 37.5314 2.83105L38.1478 3.61851ZM41.1633 1.806C41.6985 1.57841 42.2509 1.39283 42.8172 1.25982L42.5886 0.286301C41.9616 0.433548 41.3549 0.63787 40.772 0.885751L41.1633 1.806ZM44.5294 1.02978C45.091 1.01148 45.664 1.04984 46.2464 1.15454L46.4234 0.170319C45.7698 0.0528283 45.1265 0.0097956 44.4968 0.0303142L44.5294 1.02978ZM47.9046 1.6308C48.1677 1.7352 48.4327 1.85437 48.6993 1.98927L49.1507 1.09695C48.8576 0.948673 48.5651 0.817055 48.2735 0.701316L47.9046 1.6308ZM48.6993 1.98927C49.0309 2.15702 49.3403 2.3325 49.6288 2.5148L50.163 1.66943C49.8465 1.46947 49.5095 1.27842 49.1507 1.09695L48.6993 1.98927ZM51.264 3.82745C51.7756 4.35441 52.177 4.91593 52.4877 5.50054L53.3707 5.03129C53.0164 4.3644 52.5594 3.72617 51.9815 3.13087L51.264 3.82745ZM53.1994 7.45453C53.3514 8.14085 53.4187 8.84559 53.4226 9.55444L54.4226 9.54898C54.4184 8.78109 54.3454 8.00455 54.1758 7.23836L53.1994 7.45453ZM53.2629 11.6937C53.1561 12.4269 53.0044 13.1427 52.8348 13.8232L53.8051 14.065C53.9805 13.3614 54.1396 12.6121 54.2525 11.8379L53.2629 11.6937ZM52.2399 15.938C52.1248 16.318 52.0139 16.6784 51.9184 17.0041L52.878 17.2855C52.9718 16.9655 53.0799 16.6142 53.1969 16.228L52.2399 15.938Z" fill="black"/>
</svg>
