<svg width="115" height="75" viewBox="0 0 115 75" fill="none" xmlns="http://www.w3.org/2000/svg">
    <path d="M3.20935 50.5682V55.7162L8.32135 50.5682H10.1213L4.50535 56.1662L10.3013 62.5742H8.46535L3.55135 57.0662L3.20935 57.4082V62.5742H1.87735V50.5682H3.20935ZM12.1078 50.5682H13.4398V62.5742H12.1078V50.5682ZM17.8695 62.5742H16.5375V50.0642L25.8975 59.8742V50.5682H27.2295V63.1142L17.8695 53.3042V62.5742ZM36.5108 57.8042V56.5442H41.5148V56.8322C41.5148 58.3202 41.1308 59.5862 40.3628 60.6302C39.2948 62.0702 37.8068 62.7902 35.8988 62.7902C34.1228 62.7902 32.6408 62.1962 31.4528 61.0082C30.2648 59.8082 29.6708 58.3322 29.6708 56.5802C29.6708 54.8282 30.2648 53.3582 31.4528 52.1702C32.6528 50.9702 34.1468 50.3702 35.9348 50.3702C37.3508 50.3702 38.5748 50.7662 39.6068 51.5582C40.1348 51.9662 40.5968 52.4402 40.9928 52.9802L40.0028 53.8802C39.6548 53.3882 39.2768 52.9742 38.8688 52.6382C38.0408 51.9662 37.0688 51.6302 35.9528 51.6302C34.5248 51.6302 33.3488 52.1042 32.4248 53.0522C31.5008 54.0002 31.0388 55.1822 31.0388 56.5982C31.0388 57.6302 31.2908 58.5362 31.7948 59.3162C32.2988 60.0842 32.9108 60.6482 33.6308 61.0082C34.3628 61.3562 35.1248 61.5302 35.9168 61.5302C36.7088 61.5302 37.4288 61.3502 38.0768 60.9902C38.7368 60.6182 39.2408 60.1262 39.5888 59.5142C39.8888 58.9982 40.0508 58.4282 40.0748 57.8042H36.5108ZM43.1314 59.4062V58.0742H47.0914V59.4062H43.1314ZM55.7819 52.2422L54.7199 52.9442C54.5279 52.5722 54.2939 52.2722 54.0179 52.0442C53.6579 51.7682 53.2079 51.6302 52.6679 51.6302C52.0679 51.6302 51.5819 51.8042 51.2099 52.1522C50.8379 52.4882 50.6519 52.9322 50.6519 53.4842C50.6519 53.8922 50.8019 54.2402 51.1019 54.5282C51.3419 54.7682 51.7619 55.0202 52.3619 55.2842L53.5139 55.7882C54.3659 56.1602 54.9839 56.5382 55.3679 56.9222C55.9439 57.4982 56.2319 58.2242 56.2319 59.1002C56.2319 60.1922 55.8719 61.0802 55.1519 61.7642C54.4319 62.4482 53.5259 62.7902 52.4339 62.7902C51.3539 62.7902 50.4839 62.4662 49.8239 61.8182C49.2839 61.2902 48.9119 60.5822 48.7079 59.6942L50.0039 59.3342C50.0879 59.9342 50.3279 60.4442 50.7239 60.8642C51.1679 61.3082 51.7439 61.5302 52.4519 61.5302C53.2199 61.5302 53.8139 61.3022 54.2339 60.8462C54.6539 60.3782 54.8639 59.8142 54.8639 59.1542C54.8639 58.5782 54.6659 58.1102 54.2699 57.7502C54.0419 57.5342 53.5619 57.2582 52.8299 56.9222L51.7499 56.4182C51.0179 56.0822 50.4839 55.7522 50.1479 55.4282C49.5959 54.9002 49.3199 54.2462 49.3199 53.4662C49.3199 52.5422 49.6319 51.7982 50.2559 51.2342C50.8919 50.6582 51.7019 50.3702 52.6859 50.3702C53.4299 50.3702 54.0719 50.5502 54.6119 50.9102C55.1039 51.2342 55.4939 51.6782 55.7819 52.2422ZM58.6723 50.5682H60.0043V62.5742H58.6723V50.5682ZM70.77 50.5682L64.218 61.3142H70.59V62.5742H61.986L68.538 51.8282H62.832V50.5682H70.77ZM78.9803 50.5682V51.8282H74.0843V55.3922H78.8363V56.6522H74.0843V61.3142H78.9803V62.5742H72.7523V50.5682H78.9803ZM85.6371 50.5682H87.7971C88.9971 50.5682 89.9151 50.8202 90.5511 51.3242C91.2711 51.8762 91.6311 52.7042 91.6311 53.8082C91.6311 54.8402 91.2351 55.6262 90.4431 56.1662C91.2111 56.3582 91.7811 56.7482 92.1531 57.3362C92.5371 57.9122 92.7291 58.5302 92.7291 59.1902C92.7291 59.7302 92.6091 60.2282 92.3691 60.6842C92.1411 61.1402 91.8531 61.5062 91.5051 61.7822C90.8331 62.3102 89.8731 62.5742 88.6251 62.5742H85.6371V50.5682ZM86.9691 51.8282V55.8422H87.9771C88.1571 55.8422 88.3311 55.8362 88.4991 55.8242C88.6671 55.8002 88.8651 55.7522 89.0931 55.6802C89.3331 55.5962 89.5371 55.4882 89.7051 55.3562C89.8851 55.2242 90.0351 55.0262 90.1551 54.7622C90.2751 54.4982 90.3351 54.1922 90.3351 53.8442C90.3351 53.4722 90.2631 53.1542 90.1191 52.8902C89.9751 52.6142 89.8131 52.4102 89.6331 52.2782C89.4531 52.1462 89.2371 52.0442 88.9851 51.9722C88.7331 51.9002 88.5411 51.8582 88.4091 51.8462C88.2771 51.8342 88.1451 51.8282 88.0131 51.8282H86.9691ZM86.9691 57.0302V61.3142H88.4991C89.4711 61.3142 90.1731 61.1462 90.6051 60.8102C91.1331 60.4262 91.3971 59.8742 91.3971 59.1542C91.3971 58.3502 91.0551 57.7622 90.3711 57.3902C89.9391 57.1502 89.2611 57.0302 88.3371 57.0302H86.9691ZM101.41 50.5682V51.8282H96.514V55.3922H101.266V56.6522H96.514V61.3142H101.41V62.5742H95.182V50.5682H101.41ZM103.866 62.5742V50.5682H106.314C108.162 50.5682 109.638 51.0362 110.742 51.9722C112.11 53.1122 112.794 54.6482 112.794 56.5802C112.794 58.4522 112.092 59.9882 110.688 61.1882C110.112 61.6802 109.494 62.0342 108.834 62.2502C108.174 62.4662 107.328 62.5742 106.296 62.5742H103.866ZM105.198 51.8282V61.3142H106.368C107.796 61.3142 108.942 60.9542 109.806 60.2342C110.886 59.3222 111.426 58.1042 111.426 56.5802C111.426 55.1402 110.964 53.9882 110.04 53.1242C109.116 52.2602 107.892 51.8282 106.368 51.8282H105.198Z" fill="#313D2D"/>
    <g clip-path="url(#clip0_1392_1049)">
        <path d="M89.3293 27.8517H86.9263V32.0706H82.6112V27.8263H30.0403V32.0742H25.7234V27.7991H23.3293V15.3405H24.7284C24.636 13.6933 25.2214 12.5092 26.7818 11.9425C26.7818 9.14028 26.7818 6.36162 26.7818 3.58477C26.7836 1.3001 28.0051 0.0742188 30.2849 0.0742188C47.6304 0.0742188 64.9758 0.0742188 82.3212 0.0742188C84.6373 0.0742188 85.8461 1.29283 85.8461 3.62655C85.8461 6.21088 85.8534 8.79703 85.8389 11.3814C85.8371 11.7591 85.8951 11.9771 86.2938 12.1569C87.2978 12.6109 87.7998 13.4608 87.8868 14.5541C87.9049 14.7866 87.8886 15.0209 87.8886 15.3133H89.3275V27.8517H89.3293ZM24.3424 26.733H88.2728V16.3884H24.3424V26.733ZM84.8204 11.8372C84.8204 8.97501 84.8258 6.15821 84.8186 3.34323C84.8149 1.72144 83.7294 0.869678 81.9062 1.15663C64.5916 1.15663 49.6392 1.18205 30.8431 1.18205C28.942 0.824276 27.813 1.68512 27.8093 3.36139C27.8039 6.03109 27.8093 8.7026 27.8093 11.3723C27.8093 11.5176 27.8093 11.6611 27.8093 11.8009H33.5851C32.7949 11.2343 31.9703 10.6422 31.1294 10.0374C30.1943 9.36548 30.1617 7.97615 31.0715 7.26786C35.7979 3.57933 42.4472 3.53937 47.2371 7.26241C48.1487 7.9707 48.1215 9.36185 47.1845 10.0356C46.3346 10.6477 45.5009 11.2452 44.7017 11.8209H68.0802C66.8026 11.1634 65.6391 10.3771 64.5988 9.4236C64.1603 9.02042 64.1548 8.32484 64.5916 7.92167C69.7457 3.17433 77.5042 3.46854 82.3303 7.92893C82.8051 8.36843 82.7652 9.1312 82.2397 9.50714C81.1287 10.3026 80.0359 11.0872 78.9866 11.839H84.8204V11.8372ZM25.7796 15.2842H86.8411C86.9552 13.5662 86.3064 12.8742 84.6174 12.8742C65.7514 12.8742 46.8855 12.8742 28.0196 12.8742C26.3287 12.8742 25.6908 13.5516 25.7814 15.2842H25.7796ZM46.1044 7.66559C41.7622 4.56185 35.9121 4.92689 32.1878 7.68194C31.5281 8.16866 31.5155 9.16571 32.1788 9.64698C36.202 12.5618 42.0141 12.5746 46.0917 9.66877C46.7804 9.17842 46.7913 8.15776 46.1026 7.66741L46.1044 7.66559ZM66.4601 9.60702C70.8893 12.8161 76.8427 12.3566 80.4999 9.59431C81.1251 9.12212 81.1287 8.17592 80.4944 7.71644C76.3769 4.73075 70.5015 4.72893 66.4311 7.72189C65.7949 8.19045 65.8203 9.14573 66.4582 9.60884L66.4601 9.60702ZM26.7473 27.7991V31.0608H28.9583V27.7991H26.7473ZM83.6587 27.7918V31.0354H85.8679V27.7918H83.6587Z" fill="#050505"/>
    </g>
    <defs>
        <clipPath id="clip0_1392_1049">
            <rect width="66" height="32" fill="white" transform="translate(23.3293 0.0742188)"/>
        </clipPath>
    </defs>
</svg>
