<svg width="489" height="420" viewBox="0 0 489 420" fill="none" xmlns="http://www.w3.org/2000/svg">
<mask id="mask0_294_5203" style="mask-type:alpha" maskUnits="userSpaceOnUse" x="0" y="0" width="489" height="420">
<rect x="0.536133" y="0.481445" width="488.395" height="418.982" fill="#1A2714"/>
</mask>
<g mask="url(#mask0_294_5203)">
<path d="M517.773 196.464C518.484 201.391 516.538 217.028 503.13 226.072C486.371 237.377 467.479 240.855 456.51 259.406C445.54 277.957 454.986 285.783 433.961 301.725C412.936 317.668 397.701 332.161 385.817 338.248C373.933 344.335 348.881 365.35 345.834 373.466" stroke="url(#paint0_linear_294_5203)" stroke-width="2"/>
<path d="M512.204 263.662C499.304 273.304 474.921 296.029 482.503 310.454C491.98 328.485 509.751 345.013 509.356 357.41C509.04 367.327 509.224 372.811 509.356 374.314" stroke="url(#paint1_linear_294_5203)" stroke-width="2"/>
<path d="M260.998 231.242C261.799 231.496 264.28 235.659 267.803 250.281C271.326 264.903 315.146 265.125 335.294 263.094" stroke="url(#paint2_linear_294_5203)" stroke-width="2"/>
<path d="M526.593 208.101C525.984 216.603 519.646 235.985 499.169 245.492C473.573 257.377 466.26 257.667 459.557 274.189C452.853 290.711 444.35 300.785 441.912 302.235" stroke="url(#paint3_linear_294_5203)" stroke-width="2"/>
<path d="M262.082 129.062C254.639 138.03 241.304 155.086 253.61 161.506C268.991 169.53 282.388 165.754 283.381 178.498C284.373 191.242 283.877 198.794 294.793 206.346C305.709 213.898 294.427 230.809 313.781 241.059" stroke="url(#paint4_linear_294_5203)" stroke-width="2"/>
<path d="M530.536 227.909C532.568 232.45 531.408 245.203 509.225 255.637C487.042 266.072 457.085 289.316 444.795 300.041" stroke="url(#paint5_linear_294_5203)" stroke-width="2"/>
<path d="M252.268 202.745C256.805 205.537 267.723 213.268 272.207 220.58C277.811 229.718 268.204 249.9 286.617 253.708C301.348 256.754 326.612 261.96 335.018 263.356" stroke="url(#paint6_linear_294_5203)" stroke-width="2"/>
<path d="M511.138 191.131C511.264 196.159 509.884 214.058 482.198 227.727C452.14 242.568 450.86 243.89 439.155 267.595C427.451 291.3 407.817 319.674 394.225 327.935C380.632 336.195 358.733 352.717 344.763 374.985C330.793 397.254 290.394 404.078 276.801 410.902C265.927 416.361 255.406 420.6 251.504 422.036C254.147 427.663 263.36 439.923 279.067 443.945C298.7 448.974 301.343 454.72 312.67 452.565" stroke="url(#paint7_linear_294_5203)" stroke-width="2"/>
<path d="M262.637 128.535C258.003 130.664 250.843 137.748 259.281 149.059C269.829 163.197 289.966 158.636 290.924 170.494C291.883 182.352 288.527 186.913 295.239 196.034C300.609 203.332 306.967 207.541 308.565 216.054" stroke="url(#paint8_linear_294_5203)" stroke-width="2"/>
<path d="M489.295 393.161C492.138 403.678 494.223 428.861 479.818 445.449C465.413 462.036 446.438 485.015 438.751 494.431" stroke="url(#paint9_linear_294_5203)" stroke-width="2"/>
<path d="M471.32 373.652C474.163 383.769 478.302 409.568 469.709 427.118C458.969 449.054 448.228 449.655 447.596 470.39C447.091 486.978 424.851 514.965 413.795 526.885" stroke="url(#paint10_linear_294_5203)" stroke-width="2"/>
<path d="M443.988 355.661C440.695 362.708 433.417 382.806 434.734 391.89C436.38 403.245 407.979 436.135 406.744 450.622C405.51 465.109 412.095 477.247 413.742 492.126C415.059 504.029 410.047 514.381 407.166 518.166" stroke="url(#paint11_linear_294_5203)" stroke-width="2"/>
<path d="M461.863 343.154C455.019 352.67 437.677 382.823 440.962 401.575C445.069 425.014 409.688 437.335 413.163 459.272C416.638 481.209 428.642 493.53 422.956 508.555C418.407 520.575 414.532 525.583 413.163 526.585" stroke="url(#paint12_linear_294_5203)" stroke-width="2"/>
<path d="M464.4 361.914C461.873 363.016 456.189 371.284 457.705 388.353C459.601 409.689 454.546 421.709 438.435 442.444C422.324 463.179 434.013 474.898 432.749 492.328C431.738 506.271 419.692 521.377 413.795 527.186" stroke="url(#paint13_linear_294_5203)" stroke-width="2"/>
<path d="M461.795 342.792C470.298 344.525 489.005 350.071 495.807 358.391C504.31 368.791 515.243 382.657 529.819 393.057C544.396 403.456 552.292 430.033 567.476 438.7C579.623 445.633 594.753 454.275 600.422 457.549" stroke="url(#paint14_linear_294_5203)" stroke-width="2"/>
<path d="M237.143 164.306C246.054 183.908 263.624 228.198 262.622 248.541C261.369 273.97 244.244 302.578 243.408 320.459C242.74 334.763 241.226 349.449 240.53 353.157" stroke="url(#paint15_linear_294_5203)" stroke-width="2"/>
<path d="M296.037 285.095C294.506 291.055 293.615 304.644 302.303 311.319C313.163 319.663 316.922 342.311 313.58 358.205C310.907 370.919 312.467 376.482 313.58 377.674" stroke="url(#paint16_linear_294_5203)" stroke-width="2"/>
<path d="M527.39 216.839C527.39 220.691 529.212 229.55 536.5 234.172C545.611 239.95 503.703 274.615 467.261 289.637C430.819 304.659 405.31 327.77 395.592 338.169" stroke="url(#paint17_linear_294_5203)" stroke-width="2"/>
<path d="M332.426 402.301C345.181 391.324 374.456 368.791 389.519 366.48C408.347 363.591 419.887 338.17 426.568 326.615C431.912 317.37 444.181 308.126 449.647 304.66" stroke="url(#paint18_linear_294_5203)" stroke-width="2"/>
<path d="M462.332 342.743C452.67 349.468 429.848 364.633 424.192 375.393C417.122 388.844 421.364 390.862 405.81 398.932C390.257 407.002 391.671 429.868 366.219 439.956C345.858 448.027 321.914 451.838 312.488 452.735C307.068 463.271 291.702 485.689 273.603 491.069C255.504 496.449 239.668 500.484 234.012 501.829C238.018 506.537 249.707 516.356 264.413 517.97C282.794 519.988 295.52 494.432 306.832 491.069C318.144 487.706 329.456 470.893 342.181 472.238C354.907 473.583 356.321 485.689 376.117 491.069C395.913 496.449 404.397 514.608 417.122 532.094C429.848 549.579 445.402 541.509 468.733 559.667C487.397 574.194 509.974 608.314 518.929 623.558" stroke="url(#paint19_linear_294_5203)" stroke-width="2"/>
<path d="M462.671 342.387C461.221 347.851 461.172 364.16 474.572 376.906C491.321 392.839 500.098 405.818 502.54 425.567C504.983 445.317 498.876 451.9 513.124 467.777C527.372 483.654 502.54 477.845 502.54 487.913C502.54 497.982 490.568 506.888 474.572 505.727C458.575 504.565 465.089 520.442 455.319 523.927C445.549 527.412 429.416 520.223 423.044 527.113C418.449 532.081 421.797 538.628 427.496 541.339" stroke="url(#paint20_linear_294_5203)" stroke-width="2"/>
<path d="M475.79 285.661C471.446 293.55 463.627 311.205 467.102 318.718C470.577 326.231 478.554 342.384 482.108 349.521" stroke="url(#paint21_linear_294_5203)" stroke-width="2"/>
<path d="M172.825 378.729C179.722 380.518 194.339 388.203 200.735 405.739C207.13 423.275 211.443 445.193 212.697 451.754" stroke="url(#paint22_linear_294_5203)" stroke-width="2"/>
<path d="M315.612 154.38C319.718 157.482 327.422 165.753 325.393 174.024C322.857 184.363 321.771 189.877 327.929 204.352C332.857 215.931 337.47 224.57 339.16 227.442" stroke="url(#paint23_linear_294_5203)" stroke-width="2"/>
<path d="M346.044 189.188C346.406 196.196 346.334 212.485 343.146 221.584C339.958 230.682 349.788 245.593 355.101 251.911" stroke="url(#paint24_linear_294_5203)" stroke-width="2"/>
<path d="M369.593 217.792C374.182 220.435 381.62 227.925 374.665 236.747C367.709 245.57 376.63 249.864 382.185 250.438" stroke="url(#paint25_linear_294_5203)" stroke-width="2"/>
<path d="M229.294 183.524C231.429 188.221 234.899 201.007 229.775 211.06C223.37 223.626 229.775 240 229.775 257.135C229.775 274.271 223.37 284.171 229.775 295.595C236.18 307.019 226.339 303.863 221.769 324.535C219.976 332.644 229.818 352.862 231.419 359.97" stroke="url(#paint26_linear_294_5203)" stroke-width="2"/>
<path d="M205.179 202.162C202.777 209.777 199.993 226.978 205.757 240.382C212.962 257.136 218.567 269.702 212.162 280.364C205.757 291.026 214.964 322.251 205.757 334.055C196.55 345.86 197.351 356.141 202.955 364.518C207.438 371.22 210.56 379.582 211.761 381.74" stroke="url(#paint27_linear_294_5203)" stroke-width="2"/>
<path d="M187.744 252.566C189.612 255.105 192.788 262.695 190.546 272.748C187.744 285.314 190.146 311.208 181.339 316.158C174.294 320.118 176.802 333.293 178.937 339.386" stroke="url(#paint28_linear_294_5203)" stroke-width="2"/>
<path d="M230.976 175.267C234.445 181.74 240.343 197.733 236.18 209.918C230.976 225.15 237.781 233.908 238.982 251.805C240.183 269.702 236.18 267.036 236.18 276.937C236.18 286.837 241.384 298.642 236.18 305.877" stroke="url(#paint29_linear_294_5203)" stroke-width="2"/>
<path d="M295.104 283.615C299.64 281.076 315.599 281.583 329.049 294.072C345.861 309.685 331.45 315.396 346.662 322.251C358.831 327.734 360.539 336.974 359.872 340.909" stroke="url(#paint30_linear_294_5203)" stroke-width="2"/>
<path d="M238.724 161.978C240.378 169.844 249.144 187.56 270.976 195.49C298.266 205.402 293.801 230.418 305.213 237.026C314.343 242.312 329.785 249.065 337.228 251.268" stroke="url(#paint31_linear_294_5203)" stroke-width="2"/>
<path d="M275.441 119.025C271.141 125.633 265.121 141.587 275.441 152.537C288.342 166.226 302.235 166.698 297.77 182.746C293.304 198.794 306.205 195.49 308.19 209.65C310.174 223.81 303.724 233.25 311.167 238.442C317.121 242.595 326.548 246.151 330.518 247.41" stroke="url(#paint32_linear_294_5203)" stroke-width="2"/>
<path d="M128.49 307.444C128.905 313.563 123.612 332.712 98.7112 334.133C67.5849 335.91 32.9756 353.627 35.2136 367.888C43 417.501 32.7235 421.776 10.9351 434.212C-10.8533 446.648 -27.6616 468.559 -20.8138 496.392C-13.966 524.225 -5.25062 559.756 -34.5093 578.706C-57.9163 593.866 -76.2186 609.104 -82.4438 614.829" stroke="url(#paint33_linear_294_5203)" stroke-width="2"/>
<path d="M143.347 322.521C142.31 332.194 133.324 356.636 107.426 359.005C75.0551 361.966 57.0019 365.519 52.0217 395.721C47.0415 425.922 58.2469 430.659 40.1937 455.531C22.1404 480.403 4.08718 485.141 9.06738 513.565C14.0476 541.99 43.9288 571.007 40.1937 601.801" stroke="url(#paint34_linear_294_5203)" stroke-width="2"/>
<path d="M114.882 288.081C116.957 293.213 117.387 293.273 112.407 307.485C106.182 325.251 69.4525 324.658 56.3795 331.765C43.3064 338.871 17.1603 347.754 15.2927 368.48C13.4252 389.207 23.3856 393.352 15.2927 411.71C7.19992 430.067 -44.6377 415.85 -44.6377 500.928" stroke="url(#paint35_linear_294_5203)" stroke-width="2"/>
<path d="M121.114 299.394C123.507 302.885 126.531 312.91 117.533 319.102C106.285 326.842 85.465 325.02 66.3202 332.76C47.1755 340.5 25.8768 349.378 24.2017 363.948C22.5265 378.517 35.4492 398.55 21.5693 414.485C7.68932 430.421 -24.8568 430.648 -30.3609 459.104C-34.7642 481.869 -40.9703 514.574 -43.5229 528.081L-44.6377 538.685" stroke="url(#paint36_linear_294_5203)" stroke-width="2"/>
<path d="M149.06 332.503C152.296 339.613 154.193 356.147 134.647 366.59C110.215 379.644 81.4308 356.084 74.0675 385.056C66.7043 414.029 87.1206 424.854 64.3614 454.782C41.6022 484.71 30.892 487.575 26.2063 506.678C21.5206 525.781 64.3614 558.575 64.3614 582.135C64.3614 600.983 61.0145 613.336 59.341 617.157" stroke="url(#paint37_linear_294_5203)" stroke-width="2"/>
<path d="M155.484 358.471C156.377 362.932 154.01 373.701 137.397 381.093C116.63 390.333 98.8783 371.216 92.1795 391.607C85.4807 411.999 101.558 414.229 85.1457 442.905C68.7335 471.58 31.2201 495.795 39.9286 514.912C48.6371 534.029 76.1023 548.367 79.1168 569.715C81.5283 586.793 80.1216 609.329 79.1168 618.463" stroke="url(#paint38_linear_294_5203)" stroke-width="2"/>
<path d="M162.531 367.173C164.288 372.094 165.241 384.192 153.997 389.986C139.943 397.228 119.447 379.123 111.834 396.671C104.221 414.218 114.469 421.739 98.6576 447.921C82.8462 474.103 47.4171 487.751 53.566 507.248C59.7148 526.745 87.5311 533.987 90.4591 556.27C92.8015 574.096 90.2639 571.654 90.4591 583.631" stroke="url(#paint39_linear_294_5203)" stroke-width="2"/>
<path d="M290.994 285.827C286.98 291.224 280.863 303.836 288.502 311.103C298.052 320.187 305.11 319.002 305.11 339.144C305.11 359.286 293.485 367.58 298.052 378.243C301.705 386.774 306.217 389.697 308.016 390.092" stroke="url(#paint40_linear_294_5203)" stroke-width="2"/>
<path d="M274.802 300.834C272.726 305.311 270.401 315.447 277.708 320.187C286.842 326.111 300.543 330.455 295.145 345.858C289.748 361.261 279.784 366 283.105 375.479C285.762 383.062 292.239 389.697 295.145 392.066" stroke="url(#paint41_linear_294_5203)" stroke-width="2"/>
<path d="M266.083 325.321C270.373 323.346 279.286 323.425 280.614 339.539C282.275 359.681 262.346 360.076 266.083 371.924C269.072 381.403 275.632 391.145 278.538 394.831" stroke="url(#paint42_linear_294_5203)" stroke-width="2"/>
<path d="M183.466 259.758C185.568 266.931 188.587 274.388 183.466 289.392C180.191 298.989 166.853 309.026 167.966 319.257" stroke="url(#paint43_linear_294_5203)" stroke-width="2"/>
<path d="M307.336 278.809C315.124 276.692 331.962 275.351 337.005 286.923C343.31 301.388 337.005 309.149 346.277 314.088C355.549 319.027 367.417 326.436 366.675 331.728C366.081 335.961 362.966 340.077 361.483 341.606" stroke="url(#paint44_linear_294_5203)" stroke-width="2"/>
<path d="M219.811 374.062C218.822 377.943 218.995 386.904 227.599 391.702C238.355 397.7 251.779 403.52 260.679 400.697" stroke="url(#paint45_linear_294_5203)" stroke-width="2"/>
<path d="M-44.6064 239.992C-44.6064 244.669 -43.5961 252.699 -37.3272 255.856C-29.491 259.803 -20.7328 259.364 -17.5062 266.818C-14.2795 274.273 -19.35 286.55 -12.4357 290.497C-5.52134 294.443 1.39299 292.251 6.46349 301.898C11.534 311.544 38.7303 323.822 44.7227 322.945" stroke="url(#paint46_linear_294_5203)" stroke-width="2"/>
<path d="M-44.6929 266.166C-42.8003 263.865 -37.9771 261.065 -29.902 268.266C-19.8082 277.268 -28.0094 284.769 -23.9088 291.671C-19.8082 298.572 -14.1304 295.872 -6.24454 302.773C1.64128 309.674 27.5068 330.078 31.292 329.478" stroke="url(#paint47_linear_294_5203)" stroke-width="2"/>
<path d="M-44.6497 281.541C-43.0717 278.069 -39.1424 273.621 -35.3553 281.951C-30.6214 292.365 -36.5388 298.557 -28.8462 303.06C-22.6921 306.663 1.92414 325.951 13.463 335.145" stroke="url(#paint48_linear_294_5203)" stroke-width="2"/>
<path d="M472.239 345.017C469.59 350.267 467.868 363.288 482.173 373.368C500.055 385.968 512.639 415.579 510.652 433.849C508.665 452.12 510.652 457.79 531.183 476.06C551.714 494.331 567.61 501.891 570.921 523.942C574.232 545.992 562.973 561.113 580.193 580.013C593.969 595.133 605.36 609.834 609.334 615.294" stroke="url(#paint49_linear_294_5203)" stroke-width="2"/>
<path d="M260.064 419.224C264.69 426.107 279.563 440.481 302.051 442.918C324.538 445.355 357.914 440.323 371.791 437.502" stroke="url(#paint50_linear_294_5203)" stroke-width="2"/>
<path d="M272.518 412.455C271.806 419.337 276.645 433.44 301.695 434.794C333.007 436.487 376.061 435.471 383.534 426.332" stroke="url(#paint51_linear_294_5203)" stroke-width="2"/>
<path d="M282.837 408.054C281.176 412.454 280.631 422.067 291.732 425.316C305.609 429.378 361.117 432.763 372.503 425.316C383.889 417.87 390.294 412.116 398.478 405.008" stroke="url(#paint52_linear_294_5203)" stroke-width="2"/>
<path d="M115.315 272.791C113.073 277.056 111.448 288.785 122.881 301.58C137.172 317.573 149.782 322.371 152.304 346.362C154.826 370.353 171.639 367.154 174.161 383.947C176.683 400.741 173.32 430.329 152.304 439.126C122.713 450.001 110.832 462.316 108.59 467.115C118.578 482.459 152.304 498.068 153.369 498.068C174.9 498.068 219.598 499.959 233.889 501.825C239.213 509.822 251.67 529.81 248.98 540.686C245.617 554.28 235.529 571.873 221.238 575.072C206.947 578.271 189.293 591.865 174.161 604.66" stroke="url(#paint53_linear_294_5203)" stroke-width="2"/>
<path fill-rule="evenodd" clip-rule="evenodd" d="M572.193 257.258C564.095 247.143 534.875 215.644 531.729 212.253L531.613 212.128C530.043 209.55 519.505 192.622 513.038 189.546C506.281 186.327 485.589 207.094 476.831 216.354C466.712 222.727 444.741 236.978 440.554 243.03C435.181 242.864 410.64 241.757 400.3 235.772C394.91 232.645 389.532 228.834 384.34 225.154L384.319 225.139C377.98 220.636 371.99 216.388 366.907 214.119C358.894 210.535 355.777 203.343 353.602 196.096C352.252 191.593 348.228 187.898 343.96 183.981L343.897 183.924C341.032 181.286 338.071 178.56 335.969 175.561C335.052 174.258 334.254 173.059 333.51 171.941L333.482 171.899C333.396 171.769 333.31 171.64 333.224 171.512L333.205 171.482C329.772 166.331 327.291 162.607 320.267 157.593C313.583 152.824 309.886 142.14 307.432 135.048L307.415 135C307.351 134.815 307.287 134.632 307.225 134.451L307.139 134.204C306.77 133.135 306.426 132.141 306.089 131.261C303.321 123.881 284.281 113.038 282.13 111.821L281.013 111.202L280.059 112.031C280.059 112.031 278.28 113.58 275.535 115.904C269.417 121.093 258.135 130.475 251.238 134.956C243.945 139.703 237.99 155.369 233.21 167.96L233.029 168.434L233.029 168.435C230.896 174.031 229.06 178.85 227.476 181.713C222.579 190.553 216.496 194.846 205.494 200.599C198.713 204.14 196.282 219.674 194.142 233.371L194.106 233.598C192.993 240.668 191.496 250.177 189.92 251.162C183.372 253.43 171.438 270.148 169.798 281.599C168.577 290.129 159.261 300.375 155.957 303.771C141.606 290.959 118.232 273.06 116.267 271.556L116.267 271.555L116.191 271.498L115.435 270.922L114.516 271.232L114.458 271.252C113.204 271.682 97.6707 277.007 87.8003 282.938C78.3095 288.647 61.3283 302.975 54.152 314.05C41.7418 311.085 22.5276 304.9 20.1665 299.866C17.1221 293.355 9.91029 290.069 3.55264 287.173L3.5343 287.164C1.48726 286.235 -0.443478 285.35 -2.18812 284.398C-5.29357 282.705 -5.59598 280.338 -5.87512 275.934L-5.87714 275.903C-6.09775 272.523 -6.37136 268.331 -8.91079 263.963C-12.8071 257.291 -15.6451 256.307 -19.5763 254.957L-19.6043 254.947C-21.3654 254.341 -23.3584 253.655 -25.9268 252.279C-32.382 248.827 -42.0564 229.309 -44.3476 223.323L-44.3477 230.015C-43.9987 230.945 -36.5458 250.41 -27.6366 255.178C-24.8091 256.688 -22.5705 257.463 -20.7826 258.081L-20.7441 258.094C-17.0695 259.362 -15.2209 260 -11.9581 265.578C-9.78311 269.296 -9.56212 272.77 -9.35277 276.133C-9.07362 280.504 -8.80611 284.62 -3.92113 287.286C-2.14133 288.249 -0.244493 289.121 1.74901 290.037L2.02228 290.163L2.05266 290.177C8.14945 292.96 14.4483 295.836 16.968 301.227C20.3875 308.529 43.7307 314.902 51.9771 316.949C46.9874 322.06 34.6121 326.785 23.5395 330.989C14.6651 334.364 7.00032 337.284 3.20864 340.261C0.138076 342.673 -4.45615 346.844 -9.77148 351.69L-9.8117 351.726C-20.0749 361.069 -32.8462 372.695 -40.9772 377.248L-39.2093 380.113C-30.7071 375.356 -17.7619 363.573 -7.35225 354.091L-7.22753 353.977L-7.22692 353.977C-2.01135 349.234 2.4878 345.144 5.43014 342.828C8.79282 340.191 16.5483 337.236 24.7667 334.105L24.8421 334.076C38.3805 328.931 52.3725 323.598 56.4666 316.772C62.8287 306.172 80.3681 291.313 89.638 285.748C98.0355 280.703 111.19 275.934 114.749 274.684C120.518 279.121 157.086 307.356 163.215 315.887C168.476 323.206 174.43 335.753 178.799 344.96L178.847 345.062C180.057 347.629 181.15 349.931 182.069 351.778C186.663 361.061 202.911 375.643 207.785 379.892C210.309 382.094 211.646 385.059 213.193 388.489L213.218 388.544C215.247 393.022 217.543 398.089 223.138 402.529C230.648 408.483 239.616 410.801 243.626 411.585C239.918 414.251 235.298 418.97 233.051 421.73L212.501 450.228L212.541 450.258C210.959 452.906 199.2 472.26 191.433 475.743C183.092 479.483 143.372 500.946 139.246 507.176C134.164 514.85 128.719 523.174 123.417 531.278C110.786 550.586 98.9724 568.645 94.84 573.688L71.0368 609.013L68.323 617.002C77.099 605.049 83.0815 596.62 87.5741 590.291C90.9406 585.548 93.4705 581.984 95.7123 578.999C98.8077 574.876 135.9 521.088 141.627 509.407C144.03 504.506 184.76 481.75 189.169 479.597C189.705 479.335 190.217 479.101 190.719 478.871C195.66 476.609 199.63 474.792 214.958 452.098L214.977 452.112C216.132 450.228 219.879 444.646 225.623 437.392C239.351 420.055 243.87 415.67 251.507 410.636C253.887 409.586 256.803 407.704 259.868 404.344C265.141 398.554 284.959 395.424 300.917 392.903L300.983 392.892C304.368 392.361 307.601 391.852 310.556 391.343C325.507 388.755 331.882 379.899 340.716 367.625L340.726 367.611C342.68 364.889 344.704 362.079 346.995 359.092C358.045 344.653 372.06 332.383 385.447 325.435C392.495 321.773 401.405 309.315 409.267 298.317L409.402 298.128C414.865 290.497 420.005 283.318 423.096 281.168C431.436 275.348 442.729 249.856 443.299 244.966C444.218 242.178 462.141 229.576 478.936 218.999L479.274 218.722C493.684 203.454 508.723 191.195 511.48 192.5C516.283 194.791 525.53 208.742 528.682 213.92L528.879 214.186C529.205 214.529 561.109 248.883 569.413 259.25C578.276 270.314 592.861 270.435 593.478 270.435V267.116C593.35 267.116 579.974 266.961 572.181 257.236L572.193 257.258ZM182.563 344.825L182.561 344.822C182.388 344.458 182.213 344.088 182.034 343.713L182.018 343.68L182.018 343.679C177.6 334.355 171.56 321.609 166.111 314.028C164.739 312.114 161.994 309.326 158.481 306.095C162.006 302.499 171.88 291.667 173.253 282.075C174.788 271.387 186.035 256.063 191.106 254.304C194.421 253.153 195.549 246.858 197.585 233.88C199.411 222.229 201.911 206.275 207.168 203.52C218.543 197.568 225.278 192.81 230.547 183.273C232.249 180.187 234.153 175.2 236.358 169.425L236.478 169.111C240.852 157.604 246.841 141.86 253.204 137.711C258.996 133.938 267.719 126.879 274.081 121.569L274.271 121.409L274.274 121.407C275.584 120.307 276.796 119.29 277.849 118.393C279.396 117.077 280.653 116.003 281.443 115.317C287.654 118.913 300.925 127.41 302.786 132.378C303.152 133.343 303.528 134.434 303.938 135.626L303.938 135.626L304.077 136.029C306.659 143.52 310.567 154.838 318.151 160.238C324.645 164.863 326.864 168.194 330.199 173.2L330.247 173.271C331.084 174.532 331.991 175.893 333.038 177.387C335.364 180.706 338.481 183.572 341.505 186.349C345.425 189.945 349.124 193.352 350.217 196.992C352.613 204.981 356.114 212.947 365.395 217.107C370.164 219.242 376.014 223.391 382.202 227.784C387.471 231.523 392.914 235.385 398.462 238.593C409.093 244.745 432.25 246.039 439.415 246.305C438.275 250.067 435.076 257.502 431.331 264.383C429.749 264.782 425.167 265.656 419.34 264.173C418.642 263.996 417.886 263.808 417.083 263.609C408.662 261.529 394.577 258.044 385.726 250.963C375.828 243.03 350.438 252.512 345.623 254.415C339.319 251.383 324.641 243.14 322.024 236.115C318.593 226.932 318.86 223.734 321.407 215.038C324.012 206.131 319.046 198.973 314.243 192.058L314.239 192.053C313.74 191.335 313.241 190.618 312.754 189.889C309.602 185.253 310.695 181.624 311.87 177.774L311.888 177.713C312.452 175.84 313.033 173.913 313.033 171.943C313.033 166.046 308.101 156.431 299.832 150.545C292.028 144.991 287.491 138.751 285.561 130.918L282.165 131.681C284.27 140.201 289.364 147.237 297.75 153.201C305.043 158.39 309.544 166.964 309.544 171.943C309.544 173.459 309.051 175.095 308.532 176.818L308.52 176.856C307.311 180.839 305.81 185.795 309.834 191.693C309.952 191.864 310.07 192.036 310.189 192.208C310.323 192.401 310.456 192.595 310.59 192.788C310.843 193.153 311.096 193.518 311.346 193.883C316.115 200.754 320.233 206.695 318.058 214.153C315.324 223.524 315.103 227.452 318.755 237.232C321.779 245.309 336.167 253.364 342.192 256.439C333.422 262.093 302.728 281.488 288.678 285.25C271.336 289.886 262.345 332.029 261.624 335.536C261.194 336.466 257.763 343.126 246.865 347.01C235.676 351.004 218.136 373.386 212.821 380.434C212.065 379.372 211.204 378.365 210.158 377.447C200.364 368.906 188.675 357.299 185.244 350.362L185.232 350.384C184.46 348.819 183.56 346.925 182.563 344.825ZM421.026 278.501C417.42 281.013 412.303 288.171 406.383 296.469L406.379 296.475C398.738 307.161 390.087 319.262 383.772 322.536C369.943 329.717 355.509 342.33 344.169 357.155C341.854 360.187 339.807 363.019 337.842 365.752C329.177 377.801 323.443 385.756 309.927 388.091C307.001 388.599 303.785 389.107 300.43 389.637L300.413 389.64C283.037 392.372 263.346 395.481 257.239 402.186C251.262 408.742 246.408 408.653 246.131 408.648L246.12 408.648C246.004 408.636 234.385 407.121 225.382 399.984C220.433 396.068 218.404 391.595 216.438 387.259L216.403 387.183C215.857 385.966 215.31 384.771 214.717 383.621C218.288 378.83 237.188 354.013 248.086 350.13C261.334 345.405 264.788 336.975 264.927 336.61L265.009 336.333C267.451 324.196 276.617 291.922 289.608 288.448C306.264 283.989 343.552 259.593 346.414 257.701C354.323 254.437 375.979 247.489 383.481 253.496C392.937 261.064 407.499 264.671 416.199 266.818C416.449 266.879 416.693 266.94 416.931 267C417.163 267.058 417.391 267.114 417.612 267.169C417.894 267.239 418.168 267.307 418.432 267.371C421.235 268.079 423.783 268.322 425.934 268.322C427.156 268.322 428.237 268.245 429.191 268.134C426.411 272.781 423.503 276.753 421.014 278.479L421.026 278.501Z" fill="url(#paint54_linear_294_5203)"/>
</g>
<defs>
<linearGradient id="paint0_linear_294_5203" x1="325.706" y1="293.404" x2="524.965" y2="293.404" gradientUnits="userSpaceOnUse">
<stop stop-color="#C59541"/>
<stop offset="0.369792" stop-color="#FBDD78"/>
<stop offset="1" stop-color="#BE9042"/>
</linearGradient>
<linearGradient id="paint1_linear_294_5203" x1="477.325" y1="323.827" x2="512.993" y2="323.827" gradientUnits="userSpaceOnUse">
<stop stop-color="#C59541"/>
<stop offset="0.369792" stop-color="#FBDD78"/>
<stop offset="1" stop-color="#BE9042"/>
</linearGradient>
<linearGradient id="paint2_linear_294_5203" x1="252.3" y1="248.802" x2="335.612" y2="248.802" gradientUnits="userSpaceOnUse">
<stop stop-color="#C59541"/>
<stop offset="0.369792" stop-color="#FBDD78"/>
<stop offset="1" stop-color="#BE9042"/>
</linearGradient>
<linearGradient id="paint3_linear_294_5203" x1="431.601" y1="259.544" x2="530.094" y2="259.544" gradientUnits="userSpaceOnUse">
<stop stop-color="#C59541"/>
<stop offset="0.369792" stop-color="#FBDD78"/>
<stop offset="1" stop-color="#BE9042"/>
</linearGradient>
<linearGradient id="paint4_linear_294_5203" x1="240.935" y1="187.221" x2="311.183" y2="187.221" gradientUnits="userSpaceOnUse">
<stop stop-color="#C59541"/>
<stop offset="0.369792" stop-color="#FBDD78"/>
<stop offset="1" stop-color="#BE9042"/>
</linearGradient>
<linearGradient id="paint5_linear_294_5203" x1="434.078" y1="268.106" x2="535.11" y2="268.106" gradientUnits="userSpaceOnUse">
<stop stop-color="#C59541"/>
<stop offset="0.369792" stop-color="#FBDD78"/>
<stop offset="1" stop-color="#BE9042"/>
</linearGradient>
<linearGradient id="paint6_linear_294_5203" x1="243.614" y1="234.988" x2="333.442" y2="234.988" gradientUnits="userSpaceOnUse">
<stop stop-color="#C59541"/>
<stop offset="0.369792" stop-color="#FBDD78"/>
<stop offset="1" stop-color="#BE9042"/>
</linearGradient>
<linearGradient id="paint7_linear_294_5203" x1="220.017" y1="335.985" x2="521.614" y2="335.985" gradientUnits="userSpaceOnUse">
<stop stop-color="#C59541"/>
<stop offset="0.369792" stop-color="#FBDD78"/>
<stop offset="1" stop-color="#BE9042"/>
</linearGradient>
<linearGradient id="paint8_linear_294_5203" x1="249.135" y1="184.153" x2="308.869" y2="184.153" gradientUnits="userSpaceOnUse">
<stop stop-color="#C59541"/>
<stop offset="0.369792" stop-color="#FBDD78"/>
<stop offset="1" stop-color="#BE9042"/>
</linearGradient>
<linearGradient id="paint9_linear_294_5203" x1="432.367" y1="448.294" x2="493.518" y2="448.294" gradientUnits="userSpaceOnUse">
<stop stop-color="#C59541"/>
<stop offset="0.369792" stop-color="#FBDD78"/>
<stop offset="1" stop-color="#BE9042"/>
</linearGradient>
<linearGradient id="paint10_linear_294_5203" x1="406.351" y1="457.611" x2="477.652" y2="457.611" gradientUnits="userSpaceOnUse">
<stop stop-color="#C59541"/>
<stop offset="0.369792" stop-color="#FBDD78"/>
<stop offset="1" stop-color="#BE9042"/>
</linearGradient>
<linearGradient id="paint11_linear_294_5203" x1="402.176" y1="445.935" x2="444.469" y2="445.935" gradientUnits="userSpaceOnUse">
<stop stop-color="#C59541"/>
<stop offset="0.369792" stop-color="#FBDD78"/>
<stop offset="1" stop-color="#BE9042"/>
</linearGradient>
<linearGradient id="paint12_linear_294_5203" x1="407.525" y1="445.947" x2="459.227" y2="445.947" gradientUnits="userSpaceOnUse">
<stop stop-color="#C59541"/>
<stop offset="0.369792" stop-color="#FBDD78"/>
<stop offset="1" stop-color="#BE9042"/>
</linearGradient>
<linearGradient id="paint13_linear_294_5203" x1="407.774" y1="452.709" x2="465.441" y2="452.709" gradientUnits="userSpaceOnUse">
<stop stop-color="#C59541"/>
<stop offset="0.369792" stop-color="#FBDD78"/>
<stop offset="1" stop-color="#BE9042"/>
</linearGradient>
<linearGradient id="paint14_linear_294_5203" x1="445.059" y1="405.251" x2="605.363" y2="405.251" gradientUnits="userSpaceOnUse">
<stop stop-color="#C59541"/>
<stop offset="0.369792" stop-color="#FBDD78"/>
<stop offset="1" stop-color="#BE9042"/>
</linearGradient>
<linearGradient id="paint15_linear_294_5203" x1="234.045" y1="265.401" x2="263.718" y2="265.401" gradientUnits="userSpaceOnUse">
<stop stop-color="#C59541"/>
<stop offset="0.369792" stop-color="#FBDD78"/>
<stop offset="1" stop-color="#BE9042"/>
</linearGradient>
<linearGradient id="paint16_linear_294_5203" x1="292.655" y1="335.642" x2="315.574" y2="335.642" gradientUnits="userSpaceOnUse">
<stop stop-color="#C59541"/>
<stop offset="0.369792" stop-color="#FBDD78"/>
<stop offset="1" stop-color="#BE9042"/>
</linearGradient>
<linearGradient id="paint17_linear_294_5203" x1="378.334" y1="283.084" x2="543.639" y2="283.084" gradientUnits="userSpaceOnUse">
<stop stop-color="#C59541"/>
<stop offset="0.369792" stop-color="#FBDD78"/>
<stop offset="1" stop-color="#BE9042"/>
</linearGradient>
<linearGradient id="paint18_linear_294_5203" x1="318.197" y1="357.971" x2="454.491" y2="357.971" gradientUnits="userSpaceOnUse">
<stop stop-color="#C59541"/>
<stop offset="0.369792" stop-color="#FBDD78"/>
<stop offset="1" stop-color="#BE9042"/>
</linearGradient>
<linearGradient id="paint19_linear_294_5203" x1="199.427" y1="495.622" x2="530.702" y2="495.622" gradientUnits="userSpaceOnUse">
<stop stop-color="#C59541"/>
<stop offset="0.369792" stop-color="#FBDD78"/>
<stop offset="1" stop-color="#BE9042"/>
</linearGradient>
<linearGradient id="paint20_linear_294_5203" x1="408.5" y1="451.495" x2="521.553" y2="451.495" gradientUnits="userSpaceOnUse">
<stop stop-color="#C59541"/>
<stop offset="0.369792" stop-color="#FBDD78"/>
<stop offset="1" stop-color="#BE9042"/>
</linearGradient>
<linearGradient id="paint21_linear_294_5203" x1="464.309" y1="320.427" x2="482.764" y2="320.427" gradientUnits="userSpaceOnUse">
<stop stop-color="#C59541"/>
<stop offset="0.369792" stop-color="#FBDD78"/>
<stop offset="1" stop-color="#BE9042"/>
</linearGradient>
<linearGradient id="paint22_linear_294_5203" x1="167.139" y1="415.957" x2="214.163" y2="415.957" gradientUnits="userSpaceOnUse">
<stop stop-color="#C59541"/>
<stop offset="0.369792" stop-color="#FBDD78"/>
<stop offset="1" stop-color="#BE9042"/>
</linearGradient>
<linearGradient id="paint23_linear_294_5203" x1="312.753" y1="194.156" x2="340.133" y2="194.156" gradientUnits="userSpaceOnUse">
<stop stop-color="#C59541"/>
<stop offset="0.369792" stop-color="#FBDD78"/>
<stop offset="1" stop-color="#BE9042"/>
</linearGradient>
<linearGradient id="paint24_linear_294_5203" x1="340.996" y1="223.336" x2="355.621" y2="223.336" gradientUnits="userSpaceOnUse">
<stop stop-color="#C59541"/>
<stop offset="0.369792" stop-color="#FBDD78"/>
<stop offset="1" stop-color="#BE9042"/>
</linearGradient>
<linearGradient id="paint25_linear_294_5203" x1="368.009" y1="235.054" x2="383.174" y2="235.054" gradientUnits="userSpaceOnUse">
<stop stop-color="#C59541"/>
<stop offset="0.369792" stop-color="#FBDD78"/>
<stop offset="1" stop-color="#BE9042"/>
</linearGradient>
<linearGradient id="paint26_linear_294_5203" x1="220.013" y1="277.692" x2="233.068" y2="277.692" gradientUnits="userSpaceOnUse">
<stop stop-color="#C59541"/>
<stop offset="0.369792" stop-color="#FBDD78"/>
<stop offset="1" stop-color="#BE9042"/>
</linearGradient>
<linearGradient id="paint27_linear_294_5203" x1="196.811" y1="298.006" x2="215.635" y2="298.006" gradientUnits="userSpaceOnUse">
<stop stop-color="#C59541"/>
<stop offset="0.369792" stop-color="#FBDD78"/>
<stop offset="1" stop-color="#BE9042"/>
</linearGradient>
<linearGradient id="paint28_linear_294_5203" x1="174.921" y1="299.832" x2="191.921" y2="299.832" gradientUnits="userSpaceOnUse">
<stop stop-color="#C59541"/>
<stop offset="0.369792" stop-color="#FBDD78"/>
<stop offset="1" stop-color="#BE9042"/>
</linearGradient>
<linearGradient id="paint29_linear_294_5203" x1="229.977" y1="246.372" x2="239.547" y2="246.372" gradientUnits="userSpaceOnUse">
<stop stop-color="#C59541"/>
<stop offset="0.369792" stop-color="#FBDD78"/>
<stop offset="1" stop-color="#BE9042"/>
</linearGradient>
<linearGradient id="paint30_linear_294_5203" x1="291.177" y1="315.071" x2="362.531" y2="315.071" gradientUnits="userSpaceOnUse">
<stop stop-color="#C59541"/>
<stop offset="0.369792" stop-color="#FBDD78"/>
<stop offset="1" stop-color="#BE9042"/>
</linearGradient>
<linearGradient id="paint31_linear_294_5203" x1="226.558" y1="210.03" x2="343.095" y2="210.03" gradientUnits="userSpaceOnUse">
<stop stop-color="#C59541"/>
<stop offset="0.369792" stop-color="#FBDD78"/>
<stop offset="1" stop-color="#BE9042"/>
</linearGradient>
<linearGradient id="paint32_linear_294_5203" x1="262.366" y1="188.919" x2="333.029" y2="188.919" gradientUnits="userSpaceOnUse">
<stop stop-color="#C59541"/>
<stop offset="0.369792" stop-color="#FBDD78"/>
<stop offset="1" stop-color="#BE9042"/>
</linearGradient>
<linearGradient id="paint33_linear_294_5203" x1="-108.064" y1="477.775" x2="137.336" y2="477.775" gradientUnits="userSpaceOnUse">
<stop stop-color="#C59541"/>
<stop offset="0.369792" stop-color="#FBDD78"/>
<stop offset="1" stop-color="#BE9042"/>
</linearGradient>
<linearGradient id="paint34_linear_294_5203" x1="-8.12074" y1="476.617" x2="148.476" y2="476.617" gradientUnits="userSpaceOnUse">
<stop stop-color="#C59541"/>
<stop offset="0.369792" stop-color="#FBDD78"/>
<stop offset="1" stop-color="#BE9042"/>
</linearGradient>
<linearGradient id="paint35_linear_294_5203" x1="-83.393" y1="407.794" x2="122.473" y2="407.794" gradientUnits="userSpaceOnUse">
<stop stop-color="#C59541"/>
<stop offset="0.369792" stop-color="#FBDD78"/>
<stop offset="1" stop-color="#BE9042"/>
</linearGradient>
<linearGradient id="paint36_linear_294_5203" x1="-65.4511" y1="429.904" x2="130.834" y2="429.904" gradientUnits="userSpaceOnUse">
<stop stop-color="#C59541"/>
<stop offset="0.369792" stop-color="#FBDD78"/>
<stop offset="1" stop-color="#BE9042"/>
</linearGradient>
<linearGradient id="paint37_linear_294_5203" x1="10.6153" y1="487.336" x2="156.523" y2="487.336" gradientUnits="userSpaceOnUse">
<stop stop-color="#C59541"/>
<stop offset="0.369792" stop-color="#FBDD78"/>
<stop offset="1" stop-color="#BE9042"/>
</linearGradient>
<linearGradient id="paint38_linear_294_5203" x1="24.4314" y1="500.014" x2="160.481" y2="500.014" gradientUnits="userSpaceOnUse">
<stop stop-color="#C59541"/>
<stop offset="0.369792" stop-color="#FBDD78"/>
<stop offset="1" stop-color="#BE9042"/>
</linearGradient>
<linearGradient id="paint39_linear_294_5203" x1="39.3914" y1="502.18" x2="168.371" y2="502.18" gradientUnits="userSpaceOnUse">
<stop stop-color="#C59541"/>
<stop offset="0.369792" stop-color="#FBDD78"/>
<stop offset="1" stop-color="#BE9042"/>
</linearGradient>
<linearGradient id="paint40_linear_294_5203" x1="282.045" y1="342.59" x2="308.973" y2="342.59" gradientUnits="userSpaceOnUse">
<stop stop-color="#C59541"/>
<stop offset="0.369792" stop-color="#FBDD78"/>
<stop offset="1" stop-color="#BE9042"/>
</linearGradient>
<linearGradient id="paint41_linear_294_5203" x1="269.864" y1="350.502" x2="297.343" y2="350.502" gradientUnits="userSpaceOnUse">
<stop stop-color="#C59541"/>
<stop offset="0.369792" stop-color="#FBDD78"/>
<stop offset="1" stop-color="#BE9042"/>
</linearGradient>
<linearGradient id="paint42_linear_294_5203" x1="263.783" y1="362.763" x2="281.337" y2="362.763" gradientUnits="userSpaceOnUse">
<stop stop-color="#C59541"/>
<stop offset="0.369792" stop-color="#FBDD78"/>
<stop offset="1" stop-color="#BE9042"/>
</linearGradient>
<linearGradient id="paint43_linear_294_5203" x1="165.981" y1="291.064" x2="186.998" y2="291.064" gradientUnits="userSpaceOnUse">
<stop stop-color="#C59541"/>
<stop offset="0.369792" stop-color="#FBDD78"/>
<stop offset="1" stop-color="#BE9042"/>
</linearGradient>
<linearGradient id="paint44_linear_294_5203" x1="300.129" y1="312.35" x2="369.161" y2="312.35" gradientUnits="userSpaceOnUse">
<stop stop-color="#C59541"/>
<stop offset="0.369792" stop-color="#FBDD78"/>
<stop offset="1" stop-color="#BE9042"/>
</linearGradient>
<linearGradient id="paint45_linear_294_5203" x1="214.579" y1="388.527" x2="260.765" y2="388.527" gradientUnits="userSpaceOnUse">
<stop stop-color="#C59541"/>
<stop offset="0.369792" stop-color="#FBDD78"/>
<stop offset="1" stop-color="#BE9042"/>
</linearGradient>
<linearGradient id="paint46_linear_294_5203" x1="-56.0744" y1="284.214" x2="48.437" y2="284.214" gradientUnits="userSpaceOnUse">
<stop stop-color="#C59541"/>
<stop offset="0.369792" stop-color="#FBDD78"/>
<stop offset="1" stop-color="#BE9042"/>
</linearGradient>
<linearGradient id="paint47_linear_294_5203" x1="-55.0163" y1="299.494" x2="34.4724" y2="299.494" gradientUnits="userSpaceOnUse">
<stop stop-color="#C59541"/>
<stop offset="0.369792" stop-color="#FBDD78"/>
<stop offset="1" stop-color="#BE9042"/>
</linearGradient>
<linearGradient id="paint48_linear_294_5203" x1="-51.8983" y1="308.815" x2="15.8716" y2="308.815" gradientUnits="userSpaceOnUse">
<stop stop-color="#C59541"/>
<stop offset="0.369792" stop-color="#FBDD78"/>
<stop offset="1" stop-color="#BE9042"/>
</linearGradient>
<linearGradient id="paint49_linear_294_5203" x1="453.583" y1="492.159" x2="615.073" y2="492.159" gradientUnits="userSpaceOnUse">
<stop stop-color="#C59541"/>
<stop offset="0.369792" stop-color="#FBDD78"/>
<stop offset="1" stop-color="#BE9042"/>
</linearGradient>
<linearGradient id="paint50_linear_294_5203" x1="246.502" y1="432.475" x2="376.408" y2="432.475" gradientUnits="userSpaceOnUse">
<stop stop-color="#C59541"/>
<stop offset="0.369792" stop-color="#FBDD78"/>
<stop offset="1" stop-color="#BE9042"/>
</linearGradient>
<linearGradient id="paint51_linear_294_5203" x1="258.969" y1="424.985" x2="388.124" y2="424.985" gradientUnits="userSpaceOnUse">
<stop stop-color="#C59541"/>
<stop offset="0.369792" stop-color="#FBDD78"/>
<stop offset="1" stop-color="#BE9042"/>
</linearGradient>
<linearGradient id="paint52_linear_294_5203" x1="267.779" y1="418.462" x2="403.294" y2="418.462" gradientUnits="userSpaceOnUse">
<stop stop-color="#C59541"/>
<stop offset="0.369792" stop-color="#FBDD78"/>
<stop offset="1" stop-color="#BE9042"/>
</linearGradient>
<linearGradient id="paint53_linear_294_5203" x1="91.4934" y1="453.465" x2="255.251" y2="453.465" gradientUnits="userSpaceOnUse">
<stop stop-color="#C59541"/>
<stop offset="0.369792" stop-color="#FBDD78"/>
<stop offset="1" stop-color="#BE9042"/>
</linearGradient>
<linearGradient id="paint54_linear_294_5203" x1="-121.772" y1="364.102" x2="619.834" y2="364.102" gradientUnits="userSpaceOnUse">
<stop stop-color="#C59541"/>
<stop offset="0.369792" stop-color="#FBDD78"/>
<stop offset="1" stop-color="#BE9042"/>
</linearGradient>
</defs>
</svg>
