<svg width="130" height="98" viewBox="0 0 130 98" fill="none" xmlns="http://www.w3.org/2000/svg">
    <path d="M0.99898 73.5682H2.47498L5.64298 82.5682L9.40498 72.9562L12.969 82.5682L16.479 73.5682H17.955L12.915 86.2042L9.38698 76.5922L5.60698 86.2042L0.99898 73.5682ZM25.6888 85.5742L24.2848 82.1902H19.1728L17.7328 85.5742H16.2568L21.7828 72.9922L27.1648 85.5742H25.6888ZM19.6948 80.9302H23.7628L21.7468 76.1242L19.6948 80.9302ZM28.8581 73.5682H30.1901V84.3142H33.5021V85.5742H28.8581V73.5682ZM36.6412 73.5682V78.7162L41.7532 73.5682H43.5532L37.9372 79.1662L43.7332 85.5742H41.8972L36.9832 80.0662L36.6412 80.4082V85.5742H35.3092V73.5682H36.6412ZM44.7117 82.4062V81.0742H48.6717V82.4062H44.7117ZM50.9362 73.5682H52.2682V85.5742H50.9362V73.5682ZM56.6979 85.5742H55.3659V73.0642L64.7259 82.8742V73.5682H66.0579V86.1142L56.6979 76.3042V85.5742ZM82.5283 74.5582V76.2142C82.0483 75.7342 81.5263 75.3622 80.9623 75.0982C80.2783 74.7862 79.5883 74.6302 78.8923 74.6302C77.5123 74.6302 76.3603 75.1162 75.4363 76.0882C74.5243 77.0482 74.0683 78.2302 74.0683 79.6342C74.0683 81.1462 74.5663 82.3402 75.5623 83.2162C76.5703 84.0922 77.6863 84.5302 78.9103 84.5302C79.6783 84.5302 80.4223 84.3442 81.1423 83.9722C81.6463 83.7202 82.1083 83.3842 82.5283 82.9642V84.6202C81.4363 85.4002 80.2303 85.7902 78.9103 85.7902C77.1343 85.7902 75.6523 85.1962 74.4643 84.0082C73.2883 82.8202 72.7003 81.3562 72.7003 79.6162C72.7003 77.8282 73.2943 76.3402 74.4823 75.1522C75.6823 73.9642 77.1823 73.3702 78.9823 73.3702C80.3023 73.3702 81.4843 73.7662 82.5283 74.5582ZM84.985 73.5682H86.317V84.3142H89.629V85.5742H84.985V73.5682ZM100.847 84.0082C99.6469 85.1962 98.1709 85.7902 96.4189 85.7902C94.6669 85.7902 93.1849 85.1962 91.9729 84.0082C90.7729 82.8202 90.1729 81.3442 90.1729 79.5802C90.1729 77.8042 90.7789 76.3282 91.9909 75.1522C93.2029 73.9642 94.6789 73.3702 96.4189 73.3702C98.1589 73.3702 99.6349 73.9642 100.847 75.1522C102.059 76.3282 102.665 77.8042 102.665 79.5802C102.665 81.3442 102.059 82.8202 100.847 84.0082ZM99.875 76.0702C98.927 75.1102 97.7749 74.6302 96.4189 74.6302C95.0629 74.6302 93.9109 75.1102 92.9629 76.0702C92.0149 77.0302 91.5409 78.2002 91.5409 79.5802C91.5409 80.9602 92.0149 82.1302 92.9629 83.0902C93.9109 84.0502 95.0629 84.5302 96.4189 84.5302C97.7749 84.5302 98.927 84.0502 99.875 83.0902C100.823 82.1302 101.297 80.9602 101.297 79.5802C101.297 78.2002 100.823 77.0302 99.875 76.0702ZM111.538 75.2422L110.476 75.9442C110.284 75.5722 110.05 75.2722 109.774 75.0442C109.414 74.7682 108.964 74.6302 108.424 74.6302C107.824 74.6302 107.338 74.8042 106.966 75.1522C106.594 75.4882 106.408 75.9322 106.408 76.4842C106.408 76.8922 106.558 77.2402 106.858 77.5282C107.098 77.7682 107.518 78.0202 108.118 78.2842L109.27 78.7882C110.122 79.1602 110.74 79.5382 111.124 79.9222C111.7 80.4982 111.988 81.2242 111.988 82.1002C111.988 83.1922 111.628 84.0802 110.908 84.7642C110.188 85.4482 109.282 85.7902 108.19 85.7902C107.11 85.7902 106.24 85.4662 105.58 84.8182C105.04 84.2902 104.668 83.5822 104.464 82.6942L105.76 82.3342C105.844 82.9342 106.084 83.4442 106.48 83.8642C106.924 84.3082 107.5 84.5302 108.208 84.5302C108.976 84.5302 109.57 84.3022 109.99 83.8462C110.41 83.3782 110.62 82.8142 110.62 82.1542C110.62 81.5782 110.422 81.1102 110.026 80.7502C109.798 80.5342 109.318 80.2582 108.586 79.9222L107.506 79.4182C106.774 79.0822 106.24 78.7522 105.904 78.4282C105.352 77.9002 105.076 77.2462 105.076 76.4662C105.076 75.5422 105.388 74.7982 106.012 74.2342C106.648 73.6582 107.458 73.3702 108.442 73.3702C109.186 73.3702 109.828 73.5502 110.368 73.9102C110.86 74.2342 111.25 74.6782 111.538 75.2422ZM120.656 73.5682V74.8282H115.76V78.3922H120.512V79.6522H115.76V84.3142H120.656V85.5742H114.428V73.5682H120.656ZM128.98 74.8282H126.064V85.5742H124.732V74.8282H121.816V73.5682H128.98V74.8282Z" fill="#1A2714"/>
    <path fill-rule="evenodd" clip-rule="evenodd" d="M86.7749 0.578125H43.7607V0.582031H43.7051V54.3105H86.7749V0.578125ZM85.7749 53.3105V1.57812H44.7051V53.3105H85.7749Z" fill="black"/>
    <path d="M70.1315 11.7779L65.491 9.50296V7.98148L65.6887 7.96035C68.1143 7.70115 68.3375 4.25706 65.9657 3.68692V3.68692C65.9241 3.67693 65.8815 3.67188 65.8387 3.67188H64.6292C63.1122 3.67188 62.1224 5.26453 62.7941 6.62474V6.62474" stroke="black"/>
    <path d="M63.7511 9.85156L60.541 11.4215" stroke="black"/>
    <path d="M57.0552 27.0703H73.9197" stroke="black"/>
    <path d="M54.445 14.7193C55.2284 13.3364 56.2667 11.7954 56.7672 11.0682C56.9512 10.8009 57.2548 10.6445 57.5793 10.6445H59.2671C59.8236 10.6445 60.2673 11.1057 60.4173 11.6416C61.244 14.5953 65.5481 17.7664 68.1108 20.3291L70.6483 11.372C70.7703 10.9416 71.1632 10.6445 71.6105 10.6445H73.6189C73.6879 10.6445 73.7522 10.6795 73.7897 10.7374C75.503 13.3863 76.966 16.1888 78.1598 19.1088L81.792 27.9928C81.9247 28.3175 81.7594 28.6872 81.429 28.8049L77.3685 30.2505C76.8249 30.444 76.2307 30.1386 76.0718 29.5839L73.7296 21.4112L75.3269 51.2489H55.6L57.1368 21.4112L54.7363 29.6124C54.5772 30.1561 53.9985 30.4591 53.461 30.2803L49.3703 28.9196C48.829 28.7396 48.5469 28.1456 48.7541 27.6141C50.2628 23.7422 52.6628 17.8653 54.445 14.7193Z" stroke="black"/>
    <path d="M66.4106 18.75L71.2076 23.4259V51.1138" stroke="black"/>
</svg>
