<svg width="128" height="87" viewBox="0 0 128 87" fill="none" xmlns="http://www.w3.org/2000/svg">
<path d="M-0.000732422 73.944H1.47527L4.64327 82.944L8.40527 73.332L11.9693 82.944L15.4793 73.944H16.9553L11.9153 86.58L8.38727 76.968L4.60727 86.58L-0.000732422 73.944Z" fill="#1A2714"/>
<path d="M24.6891 85.95L23.2851 82.566H18.1731L16.7331 85.95H15.2571L20.7831 73.368L26.1651 85.95H24.6891ZM18.6951 81.306H22.7631L20.7471 76.5L18.6951 81.306Z" fill="#1A2714"/>
<path d="M27.8583 73.944H29.1903V84.69H32.5023V85.95H27.8583V73.944Z" fill="#1A2714"/>
<path d="M35.6415 73.944V79.092L40.7535 73.944H42.5535L36.9375 79.542L42.7335 85.95H40.8975L35.9835 80.442L35.6415 80.784V85.95H34.3095V73.944H35.6415Z" fill="#1A2714"/>
<path d="M43.712 82.782V81.45H47.672V82.782H43.712Z" fill="#1A2714"/>
<path d="M49.9365 73.944H51.2685V85.95H49.9365V73.944Z" fill="#1A2714"/>
<path d="M55.6982 85.95H54.3662V73.44L63.7262 83.25V73.944H65.0582V86.49L55.6982 76.68V85.95Z" fill="#1A2714"/>
<path d="M81.5286 74.934V76.59C81.0486 76.11 80.5266 75.738 79.9626 75.474C79.2786 75.162 78.5886 75.006 77.8926 75.006C76.5126 75.006 75.3606 75.492 74.4366 76.464C73.5246 77.424 73.0686 78.606 73.0686 80.01C73.0686 81.522 73.5666 82.716 74.5626 83.592C75.5706 84.468 76.6866 84.906 77.9106 84.906C78.6786 84.906 79.4226 84.72 80.1426 84.348C80.6466 84.096 81.1086 83.76 81.5286 83.34V84.996C80.4366 85.776 79.2306 86.166 77.9106 86.166C76.1346 86.166 74.6526 85.572 73.4646 84.384C72.2886 83.196 71.7006 81.732 71.7006 79.992C71.7006 78.204 72.2946 76.716 73.4826 75.528C74.6826 74.34 76.1826 73.746 77.9826 73.746C79.3026 73.746 80.4846 74.142 81.5286 74.934Z" fill="#1A2714"/>
<path d="M83.9853 73.944H85.3173V84.69H88.6293V85.95H83.9853V73.944Z" fill="#1A2714"/>
<path d="M99.8472 84.384C98.6472 85.572 97.1712 86.166 95.4192 86.166C93.6672 86.166 92.1852 85.572 90.9732 84.384C89.7732 83.196 89.1732 81.72 89.1732 79.956C89.1732 78.18 89.7792 76.704 90.9912 75.528C92.2032 74.34 93.6792 73.746 95.4192 73.746C97.1592 73.746 98.6352 74.34 99.8472 75.528C101.059 76.704 101.665 78.18 101.665 79.956C101.665 81.72 101.059 83.196 99.8472 84.384ZM98.8752 76.446C97.9272 75.486 96.7752 75.006 95.4192 75.006C94.0632 75.006 92.9112 75.486 91.9632 76.446C91.0152 77.406 90.5412 78.576 90.5412 79.956C90.5412 81.336 91.0152 82.506 91.9632 83.466C92.9112 84.426 94.0632 84.906 95.4192 84.906C96.7752 84.906 97.9272 84.426 98.8752 83.466C99.8232 82.506 100.297 81.336 100.297 79.956C100.297 78.576 99.8232 77.406 98.8752 76.446Z" fill="#1A2714"/>
<path d="M110.538 75.618L109.476 76.32C109.284 75.948 109.05 75.648 108.774 75.42C108.414 75.144 107.964 75.006 107.424 75.006C106.824 75.006 106.338 75.18 105.966 75.528C105.594 75.864 105.408 76.308 105.408 76.86C105.408 77.268 105.558 77.616 105.858 77.904C106.098 78.144 106.518 78.396 107.118 78.66L108.27 79.164C109.122 79.536 109.74 79.914 110.124 80.298C110.7 80.874 110.988 81.6 110.988 82.476C110.988 83.568 110.628 84.456 109.908 85.14C109.188 85.824 108.282 86.166 107.19 86.166C106.11 86.166 105.24 85.842 104.58 85.194C104.04 84.666 103.668 83.958 103.464 83.07L104.76 82.71C104.844 83.31 105.084 83.82 105.48 84.24C105.924 84.684 106.5 84.906 107.208 84.906C107.976 84.906 108.57 84.678 108.99 84.222C109.41 83.754 109.62 83.19 109.62 82.53C109.62 81.954 109.422 81.486 109.026 81.126C108.798 80.91 108.318 80.634 107.586 80.298L106.506 79.794C105.774 79.458 105.24 79.128 104.904 78.804C104.352 78.276 104.076 77.622 104.076 76.842C104.076 75.918 104.388 75.174 105.012 74.61C105.648 74.034 106.458 73.746 107.442 73.746C108.186 73.746 108.828 73.926 109.368 74.286C109.86 74.61 110.25 75.054 110.538 75.618Z" fill="#1A2714"/>
<path d="M119.657 73.944V75.204H114.761V78.768H119.513V80.028H114.761V84.69H119.657V85.95H113.429V73.944H119.657Z" fill="#1A2714"/>
<path d="M127.98 75.204H125.064V85.95H123.732V75.204H120.816V73.944H127.98V75.204Z" fill="#1A2714"/>
<path fill-rule="evenodd" clip-rule="evenodd" d="M85.7751 0.953125H42.761V0.957031H42.7053V54.6855H85.7751V0.953125ZM84.7751 53.6855V1.95312H43.7053V53.6855H84.7751Z" fill="black"/>
<path d="M69.1317 12.1509L64.4912 9.87601V8.35453L64.689 8.3334C67.1145 8.0742 67.3378 4.63011 64.9659 4.05997V4.05997C64.9243 4.04997 64.8817 4.04492 64.839 4.04492H63.6295C62.1124 4.04492 61.1227 5.63757 61.7944 6.99778V6.99778" stroke="black"/>
<path d="M62.7514 10.2285L59.5413 11.7985" stroke="black"/>
<path d="M56.0554 27.4453H72.9199" stroke="black"/>
<path d="M53.4452 15.0943C54.2286 13.7114 55.2669 12.1704 55.7675 11.4432C55.9515 11.1759 56.2551 11.0195 56.5796 11.0195H58.2674C58.8238 11.0195 59.2676 11.4807 59.4175 12.0166C60.2443 14.9703 64.5483 18.1414 67.1111 20.7041L69.6486 11.747C69.7705 11.3166 70.1634 11.0195 70.6107 11.0195H72.6192C72.6882 11.0195 72.7525 11.0545 72.7899 11.1124C74.5032 13.7613 75.9662 16.5638 77.16 19.4838L80.7922 28.3678C80.925 28.6925 80.7597 29.0622 80.4293 29.1799L76.3687 30.6255C75.8251 30.819 75.231 30.5136 75.072 29.9589L72.7298 21.7862L74.3272 51.6239H54.6002L56.1371 21.7862L53.7366 29.9874C53.5774 30.5311 52.9988 30.8341 52.4612 30.6553L48.3705 29.2946C47.8293 29.1146 47.5472 28.5206 47.7543 27.9891C49.2631 24.1172 51.663 18.2403 53.4452 15.0943Z" stroke="black"/>
<path d="M65.4109 19.125L70.2078 23.8009V51.4888" stroke="black"/>
</svg>
