<svg width="105" height="97" viewBox="0 0 105 97" fill="none" xmlns="http://www.w3.org/2000/svg">
    <path d="M1.75869 72.5682H3.93669C5.30469 72.5682 6.31269 72.8502 6.96069 73.4142C7.69269 74.0382 8.05869 74.8962 8.05869 75.9882C8.05869 76.9242 7.74069 77.7222 7.10469 78.3822C6.48069 79.0302 5.53269 79.3542 4.26069 79.3542H3.09069V84.5742H1.75869V72.5682ZM3.09069 73.8282V78.0942H4.18869C4.98069 78.0942 5.59869 77.9022 6.04269 77.5182C6.49869 77.1342 6.72669 76.6002 6.72669 75.9162C6.72669 74.5242 5.84469 73.8282 4.08069 73.8282H3.09069ZM9.96768 72.5682H11.8937C13.1897 72.5682 14.1617 72.7902 14.8097 73.2342C15.6857 73.8222 16.1237 74.7102 16.1237 75.8982C16.1237 76.8222 15.8417 77.5902 15.2777 78.2022C14.7257 78.8142 13.9997 79.1502 13.0997 79.2102L16.9157 84.5742H15.2957L11.6417 79.3182H11.2997V84.5742H9.96768V72.5682ZM11.2997 73.8282V78.1302H12.1457C12.9737 78.1302 13.6217 77.9382 14.0897 77.5542C14.5577 77.1702 14.7917 76.6302 14.7917 75.9342C14.7917 75.1182 14.4737 74.5302 13.8377 74.1702C13.4297 73.9422 12.8537 73.8282 12.1097 73.8282H11.2997ZM19.0028 72.5682H20.3348V84.5742H19.0028V72.5682ZM22.0285 72.5682H23.5045L26.8885 81.7302L30.2725 72.5682H31.7485L26.8885 85.2942L22.0285 72.5682ZM39.6871 84.5742L38.2831 81.1902H33.1711L31.7311 84.5742H30.2551L35.7811 71.9922L41.1631 84.5742H39.6871ZM33.6931 79.9302H37.7611L35.7451 75.1242L33.6931 79.9302ZM48.5134 73.8282H45.5974V84.5742H44.2654V73.8282H41.3494V72.5682H48.5134V73.8282ZM56.5375 72.5682V73.8282H51.6415V77.3922H56.3935V78.6522H51.6415V83.3142H56.5375V84.5742H50.3095V72.5682H56.5375ZM63.1942 84.5742V72.5682H65.6422C67.4902 72.5682 68.9662 73.0362 70.0702 73.9722C71.4382 75.1122 72.1222 76.6482 72.1222 78.5802C72.1222 80.4522 71.4202 81.9882 70.0162 83.1882C69.4402 83.6802 68.8222 84.0342 68.1622 84.2502C67.5022 84.4662 66.6562 84.5742 65.6242 84.5742H63.1942ZM64.5262 73.8282V83.3142H65.6962C67.1242 83.3142 68.2702 82.9542 69.1342 82.2342C70.2142 81.3222 70.7542 80.1042 70.7542 78.5802C70.7542 77.1402 70.2922 75.9882 69.3682 75.1242C68.4442 74.2602 67.2202 73.8282 65.6962 73.8282H64.5262ZM80.7953 72.5682V73.8282H75.8993V77.3922H80.6513V78.6522H75.8993V83.3142H80.7953V84.5742H74.5673V72.5682H80.7953ZM92.4309 73.5582V75.2142C91.9509 74.7342 91.4289 74.3622 90.8649 74.0982C90.1809 73.7862 89.4909 73.6302 88.7949 73.6302C87.4149 73.6302 86.2629 74.1162 85.3389 75.0882C84.4269 76.0482 83.9709 77.2302 83.9709 78.6342C83.9709 80.1462 84.4689 81.3402 85.4649 82.2162C86.4729 83.0922 87.5889 83.5302 88.8129 83.5302C89.5809 83.5302 90.3249 83.3442 91.0449 82.9722C91.5489 82.7202 92.0109 82.3842 92.4309 81.9642V83.6202C91.3389 84.4002 90.1329 84.7902 88.8129 84.7902C87.0369 84.7902 85.5549 84.1962 84.3669 83.0082C83.1909 81.8202 82.6029 80.3562 82.6029 78.6162C82.6029 76.8282 83.1969 75.3402 84.3849 74.1522C85.5849 72.9642 87.0849 72.3702 88.8849 72.3702C90.2049 72.3702 91.3869 72.7662 92.4309 73.5582ZM96.2196 72.5682V77.7162L101.332 72.5682H103.132L97.5156 78.1662L103.312 84.5742H101.476L96.5616 79.0662L96.2196 79.4082V84.5742H94.8876V72.5682H96.2196Z" fill="#313D2D"/>
    <path fill-rule="evenodd" clip-rule="evenodd" d="M20.5915 14.423C20.4226 14.4435 20.2538 14.4641 20.0855 14.4878L20.0882 14.4896C19.2931 14.6021 19.0912 14.3514 19.3586 13.5713L19.6493 13.2277C21.2072 12.3811 22.774 11.5522 24.3525 10.7454C24.6001 10.6382 24.8484 10.5321 25.0967 10.4261L25.0978 10.4256L25.0996 10.4248C25.5638 10.2265 26.0286 10.028 26.4892 9.82178C26.9062 9.65548 27.3235 9.48732 27.7401 9.31946L27.7411 9.31906C28.422 9.0447 29.1031 8.77026 29.787 8.50228H29.7888L31.8353 7.89328C34.7779 7.01764 37.7209 6.14188 40.6632 5.26554H40.665C41.7447 5.03388 42.8242 4.80245 43.9036 4.57101L43.9081 4.57005C44.9894 4.33821 46.0707 4.10638 47.1522 3.87432C48.0794 3.71201 48.9965 3.56235 49.9312 3.40983C50.5009 3.31687 51.0771 3.22284 51.666 3.12425C51.6759 3.12247 51.6839 3.11362 51.6839 3.10299C51.6837 2.89969 51.6791 2.70043 51.6745 2.50464C51.6632 2.01911 51.6524 1.55404 51.71 1.09719C51.7145 1.06265 51.7234 1.02811 51.736 0.994462C51.9011 0.544595 52.5679 0.558764 52.7339 1.00863C52.7482 1.04848 52.759 1.08922 52.7644 1.13084C52.8195 1.56363 52.8089 2.00523 52.7979 2.46589C52.7933 2.65844 52.7886 2.85433 52.7886 3.05429C52.7886 3.06403 52.7958 3.07288 52.8057 3.07465C55.916 3.67153 58.9868 4.26131 62.0567 4.8511C63.3068 5.17494 64.5593 5.492 65.8113 5.80895C66.5688 6.00069 67.3266 6.19254 68.0835 6.38578L68.8957 6.61869C70.464 7.11962 72.0333 7.62056 73.6025 8.1215L73.6302 8.13035C74.5396 8.46383 75.4422 8.81617 76.3447 9.16844C76.7841 9.34 77.2238 9.51161 77.664 9.68097C79.1886 10.3575 80.7025 11.0589 82.2047 11.7842C82.6942 12.0804 83.1824 12.3755 83.6706 12.6706C84.1588 12.9658 84.6469 13.2609 85.1365 13.5571L85.158 13.573C85.1631 13.889 85.1649 14.0308 85.1689 14.3271L85.169 14.3318L85.1697 14.3842L84.4643 14.5436C84.3819 14.5251 84.2992 14.5069 84.2163 14.4886L84.0946 14.4617L84.0129 14.4435H84.0111C83.7607 14.407 83.5104 14.3698 83.2601 14.3327C82.8064 14.2652 82.3527 14.1978 81.8987 14.1345C81.2996 14.0633 80.6989 14.0055 80.0982 13.9478C79.9296 13.9316 79.761 13.9154 79.5924 13.8989C79.0567 13.8757 78.5209 13.8462 77.9852 13.8168C76.7424 13.7484 75.4997 13.68 74.2575 13.6899C72.8386 13.7363 71.4204 13.8719 70.0015 14.0076C68.7382 14.1283 67.4743 14.2492 66.2089 14.3072C63.4288 14.4032 60.6516 14.1889 57.8753 13.9746C56.351 13.857 54.827 13.7393 53.3028 13.6731C53.1944 13.6658 53.0833 13.6944 52.9776 13.7217C52.9294 13.7341 52.8823 13.7463 52.8371 13.7546V32.5463C52.8371 32.5578 52.8461 32.5666 52.8577 32.5666H66.2149C66.4105 32.5666 66.5669 32.7255 66.5669 32.9211V33.3522C66.5669 33.5477 66.4104 33.7074 66.2149 33.7028L65.8308 33.7023C65.806 33.7017 65.7788 33.7012 65.7527 33.7012C61.2437 33.7012 57.2832 33.7003 52.7905 33.6993L52.2064 33.6992C47.8348 33.6983 42.8876 33.6974 38.4691 33.6973C38.1692 33.6973 37.9264 33.4541 37.9264 33.1542C37.9264 32.8541 38.1696 32.611 38.4697 32.6111L51.6005 32.6162C51.6122 32.6162 51.6211 32.6074 51.6211 32.5959V13.5429C51.6211 13.5305 51.6113 13.5226 51.5996 13.5226C50.5824 13.594 49.5691 13.6489 48.5609 13.7035C46.2186 13.8305 43.9016 13.956 41.6145 14.2841C40.1588 14.4928 38.7449 14.3355 37.3353 14.1787C36.2621 14.0593 35.1915 13.9402 34.107 13.983C33.4816 14.008 32.8514 13.9202 32.2214 13.8325C31.9357 13.7927 31.6499 13.7529 31.3646 13.7236H31.3628C31.1371 13.7209 30.9114 13.718 30.6857 13.7152C30.4601 13.7123 30.2344 13.7094 30.0087 13.7068L24.0303 13.9715L23.9897 13.9756C23.5725 14.0177 23.1544 14.0598 22.7381 14.1044L22.2446 14.1876C22.1285 14.2014 22.0125 14.215 21.8965 14.2286C21.7668 14.2438 21.6372 14.259 21.5078 14.2744L20.8411 14.3922C20.7579 14.4027 20.6747 14.4128 20.5915 14.423ZM56.4917 4.86981C56.4811 4.89863 56.4714 4.92829 56.4617 4.95796L56.7326 5.10791C59.7065 7.2377 62.2928 9.76244 64.4895 12.6609C64.9176 13.2259 65.3241 13.4065 66.0097 13.2914C71.1894 12.4041 76.4202 12.4909 81.6331 12.9611C81.6555 12.9638 81.6645 12.9337 81.6448 12.923C73.8358 8.84411 65.4776 6.5195 56.8699 4.95294C56.799 4.93757 56.7282 4.92192 56.6575 4.9063L56.6564 4.90605L56.4917 4.86981ZM63.6092 13.1639C60.5151 9.66237 57.6928 6.49471 53.4132 4.55089C52.6154 4.19135 51.8769 4.18515 51.0701 4.54469C47.3021 6.16703 44.5387 9.13942 41.8149 12.0691C41.5398 12.365 41.2652 12.6604 40.9899 12.954L41.111 13.1896C48.5162 12.3793 55.9277 12.4147 63.5922 13.1976C63.6101 13.1993 63.6218 13.1781 63.6092 13.1639ZM47.7987 4.90723C47.7134 4.92465 47.6546 4.93668 47.5955 4.94851C39.0578 6.52039 30.7535 8.79541 23.019 12.807C22.9993 12.8168 23.0082 12.8469 23.0298 12.846C28.1996 12.6078 33.3415 12.3837 38.4718 13.2613C38.8568 13.3224 39.4733 13.2268 39.6743 12.97C42.0048 9.98915 44.6431 7.32625 47.7364 5.11057H47.7382C47.7746 5.08864 47.811 5.06638 47.8642 5.03388C47.9355 4.99026 48.037 4.92818 48.2093 4.82365C48.0173 4.86255 47.8922 4.88813 47.7987 4.90723Z" fill="#252525"/>
    <path fill-rule="evenodd" clip-rule="evenodd" d="M31.4329 29.713C31.8028 31.1025 32.1725 32.4913 32.4818 33.8666L32.5438 34.2598C32.6636 34.7251 32.7848 35.1905 32.9059 35.6557L32.9063 35.6574C33.2848 37.1108 34.0916 39.7316 34.4321 41.1936C34.442 41.2361 34.4438 41.2803 34.4384 41.3264C34.3863 41.8081 33.7079 41.9897 33.4701 41.5664C33.4558 41.5407 33.4441 41.5141 33.4369 41.4867C32.9997 39.8376 32.1675 37.0123 31.7636 35.3542C31.6462 34.8722 31.5286 34.3891 31.4104 33.9074C30.9327 32.0709 30.4555 30.2344 29.9807 28.4072L29.3168 25.8523H21.1605C21.8286 28.9845 22.6357 32.1074 23.4431 35.2316C24.0403 37.5422 24.6376 39.8535 25.179 42.1697C25.3105 42.7042 25.61 42.7 25.9699 42.695L26.0082 42.6944L26.0364 42.6941L26.0773 42.694C27.1974 42.6935 28.3178 42.6943 29.438 42.6952C32.3509 42.6975 35.264 42.6998 38.1766 42.678C38.7168 42.6736 39.1951 43.019 39.3558 43.5282C40.3608 46.7118 41.4099 49.8821 42.4589 53.0515C42.5463 53.3156 42.6044 53.4512 42.7176 53.6874C43.7095 53.716 44.7753 53.7081 45.8225 53.7004C46.2998 53.6968 46.7731 53.6934 47.2338 53.6934L47.2336 52.9669C47.2334 52.5166 47.2333 52.0922 47.2338 51.6948C47.2356 50.6198 47.2949 50.5587 48.3645 50.5569C49.0928 50.5557 49.8212 50.5561 50.5479 50.5565H50.552C50.9154 50.5567 51.2784 50.5569 51.6409 50.5569V37.2991C50.6876 37.2981 49.7364 37.2995 48.7866 37.3009C46.4292 37.3043 45.9287 37.3078 43.5652 37.2743C43.5339 37.2743 42.8726 37.2743 42.3867 37.2742C42.104 37.2741 41.8761 37.0457 41.8761 36.763C41.8761 36.4737 42.1146 36.2359 42.4038 36.2363C42.8904 36.2369 43.5414 36.2373 43.5733 36.2373L44.9966 36.237C50.6845 36.2362 56.3721 36.2354 62.0595 36.2559C62.3467 36.2569 62.5789 36.49 62.5789 36.7772C62.5789 37.0653 62.3452 37.2988 62.0571 37.2986C59.9265 37.2973 57.8049 37.2976 55.6775 37.2979L52.8326 37.2982V50.5587C53.1906 50.5587 53.5461 50.5603 53.8986 50.5619C54.7305 50.5658 55.5494 50.5696 56.3674 50.5516C56.86 50.541 57.2585 50.9368 57.2423 51.423C57.2261 51.9171 57.2298 52.439 57.2336 52.9762V52.9783C57.2352 53.2151 57.2369 53.4554 57.2369 53.6973C58.7068 53.6973 61.7684 53.6934 61.7684 53.6934C61.7684 53.6934 61.9338 53.2897 62.0074 53.0675C63.0609 49.8945 64.1037 46.7189 65.1123 43.5317C65.3088 42.9109 65.5969 42.6754 66.2807 42.6807C68.1757 42.6962 70.071 42.6958 71.9664 42.6955C74.0752 42.695 76.1839 42.6946 78.2921 42.7161C78.9966 42.7232 79.2344 42.4752 79.3869 41.8553C79.9849 39.4175 80.5979 36.9883 81.211 34.5592L81.2114 34.5575C81.9433 31.6575 82.6751 28.7577 83.3812 25.8434H75.1396C74.7101 27.5315 74.289 29.2122 73.869 30.8885L73.8685 30.8904L73.8682 30.8916C73.0837 34.0226 72.3024 37.1411 71.4738 40.2772C71.4657 40.3065 71.4541 40.3339 71.4388 40.3605C71.1983 40.7803 70.5091 40.5978 70.4733 40.1179C70.4697 40.0718 70.4715 40.0266 70.4795 39.9824C71.1816 36.9252 71.9568 33.8815 72.7317 30.839L72.7328 30.8345C73.2302 28.8818 73.7275 26.9292 74.2054 24.9729L74.1588 24.9269L74.209 24.9694C74.32 24.9437 74.4313 24.9114 74.5423 24.879C74.784 24.8087 75.0258 24.7383 75.268 24.7365C77.6512 24.719 80.035 24.7181 82.4185 24.7171C83.0541 24.7169 83.6897 24.7167 84.3252 24.7161C84.3566 24.7666 84.4015 24.7843 84.4589 24.7701C84.4953 24.8241 84.5318 24.8782 84.5684 24.9322L84.5724 24.938L84.573 24.9389L84.6171 25.0041L84.6779 25.0942V25.1022C84.5962 25.6229 84.5154 26.1365 84.4329 26.6573C84.1282 27.673 83.8561 28.6982 83.5841 29.7229C83.5069 30.0141 83.4296 30.3053 83.3516 30.5963L83.2412 31.1444C83.1026 31.6795 82.9599 32.2136 82.8172 32.7477L82.8163 32.7515C82.332 34.565 81.8476 36.3786 81.5227 38.2281L81.4243 38.6538C81.3026 39.0773 81.3 39.1439 81.1774 39.5672L81.1753 39.5745C80.9735 40.2719 80.7716 40.9692 80.5733 41.6676C80.5412 41.8639 80.4922 42.0638 80.4432 42.2629C80.3347 42.705 80.2262 43.1467 80.3023 43.5556C80.4285 44.2391 80.6801 44.9002 80.9315 45.5612C81.0375 45.8397 81.1435 46.1182 81.24 46.3983L81.4877 47.0518C81.5433 47.2546 81.5999 47.4574 81.6573 47.6602V47.6673C81.9688 48.6192 82.2808 49.5789 82.5929 50.539L82.5953 50.5464L82.5982 50.5553C82.9388 51.6031 83.2796 52.6512 83.62 53.69L83.681 53.6901C83.7233 53.6901 83.7674 53.6901 83.82 53.69L83.9304 53.6896L84.0228 53.6891C84.0228 53.6891 84.1897 53.6874 84.2741 53.6874C85.3929 53.6864 86.5116 53.687 87.6302 53.6875C89.6098 53.6884 91.5893 53.6894 93.5691 53.6821H93.8563V54.6606H10.5652L10.5652 53.6874C11.8776 53.6881 13.2181 53.6873 14.5647 53.6865C16.6543 53.6852 18.7587 53.6839 20.7953 53.6883L20.8177 53.6723C20.8891 53.4651 20.9602 53.2576 21.0313 53.0502C21.1024 52.8428 21.1735 52.6353 21.2449 52.4281L21.7375 50.8562L22.494 48.6334C22.5743 48.37 22.6549 48.1063 22.7354 47.8426C22.816 47.579 22.8965 47.3153 22.9768 47.0518C23.0993 46.6972 23.2216 46.3425 23.3438 45.9878C23.4661 45.6331 23.5884 45.2785 23.7109 44.9238C23.7538 44.8062 23.7987 44.6897 23.8435 44.5736C24.1218 43.8524 24.3939 43.1473 24.1326 42.2937C23.8387 41.334 23.6013 40.3581 23.3638 39.3819C23.2011 38.7132 23.0384 38.0444 22.8575 37.3806C22.3912 35.563 21.9168 33.6965 21.4423 31.8293C20.9221 29.7827 20.4017 27.7352 19.8916 25.7504C19.783 25.2271 19.748 24.7444 20.4929 24.6913C21.2643 24.6945 22.0359 24.6981 22.8074 24.7016L22.8188 24.7017C24.9899 24.7117 27.1612 24.7217 29.332 24.725L29.3761 24.725C29.8148 24.7252 30.1995 24.7254 30.3254 25.297C30.6467 26.7595 31.0399 28.2367 31.4329 29.713ZM40.7159 53.6864L41.5066 53.6874L41.3022 53.0719C40.8766 51.732 40.4432 50.394 40.01 49.0564L40.0094 49.0548C39.493 47.4604 38.9762 45.865 38.4727 44.2667C38.3088 43.7441 37.9771 43.7449 37.5649 43.746L37.5422 43.746C36.6015 43.7478 35.6611 43.7489 34.7208 43.7495C34.7136 43.7701 34.7062 43.7906 34.6988 43.811L34.6761 43.8721C34.6547 43.9295 34.6338 43.9858 34.6165 44.0396C34.2885 45.0608 33.7781 46.589 33.2561 48.1521C32.6567 49.9466 32.0419 51.7875 31.6697 52.9612L31.6346 53.0725C31.573 53.268 31.501 53.4965 31.4325 53.6865C32.2461 53.6861 33.1261 53.6854 34.0092 53.6848L34.136 53.6847C35.0615 53.684 35.987 53.6834 36.8395 53.6829C38.0317 53.6829 39.442 53.6847 40.7114 53.6864L40.7159 53.6864ZM33.5755 43.75C32.2818 43.7504 30.988 43.7501 29.6942 43.7497C28.2226 43.7493 26.7502 43.7489 25.2777 43.7495L23.9676 47.7484C23.3255 49.7085 22.682 51.6729 22.0229 53.6838L24.5848 53.6836C26.2325 53.6834 27.8388 53.6832 29.4837 53.6838C29.5923 53.6789 29.7352 53.6814 29.8781 53.6838C30.021 53.6863 30.1639 53.6887 30.2725 53.6838H30.2761C30.7496 52.2426 31.4892 50.0219 32.1912 47.9143L32.192 47.912L32.1941 47.9056C32.7178 46.3333 33.2204 44.8246 33.5755 43.75ZM52.2706 53.6953H52.2747C53.6092 53.6934 54.9439 53.6915 56.1726 53.6973V51.7223H48.3726V53.6934C49.6014 53.6991 50.936 53.6972 52.2706 53.6953ZM73.6006 51.9013L73.6011 51.9029C73.8131 52.5192 74.0228 53.1288 74.2216 53.6973H82.456C81.8561 51.8708 81.253 50.0312 80.6539 48.2035C80.163 46.7063 79.6748 45.217 79.1931 43.7495C78.4591 43.7495 77.7276 43.7493 76.9982 43.7491H76.9814C74.8905 43.7484 72.8164 43.7477 70.749 43.7527C71.1901 44.9337 72.1706 47.6496 72.4071 48.4369L72.408 48.4377L72.9329 49.9848L72.9383 49.9866C73.155 50.606 73.3792 51.2576 73.6006 51.9013ZM66.6693 43.7717C67.6633 43.7645 68.6574 43.7594 69.6527 43.756C69.8145 44.3211 70.3514 45.728 70.8057 46.9188L70.8067 46.9212L70.8071 46.9223C71.0904 47.6648 71.3416 48.323 71.4496 48.6405L71.7484 49.5969L71.7536 49.5987C71.9572 50.2474 72.177 50.921 72.3996 51.6033L72.3999 51.6043C72.6259 52.2969 72.8549 52.9987 73.0731 53.6934H62.9637C63.2387 52.8398 63.5101 51.9856 63.7809 51.1329L63.7813 51.1318C64.5118 48.8321 65.24 46.5397 66.0339 44.2765C66.1129 44.0551 66.4503 43.7735 66.6693 43.7717Z" fill="#252525"/>
</svg>
