<svg width="107" height="98" viewBox="0 0 107 98" fill="none" xmlns="http://www.w3.org/2000/svg">
    <path d="M1.58364 73.4588H3.76164C5.12964 73.4588 6.13764 73.7408 6.78565 74.3048C7.51764 74.9288 7.88364 75.7868 7.88364 76.8788C7.88364 77.8148 7.56564 78.6128 6.92964 79.2728C6.30564 79.9208 5.35764 80.2448 4.08564 80.2448H2.91564V85.4648H1.58364V73.4588ZM2.91564 74.7188V78.9848H4.01364C4.80564 78.9848 5.42364 78.7928 5.86764 78.4088C6.32364 78.0248 6.55164 77.4908 6.55164 76.8068C6.55164 75.4148 5.66964 74.7188 3.90564 74.7188H2.91564ZM9.79263 73.4588H11.7186C13.0146 73.4588 13.9866 73.6808 14.6346 74.1248C15.5106 74.7128 15.9486 75.6008 15.9486 76.7888C15.9486 77.7128 15.6666 78.4808 15.1026 79.0928C14.5506 79.7048 13.8246 80.0408 12.9246 80.1008L16.7406 85.4648H15.1206L11.4666 80.2088H11.1246V85.4648H9.79263V73.4588ZM11.1246 74.7188V79.0208H11.9706C12.7986 79.0208 13.4466 78.8288 13.9146 78.4448C14.3826 78.0608 14.6166 77.5208 14.6166 76.8248C14.6166 76.0088 14.2986 75.4208 13.6626 75.0608C13.2546 74.8328 12.6786 74.7188 11.9346 74.7188H11.1246ZM18.8278 73.4588H20.1598V85.4648H18.8278V73.4588ZM21.8535 73.4588H23.3295L26.7135 82.6208L30.0975 73.4588H31.5735L26.7135 86.1848L21.8535 73.4588ZM39.512 85.4648L38.108 82.0808H32.996L31.556 85.4648H30.08L35.606 72.8828L40.988 85.4648H39.512ZM33.518 80.8208H37.586L35.57 76.0148L33.518 80.8208ZM48.3384 74.7188H45.4224V85.4648H44.0904V74.7188H41.1744V73.4588H48.3384V74.7188ZM56.3624 73.4588V74.7188H51.4664V78.2828H56.2184V79.5428H51.4664V84.2048H56.3624V85.4648H50.1344V73.4588H56.3624ZM63.0192 73.4588H65.1972C66.5652 73.4588 67.5732 73.7408 68.2212 74.3048C68.9532 74.9288 69.3192 75.7868 69.3192 76.8788C69.3192 77.8148 69.0012 78.6128 68.3652 79.2728C67.7412 79.9208 66.7932 80.2448 65.5212 80.2448H64.3512V85.4648H63.0192V73.4588ZM64.3512 74.7188V78.9848H65.4492C66.2412 78.9848 66.8592 78.7928 67.3032 78.4088C67.7592 78.0248 67.9872 77.4908 67.9872 76.8068C67.9872 75.4148 67.1052 74.7188 65.3412 74.7188H64.3512ZM77.7445 85.4648L76.3405 82.0808H71.2285L69.7885 85.4648H68.3125L73.8385 72.8828L79.2205 85.4648H77.7445ZM71.7505 80.8208H75.8185L73.8025 76.0148L71.7505 80.8208ZM86.5708 74.7188H83.6548V85.4648H82.3228V74.7188H79.4068V73.4588H86.5708V74.7188ZM88.3668 73.4588H89.6988V85.4648H88.3668V73.4588ZM102.823 83.8988C101.623 85.0868 100.147 85.6808 98.3945 85.6808C96.6425 85.6808 95.1605 85.0868 93.9485 83.8988C92.7485 82.7108 92.1485 81.2348 92.1485 79.4708C92.1485 77.6948 92.7545 76.2188 93.9665 75.0428C95.1785 73.8548 96.6545 73.2608 98.3945 73.2608C100.135 73.2608 101.611 73.8548 102.823 75.0428C104.035 76.2188 104.641 77.6948 104.641 79.4708C104.641 81.2348 104.035 82.7108 102.823 83.8988ZM101.851 75.9608C100.903 75.0008 99.7505 74.5208 98.3945 74.5208C97.0385 74.5208 95.8865 75.0008 94.9385 75.9608C93.9905 76.9208 93.5165 78.0908 93.5165 79.4708C93.5165 80.8508 93.9905 82.0208 94.9385 82.9808C95.8865 83.9408 97.0385 84.4208 98.3945 84.4208C99.7505 84.4208 100.903 83.9408 101.851 82.9808C102.799 82.0208 103.273 80.8508 103.273 79.4708C103.273 78.0908 102.799 76.9208 101.851 75.9608Z" fill="#1A2714"/>
    <g clip-path="url(#clip0_1392_1159)">
        <path fill-rule="evenodd" clip-rule="evenodd" d="M20.308 14.3839C20.1391 14.4045 19.9704 14.425 19.802 14.4488L19.8047 14.4505C19.0096 14.563 18.8077 14.3124 19.0751 13.5322L19.3659 13.1886C20.9237 12.342 22.4906 11.5131 24.069 10.7064C24.3167 10.5991 24.5649 10.4931 24.8132 10.387L24.8144 10.3865L24.8162 10.3858C25.2804 10.1875 25.7452 9.98893 26.2057 9.78271C26.6227 9.61642 27.0401 9.44825 27.4567 9.2804L27.4577 9.28C28.1386 9.00564 28.8197 8.73119 29.5036 8.46322H29.5054L31.5519 7.85422C34.4945 6.97858 37.4374 6.10282 40.3798 5.22648H40.3816C41.4613 4.99482 42.5407 4.76338 43.6201 4.53195L43.6246 4.53099C44.7059 4.29915 45.7872 4.06732 46.8687 3.83526C47.7959 3.67295 48.7131 3.52329 49.6477 3.37077C50.2174 3.2778 50.7936 3.18378 51.3826 3.08518C51.3924 3.08341 51.4005 3.07456 51.4005 3.06393C51.4002 2.86063 51.3956 2.66137 51.3911 2.46558C51.3798 1.98004 51.369 1.51498 51.4265 1.05813C51.431 1.02359 51.44 0.989051 51.4525 0.955399C51.6177 0.505532 52.2844 0.519701 52.4504 0.969569C52.4648 1.00942 52.4756 1.05015 52.4809 1.09178C52.536 1.52457 52.5255 1.96617 52.5145 2.42683C52.5099 2.61938 52.5052 2.81526 52.5052 3.01522C52.5052 3.02497 52.5124 3.03382 52.5222 3.03559C55.6325 3.63246 58.7034 4.22225 61.7733 4.81204C63.0233 5.13588 64.2758 5.45294 65.5279 5.76989C66.2853 5.96162 67.0432 6.15348 67.8001 6.34672L68.6122 6.57962C70.1806 7.08056 71.7498 7.5815 73.3191 8.08244L73.3468 8.09128C74.2562 8.42477 75.1588 8.77711 76.0612 9.12938C76.5007 9.30094 76.9403 9.47254 77.3805 9.64191C78.9052 10.3185 80.4191 11.0198 81.9213 11.7451C82.4108 12.0413 82.899 12.3365 83.3871 12.6316C83.8753 12.9267 84.3635 13.2218 84.853 13.518L84.8745 13.534C84.8796 13.85 84.8815 13.9917 84.8854 14.2881L84.8855 14.2928L84.8862 14.3451L84.1809 14.5045C84.0984 14.486 84.0157 14.4678 83.9329 14.4495L83.8112 14.4226L83.7295 14.4045H83.7277C83.4773 14.368 83.227 14.3308 82.9767 14.2936C82.5229 14.2262 82.0693 14.1588 81.6153 14.0954C81.0162 14.0242 80.4154 13.9665 79.8147 13.9088C79.6461 13.8926 79.4775 13.8764 79.309 13.8599C78.7732 13.8366 78.2375 13.8072 77.7018 13.7777C76.459 13.7093 75.2163 13.641 73.9741 13.6509C72.5551 13.6972 71.1369 13.8328 69.718 13.9685C68.4547 14.0893 67.1909 14.2101 65.9255 14.2681C63.1453 14.3641 60.3682 14.1498 57.5919 13.9355C56.0676 13.8179 54.5435 13.7003 53.0194 13.634C52.9109 13.6267 52.7999 13.6554 52.6942 13.6826C52.646 13.695 52.5989 13.7072 52.5536 13.7155V32.5072C52.5536 32.5187 52.5626 32.5276 52.5743 32.5276H65.9314C66.127 32.5276 66.2834 32.6865 66.2834 32.8821V33.3131C66.2834 33.5086 66.1269 33.6684 65.9314 33.6637L65.5474 33.6633C65.5226 33.6626 65.4953 33.6621 65.4692 33.6621C60.9603 33.6621 56.9997 33.6612 52.507 33.6603L51.923 33.6602C47.5514 33.6592 42.6042 33.6583 38.1857 33.6582C37.8857 33.6582 37.6429 33.4151 37.6429 33.1151C37.6429 32.8151 37.8862 32.5719 38.1862 32.572L51.317 32.5772C51.3287 32.5772 51.3377 32.5683 51.3377 32.5568V13.5039C51.3377 13.4915 51.3278 13.4835 51.3162 13.4835C50.2989 13.5549 49.2856 13.6098 48.2774 13.6645C45.9352 13.7914 43.6182 13.917 41.331 14.2451C39.8754 14.4537 38.4614 14.2964 37.0518 14.1396C35.9787 14.0202 34.9081 13.9011 33.8236 13.944C33.1981 13.969 32.568 13.8812 31.9379 13.7934C31.6522 13.7536 31.3664 13.7138 31.0812 13.6845H31.0794C30.8537 13.6819 30.628 13.679 30.4023 13.6761C30.1766 13.6732 29.9509 13.6703 29.7252 13.6677L23.7469 13.9325L23.7063 13.9366C23.289 13.9786 22.871 14.0207 22.4547 14.0653L21.9611 14.1485C21.8451 14.1623 21.729 14.1759 21.6131 14.1895C21.4833 14.2047 21.3537 14.2199 21.2244 14.2353L20.5576 14.3531C20.4744 14.3636 20.3912 14.3738 20.308 14.3839ZM56.2083 4.83075C56.1977 4.85956 56.188 4.88923 56.1782 4.9189L56.4492 5.06885C59.4231 7.19863 62.0093 9.72338 64.2061 12.6218C64.6341 13.1868 65.0407 13.3675 65.7263 13.2524C70.9059 12.365 76.1368 12.4518 81.3496 12.922C81.3721 12.9247 81.3811 12.8946 81.3613 12.884C73.5523 8.80505 65.1941 6.48044 56.5865 4.91388C56.5156 4.8985 56.4447 4.88285 56.374 4.86724L56.3729 4.86699L56.2083 4.83075ZM63.3258 13.1248C60.2316 9.62331 57.4093 6.45565 53.1297 4.51183C52.332 4.15229 51.5934 4.14609 50.7867 4.50563C47.0187 6.12797 44.2552 9.10036 41.5315 12.03C41.2564 12.3259 40.9817 12.6214 40.7064 12.915L40.8276 13.1505C48.2328 12.3402 55.6442 12.3756 63.3087 13.1585C63.3267 13.1603 63.3383 13.139 63.3258 13.1248ZM47.5152 4.86817C47.43 4.88559 47.3711 4.89762 47.312 4.90945C38.7744 6.48133 30.4701 8.75634 22.7355 12.768C22.7158 12.7777 22.7248 12.8078 22.7463 12.8069C27.9161 12.5687 33.0581 12.3447 38.1884 13.2222C38.5734 13.2834 39.1899 13.1877 39.3909 12.9309C41.7214 9.95008 44.3597 7.28719 47.4529 5.07151H47.4547C47.4911 5.04957 47.5275 5.02732 47.5807 4.99481C47.6521 4.95119 47.7536 4.88911 47.9259 4.78458C47.7339 4.82349 47.6087 4.84907 47.5152 4.86817Z" fill="#252525"/>
        <path fill-rule="evenodd" clip-rule="evenodd" d="M31.1495 29.6739C31.5193 31.0634 31.889 32.4523 32.1984 33.8276L32.2603 34.2208C32.3801 34.6861 32.5013 35.1515 32.6224 35.6166L32.6229 35.6183C33.0013 37.0718 33.8082 39.6925 34.1487 41.1545C34.1585 41.197 34.1603 41.2413 34.1549 41.2873C34.1029 41.7691 33.4245 41.9506 33.1867 41.5273C33.1723 41.5016 33.1606 41.4751 33.1535 41.4476C32.7162 39.7985 31.884 36.9732 31.4802 35.3151C31.3628 34.8331 31.2451 34.3501 31.1269 33.8683C30.6493 32.0318 30.1721 30.1953 29.6973 28.3681L29.0333 25.8132H20.8771C21.5451 28.9455 22.3522 32.0684 23.1596 35.1925C23.7568 37.5031 24.3542 39.8144 24.8955 42.1306C25.0271 42.6651 25.3266 42.6609 25.6865 42.6559L25.7247 42.6554L25.7529 42.6551L25.7938 42.6549C26.9139 42.6544 28.0343 42.6553 29.1546 42.6562C32.0674 42.6584 34.9805 42.6607 37.8932 42.639C38.4334 42.6345 38.9117 42.9799 39.0723 43.4891C40.0774 46.6727 41.1264 49.843 42.1754 53.0125C42.2628 53.2765 42.3209 53.4121 42.4342 53.6483C43.4261 53.6769 44.4919 53.669 45.5391 53.6613C46.0163 53.6578 46.4897 53.6543 46.9504 53.6543L46.9502 52.9278C46.95 52.4775 46.9498 52.0531 46.9504 51.6558C46.9522 50.5807 47.0114 50.5196 48.0811 50.5178C48.8094 50.5166 49.5377 50.517 50.2644 50.5174H50.2685C50.6319 50.5176 50.995 50.5178 51.3574 50.5178V37.26C50.4042 37.259 49.4529 37.2604 48.5032 37.2618C46.1457 37.2653 45.6452 37.2687 43.2817 37.2352C43.2504 37.2352 42.5891 37.2352 42.1032 37.2351C41.8205 37.235 41.5926 37.0066 41.5926 36.724C41.5926 36.4347 41.8311 36.1969 42.1204 36.1972C42.6069 36.1978 43.258 36.1982 43.2898 36.1982L44.7132 36.1979C50.401 36.1972 56.0887 36.1964 61.776 36.2168C62.0632 36.2179 62.2954 36.451 62.2954 36.7381C62.2954 37.0262 62.0617 37.2597 61.7737 37.2595C59.643 37.2582 57.5215 37.2585 55.394 37.2589L52.5491 37.2591V50.5196C52.9072 50.5196 53.2627 50.5212 53.6151 50.5229C54.447 50.5267 55.2659 50.5306 56.0839 50.5125C56.5766 50.5019 56.975 50.8977 56.9589 51.3839C56.9427 51.878 56.9463 52.4 56.9501 52.9371V52.9393C56.9518 53.176 56.9535 53.4164 56.9535 53.6582C58.4234 53.6582 61.485 53.6543 61.485 53.6543C61.485 53.6543 61.6503 53.2507 61.7239 53.0284C62.7775 49.8554 63.8202 46.6798 64.8289 43.4926C65.0254 42.8719 65.3134 42.6363 65.9972 42.6416C67.8922 42.6571 69.7876 42.6568 71.683 42.6564C73.7917 42.656 75.9005 42.6556 78.0087 42.677C78.7131 42.6841 78.9509 42.4362 79.1035 41.8163C79.7014 39.3784 80.3145 36.9492 80.9275 34.5201L80.928 34.5184C81.6598 31.6184 82.3917 28.7186 83.0977 25.8044H74.8562C74.4267 27.4924 74.0056 29.1731 73.5856 30.8494L73.5851 30.8513L73.5848 30.8526C72.8003 33.9835 72.0189 37.102 71.1904 40.2382C71.1823 40.2674 71.1706 40.2949 71.1554 40.3214C70.9149 40.7412 70.2257 40.5588 70.1898 40.0788C70.1862 40.0327 70.188 39.9876 70.1961 39.9433C70.8982 36.8861 71.6734 33.8424 72.4483 30.7999L72.4494 30.7955C72.9467 28.8427 73.444 26.8901 73.922 24.9338L73.8753 24.8878L73.9256 24.9303C74.0366 24.9047 74.1478 24.8723 74.2589 24.84C74.5005 24.7696 74.7423 24.6992 74.9845 24.6974C77.3678 24.6799 79.7516 24.679 82.1351 24.6781C82.7707 24.6778 83.4062 24.6776 84.0418 24.677C84.0732 24.7275 84.118 24.7452 84.1755 24.7311C84.2118 24.7851 84.2484 24.8391 84.285 24.8931L84.2889 24.899L84.2895 24.8999L84.3336 24.9651L84.3944 25.0552V25.0631C84.3128 25.5839 84.232 26.0975 84.1494 26.6182C83.8448 27.6339 83.5727 28.6591 83.3007 29.6839C83.2234 29.9751 83.1461 30.2662 83.0681 30.5572L82.9577 31.1054C82.8191 31.6404 82.6765 32.1745 82.5338 32.7087L82.5329 32.7124C82.0485 34.526 81.5642 36.3395 81.2393 38.189L81.1409 38.6147C81.0191 39.0382 81.0165 39.1049 80.894 39.5281L80.8919 39.5355C80.69 40.2328 80.4882 40.9302 80.2898 41.6285C80.2578 41.8248 80.2087 42.0247 80.1598 42.2239C80.0512 42.6659 79.9427 43.1076 80.0188 43.5165C80.1451 44.2 80.3966 44.8612 80.6481 45.5221C80.7541 45.8006 80.86 46.0791 80.9566 46.3592L81.2043 47.0128C81.2599 47.2156 81.3164 47.4184 81.3739 47.6211V47.6282C81.6854 48.5801 81.9974 49.5398 82.3095 50.4999L82.3119 50.5073L82.3148 50.5162C82.6554 51.564 82.9961 52.6122 83.3366 53.651L83.3975 53.651C83.4398 53.651 83.4839 53.6511 83.5365 53.651L83.647 53.6505L83.7393 53.6501C83.7393 53.6501 83.9063 53.6483 83.9906 53.6483C85.1094 53.6473 86.2281 53.6479 87.3468 53.6484C89.3263 53.6494 91.3058 53.6503 93.2857 53.643H93.5728V54.6215H10.2818L10.2817 53.6483C11.5941 53.649 12.9346 53.6482 14.2812 53.6474C16.3709 53.6461 18.4752 53.6449 20.5118 53.6492L20.5343 53.6332C20.6056 53.426 20.6767 53.2186 20.7479 53.0111C20.819 52.8037 20.8901 52.5962 20.9614 52.389L21.4541 50.8172L22.2106 48.5944C22.2909 48.3309 22.3714 48.0672 22.452 47.8036C22.5325 47.5399 22.6131 47.2762 22.6934 47.0128C22.8159 46.6581 22.9381 46.3034 23.0604 45.9488C23.1827 45.5941 23.3049 45.2394 23.4274 44.8848C23.4703 44.7672 23.5153 44.6507 23.5601 44.5346C23.8384 43.8133 24.1105 43.1082 23.8492 42.2546C23.5552 41.2949 23.3178 40.319 23.0803 39.3428C22.9177 38.6742 22.755 38.0053 22.574 37.3415C22.1078 35.524 21.6334 33.6574 21.1588 31.7902C20.6386 29.7436 20.1183 27.6961 19.6082 25.7114C19.4996 25.188 19.4646 24.7054 20.2094 24.6522C20.9809 24.6555 21.7524 24.659 22.524 24.6626L22.5354 24.6626C24.7065 24.6726 26.8778 24.6826 29.0486 24.6859L29.0926 24.6859C29.5313 24.6862 29.9161 24.6863 30.042 25.258C30.3633 26.7205 30.7565 28.1976 31.1495 29.6739ZM40.4325 53.6473L41.2232 53.6483L41.0187 53.0328C40.5931 51.6929 40.1597 50.3549 39.7265 49.0174L39.726 49.0158C39.2095 47.4213 38.6927 45.826 38.1893 44.2277C38.0254 43.705 37.6936 43.7059 37.2815 43.7069L37.2587 43.7069C36.3181 43.7088 35.3776 43.7099 34.4373 43.7105C34.4302 43.731 34.4228 43.7515 34.4153 43.7719L34.3927 43.833C34.3713 43.8905 34.3503 43.9467 34.333 44.0006C34.0051 45.0217 33.4947 46.5499 32.9726 48.1131C32.3733 49.9076 31.7584 51.7484 31.3863 52.9221L31.3511 53.0335C31.2895 53.229 31.2176 53.4574 31.149 53.6474C31.9626 53.647 32.8426 53.6464 33.7257 53.6457L33.8526 53.6456C34.7781 53.645 35.7036 53.6443 36.5561 53.6439C37.7483 53.6439 39.1586 53.6457 40.428 53.6473L40.4325 53.6473ZM33.2921 43.711C31.9984 43.7113 30.7045 43.711 29.4107 43.7106C27.9391 43.7102 26.4668 43.7099 24.9942 43.7105L23.6842 47.7093C23.0421 49.6695 22.3986 51.6339 21.7395 53.6448L24.3013 53.6446C25.9491 53.6444 27.5554 53.6442 29.2003 53.6448C29.3088 53.6399 29.4517 53.6423 29.5947 53.6448C29.7376 53.6472 29.8805 53.6496 29.9891 53.6448H29.9926C30.4661 52.2035 31.2058 49.9829 31.9078 47.8752L31.9086 47.8729L31.9107 47.8665C32.4344 46.2942 32.9369 44.7855 33.2921 43.711ZM51.9871 53.6562H51.9912C53.3258 53.6544 54.6604 53.6525 55.8892 53.6582V51.6832H48.0892V53.6543C49.3179 53.66 50.6525 53.6581 51.9871 53.6562ZM73.3171 51.8622L73.3177 51.8638C73.5297 52.4802 73.7394 53.0897 73.9381 53.6582H82.1725C81.5727 51.8318 80.9696 49.9922 80.3704 48.1645C79.8796 46.6672 79.3913 45.178 78.9097 43.7105C78.1757 43.7105 77.4442 43.7102 76.7147 43.71H76.698C74.607 43.7093 72.5329 43.7086 70.4655 43.7137C70.9066 44.8947 71.8871 47.6105 72.1237 48.3978L72.1246 48.3987L72.6495 49.9457L72.6549 49.9475C72.8716 50.5669 73.0957 51.2185 73.3171 51.8622ZM66.3858 43.7326C67.3799 43.7254 68.374 43.7204 69.3693 43.7169C69.5311 44.2821 70.0679 45.6889 70.5223 46.8797L70.5232 46.8821L70.5236 46.8832C70.807 47.6257 71.0581 48.2839 71.1662 48.6015L71.465 49.5579L71.4702 49.5596C71.6738 50.2083 71.8936 50.882 72.1162 51.5643L72.1165 51.5653C72.3424 52.2578 72.5714 52.9596 72.7897 53.6543H62.6803C62.9553 52.8007 63.2266 51.9465 63.4975 51.0938L63.4978 51.0927C64.2283 48.793 64.9565 46.5007 65.7505 44.2374C65.8294 44.016 66.1669 43.7344 66.3858 43.7326Z" fill="#252525"/>
        <path d="M34.7024 43.252L33.9607 40.4258L32.9683 40.8085L33.6444 43.252H34.7024Z" fill="#252525"/>
        <path d="M70.4931 43.1158L71.3478 39.6512L70.2714 39.6094L69.3738 43.0087L70.4931 43.1158Z" fill="#252525"/>
    </g>
    <defs>
        <clipPath id="clip0_1392_1159">
            <rect width="84" height="54" fill="white" transform="translate(10.0356 0.625)"/>
        </clipPath>
    </defs>
</svg>
