<svg width="104" height="87" viewBox="0 0 104 87" fill="none" xmlns="http://www.w3.org/2000/svg">
<path d="M0.834229 73.9393H3.01223C4.38023 73.9393 5.38823 74.2213 6.03623 74.7853C6.76823 75.4093 7.13423 76.2673 7.13423 77.3593C7.13423 78.2953 6.81623 79.0933 6.18023 79.7533C5.55623 80.4013 4.60823 80.7253 3.33623 80.7253H2.16623V85.9453H0.834229V73.9393ZM2.16623 75.1993V79.4653H3.26423C4.05623 79.4653 4.67423 79.2733 5.11823 78.8893C5.57423 78.5053 5.80223 77.9713 5.80223 77.2873C5.80223 75.8953 4.92023 75.1993 3.15623 75.1993H2.16623Z" fill="#1A2714"/>
<path d="M9.04321 73.9393H10.9692C12.2652 73.9393 13.2372 74.1613 13.8852 74.6053C14.7612 75.1933 15.1992 76.0813 15.1992 77.2693C15.1992 78.1933 14.9172 78.9613 14.3532 79.5733C13.8012 80.1853 13.0752 80.5213 12.1752 80.5813L15.9912 85.9453H14.3712L10.7172 80.6893H10.3752V85.9453H9.04321V73.9393ZM10.3752 75.1993V79.5013H11.2212C12.0492 79.5013 12.6972 79.3093 13.1652 78.9253C13.6332 78.5413 13.8672 78.0013 13.8672 77.3053C13.8672 76.4893 13.5492 75.9013 12.9132 75.5413C12.5052 75.3133 11.9292 75.1993 11.1852 75.1993H10.3752Z" fill="#1A2714"/>
<path d="M18.0784 73.9393H19.4104V85.9453H18.0784V73.9393Z" fill="#1A2714"/>
<path d="M21.1041 73.9393H22.5801L25.9641 83.1013L29.3481 73.9393H30.8241L25.9641 86.6653L21.1041 73.9393Z" fill="#1A2714"/>
<path d="M38.7626 85.9453L37.3586 82.5613H32.2466L30.8066 85.9453H29.3306L34.8566 73.3633L40.2386 85.9453H38.7626ZM32.7686 81.3013H36.8366L34.8206 76.4953L32.7686 81.3013Z" fill="#1A2714"/>
<path d="M47.5889 75.1993H44.6729V85.9453H43.3409V75.1993H40.4249V73.9393H47.5889V75.1993Z" fill="#1A2714"/>
<path d="M55.613 73.9393V75.1993H50.717V78.7633H55.469V80.0233H50.717V84.6853H55.613V85.9453H49.385V73.9393H55.613Z" fill="#1A2714"/>
<path d="M62.2698 73.9393H64.4478C65.8158 73.9393 66.8238 74.2213 67.4718 74.7853C68.2038 75.4093 68.5698 76.2673 68.5698 77.3593C68.5698 78.2953 68.2518 79.0933 67.6158 79.7533C66.9918 80.4013 66.0438 80.7253 64.7718 80.7253H63.6018V85.9453H62.2698V73.9393ZM63.6018 75.1993V79.4653H64.6998C65.4918 79.4653 66.1098 79.2733 66.5538 78.8893C67.0098 78.5053 67.2378 77.9713 67.2378 77.2873C67.2378 75.8953 66.3558 75.1993 64.5918 75.1993H63.6018Z" fill="#1A2714"/>
<path d="M76.995 85.9453L75.591 82.5613H70.479L69.039 85.9453H67.563L73.089 73.3633L78.471 85.9453H76.995ZM71.001 81.3013H75.069L73.053 76.4953L71.001 81.3013Z" fill="#1A2714"/>
<path d="M85.8214 75.1993H82.9054V85.9453H81.5734V75.1993H78.6574V73.9393H85.8214V75.1993Z" fill="#1A2714"/>
<path d="M87.6174 73.9393H88.9494V85.9453H87.6174V73.9393Z" fill="#1A2714"/>
<path d="M102.073 84.3793C100.873 85.5673 99.3971 86.1613 97.6451 86.1613C95.8931 86.1613 94.4111 85.5673 93.1991 84.3793C91.9991 83.1913 91.3991 81.7153 91.3991 79.9513C91.3991 78.1753 92.0051 76.6993 93.2171 75.5233C94.4291 74.3353 95.9051 73.7413 97.6451 73.7413C99.3851 73.7413 100.861 74.3353 102.073 75.5233C103.285 76.6993 103.891 78.1753 103.891 79.9513C103.891 81.7153 103.285 83.1913 102.073 84.3793ZM101.101 76.4413C100.153 75.4813 99.0011 75.0013 97.6451 75.0013C96.2891 75.0013 95.1371 75.4813 94.1891 76.4413C93.2411 77.4013 92.7671 78.5713 92.7671 79.9513C92.7671 81.3313 93.2411 82.5013 94.1891 83.4613C95.1371 84.4213 96.2891 84.9013 97.6451 84.9013C99.0011 84.9013 100.153 84.4213 101.101 83.4613C102.049 82.5013 102.523 81.3313 102.523 79.9513C102.523 78.5713 102.049 77.4013 101.101 76.4413Z" fill="#1A2714"/>
<g clip-path="url(#clip0_1399_55)">
<path fill-rule="evenodd" clip-rule="evenodd" d="M19.5585 14.4405C19.3896 14.4611 19.2209 14.4817 19.0525 14.5054L19.0552 14.5072C18.2601 14.6196 18.0582 14.369 18.3256 13.5888L18.6164 13.2452C20.1742 12.3986 21.741 11.5697 23.3195 10.763C23.5671 10.6558 23.8154 10.5497 24.0637 10.4437L24.0649 10.4432L24.0667 10.4424C24.5309 10.2441 24.9956 10.0456 25.4562 9.83935C25.8732 9.67306 26.2906 9.5049 26.7071 9.33704L26.7081 9.33664C27.3891 9.06228 28.0702 8.78783 28.7541 8.51986H28.7559L30.8024 7.91086C33.745 7.03522 36.6879 6.15946 39.6303 5.28312H39.6321C40.7118 5.05146 41.7912 4.82002 42.8706 4.58859L42.8751 4.58763C43.9564 4.35579 45.0377 4.12396 46.1192 3.8919C47.0464 3.72959 47.9636 3.57993 48.8982 3.42741C49.4679 3.33444 50.0441 3.24042 50.633 3.14182C50.6429 3.14005 50.651 3.1312 50.651 3.12057C50.6507 2.91727 50.6461 2.71801 50.6416 2.52222C50.6303 2.03668 50.6195 1.57162 50.677 1.11477C50.6815 1.08023 50.6905 1.04569 50.703 1.01204C50.8682 0.562173 51.5349 0.576342 51.7009 1.02621C51.7153 1.06606 51.7261 1.1068 51.7314 1.14842C51.7865 1.58121 51.7759 2.02281 51.7649 2.48347C51.7603 2.67602 51.7557 2.8719 51.7557 3.07186C51.7557 3.08161 51.7628 3.09046 51.7727 3.09223C54.883 3.6891 57.9539 4.27889 61.0238 4.86868C62.2738 5.19252 63.5263 5.50958 64.7784 5.82653C65.5358 6.01826 66.2937 6.21012 67.0506 6.40336L67.8627 6.63626C69.4311 7.1372 71.0003 7.63814 72.5696 8.13908L72.5973 8.14792C73.5067 8.48141 74.4093 8.83375 75.3117 9.18602C75.7512 9.35758 76.1908 9.52919 76.631 9.69855C78.1557 10.3751 79.6695 11.0765 81.1718 11.8018C81.6613 12.098 82.1494 12.3931 82.6376 12.6882C83.1258 12.9833 83.614 13.2784 84.1035 13.5747L84.125 13.5906C84.1301 13.9066 84.132 14.0483 84.1359 14.3447L84.136 14.3494L84.1367 14.4018L83.4314 14.5612C83.3489 14.5427 83.2662 14.5244 83.1834 14.5062L83.0617 14.4793L82.98 14.4611H82.9782C82.7278 14.4246 82.4775 14.3874 82.2272 14.3502C81.7734 14.2828 81.3198 14.2154 80.8658 14.1521C80.2667 14.0808 79.6659 14.0231 79.0652 13.9654C78.8966 13.9492 78.728 13.933 78.5595 13.9165C78.0237 13.8933 77.488 13.8638 76.9523 13.8343C75.7094 13.766 74.4668 13.6976 73.2245 13.7075C71.8056 13.7539 70.3874 13.8895 68.9685 14.0251C67.7052 14.1459 66.4414 14.2668 65.176 14.3247C62.3958 14.4208 59.6187 14.2064 56.8423 13.9922C55.3181 13.8745 53.794 13.7569 52.2699 13.6907C52.1614 13.6834 52.0503 13.712 51.9447 13.7393C51.8965 13.7517 51.8494 13.7638 51.8041 13.7721V32.5638C51.8041 32.5754 51.8131 32.5842 51.8248 32.5842H65.1819C65.3775 32.5842 65.5339 32.7431 65.5339 32.9387V33.3697C65.5339 33.5653 65.3774 33.725 65.1819 33.7204L64.7979 33.7199C64.7731 33.7193 64.7458 33.7188 64.7197 33.7188C60.2108 33.7188 56.2502 33.7179 51.7575 33.7169L51.1735 33.7168C46.8018 33.7159 41.8546 33.715 37.4362 33.7149C37.1362 33.7149 36.8934 33.4717 36.8934 33.1718C36.8934 32.8717 37.1367 32.6285 37.4367 32.6286L50.5675 32.6338C50.5792 32.6338 50.5882 32.6249 50.5882 32.6134V13.5605C50.5882 13.5481 50.5783 13.5401 50.5666 13.5401C49.5494 13.6115 48.5361 13.6665 47.5279 13.7211C45.1857 13.848 42.8687 13.9736 40.5815 14.3017C39.1259 14.5104 37.7119 14.3531 36.3023 14.1962C35.2292 14.0769 34.1586 13.9578 33.074 14.0006C32.4486 14.0256 31.8185 13.9378 31.1884 13.85C30.9027 13.8102 30.6169 13.7704 30.3317 13.7412H30.3299C30.1042 13.7385 29.8785 13.7356 29.6528 13.7327C29.4271 13.7299 29.2014 13.727 28.9757 13.7243L22.9974 13.9891L22.9568 13.9932C22.5395 14.0352 22.1215 14.0773 21.7052 14.1219L21.2116 14.2052C21.0956 14.219 20.9795 14.2326 20.8636 14.2462C20.7338 14.2614 20.6042 14.2765 20.4748 14.292L19.8081 14.4098C19.7249 14.4203 19.6417 14.4304 19.5585 14.4405ZM55.4588 4.88739C55.4482 4.91621 55.4385 4.94587 55.4287 4.97554L55.6996 5.12549C58.6736 7.25527 61.2598 9.78002 63.4566 12.6785C63.8846 13.2435 64.2911 13.4241 64.9767 13.309C70.1564 12.4217 75.3873 12.5084 80.6001 12.9787C80.6226 12.9813 80.6315 12.9512 80.6118 12.9406C72.8028 8.86169 64.4446 6.53708 55.8369 4.97052C55.7661 4.95514 55.6952 4.93949 55.6245 4.92388L55.6234 4.92363L55.4588 4.88739ZM62.5763 13.1815C59.4821 9.67995 56.6598 6.51229 52.3802 4.56847C51.5825 4.20893 50.8439 4.20273 50.0372 4.56227C46.2692 6.18461 43.5057 9.157 40.782 12.0867C40.5069 12.3826 40.2322 12.678 39.9569 12.9716L40.0781 13.2072C47.4832 12.3969 54.8947 12.4323 62.5592 13.2151C62.5772 13.2169 62.5888 13.1956 62.5763 13.1815ZM46.7657 4.92481C46.6805 4.94223 46.6216 4.95426 46.5625 4.96609C38.0249 6.53797 29.7205 8.81298 21.986 12.8246C21.9663 12.8343 21.9753 12.8644 21.9968 12.8636C27.1666 12.6253 32.3086 12.4013 37.4389 13.2789C37.8239 13.34 38.4404 13.2444 38.6414 12.9875C40.9719 10.0067 43.6102 7.34383 46.7034 5.12815H46.7052C46.7416 5.10622 46.778 5.08396 46.8312 5.05145C46.9025 5.00783 47.0041 4.94575 47.1763 4.84122C46.9844 4.88013 46.8592 4.90571 46.7657 4.92481Z" fill="#252525"/>
<path fill-rule="evenodd" clip-rule="evenodd" d="M30.3999 29.7305C30.7698 31.1201 31.1395 32.5089 31.4489 33.8842L31.5108 34.2774C31.6306 34.7427 31.7518 35.2081 31.8729 35.6732L31.8734 35.675C32.2518 37.1284 33.0587 39.7492 33.3991 41.2111C33.409 41.2536 33.4108 41.2979 33.4054 41.344C33.3534 41.8257 32.675 42.0073 32.4372 41.584C32.4228 41.5583 32.4111 41.5317 32.404 41.5043C31.9667 39.8552 31.1345 37.0299 30.7307 35.3717C30.6133 34.8898 30.4956 34.4067 30.3774 33.925C29.8998 32.0885 29.4226 30.252 28.9478 28.4248L28.2838 25.8699H20.1276C20.7956 29.0021 21.6027 32.125 22.4101 35.2492C23.0073 37.5598 23.6046 39.871 24.146 42.1873C24.2775 42.7218 24.5771 42.7176 24.9369 42.7125L24.9752 42.712L25.0034 42.7117L25.0443 42.7115C26.1644 42.711 27.2848 42.7119 28.405 42.7128C31.3179 42.7151 34.231 42.7173 37.1436 42.6956C37.6839 42.6912 38.1622 43.0365 38.3228 43.5457C39.3279 46.7293 40.3769 49.8997 41.4259 53.0691C41.5133 53.3331 41.5714 53.4688 41.6847 53.7049C42.6766 53.7335 43.7424 53.7257 44.7896 53.7179C45.2668 53.7144 45.7402 53.7109 46.2009 53.7109L46.2007 52.9845C46.2005 52.5342 46.2003 52.1098 46.2009 51.7124C46.2027 50.6373 46.2619 50.5762 47.3316 50.5745C48.0599 50.5733 48.7882 50.5737 49.5149 50.5741H49.519C49.8824 50.5743 50.2455 50.5745 50.6079 50.5745V37.3167C49.6547 37.3157 48.7034 37.317 47.7536 37.3184C45.3962 37.3219 44.8957 37.3253 42.5322 37.2919C42.5009 37.2919 41.8396 37.2918 41.3537 37.2917C41.071 37.2917 40.8431 37.0633 40.8431 36.7806V36.7806C40.8431 36.4913 41.0816 36.2535 41.3709 36.2539C41.8574 36.2545 42.5085 36.2549 42.5403 36.2549L43.9636 36.2546C49.6515 36.2538 55.3392 36.253 61.0265 36.2735C61.3137 36.2745 61.5459 36.5076 61.5459 36.7948V36.7948C61.5459 37.0829 61.3122 37.3163 61.0241 37.3162C58.8935 37.3148 56.772 37.3152 54.6445 37.3155L51.7996 37.3158V50.5762C52.1576 50.5762 52.5132 50.5779 52.8656 50.5795C53.6975 50.5834 54.5164 50.5872 55.3344 50.5692C55.8271 50.5585 56.2255 50.9544 56.2093 51.4406C56.1932 51.9347 56.1968 52.4566 56.2006 52.9937V52.9959C56.2023 53.2326 56.204 53.473 56.204 53.7148C57.6739 53.7148 60.7355 53.7109 60.7355 53.7109C60.7355 53.7109 60.9008 53.3073 60.9744 53.085C62.0279 49.9121 63.0707 46.7364 64.0794 43.5493C64.2759 42.9285 64.5639 42.6929 65.2477 42.6983C67.1427 42.7138 69.0381 42.7134 70.9335 42.713C73.0422 42.7126 75.1509 42.7122 77.2592 42.7337C77.9636 42.7408 78.2014 42.4928 78.354 41.8729C78.9519 39.4351 79.565 37.0059 80.178 34.5768L80.1785 34.575C80.9103 31.6751 81.6422 28.7753 82.3482 25.861H74.1067C73.6772 27.5491 73.2561 29.2298 72.836 30.9061L72.8356 30.9079L72.8353 30.9092C72.0508 34.0401 71.2694 37.1587 70.4409 40.2948C70.4328 40.3241 70.4211 40.3515 70.4059 40.3781C70.1654 40.7978 69.4762 40.6154 69.4403 40.1354C69.4367 40.0894 69.4385 40.0442 69.4466 39.9999C70.1487 36.9427 70.9239 33.899 71.6988 30.8566L71.6999 30.8521C72.1972 28.8994 72.6945 26.9468 73.1725 24.9905L73.1258 24.9444L73.1761 24.9869C73.2871 24.9613 73.3983 24.9289 73.5093 24.8966C73.751 24.8263 73.9928 24.7559 74.235 24.754C76.6183 24.7366 79.0021 24.7356 81.3855 24.7347C82.0211 24.7345 82.6567 24.7342 83.2923 24.7337C83.3237 24.7842 83.3685 24.8019 83.426 24.7877C83.4623 24.8417 83.4989 24.8957 83.5354 24.9498L83.5394 24.9556L83.54 24.9565L83.5841 25.0217L83.6449 25.1118V25.1198C83.5633 25.6405 83.4825 26.1541 83.3999 26.6748C83.0953 27.6906 82.8232 28.7157 82.5512 29.7405C82.4739 30.0317 82.3966 30.3229 82.3186 30.6138L82.2082 31.162C82.0696 31.697 81.927 32.2312 81.7843 32.7653L81.7834 32.7691C81.299 34.5826 80.8147 36.3962 80.4897 38.2456L80.3913 38.6714C80.2696 39.0949 80.267 39.1615 80.1445 39.5848L80.1424 39.5921C79.9405 40.2895 79.7387 40.9868 79.5403 41.6852C79.5083 41.8815 79.4592 42.0814 79.4103 42.2805C79.3017 42.7226 79.1932 43.1643 79.2693 43.5732C79.3956 44.2567 79.6471 44.9178 79.8986 45.5788C80.0045 45.8573 80.1105 46.1357 80.2071 46.4159L80.4547 47.0694C80.5104 47.2722 80.5669 47.475 80.6243 47.6778V47.6849C80.9359 48.6367 81.2479 49.5965 81.56 50.5566L81.5624 50.5639L81.5653 50.5729C81.9059 51.6206 82.2466 52.6688 82.5871 53.7076L82.648 53.7076C82.6903 53.7077 82.7344 53.7077 82.787 53.7076L82.8974 53.7072L82.9898 53.7067C82.9898 53.7067 83.1567 53.7049 83.2411 53.7049C84.3599 53.704 85.4786 53.7045 86.5972 53.7051C88.5768 53.706 90.5563 53.707 92.5361 53.6996H92.8233V54.6782H9.53224L9.53223 53.7049C10.8446 53.7056 12.1851 53.7048 13.5317 53.704C15.6214 53.7028 17.7257 53.7015 19.7623 53.7058L19.7848 53.6899C19.8561 53.4827 19.9272 53.2752 19.9983 53.0678C20.0695 52.8603 20.1406 52.6529 20.2119 52.4457L20.7046 50.8738L21.4611 48.651C21.5414 48.3876 21.6219 48.1239 21.7025 47.8602C21.783 47.5965 21.8635 47.3329 21.9439 47.0694C22.0663 46.7147 22.1886 46.3601 22.3109 46.0054C22.4332 45.6507 22.5554 45.2961 22.6779 44.9414C22.7208 44.8238 22.7658 44.7073 22.8106 44.5912C23.0889 43.8699 23.3609 43.1648 23.0997 42.3113C22.8057 41.3516 22.5683 40.3757 22.3308 39.3995C22.1681 38.7308 22.0054 38.062 21.8245 37.3981C21.3583 35.5806 20.8839 33.7141 20.4093 31.8469C19.8891 29.8002 19.3687 27.7528 18.8587 25.768C18.7501 25.2446 18.7151 24.762 19.4599 24.7089C20.2314 24.7121 21.0029 24.7157 21.7744 24.7192L21.7859 24.7193C23.957 24.7293 26.1283 24.7393 28.2991 24.7425L28.3431 24.7426C28.7818 24.7428 29.1666 24.743 29.2925 25.3146C29.6138 26.7771 30.007 28.2543 30.3999 29.7305ZM39.6829 53.7039L40.4737 53.7049L40.2692 53.0895C39.8436 51.7495 39.4102 50.4115 38.977 49.074L38.9765 49.0724C38.46 47.478 37.9432 45.8826 37.4398 44.2843C37.2759 43.7617 36.9441 43.7625 36.532 43.7635L36.5092 43.7636C35.5685 43.7654 34.6281 43.7665 33.6878 43.7671C33.6807 43.7876 33.6733 43.8081 33.6658 43.8285L33.6432 43.8897C33.6218 43.9471 33.6008 44.0034 33.5835 44.0572C33.2556 45.0784 32.7452 46.6066 32.2231 48.1697C31.6238 49.9642 31.0089 51.805 30.6368 52.9788L30.6016 53.0901C30.54 53.2856 30.4681 53.514 30.3995 53.7041C31.2131 53.7036 32.0931 53.703 32.9762 53.7024L33.103 53.7023C34.0285 53.7016 34.954 53.701 35.8066 53.7005C36.9987 53.7005 38.4091 53.7023 39.6784 53.7039L39.6829 53.7039ZM32.5426 43.7676C31.2489 43.768 29.955 43.7676 28.6612 43.7673C27.1896 43.7669 25.7173 43.7665 24.2447 43.7671L22.9347 47.7659C22.2925 49.7261 21.649 51.6905 20.9899 53.7014L23.5518 53.7012C25.1996 53.701 26.8059 53.7008 28.4507 53.7014C28.5593 53.6965 28.7022 53.699 28.8451 53.7014C28.9881 53.7038 29.131 53.7063 29.2395 53.7014H29.2431C29.7166 52.2601 30.4563 50.0395 31.1583 47.9319L31.1591 47.9295L31.1612 47.9231C31.6849 46.3509 32.1874 44.8422 32.5426 43.7676ZM51.2376 53.7129H51.2417C52.5763 53.711 53.9109 53.7091 55.1397 53.7148V51.7399H47.3397V53.7109C48.5684 53.7167 49.903 53.7148 51.2376 53.7129ZM72.5676 51.9188L72.5682 51.9205C72.7802 52.5368 72.9899 53.1464 73.1886 53.7148H81.423C80.8232 51.8884 80.2201 50.0488 79.6209 48.2211C79.1301 46.7239 78.6418 45.2346 78.1601 43.7671C77.4262 43.7671 76.6947 43.7669 75.9652 43.7666H75.9485C73.8575 43.766 71.7834 43.7653 69.716 43.7703C70.1571 44.9513 71.1376 47.6671 71.3741 48.4544L71.375 48.4553L71.9 50.0024L71.9054 50.0042C72.1221 50.6235 72.3462 51.2752 72.5676 51.9188ZM65.6363 43.7893C66.6304 43.7821 67.6245 43.777 68.6197 43.7735C68.7816 44.3387 69.3184 45.7456 69.7728 46.9364L69.7737 46.9387L69.7741 46.9399C70.0574 47.6824 70.3086 48.3406 70.4166 48.6581L70.7155 49.6145L70.7206 49.6162C70.9243 50.265 71.1441 50.9386 71.3667 51.6209L71.367 51.6219C71.5929 52.3145 71.8219 53.0163 72.0402 53.7109H61.9308C62.2057 52.8574 62.4771 52.0031 62.748 51.1505L62.7483 51.1493C63.4788 48.8497 64.207 46.5573 65.001 44.294C65.0799 44.0727 65.4173 43.791 65.6363 43.7893Z" fill="#252525"/>
<path d="M33.9529 43.3066L33.2112 40.4805L32.2188 40.8632L32.8949 43.3066H33.9529Z" fill="#252525"/>
<path d="M69.7436 43.1705L70.5983 39.7059L69.5219 39.6641L68.6243 43.0633L69.7436 43.1705Z" fill="#252525"/>
</g>
<defs>
<clipPath id="clip0_1399_55">
<rect width="84" height="54" fill="white" transform="translate(9.28613 0.679688)"/>
</clipPath>
</defs>
</svg>
