<svg width="56" height="67" viewBox="0 0 56 67" fill="none" xmlns="http://www.w3.org/2000/svg">
<g clip-path="url(#clip0_1073_351)">
<path d="M34.6649 47.4948H14.6595C11.8974 47.4948 9.60132 45.1987 9.60132 42.4366V9.42774C9.60132 9.08674 9.94232 8.73438 10.2947 8.73438H39.041C39.382 8.73438 39.7344 9.07538 39.7344 9.42774V42.4252C39.7344 45.1873 37.4383 47.4834 34.6762 47.4834L34.6649 47.4948ZM10.9767 10.1211V42.4366C10.9767 44.5053 12.5908 46.1194 14.6595 46.1194H34.6649C36.7336 46.1194 38.3477 44.5053 38.3477 42.4366V10.1211H10.9767Z" fill="black"/>
<path d="M33.2895 27.3653H10.2947C9.95369 27.3653 9.60132 27.0243 9.60132 26.6719C9.60132 26.3195 9.94232 25.9785 10.2947 25.9785H33.2895C33.6305 25.9785 33.9829 26.3195 33.9829 26.6719C33.9829 27.0243 33.6419 27.3653 33.2895 27.3653Z" fill="black"/>
<path d="M18.9105 31.7422H10.2832C9.94221 31.7422 9.58984 31.4012 9.58984 31.0488C9.58984 30.6965 9.93084 30.3555 10.2832 30.3555H18.9105C19.2515 30.3555 19.6039 30.6965 19.6039 31.0488C19.6039 31.4012 19.2629 31.7422 18.9105 31.7422Z" fill="black"/>
<path d="M18.9105 35.9922H10.2832C9.94221 35.9922 9.58984 35.6512 9.58984 35.2988C9.58984 34.9465 9.93084 34.6055 10.2832 34.6055H18.9105C19.2515 34.6055 19.6039 34.9465 19.6039 35.2988C19.6039 35.6512 19.2629 35.9922 18.9105 35.9922Z" fill="black"/>
<path d="M18.9105 40.3692H10.2832C9.94221 40.3692 9.58984 40.0282 9.58984 39.6758C9.58984 39.3234 9.93084 38.9824 10.2832 38.9824H18.9105C19.2515 38.9824 19.6039 39.3234 19.6039 39.6758C19.6039 40.0282 19.2629 40.3692 18.9105 40.3692Z" fill="black"/>
<path d="M44.7813 66.2391C44.4403 66.2391 44.0879 65.8981 44.0879 65.5458V0.812508C44.0879 0.471508 44.4289 0.119141 44.7813 0.119141C45.1336 0.119141 45.4746 0.460141 45.4746 0.812508V65.5458C45.4746 65.8868 45.1336 66.2391 44.7813 66.2391Z" fill="black"/>
<path d="M50.5327 66.2391C50.1917 66.2391 49.8394 65.8981 49.8394 65.5458V0.812508C49.8394 0.471508 50.1804 0.119141 50.5327 0.119141C50.8851 0.119141 51.2261 0.460141 51.2261 0.812508V65.5458C51.2261 65.8868 50.8851 66.2391 50.5327 66.2391Z" fill="black"/>
<path d="M54.784 17.3633H1.66749C1.32649 17.3633 0.974121 17.0223 0.974121 16.6699C0.974121 16.3176 1.31512 15.9766 1.66749 15.9766H54.784C55.125 15.9766 55.4774 16.3176 55.4774 16.6699C55.591 17.0109 55.25 17.3633 54.784 17.3633Z" fill="black"/>
<path d="M21.0931 61.8636H19.6041C17.1943 61.8636 15.2393 59.9085 15.2393 57.4988V57.3851C15.2393 56.4644 14.6596 55.7711 13.8639 55.3164C13.0569 54.8617 12.0225 54.9754 11.3291 55.5437C11.3291 55.5437 11.2155 55.5437 11.2155 55.6574L1.89478 60.3746C1.55378 60.6019 1.08774 60.3746 0.974077 60.0336C0.746743 59.6926 0.974077 59.2265 1.31508 59.1129L10.6244 54.5094C11.7724 53.7023 13.2728 53.5887 14.6482 54.1684C15.9099 54.7481 16.7169 56.0098 16.8306 57.3851V57.6125C16.8306 59.2265 18.0923 60.4882 19.7064 60.4882H21.1954C22.8095 60.4882 24.0712 59.2265 24.0712 57.6125V46.8027C24.0712 46.4617 24.4122 46.1094 24.7645 46.1094C25.1169 46.1094 25.3442 46.3367 25.3442 46.8027V57.6125C25.3442 59.9085 23.3892 61.8636 21.0931 61.8636Z" fill="black"/>
</g>
<defs>
<clipPath id="clip0_1073_351">
<rect width="54.6169" height="66.12" fill="white" transform="translate(0.883057 0.119141)"/>
</clipPath>
</defs>
</svg>
