<svg width="120" height="93" viewBox="0 0 120 93" fill="none" xmlns="http://www.w3.org/2000/svg">
    <path d="M10.8203 69.4488V71.1048C10.3403 70.6248 9.81829 70.2528 9.25429 69.9888C8.57029 69.6768 7.88029 69.5208 7.18429 69.5208C5.80429 69.5208 4.65229 70.0068 3.72829 70.9788C2.81629 71.9388 2.36029 73.1208 2.36029 74.5248C2.36029 76.0368 2.85829 77.2308 3.85429 78.1068C4.86229 78.9828 5.97829 79.4208 7.20229 79.4208C7.97029 79.4208 8.71429 79.2348 9.43429 78.8628C9.93829 78.6108 10.4003 78.2748 10.8203 77.8548V79.5108C9.72829 80.2908 8.52229 80.6808 7.20229 80.6808C5.42629 80.6808 3.94429 80.0868 2.75629 78.8988C1.58029 77.7108 0.992285 76.2468 0.992285 74.5068C0.992285 72.7188 1.58629 71.2308 2.77429 70.0428C3.97429 68.8548 5.47429 68.2608 7.27429 68.2608C8.59429 68.2608 9.77629 68.6568 10.8203 69.4488ZM21.305 80.4648L19.901 77.0808H14.789L13.349 80.4648H11.873L17.399 67.8828L22.781 80.4648H21.305ZM15.311 75.8208H19.379L17.363 71.0148L15.311 75.8208ZM25.8063 80.4648H24.4743V67.9548L33.8343 77.7648V68.4588H35.1663V81.0048L25.8063 71.1948V80.4648ZM40.7935 80.4648V75.2988L36.8515 68.4588H38.3995L41.4595 73.8228L44.5555 68.4588H46.1035L42.1255 75.2988V80.4648H40.7935ZM57.387 78.8988C56.187 80.0868 54.711 80.6808 52.959 80.6808C51.207 80.6808 49.725 80.0868 48.513 78.8988C47.313 77.7108 46.713 76.2348 46.713 74.4708C46.713 72.6948 47.319 71.2188 48.531 70.0428C49.743 68.8548 51.219 68.2608 52.959 68.2608C54.699 68.2608 56.175 68.8548 57.387 70.0428C58.599 71.2188 59.205 72.6948 59.205 74.4708C59.205 76.2348 58.599 77.7108 57.387 78.8988ZM56.415 70.9608C55.467 70.0008 54.315 69.5208 52.959 69.5208C51.603 69.5208 50.451 70.0008 49.503 70.9608C48.555 71.9208 48.081 73.0908 48.081 74.4708C48.081 75.8508 48.555 77.0208 49.503 77.9808C50.451 78.9408 51.603 79.4208 52.959 79.4208C54.315 79.4208 55.467 78.9408 56.415 77.9808C57.363 77.0208 57.837 75.8508 57.837 74.4708C57.837 73.0908 57.363 71.9208 56.415 70.9608ZM62.984 80.4648H61.652V67.9548L71.012 77.7648V68.4588H72.344V81.0048L62.984 71.1948V80.4648ZM78.2304 68.4588H79.7064L83.0904 77.6208L86.4744 68.4588H87.9504L83.0904 81.1848L78.2304 68.4588ZM89.6364 68.4588H90.9684V80.4648H89.6364V68.4588ZM100.294 68.4588V69.7188H95.3981V73.2828H100.15V74.5428H95.3981V79.2048H100.294V80.4648H94.0661V68.4588H100.294ZM101.346 68.4588H102.822L105.99 77.4588L109.752 67.8468L113.316 77.4588L116.826 68.4588H118.302L113.262 81.0948L109.734 71.4828L105.954 81.0948L101.346 68.4588Z" fill="#313D2D"/>
    <rect x="17.6394" y="0.578125" width="83.9057" height="49" stroke="black"/>
    <path fill-rule="evenodd" clip-rule="evenodd" d="M19.3706 2.00391L19.9955 2.16503L30.017 4.74924L40.0385 7.33344L40.4136 7.43018V7.81761V17.5218V42.7346V43.1234L40.0367 43.2192L30.0152 45.7643L19.9937 48.3094L19.3706 48.4677V47.8248V12.4315V2.6492V2.00391ZM20.3706 3.29448V12.0427L29.3921 14.3338V5.62082L20.3706 3.29448ZM30.3921 5.87869V14.5878L39.4136 16.879V8.20503L30.3921 5.87869ZM39.4136 17.9107L30.3921 15.6195V24.658H39.4136V17.9107ZM29.3921 15.3656V24.658H20.3706V13.0744L29.3921 15.3656ZM29.3921 25.658H20.3706V36.9456L29.3921 34.7174V25.658ZM29.3921 35.7474L20.3706 37.9756V47.182L29.3921 44.8908V35.7474ZM30.3921 35.5004L39.4136 33.2722V42.3457L30.3921 44.6368V35.5004ZM39.4136 32.2422L30.3921 34.4704V25.658H39.4136V32.2422Z" fill="black"/>
    <path fill-rule="evenodd" clip-rule="evenodd" d="M100.199 2.00391L99.5746 2.16503L89.5531 4.74924L79.5316 7.33344L79.1564 7.43018V7.81761V17.5218V42.7346V43.1234L79.5334 43.2192L89.5549 45.7643L99.5764 48.3094L100.199 48.4677V47.8248V12.4315V2.6492V2.00391ZM99.1995 3.29448V12.0427L90.178 14.3338V5.62082L99.1995 3.29448ZM89.178 5.87869V14.5878L80.1564 16.879V8.20503L89.178 5.87869ZM80.1564 17.9107L89.178 15.6195V24.658H80.1564V17.9107ZM90.178 15.3656V24.658H99.1995V13.0744L90.178 15.3656ZM90.178 25.658H99.1995V36.9456L90.178 34.7174V25.658ZM90.178 35.7474L99.1995 37.9756V47.182L90.178 44.8908V35.7474ZM89.178 35.5004L80.1564 33.2722V42.3457L89.178 44.6368V35.5004ZM80.1564 32.2422L89.178 34.4704V25.658H80.1564V32.2422Z" fill="black"/>
    <rect x="17.8025" y="5.4375" width="1.59613" height="4.77042" fill="black"/>
    <rect x="100.172" y="5.4375" width="1.59613" height="4.77042" fill="black"/>
    <rect x="17.8025" y="22.8555" width="1.59613" height="4.77042" fill="black"/>
    <rect x="100.172" y="22.8555" width="1.59613" height="4.77042" fill="black"/>
    <rect x="17.8025" y="40.2734" width="1.59613" height="4.77042" fill="black"/>
    <rect x="100.172" y="40.2734" width="1.59613" height="4.77042" fill="black"/>
    <path fill-rule="evenodd" clip-rule="evenodd" d="M65.8626 25.0775L65.5835 24.8867L65.3025 25.0746L53.5199 32.9525L49.4764 29.9014L49.1523 29.6569L48.8464 29.9239L39.54 38.0478L40.1977 38.8011L49.1982 30.9442L52.6397 33.541L51.0271 34.6191L51.583 35.4504L65.5772 26.0938L79.2579 35.4475L79.8223 34.622L65.8626 25.0775Z" fill="#030303"/>
    <path d="M59.4463 29.3951C59.2615 28.2108 58.2371 27.3047 57.001 27.3047C55.634 27.3047 54.5259 28.4128 54.5259 29.7798C54.5259 30.688 55.015 31.4819 55.7442 31.9125L54.8577 32.5154C54.0468 31.8792 53.5259 30.8903 53.5259 29.7798C53.5259 27.8605 55.0817 26.3047 57.001 26.3047C58.577 26.3047 59.9079 27.3538 60.3336 28.7918L59.4463 29.3951Z" fill="black"/>
    <path d="M57.0205 25.0083V15.6367" stroke="black"/>
    <path d="M60.3678 26.7424L67.7527 20.9727" stroke="black"/>
    <path d="M53.8312 26.7424L46.4463 20.9727" stroke="black"/>
    <path d="M58.7966 25.4819L64.0601 14.8125" stroke="black"/>
    <path d="M55.2439 25.4819L49.9804 14.8125" stroke="black"/>
    <path d="M52.5695 28.3039L42.5027 26.0273" stroke="black"/>
</svg>
