<svg width="307" height="158" viewBox="0 0 307 158" fill="none" xmlns="http://www.w3.org/2000/svg">
<path fill-rule="evenodd" clip-rule="evenodd" d="M154.241 0.743408H152.836V116.755H154.241V0.743408ZM221.585 15.2064L169.716 120.898L170.977 121.517L222.847 15.8256L221.585 15.2064ZM182.732 32.5026L162.136 117.962L163.502 118.292L184.098 32.8319L182.732 32.5026ZM178.398 125.248L230.929 59.0175L232.03 59.8908L179.499 126.121L178.398 125.248ZM275.305 58.9118L184.683 130.971L185.557 132.071L276.18 60.0117L275.305 58.9118ZM189.268 138.752L268.223 100.346L268.838 101.609L189.883 140.016L189.268 138.752ZM306.116 120.509L193.547 147.888L193.879 149.254L306.448 121.875L306.116 120.509ZM193.707 156.209H281.915V157.614H193.707V156.209ZM122.982 32.8256L124.348 32.4964L144.944 117.956L143.578 118.285L122.982 32.8256ZM85.5135 15.1899L84.2518 15.8086L136.084 121.518L137.346 120.9L85.5135 15.1899ZM75.0605 59.8634L76.1617 58.9904L128.681 125.23L127.58 126.103L75.0605 59.8634ZM31.7828 58.8824L30.908 59.9821L121.518 132.057L122.393 130.957L31.7828 58.8824ZM38.2392 101.589L38.8543 100.325L117.796 138.76L117.181 140.023L38.2392 101.589ZM0.955897 120.525L0.624268 121.891L113.202 149.23L113.534 147.865L0.955897 120.525ZM25.1651 156.209H113.374V157.614H25.1651V156.209Z" fill="url(#paint0_linear_401_3398)"/>
<defs>
<linearGradient id="paint0_linear_401_3398" x1="-36.4989" y1="79.1787" x2="319.085" y2="79.1786" gradientUnits="userSpaceOnUse">
<stop stop-color="#C59541"/>
<stop offset="0.369792" stop-color="#FBDD78"/>
<stop offset="1" stop-color="#BE9042"/>
</linearGradient>
</defs>
</svg>
