<svg width="960" height="148" viewBox="0 0 960 148" fill="none" xmlns="http://www.w3.org/2000/svg">
<mask id="mask0_654_1445" style="mask-type:alpha" maskUnits="userSpaceOnUse" x="0" y="0" width="960" height="148">
<rect x="0.801514" y="0.113281" width="958.735" height="146.939" fill="#D9D9D9"/>
</mask>
<g mask="url(#mask0_654_1445)">
<path d="M506.528 69.0586C487.737 85.6465 447.932 120.384 439.04 126.633C430.149 132.881 429.328 135.912 430.029 136.646" stroke="url(#paint0_linear_654_1445)"/>
<path d="M517.53 73.2695C506.021 81.9945 485.229 107.24 476.876 114.666C468.522 122.092 453.671 126.547 448.288 130.817C443.981 134.233 439.563 139.17 437.892 141.212" stroke="url(#paint1_linear_654_1445)"/>
<path d="M457.043 0.691406C452.513 5.98982 444.12 18.6381 446.787 26.8438C450.12 37.1009 430.633 45.5622 430.889 60.9465C431.146 76.3309 417.3 102.228 416.787 108.382C416.377 113.305 416.616 117.783 416.787 119.407" stroke="url(#paint2_linear_654_1445)"/>
<path d="M457.568 1.82227C454.989 7.9494 450.951 21.3258 455.44 25.8145C461.051 31.4252 446.168 47.1465 442.686 57.5948C439.203 68.0431 439.768 107.853 439.574 110.368C439.419 112.38 437.446 115.592 436.478 116.947" stroke="url(#paint3_linear_654_1445)"/>
<path d="M463.396 18.2812C465.915 22.3307 466.55 27.8783 464.932 32.2556C462.91 37.7272 452.935 53.8505 451.846 60.4497C449.965 71.8411 455.613 79.6429 457.199 85.9084" stroke="url(#paint4_linear_654_1445)"/>
<path d="M471.514 39.7148C471.622 40.754 471.098 44.5471 468.136 51.4062C464.434 59.9801 461.966 60.5647 464.564 66.4102C466.642 71.0866 469.197 76.9321 470.215 79.2703" stroke="url(#paint5_linear_654_1445)"/>
<path d="M271.721 55.332C272.178 62.1863 273.915 76.7175 277.205 80.0078C281.318 84.1207 300.053 94.174 300.053 99.6576C300.053 105.141 295.941 118.85 306.222 123.877C314.448 127.898 321.616 142.305 323.216 149.159" stroke="url(#paint6_linear_654_1445)"/>
<path d="M264.229 75.2539C265.215 82.0942 268.961 96.2182 276.06 97.9922C284.932 100.21 292.142 111.486 290.848 120.913C289.812 128.455 296.825 142.541 300.46 148.641" stroke="url(#paint7_linear_654_1445)"/>
<path d="M179.893 81.7812C175.657 89.8668 165.291 107.794 157.713 114.818C148.241 123.599 105.268 143.468 104.806 149.475" stroke="url(#paint8_linear_654_1445)"/>
<path d="M190.289 91.0234C187.517 96.1053 179.292 109.088 168.572 120.363C155.172 134.457 132.761 143.006 131.837 149.244" stroke="url(#paint9_linear_654_1445)"/>
<path d="M638.374 40.6465C640.916 44.2688 645.237 52.6573 642.187 57.2324C638.374 62.9514 630.939 63.7139 632.845 70.7676C634.752 77.8213 625.792 83.3499 628.27 90.4036C630.252 96.0466 621.852 108.133 617.403 113.471" stroke="url(#paint10_linear_654_1445)"/>
<path d="M648.859 49.416C650.956 52.6563 654.235 60.3573 650.575 65.2383C645.999 71.3395 638.183 70.1957 640.662 78.9652C643.14 87.7346 639.518 100.126 635.514 104.511C632.311 108.019 629.986 113.852 629.223 116.331" stroke="url(#paint11_linear_654_1445)"/>
<path d="M659.154 66.3828C655.087 69.9418 647.563 78.356 650.003 83.541C653.053 90.0223 654.006 99.1731 648.287 106.799C643.712 112.899 641.805 117.22 641.424 118.618" stroke="url(#paint12_linear_654_1445)"/>
<path d="M666.97 78.9648C664.047 79.7911 658.467 82.8163 659.535 88.3066C660.869 95.1696 664.11 107.561 659.535 112.137C655.875 115.797 654.705 119.254 654.578 120.525" stroke="url(#paint13_linear_654_1445)"/>
<path d="M932.635 50.6895C925.642 54.3709 910.855 63.9145 907.653 72.6367C903.651 83.5395 897.716 101.896 891.091 108.383C885.791 113.573 880.877 121.035 879.083 124.118" stroke="url(#paint14_linear_654_1445)"/>
<path d="M938.018 56.4863C931.991 60.6739 919.303 71.1744 916.763 79.6758C913.588 90.3026 899.096 119.287 893.437 124.67" stroke="url(#paint15_linear_654_1445)"/>
<path d="M818.846 1.79492C816.112 5.70071 811.112 14.8407 812.987 20.1543C815.331 26.7963 825.878 25.6243 825.683 37.3438C825.488 49.0633 820.018 57.8529 824.706 62.15C828.456 65.5877 834.472 72.4371 837.012 75.4321" stroke="url(#paint16_linear_654_1445)"/>
<path d="M805.174 12.3418C803.221 16.5091 800.252 26.1327 804.002 31.2891C808.69 37.7345 813.768 38.3204 814.159 48.282C814.549 58.2435 808.299 68.2051 812.01 74.8461C814.979 80.159 817.935 84.2217 819.042 85.589" stroke="url(#paint17_linear_654_1445)"/>
<path d="M793.259 36.7578C793.064 40.3381 793.884 48.3974 798.728 51.9922C804.783 56.4856 798.337 67.6191 799.705 75.6274C800.798 82.0341 809.666 91.3185 813.963 95.1599" stroke="url(#paint18_linear_654_1445)"/>
<path d="M780.758 54.5332C784.99 55.9003 793.024 60.1189 791.306 66.0566C789.157 73.4789 783.493 85.3937 789.352 94.5739C794.04 101.918 800.812 109.744 803.611 112.739" stroke="url(#paint19_linear_654_1445)"/>
<path d="M945.195 65.3203C939.859 68.3566 928.964 76.9136 928.081 86.8516C926.977 99.274 915.659 120.805 909.586 126.05" stroke="url(#paint20_linear_654_1445)"/>
<path d="M952.235 73.1875C948.37 76.1322 940.337 84.8371 939.122 96.0996C937.604 110.178 932.083 122.738 928.219 126.878" stroke="url(#paint21_linear_654_1445)"/>
<path d="M926.723 42.1289C918.746 47.9305 902.228 60.5777 899.966 64.7539C897.138 69.9742 885.826 97.166 884.738 98.4712C882.824 100.56 867.118 112.393 859.504 118.049" stroke="url(#paint22_linear_654_1445)"/>
<path d="M526.998 85.2539C530.316 89.7372 538.835 99.4032 546.367 102.201C553.9 104.999 559.011 115.204 560.625 119.957" stroke="url(#paint23_linear_654_1445)"/>
<path d="M520.273 94.6699C526.37 96.0141 539.749 101.178 544.484 111.078C549.219 120.979 551.12 128.117 551.479 130.448" stroke="url(#paint24_linear_654_1445)"/>
<path d="M511.664 104.353C515.969 103.277 525.33 103.33 528.343 112.154C531.356 120.979 528.523 128.206 526.729 130.717" stroke="url(#paint25_linear_654_1445)"/>
<path d="M208.559 112.291C205.144 117.447 198.119 130.774 197.346 142.838C196.573 154.902 197.668 161.269 198.313 162.944" stroke="url(#paint26_linear_654_1445)"/>
<path d="M198.312 97.5977C196.895 103.14 191.314 117.512 180.332 130.658C169.351 143.804 167.379 152.633 167.766 155.404" stroke="url(#paint27_linear_654_1445)"/>
<path d="M749.458 81.6074C743.771 83.5029 732.332 88.7477 732.079 94.5625C731.826 100.377 720.85 112.619 714.846 116.622" stroke="url(#paint28_linear_654_1445)"/>
<path d="M755.905 86.8027C750.873 88.305 740.927 92.5644 741.398 97.584C741.868 102.604 734.013 111.308 730.027 115.033" stroke="url(#paint29_linear_654_1445)"/>
<path d="M761.787 93.0762C757.147 93.533 748.377 95.5839 750.416 100.133C752.455 104.682 747.083 112.093 744.143 115.229" stroke="url(#paint30_linear_654_1445)"/>
<path d="M768.845 100.722C765.12 100.265 757.866 100.253 758.65 103.859C759.434 107.466 757.016 112.55 755.709 114.641" stroke="url(#paint31_linear_654_1445)"/>
<path fill-rule="evenodd" clip-rule="evenodd" d="M588.813 69.5064C585.151 64.6989 571.938 49.7253 570.523 48.1225L570.472 48.0645C569.762 46.8397 565 38.797 562.077 37.3357C559.023 35.806 549.672 45.6727 545.713 50.0725C541.14 53.1004 531.21 59.8709 529.318 62.7463C526.889 62.6675 515.798 62.1418 511.125 59.298C508.689 57.8122 506.258 56.0014 503.911 54.2531L503.902 54.2463C501.037 52.1069 498.33 50.0883 496.033 49.0107C492.411 47.3075 491.002 43.8907 490.019 40.4476C489.409 38.3081 487.59 36.5524 485.661 34.6916L485.633 34.6641C484.338 33.4111 483 32.1158 482.05 30.6912C481.636 30.0727 481.275 29.5033 480.939 28.9726L480.938 28.9704L480.801 28.7533C479.249 26.3057 478.128 24.5364 474.953 22.1544C471.932 19.8886 470.261 14.8125 469.152 11.4428L469.145 11.4203C469.103 11.2927 469.061 11.1668 469.021 11.043C468.853 10.5349 468.698 10.0621 468.546 9.6436C467.294 6.13741 458.689 0.985886 457.717 0.407654L457.212 0.113281L456.781 0.50753C456.781 0.50753 455.977 1.24346 454.736 2.34736C451.971 4.81273 446.872 9.27037 443.755 11.3993C440.459 13.6544 437.768 21.0978 435.607 27.0799L435.526 27.3055C434.562 29.9641 433.732 32.254 433.016 33.6139C430.803 37.814 428.054 39.8536 423.081 42.5871C420.016 44.2692 418.918 51.6495 417.95 58.1573L417.934 58.2648C417.431 61.624 416.755 66.1419 416.042 66.61C413.083 67.6876 407.689 75.6304 406.948 81.071C406.396 85.1239 402.186 89.9916 400.693 91.6054C394.207 85.5183 383.644 77.0151 382.754 76.2991L382.72 76.2717L382.379 75.9984L381.963 76.1455L381.937 76.1551C381.369 76.3597 374.349 78.8896 369.889 81.7071C365.599 84.4195 357.925 91.2269 354.681 96.4888C354.681 96.4888 354.632 96.5578 354.518 96.7148C354.397 96.8823 354.357 96.9454 354.313 97.0156C354.253 97.1105 354.185 97.2182 353.897 97.6133C353.85 97.6734 353.827 97.7057 353.809 97.7312L353.809 97.7318L353.809 97.7321C353.783 97.7691 353.767 97.7921 353.698 97.866C351.443 100.295 345.85 102.539 340.846 104.537C336.835 106.14 333.371 107.528 331.657 108.942C330.269 110.088 328.193 112.07 325.791 114.372L325.397 114.748C323.374 110.453 320.084 106.291 318 105.532C317.287 105.064 316.611 100.546 316.108 97.1872L316.092 97.0791C315.125 90.5714 314.026 83.1911 310.961 81.5089C305.988 78.7755 303.239 76.7359 301.026 72.5358C300.31 71.1758 299.48 68.8857 298.516 66.2269L298.435 66.0018C296.274 60.0197 293.583 52.5763 290.287 50.3212C287.17 48.1922 282.071 43.7346 279.306 41.2692C278.065 40.1653 277.261 39.4294 277.261 39.4294L276.83 39.0352L276.325 39.3295C275.353 39.9078 266.748 45.0593 265.496 48.5655C265.344 48.9835 265.189 49.4558 265.022 49.9633C264.981 50.0873 264.939 50.2143 264.897 50.3422L264.89 50.3647C263.781 53.7344 262.11 58.8105 259.089 61.0763C255.914 63.4583 254.793 65.2276 253.241 67.6753L253.103 67.8934L253.103 67.8945C252.767 68.4252 252.406 68.9945 251.992 69.6131C251.042 71.0378 249.704 72.333 248.409 73.586L248.381 73.6134C246.452 75.4743 244.633 77.23 244.023 79.3695C243.04 82.8126 241.631 86.2294 238.009 87.9326C235.712 89.0102 233.005 91.0287 230.14 93.1682L230.131 93.1748C227.784 94.9232 225.354 96.7341 222.918 98.2198C218.244 101.064 207.153 101.589 204.724 101.668C202.832 98.7928 192.902 92.0222 188.329 88.9944C184.371 84.5946 175.019 74.7278 171.965 76.2575C169.042 77.7189 164.28 85.7616 163.57 86.9864L163.517 87.0462C162.092 88.6607 148.889 103.623 145.229 108.428L145.235 108.418C141.713 113.038 81.9403 146.331 77.7009 146.992H87.5768C87.8554 146.992 142.48 114.631 146.486 109.374C150.239 104.449 164.658 88.1271 164.805 87.9641L164.895 87.8379C166.319 85.3778 170.498 78.7492 172.669 77.6611C173.915 77.0408 180.712 82.8651 187.225 90.1193L187.377 90.2507C194.968 95.2761 203.068 101.263 203.484 102.588C203.741 104.912 208.845 117.023 212.615 119.788C214.012 120.81 216.334 124.22 218.803 127.845L218.803 127.846L218.865 127.936C222.418 133.161 226.445 139.08 229.63 140.82C235.681 144.121 242.015 149.951 247.009 156.811C248.044 158.23 248.959 159.565 249.842 160.858L249.847 160.865C253.839 166.696 256.72 170.904 263.478 172.134C264.813 172.375 266.274 172.617 267.804 172.87L267.834 172.875C275.047 174.072 284.003 175.56 286.386 178.31C289.314 181.685 291.943 181.922 292.616 181.922C292.683 181.922 292.729 181.919 292.755 181.917C292.766 181.917 292.774 181.916 292.778 181.916C293.041 181.885 298.571 181.128 302.987 177.448C305.515 175.338 306.553 172.931 307.47 170.804L307.481 170.777C308.18 169.148 308.785 167.739 309.926 166.693C312.128 164.674 319.472 157.746 321.548 153.336C321.963 152.458 322.458 151.365 323.004 150.145L323.026 150.097C325.001 145.722 327.691 139.761 330.069 136.283C332.839 132.23 349.366 118.815 351.974 116.707C353.582 117.301 359.528 119.567 363.323 121.964C367.512 124.608 375.439 131.668 378.315 136.704C380.165 139.947 386.489 142.481 392.608 144.925L392.642 144.939C396.356 146.427 399.861 147.831 401.381 149.083C402.711 150.184 404.744 152.127 407.102 154.381L407.103 154.382L407.158 154.434C411.863 158.939 417.713 164.538 421.556 166.798L422.355 165.437C418.68 163.274 412.909 157.751 408.27 153.312L408.251 153.294C405.849 150.991 403.773 149.01 402.385 147.864C400.671 146.45 397.207 145.062 393.196 143.459C388.192 141.461 382.599 139.216 380.344 136.788C384.071 135.815 394.621 132.788 396.166 129.318C397.305 126.757 400.152 125.391 402.907 124.068L402.921 124.062L403.044 124.002C403.945 123.567 404.803 123.152 405.607 122.695C407.815 121.428 407.936 119.472 408.062 117.396C408.157 115.798 408.257 114.147 409.24 112.381C409.763 111.441 410.206 110.796 410.634 110.328L411.038 111.223C411.585 112.443 412.079 113.536 412.494 114.414C414.57 118.824 421.914 125.753 424.116 127.771C425.257 128.817 425.862 130.226 426.561 131.856L426.572 131.882C427.489 134.01 428.527 136.417 431.055 138.526C435.471 142.206 441.001 142.963 441.264 142.994C441.279 142.994 441.332 143 441.427 143C442.099 143 444.728 142.763 447.656 139.388C450.039 136.638 458.995 135.15 466.208 133.953L466.238 133.948C467.768 133.695 469.229 133.454 470.564 133.212C477.322 131.982 480.203 127.774 484.195 121.943L484.2 121.936C485.083 120.643 485.998 119.308 487.033 117.889C492.027 111.029 498.361 105.199 504.412 101.898C507.597 100.158 511.624 94.2389 515.177 89.0138L515.239 88.9233C517.708 85.2983 520.03 81.8878 521.428 80.866C525.197 78.101 530.301 65.9897 530.558 63.6662C530.974 62.3416 539.074 56.3542 546.665 51.3289L546.817 51.1975C553.33 43.9433 560.127 38.1189 561.373 38.7392C563.544 39.8273 567.723 46.456 569.147 48.9161L569.237 49.0422C569.384 49.2052 583.803 65.5271 587.556 70.4526C591.562 75.7092 607.808 77.0988 608.086 77.0988V75.5218C608.029 75.5218 592.329 74.1165 588.807 69.4959L588.813 69.5064ZM325.388 119.402C325.448 119.68 325.496 119.952 325.533 120.219C326.153 124.776 330.616 129.923 332.209 131.631C330.621 133.166 329.381 134.491 328.76 135.4C326.298 139.002 323.568 145.057 321.571 149.487L321.571 149.488L321.564 149.504L321.326 150.031C320.875 151.029 320.468 151.93 320.118 152.674L320.113 152.663C318.562 155.959 313.279 161.473 308.853 165.531C308.38 165.968 307.991 166.446 307.65 166.951C305.247 163.602 297.32 152.968 292.263 151.07C287.338 149.225 285.787 146.061 285.593 145.619C285.267 143.953 281.203 123.93 273.366 121.728C267.016 119.94 253.143 110.725 249.18 108.039C251.903 106.578 258.405 102.751 259.772 98.9137C261.423 94.2668 261.323 92.4007 260.087 87.9483C259.104 84.4053 260.965 81.5825 263.12 78.3181C263.233 78.1457 263.346 77.9732 263.46 77.8007L263.462 77.7977C263.576 77.6243 263.691 77.4508 263.804 77.2773C265.623 74.4755 264.944 72.1205 264.398 70.2281L264.393 70.2102C264.158 69.3915 263.935 68.6143 263.935 67.8942C263.935 65.5287 265.97 61.4548 269.265 58.9894C273.056 56.1561 275.358 52.8128 276.309 48.7652L274.774 48.4025C273.902 52.1242 271.852 55.089 268.325 57.7278C264.587 60.5244 262.358 65.0924 262.358 67.8942C262.358 68.8303 262.621 69.7458 262.876 70.6356L262.884 70.6644C263.415 72.4938 263.909 74.2179 262.484 76.4205C262.264 76.7674 262.038 77.1091 261.812 77.4508C259.641 80.7362 257.396 84.1373 258.573 88.3689C259.725 92.5006 259.846 94.0198 258.295 98.3828C257.112 101.721 250.478 105.637 247.629 107.077C245.453 106.173 233.978 101.668 229.504 105.437C225.504 108.801 219.138 110.457 215.332 111.446C214.969 111.54 214.628 111.63 214.312 111.714C211.679 112.418 209.608 112.003 208.893 111.814C207.2 108.544 205.755 105.011 205.239 103.224C208.477 103.098 218.943 102.483 223.748 99.5603C226.255 98.0358 228.716 96.2013 231.097 94.4245C233.893 92.3376 236.538 90.3664 238.693 89.3519C242.888 87.3754 244.47 83.5906 245.553 79.7953C246.047 78.0658 247.718 76.4468 249.49 74.7384C250.857 73.4189 252.265 72.0575 253.317 70.4805C253.79 69.7708 254.2 69.1242 254.578 68.525L254.6 68.4911C256.107 66.113 257.11 64.53 260.045 62.3326C263.473 59.7674 265.239 54.3898 266.406 50.8311L266.468 50.64C266.654 50.0735 266.824 49.5552 266.989 49.0964C267.83 46.7362 273.828 42.699 276.635 40.9906C276.993 41.3165 277.56 41.8264 278.26 42.452C278.737 42.8788 279.286 43.3631 279.879 43.8867L279.963 43.9606C282.838 46.4838 286.781 49.8376 289.398 51.6301C292.274 53.6013 294.981 61.0816 296.958 66.5485L297.012 66.6981L297.012 66.6995C298.009 69.4422 298.869 71.8111 299.638 73.277C302.02 77.8082 305.063 80.0686 310.204 82.8967C312.58 84.2056 313.71 91.7856 314.536 97.3208C315.456 103.487 315.966 106.478 317.464 107.025C319.15 107.64 322.349 111.746 324.197 115.895C324.194 115.898 324.191 115.901 324.188 115.903C324.693 116.713 325.48 118.246 325.413 119.273C325.411 119.312 325.402 119.355 325.388 119.402ZM326.869 115.527C326.605 115.78 326.337 116.036 326.067 116.295C326.573 117.58 326.937 118.843 327.094 119.993C327.646 124.046 331.856 128.913 333.349 130.527C339.831 124.444 350.385 115.948 351.286 115.222L351.288 115.221L351.322 115.194L351.664 114.92L352.079 115.067L352.105 115.077C352.673 115.282 359.693 117.811 364.153 120.629C368.443 123.341 376.117 130.149 379.361 135.411C384.97 134.002 393.654 131.063 394.721 128.672C396.097 125.578 399.356 124.017 402.23 122.641L402.238 122.637C403.163 122.195 404.035 121.775 404.824 121.323C406.228 120.519 406.364 119.394 406.49 117.301L406.491 117.287C406.591 115.681 406.715 113.689 407.862 111.614C408.617 110.255 409.284 109.393 409.94 108.8C408.126 104.825 405.942 100.242 403.973 97.3614C401.203 93.3085 384.676 79.8935 382.068 77.7856C380.46 78.3796 374.515 80.6452 370.719 83.0423C366.53 85.6864 358.603 92.746 355.727 97.7819C353.877 101.025 347.553 103.559 341.434 106.003L341.4 106.017C337.686 107.505 334.181 108.909 332.661 110.161C331.331 111.262 329.297 113.206 326.94 115.459L326.869 115.527ZM405.282 96.4783C407.222 99.3163 409.328 103.678 411.111 107.568L411.083 107.619L412.722 111.15L412.733 111.145C413.177 112.129 413.578 113.017 413.924 113.752L413.929 113.741C415.48 117.037 420.763 122.551 425.189 126.609C425.662 127.046 426.051 127.524 426.392 128.029C428.795 124.68 436.722 114.046 441.779 112.148C446.704 110.303 448.255 107.139 448.449 106.697C448.775 105.031 452.839 85.0083 460.676 82.8057C467.026 81.0185 480.899 71.8035 484.862 69.1174C482.139 67.656 475.637 63.8292 474.27 59.9918C472.62 55.345 472.719 53.4788 473.955 49.0265C474.938 45.4835 473.077 42.6606 470.922 39.3963C470.809 39.2228 470.694 39.0493 470.58 38.8759C470.466 38.7024 470.351 38.5289 470.238 38.3554C468.419 35.5536 469.098 33.1987 469.644 31.3063L469.649 31.2887C469.884 30.4699 470.107 29.6926 470.107 28.9723C470.107 26.6068 468.072 22.5329 464.777 20.0675C460.987 17.2342 458.684 13.891 457.733 9.84335L459.268 9.48064C460.14 13.2024 462.19 16.1671 465.718 18.8059C469.455 21.6025 471.684 26.1705 471.684 28.9723C471.684 29.9083 471.422 30.8237 471.167 31.7134L471.158 31.7426C470.627 33.5719 470.133 35.2961 471.558 37.4986C471.778 37.8456 472.004 38.1872 472.231 38.5289C474.402 41.8143 476.646 45.2154 475.469 49.447C474.317 53.5787 474.197 55.0979 475.747 59.4609C476.93 62.7989 483.564 66.7151 486.413 68.1554C488.589 67.2513 500.065 62.7463 504.538 66.5153C508.538 69.8796 514.904 71.5355 518.71 72.5237C518.836 72.5566 518.959 72.5888 519.08 72.6204C519.307 72.6797 519.524 72.7369 519.73 72.7918C522.363 73.4962 524.434 73.0809 525.149 72.8917C526.842 69.622 528.287 66.0896 528.803 64.3023C525.565 64.1761 515.099 63.5611 510.294 60.6384C507.787 59.114 505.326 57.2794 502.945 55.5027C500.149 53.4158 497.505 51.4445 495.349 50.43C491.154 48.4535 489.572 44.6687 488.489 40.8734C487.995 39.1439 486.324 37.5249 484.552 35.8165C483.185 34.4971 481.777 33.1356 480.725 31.5586C480.252 30.8489 479.842 30.2024 479.464 29.6031L479.442 29.5692C477.935 27.1911 476.932 25.6081 473.997 23.4108C470.569 20.8455 468.803 15.468 467.636 11.9092L467.573 11.7167C467.388 11.1508 467.218 10.6329 467.053 10.1745C466.212 7.81428 460.214 3.77717 457.407 2.06876C457.049 2.39467 456.482 2.90456 455.782 3.53011C455.309 3.95337 454.766 4.43323 454.178 4.95182L454.173 4.95628L454.079 5.03877C451.204 7.56196 447.261 10.9157 444.644 12.7082C441.768 14.6795 439.061 22.1597 437.085 27.6266L437.03 27.7771C436.033 30.5204 435.173 32.889 434.404 34.3551C432.022 38.8864 428.979 41.1467 423.838 43.9748C421.462 45.2837 420.332 52.8638 419.506 58.3991C418.586 64.5651 418.076 67.5562 416.578 68.1029C414.286 68.9387 409.203 76.2191 408.509 81.2971C407.889 85.8546 403.426 91.0008 401.833 92.7093C403.421 94.2442 404.661 95.5689 405.282 96.4783ZM520.492 79.5992C518.862 80.7924 516.549 84.1935 513.874 88.136L513.872 88.1384C510.419 93.2157 506.509 98.9649 503.655 100.521C497.405 103.932 490.881 109.925 485.756 116.969C484.71 118.409 483.785 119.755 482.896 121.053C478.98 126.778 476.389 130.557 470.28 131.666C468.96 131.907 467.51 132.148 465.997 132.4L465.994 132.4L465.991 132.401L465.98 132.402C458.127 133.701 449.227 135.178 446.468 138.363C443.766 141.478 441.572 141.436 441.447 141.433L441.442 141.433C441.39 141.428 436.138 140.708 432.07 137.317C429.833 135.457 428.916 133.331 428.027 131.271L428.012 131.235C427.764 130.657 427.517 130.089 427.249 129.543C428.863 127.267 437.405 115.476 442.331 113.631C448.318 111.386 449.879 107.381 449.942 107.207L449.979 107.076C451.083 101.309 455.225 85.9755 461.097 84.3249C468.624 82.2065 485.477 70.6155 486.77 69.7166C490.345 68.1659 500.133 64.8648 503.523 67.7191C507.797 71.3147 514.378 73.0283 518.31 74.0481C518.424 74.0778 518.536 74.107 518.644 74.1355L518.812 74.1795C518.988 74.2257 519.158 74.2698 519.32 74.311C520.586 74.6474 521.738 74.763 522.71 74.763C523.262 74.763 523.751 74.7262 524.182 74.6737C522.926 76.8815 521.612 78.7686 520.487 79.5886L520.492 79.5992ZM213.55 118.521C215.18 119.714 217.493 123.115 220.168 127.058L220.17 127.06C223.623 132.138 227.533 137.887 230.387 139.443C236.637 142.854 243.161 148.847 248.286 155.891C249.332 157.331 250.257 158.677 251.146 159.975C255.062 165.7 257.654 169.479 263.762 170.588C265.084 170.83 266.538 171.071 268.054 171.323L268.062 171.324C275.915 172.623 284.815 174.1 287.574 177.285C290.276 180.4 292.47 180.358 292.595 180.355L292.6 180.355C292.652 180.35 297.904 179.63 301.972 176.239C304.209 174.379 305.126 172.253 306.015 170.193L306.03 170.157C306.278 169.579 306.525 169.011 306.793 168.465C305.179 166.188 296.637 154.398 291.711 152.553C285.724 150.308 284.163 146.302 284.1 146.129L284.063 145.998C282.959 140.231 278.817 124.897 272.945 123.247C265.418 121.128 248.565 109.537 247.272 108.639C243.697 107.088 233.909 103.787 230.519 106.641C226.245 110.237 219.664 111.95 215.732 112.97L215.4 113.057L215.397 113.058C215.16 113.12 214.935 113.179 214.722 113.233C213.456 113.569 212.304 113.685 211.332 113.685C210.78 113.685 210.291 113.648 209.86 113.596C211.116 115.803 212.431 117.69 213.555 118.511L213.55 118.521Z" fill="url(#paint32_linear_654_1445)"/>
<path fill-rule="evenodd" clip-rule="evenodd" d="M932.091 48.1225C933.505 49.7253 946.719 64.6989 950.38 69.5064L950.375 69.4959C953.897 74.1165 959.942 74.1901 960 74.1901V75.7671C959.721 75.7671 953.13 75.7092 949.124 70.4526C945.371 65.5271 930.952 49.2052 930.805 49.0422L930.715 48.9161C929.291 46.456 925.112 39.8273 922.941 38.7392C921.695 38.1189 914.898 43.9433 908.385 51.1975L908.232 51.3289C900.642 56.3542 892.541 62.3416 892.126 63.6662C891.869 65.9897 886.764 78.101 882.995 80.866C881.598 81.8878 879.275 85.2983 876.807 88.9233L876.745 89.0138C873.192 94.2389 869.165 100.158 865.979 101.898C859.929 105.199 853.595 111.029 848.601 117.889C847.565 119.308 846.651 120.643 845.768 121.936L845.763 121.943C841.77 127.774 838.889 131.982 832.132 133.212C830.797 133.454 829.335 133.695 827.806 133.948L827.775 133.953C820.563 135.15 811.607 136.638 809.223 139.388C806.295 142.763 803.667 143 802.994 143C802.9 143 802.847 142.994 802.831 142.994C802.568 142.963 797.038 142.206 792.623 138.526C790.094 136.417 789.057 134.01 788.14 131.882L788.128 131.856C787.429 130.226 786.825 128.817 785.684 127.771C783.482 125.753 776.138 118.824 774.062 114.414C773.646 113.536 773.152 112.443 772.606 111.223L772.201 110.328C771.774 110.796 771.331 111.441 770.807 112.381C769.824 114.147 769.724 115.798 769.63 117.396C769.504 119.472 769.383 121.428 767.175 122.695C766.371 123.152 765.513 123.567 764.612 124.002L764.489 124.062L764.475 124.068C761.72 125.391 758.873 126.757 757.734 129.318C756.189 132.788 745.638 135.815 741.911 136.788C744.167 139.216 749.76 141.461 754.764 143.459C758.775 145.062 762.239 146.45 763.953 147.864C765.34 149.01 767.417 150.991 769.819 153.294L769.838 153.312C774.476 157.751 780.248 163.274 783.923 165.437L783.124 166.798C779.281 164.538 773.43 158.939 768.726 154.434L768.671 154.382L768.669 154.381C766.312 152.127 764.279 150.184 762.949 149.083C761.429 147.831 757.924 146.427 754.21 144.939L754.175 144.925C748.057 142.481 741.733 139.947 739.882 136.704C737.007 131.668 729.08 124.608 724.89 121.964C721.095 119.567 715.15 117.301 713.541 116.707C710.934 118.815 694.407 132.23 691.637 136.283C689.259 139.761 686.568 145.722 684.594 150.097L684.572 150.145C684.025 151.365 683.531 152.458 683.116 153.336C681.039 157.746 673.696 164.674 671.493 166.693C670.353 167.739 669.748 169.148 669.049 170.777L669.038 170.804C668.121 172.931 667.083 175.338 664.555 177.448C660.139 181.128 654.609 181.885 654.346 181.916C654.33 181.916 654.278 181.922 654.183 181.922C653.51 181.922 650.882 181.685 647.954 178.31C645.571 175.56 636.614 174.072 629.402 172.875L629.372 172.87C627.842 172.617 626.381 172.375 625.046 172.134C618.288 170.904 615.407 166.696 611.414 160.865L611.41 160.858C610.527 159.565 609.612 158.23 608.576 156.811C603.583 149.951 597.248 144.121 591.198 140.82C588.012 139.08 583.986 133.161 580.432 127.936L580.371 127.846C577.902 124.22 575.579 120.81 574.182 119.788C570.413 117.023 565.309 104.912 565.051 102.588C564.636 101.263 556.536 95.2761 548.945 90.2507L548.793 90.1193C542.28 82.8651 535.483 77.0408 534.237 77.6611C532.066 78.7492 527.887 85.3778 526.462 87.8379L526.373 87.9641C526.226 88.1271 511.807 104.449 508.053 109.374C504.048 114.631 490.215 114.102 489.936 114.102L491.473 112.298C491.531 112.298 503.28 113.038 506.802 108.418L506.797 108.428C510.457 103.623 523.66 88.6607 525.085 87.0462L525.138 86.9864C525.847 85.7616 530.61 77.7189 533.532 76.2575C536.587 74.7278 545.938 84.5946 549.896 88.9944C554.47 92.0222 564.4 98.7928 566.292 101.668C568.72 101.589 579.812 101.064 584.485 98.2198C586.921 96.7341 589.352 94.9232 591.699 93.1748L591.708 93.1682C594.573 91.0287 597.28 89.0102 599.577 87.9326C603.199 86.2294 604.608 82.8126 605.591 79.3695C606.2 77.23 608.019 75.4743 609.948 73.6134L609.977 73.586C611.272 72.333 612.61 71.0378 613.56 69.6131C613.974 68.9941 614.335 68.4245 614.671 67.8934L614.809 67.6753C616.361 65.2276 617.482 63.4583 620.656 61.0763C623.677 58.8105 625.348 53.7344 626.457 50.3647L626.465 50.3422C626.507 50.2143 626.549 50.0873 626.59 49.9633C626.757 49.4558 626.912 48.9835 627.064 48.5655C628.315 45.0593 636.92 39.9078 637.893 39.3295L638.397 39.0352L638.828 39.4294C638.828 39.4294 639.633 40.1653 640.873 41.2692C643.638 43.7346 648.737 48.1922 651.854 50.3212C655.15 52.5763 657.842 60.0197 660.002 66.0018L660.084 66.2269C661.048 68.8857 661.878 71.1758 662.594 72.5358C664.807 76.7359 667.556 78.7755 672.529 81.5089C675.594 83.1911 676.692 90.5714 677.659 97.0791L677.676 97.1872C678.179 100.546 678.855 105.064 679.568 105.532C681.651 106.291 684.941 110.453 686.965 114.748L687.358 114.372C689.761 112.07 691.837 110.088 693.225 108.942C694.938 107.528 698.403 106.14 702.413 104.537C707.418 102.539 713.011 100.295 715.266 97.866C715.335 97.7919 715.351 97.769 715.377 97.7318C715.394 97.7062 715.417 97.6738 715.465 97.6133C715.752 97.2182 715.82 97.1105 715.88 97.0156C715.925 96.9454 715.965 96.8823 716.086 96.7148C716.199 96.5578 716.249 96.4888 716.249 96.4888C719.492 91.2269 727.167 84.4195 731.456 81.7071C735.917 78.8896 742.937 76.3597 743.504 76.1551L743.531 76.1455L743.946 75.9984L744.288 76.2717L744.322 76.2991C745.211 77.0151 755.775 85.5183 762.26 91.6054C763.753 89.9916 767.964 85.1239 768.516 81.071C769.257 75.6304 774.65 67.6876 777.61 66.61C778.322 66.1419 778.999 61.624 779.502 58.2648L779.518 58.1573C780.485 51.6495 781.584 44.2692 784.649 42.5871C789.621 39.8536 792.371 37.814 794.584 33.6139C795.299 32.254 796.13 29.9641 797.093 27.3055L797.175 27.0799C799.336 21.0978 802.027 13.6544 805.323 11.3993C808.44 9.27037 813.539 4.81273 816.304 2.34736C817.545 1.24346 818.349 0.50753 818.349 0.50753L818.78 0.113281L819.285 0.407654C820.257 0.985886 828.862 6.13741 830.113 9.6436C830.266 10.0621 830.421 10.5349 830.588 11.043C830.629 11.1668 830.67 11.2927 830.713 11.4203L830.72 11.4428C831.829 14.8125 833.5 19.8886 836.521 22.1544C839.695 24.5364 840.817 26.3057 842.368 28.7533L842.506 28.9704L842.507 28.9726C842.843 29.5033 843.204 30.0727 843.618 30.6912C844.567 32.1158 845.906 33.4111 847.201 34.6641L847.229 34.6916C849.158 36.5524 850.977 38.3081 851.587 40.4476C852.57 43.8907 853.979 47.3075 857.6 49.0107C859.898 50.0883 862.605 52.1069 865.47 54.2463L865.479 54.2531C867.826 56.0014 870.256 57.8122 872.692 59.298C877.365 62.1418 888.457 62.6675 890.886 62.7463C892.778 59.8709 902.708 53.1004 907.281 50.0725C911.239 45.6727 920.591 35.806 923.645 37.3357C926.568 38.797 931.33 46.8397 932.04 48.0645L932.091 48.1225ZM686.399 117.474C686.736 118.424 686.982 119.354 687.1 120.219C687.721 124.776 692.183 129.923 693.776 131.631C692.189 133.166 690.948 134.491 690.328 135.4C687.866 139.002 685.136 145.057 683.139 149.487L683.139 149.488L683.132 149.504L682.893 150.031C682.442 151.029 682.035 151.93 681.686 152.674L681.681 152.663C680.13 155.959 674.847 161.473 670.421 165.531C669.948 165.968 669.559 166.446 669.217 166.951C666.815 163.602 658.888 152.968 653.831 151.07C648.905 149.225 647.355 146.061 647.16 145.619C646.834 143.953 642.771 123.93 634.933 121.728C628.583 119.94 614.711 110.725 610.747 108.039C613.47 106.578 619.973 102.751 621.34 98.9137C622.99 94.2668 622.89 92.4007 621.655 87.9483C620.672 84.4053 622.533 81.5825 624.688 78.3181C624.8 78.1457 624.914 77.9732 625.028 77.8007L625.03 77.7977C625.144 77.6243 625.258 77.4508 625.371 77.2773C627.19 74.4755 626.512 72.1205 625.965 70.2281L625.96 70.2102C625.726 69.3915 625.503 68.6143 625.503 67.8942C625.503 65.5287 627.537 61.4548 630.833 58.9894C634.623 56.1561 636.926 52.8128 637.877 48.7652L636.342 48.4025C635.469 52.1242 633.419 55.089 629.892 57.7278C626.155 60.5244 623.926 65.0924 623.926 67.8942C623.926 68.8303 624.188 69.7458 624.443 70.6356L624.452 70.6644C624.982 72.4938 625.477 74.2179 624.052 76.4205C623.831 76.7674 623.605 77.1091 623.379 77.4508C621.208 80.7362 618.964 84.1373 620.141 88.3689C621.292 92.5006 621.413 94.0198 619.862 98.3828C618.68 101.721 612.046 105.637 609.197 107.077C607.02 106.173 595.545 101.668 591.072 105.437C587.071 108.801 580.706 110.457 576.9 111.446C576.537 111.54 576.195 111.63 575.88 111.714C573.246 112.418 571.175 112.003 570.46 111.814C568.768 108.544 567.322 105.011 566.807 103.224C570.045 103.098 580.511 102.483 585.316 99.5603C587.823 98.0358 590.283 96.2013 592.665 94.4245C595.461 92.3376 598.105 90.3664 600.26 89.3519C604.455 87.3754 606.037 83.5906 607.12 79.7953C607.614 78.0658 609.286 76.4468 611.058 74.7384C612.424 73.4189 613.833 72.0575 614.884 70.4805C615.358 69.7708 615.768 69.1242 616.146 68.525L616.167 68.4911C617.675 66.113 618.678 64.53 621.613 62.3326C625.04 59.7674 626.807 54.3898 627.973 50.8311L628.036 50.64C628.222 50.0735 628.391 49.5552 628.557 49.0964C629.398 46.7362 635.396 42.699 638.203 40.9906C638.56 41.3165 639.128 41.8264 639.827 42.452C640.304 42.8788 640.853 43.3631 641.447 43.8867L641.53 43.9606C644.406 46.4838 648.348 49.8376 650.966 51.6301C653.841 53.6013 656.549 61.0816 658.525 66.5485L658.579 66.6981L658.58 66.6995C659.576 69.4422 660.437 71.8111 661.206 73.277C663.587 77.8082 666.631 80.0686 671.772 82.8967C674.148 84.2056 675.278 91.7856 676.103 97.3208C677.023 103.487 677.533 106.478 679.031 107.025C680.718 107.64 683.917 111.746 685.765 115.895C681.451 120.008 676.523 124.591 673.255 126.515L674.054 127.876C677.354 125.935 682.135 121.532 686.399 117.474ZM687.634 116.295C687.905 116.036 688.173 115.78 688.437 115.527L688.508 115.459C690.865 113.206 692.899 111.262 694.229 110.161C695.749 108.909 699.254 107.505 702.968 106.017L703.002 106.003C709.121 103.559 715.445 101.025 717.295 97.7819C720.17 92.746 728.097 85.6864 732.287 83.0423C736.082 80.6452 742.028 78.3796 743.636 77.7856C746.243 79.8935 762.77 93.3085 765.541 97.3614C767.51 100.242 769.694 104.825 771.508 108.8C770.852 109.393 770.185 110.255 769.43 111.614C768.282 113.689 768.159 115.681 768.059 117.287L768.058 117.301C767.932 119.394 767.795 120.519 766.392 121.323C765.603 121.775 764.731 122.195 763.805 122.637L763.797 122.641C760.924 124.017 757.664 125.578 756.288 128.672C755.221 131.063 746.537 134.002 740.928 135.411C737.685 130.149 730.01 123.341 725.721 120.629C721.26 117.811 714.241 115.282 713.673 115.077L713.646 115.067L713.231 114.92L712.889 115.194L712.855 115.221C711.966 115.937 701.403 124.44 694.917 130.527C693.424 128.913 689.213 124.046 688.662 119.993C688.505 118.843 688.14 117.58 687.634 116.295ZM772.679 107.568C770.896 103.678 768.79 99.3163 766.85 96.4783C766.229 95.5689 764.989 94.2442 763.401 92.7093C764.994 91.0008 769.457 85.8546 770.077 81.2971C770.771 76.2191 775.854 68.9387 778.146 68.1029C779.644 67.5562 780.154 64.5651 781.074 58.3991C781.899 52.8638 783.03 45.2837 785.406 43.9748C790.547 41.1467 793.59 38.8864 795.971 34.3551C796.741 32.889 797.601 30.5204 798.598 27.7771L798.652 27.6266C800.629 22.1597 803.336 14.6795 806.211 12.7082C808.829 10.9157 812.772 7.56196 815.647 5.03877L815.741 4.95628L815.746 4.95182C816.333 4.43323 816.877 3.95337 817.35 3.53011C818.049 2.90456 818.617 2.39467 818.974 2.06876C821.782 3.77717 827.779 7.81428 828.62 10.1745C828.786 10.6329 828.956 11.1508 829.141 11.7167L829.204 11.9092C830.371 15.468 832.137 20.8455 835.565 23.4108C838.5 25.6081 839.503 27.1911 841.01 29.5692L841.031 29.6031C841.41 30.2024 841.82 30.8489 842.293 31.5586C843.344 33.1356 844.753 34.4971 846.12 35.8165C847.891 37.5249 849.563 39.1439 850.057 40.8734C851.14 44.6687 852.722 48.4535 856.917 50.43C859.072 51.4445 861.716 53.4158 864.513 55.5027C866.894 57.2794 869.354 59.114 871.862 60.6384C876.666 63.5611 887.132 64.1761 890.37 64.3023C889.855 66.0896 888.41 69.622 886.717 72.8917C886.002 73.0809 883.931 73.4962 881.297 72.7918C880.982 72.7077 880.64 72.6183 880.278 72.5237C876.472 71.5355 870.106 69.8796 866.106 66.5153C861.632 62.7463 850.157 67.2513 847.981 68.1554C845.132 66.7151 838.498 62.7989 837.315 59.4609C835.764 55.0979 835.885 53.5787 837.036 49.447C838.214 45.2154 835.969 41.8143 833.798 38.5289C833.572 38.1872 833.346 37.8456 833.125 37.4986C831.701 35.2961 832.195 33.5719 832.726 31.7426L832.734 31.7134C832.989 30.8237 833.252 29.9083 833.252 28.9723C833.252 26.1705 831.023 21.6025 827.285 18.8059C823.758 16.1671 821.708 13.2024 820.835 9.48064L819.3 9.84335C820.252 13.891 822.554 17.2342 826.344 20.0675C829.64 22.5329 831.675 26.6068 831.675 28.9723C831.675 29.6926 831.452 30.4699 831.217 31.2887L831.212 31.3063C830.665 33.1987 829.987 35.5536 831.806 38.3554C831.919 38.5289 832.033 38.7024 832.148 38.8759C832.262 39.0493 832.376 39.2228 832.489 39.3963C834.645 42.6606 836.505 45.4835 835.522 49.0265C834.287 53.4788 834.187 55.345 835.838 59.9918C837.205 63.8292 843.707 67.656 846.43 69.1174C842.466 71.8035 828.594 81.0185 822.244 82.8057C814.406 85.0083 810.343 105.031 810.017 106.697C809.823 107.139 808.272 110.303 803.346 112.148C798.29 114.046 790.363 124.68 787.96 128.029C787.619 127.524 787.23 127.046 786.756 126.609C782.33 122.551 777.047 117.037 775.497 113.741L775.491 113.752C775.146 113.017 774.745 112.129 774.3 111.145L774.29 111.15L772.651 107.619L772.679 107.568ZM875.441 88.136C878.117 84.1935 880.43 80.7924 882.06 79.5992L882.054 79.5886C883.179 78.7686 884.493 76.8815 885.75 74.6737C885.319 74.7262 884.83 74.763 884.278 74.763C883.305 74.763 882.154 74.6474 880.887 74.311C880.725 74.2698 880.556 74.2257 880.38 74.1795L880.212 74.1355C880.103 74.107 879.992 74.0778 879.878 74.0481C875.946 73.0283 869.365 71.3147 865.091 67.7191C861.701 64.8648 851.913 68.1659 848.338 69.7166C847.045 70.6155 830.192 82.2065 822.665 84.3249C816.793 85.9755 812.651 101.309 811.547 107.076L811.51 107.207C811.447 107.381 809.886 111.386 803.898 113.631C798.973 115.476 790.431 127.267 788.817 129.543C789.085 130.089 789.332 130.657 789.579 131.235L789.595 131.271C790.484 133.331 791.401 135.457 793.637 137.317C797.706 140.708 802.957 141.428 803.01 141.433L803.015 141.433C803.14 141.436 805.334 141.478 808.035 138.363C810.795 135.178 819.695 133.701 827.548 132.402L827.559 132.401L827.562 132.4C829.076 132.148 830.527 131.907 831.848 131.666C837.956 130.557 840.548 126.778 844.464 121.053C845.352 119.755 846.278 118.409 847.324 116.969C852.449 109.925 858.972 103.932 865.223 100.521C868.076 98.9649 871.987 93.2157 875.44 88.1384L875.441 88.136ZM581.736 127.058C579.06 123.115 576.747 119.714 575.118 118.521L575.123 118.511C573.998 117.69 572.684 115.803 571.428 113.596C571.859 113.648 572.348 113.685 572.9 113.685C573.872 113.685 575.023 113.569 576.29 113.233C576.504 113.179 576.73 113.119 576.968 113.057L577.299 112.97C581.231 111.95 587.813 110.237 592.086 106.641C595.477 103.787 605.265 107.088 608.839 108.639C610.132 109.537 626.985 121.128 634.513 123.247C640.384 124.897 644.527 140.231 645.631 145.998L645.667 146.129C645.73 146.302 647.292 150.308 653.279 152.553C658.204 154.398 666.747 166.188 668.36 168.465C668.092 169.011 667.845 169.579 667.598 170.157L667.583 170.193C666.694 172.253 665.777 174.379 663.54 176.239C659.471 179.63 654.22 180.35 654.167 180.355L654.163 180.355C654.037 180.358 651.843 180.4 649.142 177.285C646.382 174.1 637.483 172.623 629.629 171.324L629.622 171.323C628.105 171.071 626.652 170.83 625.329 170.588C619.221 169.479 616.63 165.7 612.713 159.975C611.825 158.677 610.9 157.331 609.854 155.891C604.729 148.847 598.205 142.854 591.955 139.443C589.101 137.887 585.191 132.138 581.738 127.06L581.736 127.058Z" fill="url(#paint33_linear_654_1445)"/>
<path d="M686.937 119.127C687.006 118.556 686.127 116.679 685.68 115.812L680.994 117.155L669.88 125.098L672.28 131.869L678.537 130.441L682.194 124.612C683.747 123.022 686.868 119.698 686.937 119.127Z" fill="#1A2714"/>
</g>
<defs>
<linearGradient id="paint0_linear_654_1445" x1="420.526" y1="102.852" x2="509.697" y2="102.852" gradientUnits="userSpaceOnUse">
<stop stop-color="#C59541"/>
<stop offset="0.369792" stop-color="#FBDD78"/>
<stop offset="1" stop-color="#BE9042"/>
</linearGradient>
<linearGradient id="paint1_linear_654_1445" x1="428.225" y1="107.241" x2="520.821" y2="107.241" gradientUnits="userSpaceOnUse">
<stop stop-color="#C59541"/>
<stop offset="0.369792" stop-color="#FBDD78"/>
<stop offset="1" stop-color="#BE9042"/>
</linearGradient>
<linearGradient id="paint2_linear_654_1445" x1="411.647" y1="60.0492" x2="458.716" y2="60.0492" gradientUnits="userSpaceOnUse">
<stop stop-color="#C59541"/>
<stop offset="0.369792" stop-color="#FBDD78"/>
<stop offset="1" stop-color="#BE9042"/>
</linearGradient>
<linearGradient id="paint3_linear_654_1445" x1="433.918" y1="59.3844" x2="458.44" y2="59.3844" gradientUnits="userSpaceOnUse">
<stop stop-color="#C59541"/>
<stop offset="0.369792" stop-color="#FBDD78"/>
<stop offset="1" stop-color="#BE9042"/>
</linearGradient>
<linearGradient id="paint4_linear_654_1445" x1="449.724" y1="52.0949" x2="466.414" y2="52.0949" gradientUnits="userSpaceOnUse">
<stop stop-color="#C59541"/>
<stop offset="0.369792" stop-color="#FBDD78"/>
<stop offset="1" stop-color="#BE9042"/>
</linearGradient>
<linearGradient id="paint5_linear_654_1445" x1="462.513" y1="59.4926" x2="471.859" y2="59.4926" gradientUnits="userSpaceOnUse">
<stop stop-color="#C59541"/>
<stop offset="0.369792" stop-color="#FBDD78"/>
<stop offset="1" stop-color="#BE9042"/>
</linearGradient>
<linearGradient id="paint6_linear_654_1445" x1="265.47" y1="102.246" x2="325.343" y2="102.246" gradientUnits="userSpaceOnUse">
<stop stop-color="#C59541"/>
<stop offset="0.369792" stop-color="#FBDD78"/>
<stop offset="1" stop-color="#BE9042"/>
</linearGradient>
<linearGradient id="paint7_linear_654_1445" x1="259.831" y1="111.947" x2="301.957" y2="111.947" gradientUnits="userSpaceOnUse">
<stop stop-color="#C59541"/>
<stop offset="0.369792" stop-color="#FBDD78"/>
<stop offset="1" stop-color="#BE9042"/>
</linearGradient>
<linearGradient id="paint8_linear_654_1445" x1="95.6911" y1="115.628" x2="182.995" y2="115.628" gradientUnits="userSpaceOnUse">
<stop stop-color="#C59541"/>
<stop offset="0.369792" stop-color="#FBDD78"/>
<stop offset="1" stop-color="#BE9042"/>
</linearGradient>
<linearGradient id="paint9_linear_654_1445" x1="124.742" y1="120.134" x2="192.705" y2="120.134" gradientUnits="userSpaceOnUse">
<stop stop-color="#C59541"/>
<stop offset="0.369792" stop-color="#FBDD78"/>
<stop offset="1" stop-color="#BE9042"/>
</linearGradient>
<linearGradient id="paint10_linear_654_1445" x1="614.268" y1="77.0588" x2="644.303" y2="77.0588" gradientUnits="userSpaceOnUse">
<stop stop-color="#C59541"/>
<stop offset="0.369792" stop-color="#FBDD78"/>
<stop offset="1" stop-color="#BE9042"/>
</linearGradient>
<linearGradient id="paint11_linear_654_1445" x1="626.431" y1="82.8734" x2="653.174" y2="82.8734" gradientUnits="userSpaceOnUse">
<stop stop-color="#C59541"/>
<stop offset="0.369792" stop-color="#FBDD78"/>
<stop offset="1" stop-color="#BE9042"/>
</linearGradient>
<linearGradient id="paint12_linear_654_1445" x1="639.272" y1="92.5006" x2="659.886" y2="92.5006" gradientUnits="userSpaceOnUse">
<stop stop-color="#C59541"/>
<stop offset="0.369792" stop-color="#FBDD78"/>
<stop offset="1" stop-color="#BE9042"/>
</linearGradient>
<linearGradient id="paint13_linear_654_1445" x1="653.074" y1="99.7448" x2="667.482" y2="99.7448" gradientUnits="userSpaceOnUse">
<stop stop-color="#C59541"/>
<stop offset="0.369792" stop-color="#FBDD78"/>
<stop offset="1" stop-color="#BE9042"/>
</linearGradient>
<linearGradient id="paint14_linear_654_1445" x1="872.582" y1="87.4037" x2="934.848" y2="87.4037" gradientUnits="userSpaceOnUse">
<stop stop-color="#C59541"/>
<stop offset="0.369792" stop-color="#FBDD78"/>
<stop offset="1" stop-color="#BE9042"/>
</linearGradient>
<linearGradient id="paint15_linear_654_1445" x1="888.026" y1="90.5782" x2="939.861" y2="90.5782" gradientUnits="userSpaceOnUse">
<stop stop-color="#C59541"/>
<stop offset="0.369792" stop-color="#FBDD78"/>
<stop offset="1" stop-color="#BE9042"/>
</linearGradient>
<linearGradient id="paint16_linear_654_1445" x1="809.61" y1="38.6135" x2="838.021" y2="38.6135" gradientUnits="userSpaceOnUse">
<stop stop-color="#C59541"/>
<stop offset="0.369792" stop-color="#FBDD78"/>
<stop offset="1" stop-color="#BE9042"/>
</linearGradient>
<linearGradient id="paint17_linear_654_1445" x1="800.158" y1="48.9654" x2="819.738" y2="48.9654" gradientUnits="userSpaceOnUse">
<stop stop-color="#C59541"/>
<stop offset="0.369792" stop-color="#FBDD78"/>
<stop offset="1" stop-color="#BE9042"/>
</linearGradient>
<linearGradient id="paint18_linear_654_1445" x1="790.716" y1="65.9589" x2="814.82" y2="65.9589" gradientUnits="userSpaceOnUse">
<stop stop-color="#C59541"/>
<stop offset="0.369792" stop-color="#FBDD78"/>
<stop offset="1" stop-color="#BE9042"/>
</linearGradient>
<linearGradient id="paint19_linear_654_1445" x1="777.984" y1="83.6362" x2="804.555" y2="83.6362" gradientUnits="userSpaceOnUse">
<stop stop-color="#C59541"/>
<stop offset="0.369792" stop-color="#FBDD78"/>
<stop offset="1" stop-color="#BE9042"/>
</linearGradient>
<linearGradient id="paint20_linear_654_1445" x1="905.263" y1="95.6853" x2="946.667" y2="95.6853" gradientUnits="userSpaceOnUse">
<stop stop-color="#C59541"/>
<stop offset="0.369792" stop-color="#FBDD78"/>
<stop offset="1" stop-color="#BE9042"/>
</linearGradient>
<linearGradient id="paint21_linear_654_1445" x1="925.304" y1="100.033" x2="953.227" y2="100.033" gradientUnits="userSpaceOnUse">
<stop stop-color="#C59541"/>
<stop offset="0.369792" stop-color="#FBDD78"/>
<stop offset="1" stop-color="#BE9042"/>
</linearGradient>
<linearGradient id="paint22_linear_654_1445" x1="851.345" y1="80.0891" x2="929.5" y2="80.0891" gradientUnits="userSpaceOnUse">
<stop stop-color="#C59541"/>
<stop offset="0.369792" stop-color="#FBDD78"/>
<stop offset="1" stop-color="#BE9042"/>
</linearGradient>
<linearGradient id="paint23_linear_654_1445" x1="522.916" y1="102.605" x2="562.015" y2="102.605" gradientUnits="userSpaceOnUse">
<stop stop-color="#C59541"/>
<stop offset="0.369792" stop-color="#FBDD78"/>
<stop offset="1" stop-color="#BE9042"/>
</linearGradient>
<linearGradient id="paint24_linear_654_1445" x1="516.485" y1="112.559" x2="552.768" y2="112.559" gradientUnits="userSpaceOnUse">
<stop stop-color="#C59541"/>
<stop offset="0.369792" stop-color="#FBDD78"/>
<stop offset="1" stop-color="#BE9042"/>
</linearGradient>
<linearGradient id="paint25_linear_654_1445" x1="509.479" y1="117.297" x2="530.409" y2="117.297" gradientUnits="userSpaceOnUse">
<stop stop-color="#C59541"/>
<stop offset="0.369792" stop-color="#FBDD78"/>
<stop offset="1" stop-color="#BE9042"/>
</linearGradient>
<linearGradient id="paint26_linear_654_1445" x1="195.687" y1="137.618" x2="209.034" y2="137.618" gradientUnits="userSpaceOnUse">
<stop stop-color="#C59541"/>
<stop offset="0.369792" stop-color="#FBDD78"/>
<stop offset="1" stop-color="#BE9042"/>
</linearGradient>
<linearGradient id="paint27_linear_654_1445" x1="164.008" y1="126.501" x2="199.577" y2="126.501" gradientUnits="userSpaceOnUse">
<stop stop-color="#C59541"/>
<stop offset="0.369792" stop-color="#FBDD78"/>
<stop offset="1" stop-color="#BE9042"/>
</linearGradient>
<linearGradient id="paint28_linear_654_1445" x1="710.644" y1="99.1146" x2="750.889" y2="99.1146" gradientUnits="userSpaceOnUse">
<stop stop-color="#C59541"/>
<stop offset="0.369792" stop-color="#FBDD78"/>
<stop offset="1" stop-color="#BE9042"/>
</linearGradient>
<linearGradient id="paint29_linear_654_1445" x1="726.886" y1="100.918" x2="756.975" y2="100.918" gradientUnits="userSpaceOnUse">
<stop stop-color="#C59541"/>
<stop offset="0.369792" stop-color="#FBDD78"/>
<stop offset="1" stop-color="#BE9042"/>
</linearGradient>
<linearGradient id="paint30_linear_654_1445" x1="742.001" y1="104.153" x2="762.516" y2="104.153" gradientUnits="userSpaceOnUse">
<stop stop-color="#C59541"/>
<stop offset="0.369792" stop-color="#FBDD78"/>
<stop offset="1" stop-color="#BE9042"/>
</linearGradient>
<linearGradient id="paint31_linear_654_1445" x1="754.115" y1="107.576" x2="769.387" y2="107.576" gradientUnits="userSpaceOnUse">
<stop stop-color="#C59541"/>
<stop offset="0.369792" stop-color="#FBDD78"/>
<stop offset="1" stop-color="#BE9042"/>
</linearGradient>
<linearGradient id="paint32_linear_654_1445" x1="13.3188" y1="95.5921" x2="630.003" y2="95.5921" gradientUnits="userSpaceOnUse">
<stop stop-color="#C59541"/>
<stop offset="0.369792" stop-color="#FBDD78"/>
<stop offset="1" stop-color="#BE9042"/>
</linearGradient>
<linearGradient id="paint33_linear_654_1445" x1="432.876" y1="95.5921" x2="979.424" y2="95.5921" gradientUnits="userSpaceOnUse">
<stop stop-color="#C59541"/>
<stop offset="0.369792" stop-color="#FBDD78"/>
<stop offset="1" stop-color="#BE9042"/>
</linearGradient>
</defs>
</svg>
